<svg width="60" height="60" viewBox="0 0 60 60" fill="none" xmlns="http://www.w3.org/2000/svg">
<g clip-path="url(#clip0)">
<path d="M59.5156 24.1448L51.2844 11.9091C50.4432 10.6585 48.9087 10.1114 47.4656 10.548L44.6345 11.4047C40.4789 8.13175 35.3097 6.33569 30 6.33569C24.6903 6.33569 19.5209 8.13188 15.3653 11.405L12.5336 10.548C11.0905 10.1112 9.55594 10.6585 8.71465 11.9091L0.48322 24.1448C-0.178578 25.1286 -0.159644 26.4348 0.529931 27.3946C1.39763 28.6025 3.24887 30.8724 5.89942 32.505C6.10134 32.6293 6.30425 32.7461 6.50753 32.8587C7.18179 38.4495 9.82649 43.6052 14.004 47.439C18.3784 51.4534 24.0592 53.6641 29.9999 53.6641C35.94 53.6641 41.6204 51.4533 45.9945 47.439C50.1721 43.6051 52.8167 38.4495 53.4909 32.8588C53.6943 32.7461 53.8974 32.6294 54.0993 32.5049C56.7497 30.8724 58.6012 28.6024 59.4688 27.3946C60.1589 26.4346 60.1776 25.1286 59.5156 24.1448ZM41.8068 12.4252C41.5999 12.6388 41.4705 12.9239 41.4564 13.2349L41.2812 17.0891C41.2575 17.6133 41.5645 18.0961 42.0493 18.2966L44.5896 19.3477C45.023 19.5272 45.5206 19.4477 45.8765 19.1424L47.9357 17.3774C48.5952 18.5169 48.9196 19.9559 49.2359 21.3581C49.2836 21.5696 49.3308 21.779 49.3788 21.9864C48.5823 21.7907 47.8852 21.7877 47.3355 21.8545C46.2703 21.9839 45.2417 22.4321 44.368 23.1372C41.3049 21.9847 39.0101 22.4496 37.587 23.0798C36.7861 23.4344 36.1728 23.8741 35.7394 24.2526L34.2043 23.3638C35.2501 21.9051 35.8878 19.8882 35.8878 17.6274C35.8878 15.5289 35.3078 13.7722 34.2102 12.5472C33.1614 11.3766 31.6662 10.732 29.9997 10.732C28.3332 10.732 26.8379 11.3766 25.7891 12.5472C24.6916 13.7722 24.1115 15.529 24.1115 17.6274C24.1115 19.888 24.7493 21.9051 25.7951 23.3638L24.2599 24.2526C23.8264 23.8741 23.2132 23.4344 22.4122 23.0798C20.9889 22.4495 18.6942 21.9847 15.6313 23.1372C14.7574 22.432 13.7289 21.9839 12.6639 21.8545C12.1139 21.7877 11.4168 21.7907 10.6206 21.9864C10.6687 21.779 10.7159 21.5695 10.7634 21.358C11.0796 19.9558 11.4041 18.5169 12.0636 17.3774L14.1229 19.1424C14.4788 19.4476 14.9764 19.5269 15.4097 19.3476L17.9499 18.2965C18.4348 18.096 18.7418 17.613 18.718 17.089L18.5428 13.2348C18.5288 12.924 18.3995 12.639 18.1928 12.4255C21.665 10.0931 25.783 8.82693 30.0003 8.82693C34.2171 8.82693 38.3349 10.093 41.8068 12.4252ZM26.6027 17.6274C26.6027 14.8696 27.8725 13.2232 29.9997 13.2232C32.1268 13.2232 33.3965 14.8697 33.3965 17.6274C33.3965 20.6794 31.8409 23.2579 29.9997 23.2579C28.1584 23.2579 26.6027 20.6794 26.6027 17.6274ZM9.20542 34.0018C10.3102 34.3284 11.432 34.4924 12.5676 34.4923C13.4091 34.4923 14.2585 34.4002 15.1139 34.2204C15.8248 36.1071 17.3962 40.0379 19.007 42.4752C19.8372 43.7314 20.3906 45.1196 20.652 46.6008C20.8188 47.546 20.9413 48.4386 21.0291 49.1825C19.0954 48.2776 17.2936 47.0765 15.6886 45.6037C12.3125 42.5054 10.0554 38.4433 9.20542 34.0018ZM18.3519 31.4209L20.3996 35.33C20.5408 35.5995 20.7759 35.808 21.0602 35.9163C21.1286 35.9422 22.7559 36.5563 24.6875 36.8686C25.4335 36.9893 26.1252 37.0494 26.7618 37.0494C28.081 37.0494 29.1635 36.7908 29.9995 36.2755C31.2388 37.0395 33.0194 37.2393 35.3116 36.8686C37.2432 36.5563 38.8705 35.9423 38.9389 35.9163C39.2232 35.808 39.4583 35.5995 39.5995 35.33L41.6471 31.4211C42.1305 31.7215 42.6511 32.1614 42.8129 32.6416C42.3577 33.8904 40.6125 38.5312 38.9137 41.1016C37.8944 42.6439 37.2148 44.3484 36.8937 46.1679C36.6005 47.8288 36.4384 49.3127 36.3576 50.1993C36.0371 50.3001 35.7141 50.3935 35.3887 50.479L36.4552 44.1389C36.6553 42.9498 36.1965 41.7409 35.2579 40.9838L32.5767 38.8216C31.0835 37.6173 28.9155 37.6171 27.4225 38.8216L24.7412 40.9838C23.8026 41.7409 23.3437 42.9498 23.5439 44.1389L24.6105 50.4788C24.2851 50.3934 23.9622 50.3 23.6417 50.1992C23.5608 49.3126 23.3986 47.8288 23.1055 46.168C22.7847 44.3488 22.1049 42.6443 21.0855 41.1017C19.3889 38.5342 17.642 33.8907 17.1865 32.6414C17.3483 32.1607 17.8695 31.7208 18.3519 31.4209ZM27.2226 50.9902L26.0004 43.7254C25.9495 43.423 26.0661 43.1156 26.3049 42.923L28.9862 40.7608C29.5732 40.2873 30.4253 40.2872 31.0127 40.7608L33.6938 42.9229C33.9326 43.1155 34.0493 43.423 33.9984 43.7254L32.7763 50.9902C31.8612 51.1105 30.9343 51.1729 29.9998 51.1729C29.0652 51.173 28.1378 51.1105 27.2226 50.9902ZM44.3103 45.6037C42.7052 47.0768 40.9033 48.2778 38.9696 49.1828C39.0574 48.4399 39.1799 47.5478 39.3469 46.6008C39.6085 45.1193 40.1619 43.7312 40.992 42.4751C42.6027 40.0378 44.1742 36.107 44.8852 34.2203C45.7406 34.4001 46.5897 34.4922 47.4315 34.4922C48.567 34.4922 49.6887 34.3281 50.7934 34.0016C49.9434 38.4432 47.6864 42.5054 44.3103 45.6037ZM57.4459 25.9412C55.8133 28.2139 51.4215 33.1946 45.1368 31.7257C44.6762 30.4885 43.5931 29.6663 42.8063 29.2084L43.4537 27.9722C43.773 27.3627 43.5377 26.61 42.9282 26.2908C42.3187 25.9715 41.566 26.2069 41.2469 26.8162L37.6185 33.7432C35.811 34.3524 32.5777 35.0346 31.2452 34.1152V30C31.2452 29.312 30.6874 28.7544 29.9995 28.7544C29.3117 28.7544 28.7539 29.312 28.7539 30V34.1147C27.4244 35.0295 24.1886 34.3492 22.3802 33.7422L18.7521 26.816C18.4328 26.2067 17.6802 25.9714 17.0706 26.2906C16.4613 26.6099 16.2261 27.3626 16.5452 27.9721L17.1927 29.2083C16.4059 29.6661 15.3229 30.4884 14.8622 31.7255C8.57788 33.1952 4.18582 28.2139 2.55319 25.9411C2.46799 25.8225 2.46687 25.6594 2.55033 25.5353L10.7816 13.2997C11.0087 12.9621 11.423 12.8148 11.8119 12.9325L16.0939 14.2284L16.1895 16.3289L15.1636 16.7534L12.6782 14.623C12.1771 14.1937 11.4279 14.2294 10.9703 14.7048C9.32425 16.4141 8.79786 18.7495 8.33324 20.8099C8.07291 21.9641 7.82714 23.0543 7.42493 23.8587C7.1641 24.3804 7.30012 25.0131 7.75241 25.3816C8.20457 25.7499 8.85179 25.755 9.30993 25.3943C11.9566 23.309 13.7964 24.735 14.4643 25.4449C14.828 25.8311 15.396 25.9449 15.8804 25.728C17.928 24.8112 19.7497 24.671 21.2949 25.3111C22.4003 25.7691 22.988 26.4899 23.0396 26.5555C23.4107 27.0826 24.1085 27.2188 24.6673 26.8954L27.7107 25.1335C28.4113 25.5304 29.1834 25.7492 29.9995 25.7492C30.8157 25.7492 31.588 25.5304 32.2884 25.1335L35.3317 26.8954C35.8839 27.215 36.588 27.0659 36.9632 26.5501C36.9854 26.5197 39.2287 23.5386 44.1186 25.728C44.6029 25.9447 45.1711 25.8311 45.5348 25.4449C46.2028 24.7349 48.0423 23.3091 50.6892 25.3944C51.1473 25.7553 51.7945 25.75 52.2467 25.3817C52.699 25.0133 52.835 24.3805 52.5742 23.8588C52.172 23.0544 51.9262 21.9642 51.6659 20.81C51.2014 18.7495 50.6747 16.4141 49.0286 14.7048C48.5707 14.2294 47.8219 14.1934 47.3208 14.623L44.8355 16.7533L43.8095 16.3288L43.905 14.2283L48.1872 12.9324C48.5765 12.8148 48.9905 12.9621 49.2175 13.2996L57.4486 25.5353C57.5322 25.6595 57.531 25.8225 57.4459 25.9412Z" fill="#111111"/>
</g>
<defs>
<clipPath id="clip0">
<rect width="60" height="60" fill="white"/>
</clipPath>
</defs>
</svg>
