<svg width="60" height="60" viewBox="0 0 60 60" fill="none" xmlns="http://www.w3.org/2000/svg">
<g clip-path="url(#clip0)">
<path d="M56.3388 6.59349C51.4567 1.71135 43.5128 1.71135 38.6305 6.59349C36.2654 8.95857 34.963 12.103 34.963 15.4477C34.963 18.7923 36.2654 21.9368 38.6305 24.3018C39.8444 25.5158 41.264 26.4489 42.8104 27.0704C42.267 27.8269 41.7118 28.3777 41.2933 28.6862C39.487 30.0183 37.8866 31.5838 36.542 33.3162C36.3856 32.3798 36.1215 31.45 35.7466 30.5415C34.1705 26.7232 30.9669 23.9827 26.9571 23.0228L25.5001 22.674C25.4719 22.5538 25.4437 22.4337 25.4156 22.3119C23.7874 15.2637 17.8733 9.93625 10.6988 9.05522C10.0132 8.97109 9.38789 9.45893 9.30377 10.1452C9.21952 10.8313 9.70748 11.456 10.3937 11.5402C16.5276 12.2936 21.5841 16.8487 22.9763 22.8754C23.6157 25.6435 24.2613 28.0163 24.8951 29.9281C25.0693 30.4536 25.5583 30.7864 26.0832 30.7864C26.2137 30.7864 26.3466 30.7657 26.4773 30.7224C27.1335 30.5048 27.4891 29.7964 27.2715 29.1402C26.9113 28.0535 26.5457 26.8052 26.1786 25.4108L26.3742 25.4576C29.5937 26.2283 32.1663 28.4296 33.4323 31.4968C34.6705 34.4967 34.4122 37.7866 32.724 40.5224C32.6723 40.6061 32.6196 40.6891 32.5657 40.7715C32.1867 41.3498 32.3482 42.1257 32.9266 42.5046C33.1381 42.6433 33.3761 42.7096 33.6116 42.7096C34.0195 42.7096 34.4195 42.5104 34.6597 42.1437C34.7259 42.0427 34.7907 41.9408 34.8545 41.8377C35.5414 40.7247 36.0382 39.5387 36.3447 38.3164C37.7967 35.3683 40.0206 32.7357 42.7792 30.7014C43.6785 30.0384 44.598 28.9849 45.3388 27.7872C46.0407 27.9078 46.7579 27.9694 47.4846 27.9694C48.3298 27.9694 49.1622 27.8859 49.9725 27.7234C48.9301 31.4785 48.0562 34.7648 47.3701 37.5122C45.7678 43.9258 41.5295 52.1395 37.7736 54.1443C36.9928 54.5611 36.3135 54.6644 35.699 54.459C17.6221 46.1725 13.9814 37.5943 13.255 34.2886C13.1175 33.6625 12.5326 33.2491 11.9097 33.3113C8.88002 32.5463 6.26507 30.6741 4.53291 28.0251C2.73816 25.2804 2.10536 21.9906 2.75143 18.7618C2.88701 18.0838 2.44749 17.4243 1.7695 17.2886C1.09176 17.1533 0.431915 17.5926 0.296342 18.2706C-0.479167 22.1471 0.281195 26.0979 2.43747 29.3953C4.46319 32.493 7.49862 34.7061 11.0238 35.6671C11.6215 37.7393 12.9764 40.6758 16.0123 44.0567C20.2067 48.7275 26.4975 53.0015 34.7103 56.7601C34.7421 56.7748 34.7745 56.7879 34.8074 56.7997C35.3054 56.9789 35.8153 57.0683 36.3352 57.0683C37.1843 57.0683 38.0599 56.8295 38.9526 56.353C41.716 54.878 44.0704 51.3868 45.5588 48.7176C47.3923 45.4297 48.9379 41.5666 49.7991 38.119C50.5768 35.0053 51.5984 31.1902 52.8363 26.7754C54.1206 26.1676 55.3043 25.3364 56.3388 24.3019C61.2209 19.4196 61.2209 11.4758 56.3388 6.59349ZM47.4847 25.4656C44.8088 25.4656 42.2931 24.4236 40.401 22.5314C38.5089 20.6393 37.4668 18.1236 37.4668 15.4477C37.4668 12.7718 38.5089 10.256 40.401 8.36396C42.354 6.41097 44.9193 5.43442 47.4847 5.43442C50.0501 5.43442 52.6155 6.41097 54.5685 8.36383C58.4744 12.2699 58.4745 18.6255 54.5685 22.5314C52.6763 24.4236 50.1605 25.4656 47.4847 25.4656Z" fill="#111111"/>
<path d="M45.1651 13.1281C43.8862 14.407 43.8862 16.488 45.1651 17.7671C45.8045 18.4066 46.6445 18.7263 47.4845 18.7263C48.3245 18.7263 49.1644 18.4066 49.804 17.7671C51.0829 16.4881 51.0829 14.4071 49.804 13.1282C48.5252 11.8492 46.4442 11.8492 45.1651 13.1281ZM48.0336 15.9967C47.7308 16.2993 47.2382 16.2995 46.9355 15.9967C46.6327 15.6938 46.6327 15.2012 46.9355 14.8984C47.0869 14.7471 47.2858 14.6713 47.4847 14.6713C47.6835 14.6713 47.8824 14.747 48.0338 14.8984C48.3363 15.2012 48.3363 15.6938 48.0336 15.9967Z" fill="#111111"/>
<path d="M53.8844 9.04817C50.3558 5.51951 44.6142 5.51951 41.0856 9.04817C37.5569 12.5768 37.5569 18.3184 41.0856 21.847C42.8499 23.6113 45.1674 24.4935 47.4851 24.4935C49.8027 24.4935 52.1201 23.6113 53.8846 21.847C57.4131 18.3184 57.4131 12.5768 53.8844 9.04817ZM52.1141 20.0767C49.5616 22.6293 45.4085 22.6293 42.856 20.0767C40.3036 17.5242 40.3036 13.3711 42.856 10.8186C44.1323 9.54239 45.8086 8.90433 47.4851 8.90433C49.1615 8.90433 50.8378 9.54239 52.1141 10.8186C54.6666 13.371 54.6666 17.5242 52.1141 20.0767Z" fill="#111111"/>
</g>
<defs>
<clipPath id="clip0">
<rect width="60" height="60" fill="white" transform="translate(0.000244141)"/>
</clipPath>
</defs>
</svg>
