<svg width="60" height="60" viewBox="0 0 60 60" fill="none" xmlns="http://www.w3.org/2000/svg">
<path d="M45.5506 8.9172H40.3822V5.6051C40.3822 4.90153 39.8119 4.33121 39.1083 4.33121H35.3767C34.8386 1.85783 32.6322 0 30 0C27.3678 0 25.1614 1.85783 24.6233 4.33121H20.8917C20.1882 4.33121 19.6179 4.90153 19.6179 5.6051V8.9172H14.4494C12.3472 8.9172 10.637 10.6274 10.637 12.7297V56.1876C10.637 58.2898 12.3472 60 14.4494 60H45.5507C47.6529 60 49.3632 58.2898 49.3632 56.1875V12.7297C49.3631 10.6274 47.6529 8.9172 45.5506 8.9172ZM22.1656 6.87898H25.7719C26.4754 6.87898 27.0458 6.30866 27.0458 5.6051V5.50204C27.0458 3.87312 28.371 2.54777 30 2.54777C31.6291 2.54777 32.9543 3.87312 32.9543 5.50204V5.6051C32.9543 6.30866 33.5246 6.87898 34.2282 6.87898H37.8344V14.3949H22.1656V6.87898ZM39.1083 16.9427C39.7903 16.9427 40.3456 16.4062 40.379 15.7325H42.5478V53.1847H17.4522V15.7325H19.621C19.6544 16.4062 20.2097 16.9427 20.8917 16.9427H39.1083ZM46.8153 56.1875C46.8153 56.8848 46.2479 57.4522 45.5506 57.4522H14.4494C13.7521 57.4522 13.1847 56.8848 13.1847 56.1875V12.7297C13.1847 12.0324 13.7521 11.465 14.4494 11.465H19.6179V13.1847H16.1784C15.4748 13.1847 14.9045 13.755 14.9045 14.4586V54.4586C14.9045 55.1622 15.4748 55.7325 16.1784 55.7325H43.8217C44.5252 55.7325 45.0956 55.1622 45.0956 54.4586V14.4586C45.0956 13.755 44.5252 13.1847 43.8217 13.1847H40.3822V11.465H45.5506C46.2479 11.465 46.8153 12.0324 46.8153 12.7297V56.1875Z" fill="#111111"/>
<path d="M19.5542 25.0955C19.5542 25.7991 20.1245 26.3694 20.8281 26.3694H30.3822C31.0858 26.3694 31.6561 25.7991 31.6561 25.0955C31.6561 24.392 31.0858 23.8217 30.3822 23.8217H20.8281C20.1245 23.8217 19.5542 24.392 19.5542 25.0955Z" fill="#111111"/>
<path d="M30.3822 32.9299H20.8281C20.1245 32.9299 19.5542 33.5002 19.5542 34.2038C19.5542 34.9074 20.1245 35.4777 20.8281 35.4777H30.3822C31.0858 35.4777 31.6561 34.9074 31.6561 34.2038C31.6561 33.5002 31.0858 32.9299 30.3822 32.9299Z" fill="#111111"/>
<path d="M30.3822 42.0382H20.8281C20.1245 42.0382 19.5542 42.6085 19.5542 43.3121C19.5542 44.0157 20.1245 44.586 20.8281 44.586H30.3822C31.0858 44.586 31.6561 44.0157 31.6561 43.3121C31.6561 42.6085 31.0858 42.0382 30.3822 42.0382Z" fill="#111111"/>
<path d="M34.1402 8.91718H25.8599C25.1564 8.91718 24.5861 9.48749 24.5861 10.1911C24.5861 10.8946 25.1564 11.4649 25.8599 11.4649H34.1402C34.8438 11.4649 35.4141 10.8946 35.4141 10.1911C35.4141 9.48749 34.8438 8.91718 34.1402 8.91718Z" fill="#111111"/>
<path d="M35.387 25.9964C35.6358 26.2451 35.9618 26.3695 36.2878 26.3695C36.6138 26.3695 36.9399 26.245 37.1885 25.9964L40.7917 22.3933C41.2892 21.8958 41.2893 21.0892 40.7917 20.5918C40.2943 20.0942 39.4877 20.0943 38.9902 20.5918L36.2878 23.2941L35.3824 22.3886C34.885 21.8911 34.0784 21.8911 33.5808 22.3886C33.0832 22.886 33.0833 23.6927 33.5808 24.1902L35.387 25.9964Z" fill="#111111"/>
<path d="M35.387 35.1046C35.6358 35.3534 35.9618 35.4778 36.2878 35.4778C36.6138 35.4778 36.9399 35.3533 37.1885 35.1046L40.7917 31.5016C41.2892 31.0041 41.2893 30.1975 40.7917 29.7C40.2943 29.2025 39.4877 29.2026 38.9902 29.7L36.2878 32.4023L35.3824 31.4969C34.885 30.9994 34.0784 30.9994 33.5808 31.4969C33.0832 31.9943 33.0833 32.8009 33.5808 33.2985L35.387 35.1046Z" fill="#111111"/>
</svg>
