<svg width="60" height="60" viewBox="0 0 60 60" fill="none" xmlns="http://www.w3.org/2000/svg">
<g clip-path="url(#clip0)">
<path d="M29.9998 3.8728C23.3184 3.8728 17.8828 9.30843 17.8828 15.9896C17.8828 22.671 23.3184 28.1066 29.9998 28.1066C36.6811 28.1066 42.1168 22.671 42.1168 15.9896C42.1168 9.30843 36.6811 3.8728 29.9998 3.8728ZM23.8823 23.1016L24.3847 22.5991C24.9176 22.0662 24.9176 21.2022 24.3847 20.6693C23.8517 20.1364 22.9877 20.1364 22.4548 20.6693L22.0891 21.035C21.3887 19.9408 20.9081 18.6935 20.7121 17.3542H21.2766C22.0302 17.3542 22.6412 16.7433 22.6412 15.9896C22.6412 15.236 22.0302 14.6251 21.2766 14.6251H20.7121C20.9419 13.0543 21.5612 11.6084 22.4698 10.3897L22.8665 10.7865C23.133 11.053 23.4822 11.1862 23.8314 11.1862C24.1806 11.1862 24.5298 11.053 24.7961 10.7865C25.3291 10.2537 25.3291 9.38962 24.7963 8.85676L24.3995 8.45994C25.6182 7.55127 27.0642 6.93203 28.635 6.70224V7.26676C28.635 8.02041 29.246 8.63133 29.9995 8.63133C30.753 8.63133 31.3641 8.02041 31.3641 7.26676V6.70224C32.9349 6.93203 34.3807 7.55127 35.5994 8.45994L35.2026 8.85676C34.6698 9.38962 34.6698 10.2537 35.2026 10.7867C35.4691 11.0532 35.8183 11.1864 36.1675 11.1864C36.5167 11.1864 36.8659 11.0532 37.1324 10.7867L37.5292 10.3899C38.4379 11.6085 39.0571 13.0544 39.2869 14.6252H38.7224C37.9689 14.6252 37.3578 15.2361 37.3578 15.9898C37.3578 16.7434 37.9689 17.3543 38.7224 17.3543H39.2869C39.091 18.6937 38.6104 19.941 37.9099 21.0353L37.5441 20.6694C37.0111 20.1366 36.1471 20.1366 35.6142 20.6694C35.0813 21.2023 35.0813 22.0663 35.6142 22.5992L36.1168 23.1018C34.4723 24.5182 32.335 25.3776 29.9994 25.3776C27.6642 25.3776 25.5267 24.5182 23.8823 23.1016Z" fill="#111111"/>
<path d="M49.5557 7.96186H43.8318C40.9711 3.02975 35.746 0 30.0001 0C24.2542 0 19.0289 3.02975 16.1684 7.96186H10.4442C6.94077 7.96186 4.09045 10.812 4.09045 14.3156V53.6464C4.09045 57.1498 6.94077 60.0001 10.4442 60.0001H49.5557C53.0591 60.0001 55.9094 57.15 55.9094 53.6464V14.3154C55.9094 10.812 53.0591 7.96186 49.5557 7.96186ZM53.1803 53.6463C53.1803 55.6448 51.5544 57.2709 49.5557 57.2709H10.4442C8.44562 57.2709 6.81959 55.6448 6.81959 53.6463V14.3154C6.81959 12.3169 8.44548 10.6909 10.4442 10.6909H16.9776C17.4894 10.6909 17.9584 10.4043 18.1918 9.9488C20.4751 5.49553 24.9998 2.72914 30.0001 2.72914C35.0004 2.72914 39.5251 5.49553 41.8083 9.94894C42.0417 10.4044 42.5106 10.691 43.0224 10.691H49.5557C51.5543 10.691 53.1803 12.317 53.1803 14.3156V53.6463Z" fill="#111111"/>
<path d="M30.0001 9.77893C29.2466 9.77893 28.6355 10.3898 28.6355 11.1435V15.9896C28.6355 16.7433 29.2466 17.3542 30.0001 17.3542C30.7536 17.3542 31.3646 16.7433 31.3646 15.9896V11.1435C31.3646 10.3898 30.7536 9.77893 30.0001 9.77893Z" fill="#111111"/>
</g>
<defs>
<clipPath id="clip0">
<rect width="60" height="60" fill="white"/>
</clipPath>
</defs>
</svg>
