<svg width="60" height="60" viewBox="0 0 60 60" fill="none" xmlns="http://www.w3.org/2000/svg">
<path d="M19.0271 20.2333C19.2311 20.3529 19.4595 20.4128 19.6881 20.4128C19.9082 20.4128 20.1284 20.3572 20.3269 20.2461C23.267 18.5996 26.6118 17.7292 29.9999 17.7292C33.388 17.7292 36.7328 18.5995 39.6729 20.2461C40.0777 20.4728 40.5724 20.468 40.9728 20.2334C41.3731 19.9988 41.619 19.5696 41.619 19.1056V13.7375C41.619 9.19926 37.9268 5.50708 33.3885 5.50708H26.6113C22.073 5.50708 18.3809 9.19926 18.3809 13.7375V19.1058C18.3807 19.5695 18.6268 19.9988 19.0271 20.2333ZM20.9953 13.7373C20.9953 10.6405 23.5146 8.1214 26.6112 8.1214H33.3884C36.485 8.1214 39.0043 10.6407 39.0043 13.7373V16.9972C36.1791 15.7609 33.1052 15.1146 29.9998 15.1146C26.8944 15.1146 23.8206 15.7609 20.9953 16.9974V13.7373Z" fill="#111111"/>
<path d="M47.1258 23.0546V13.7373C47.1258 6.16256 40.9632 0 33.3884 0H26.6111C19.0364 0 12.8739 6.16256 12.8739 13.7373V23.0544C9.44172 27.1043 7.55713 32.2344 7.55713 37.5572C7.55713 49.9322 17.6248 60 29.9998 60C42.3747 60 52.4424 49.9323 52.4424 37.5572C52.4425 32.2344 50.5579 27.1043 47.1258 23.0546ZM29.9998 57.3854C19.0665 57.3854 10.1717 48.4905 10.1717 37.5572C10.1717 32.7063 11.9431 28.037 15.1594 24.4094C15.3714 24.1703 15.4886 23.8618 15.4886 23.5422V13.7373C15.4886 7.60424 20.4781 2.61458 26.6113 2.61458H33.3885C39.5217 2.61458 44.5113 7.60424 44.5113 13.7373V23.5422C44.5113 23.8618 44.6285 24.1703 44.8405 24.4094C48.0568 28.0369 49.8281 32.7063 49.8281 37.5572C49.8279 48.4905 40.933 57.3854 29.9998 57.3854Z" fill="#111111"/>
<path d="M34.5524 20.0446C33.0732 19.6615 31.5416 19.4673 30 19.4673C29.278 19.4673 28.6927 20.0526 28.6927 20.7746C28.6927 21.4966 29.278 22.0819 30 22.0819C31.3207 22.0819 32.6318 22.248 33.8971 22.5756C34.007 22.6041 34.1172 22.6177 34.2258 22.6177C34.8072 22.6177 35.3379 22.2268 35.4904 21.6379C35.6712 20.939 35.2513 20.2256 34.5524 20.0446Z" fill="#111111"/>
<path d="M39.5329 22.177C38.9193 21.7964 38.1134 21.9852 37.7329 22.5988C37.3523 23.2123 37.5412 24.0183 38.1548 24.3988C42.7508 27.2495 45.4947 32.1759 45.4947 37.5767C45.4947 38.2987 46.0799 38.884 46.8019 38.884C47.524 38.884 48.1092 38.2987 48.1092 37.5767C48.1094 31.2647 44.9032 25.5078 39.5329 22.177Z" fill="#111111"/>
<path d="M29.9996 53.0714C28.2205 53.0714 26.4767 52.7729 24.8168 52.1838C24.1366 51.9425 23.3891 52.2982 23.1475 52.9786C22.9061 53.6591 23.2619 54.4063 23.9424 54.6478C25.8837 55.3366 27.9216 55.6859 29.9994 55.6859C30.7214 55.6859 31.3067 55.1006 31.3067 54.3786C31.3067 53.6566 30.7216 53.0714 29.9996 53.0714Z" fill="#111111"/>
<path d="M21.3425 50.4293C17.0612 47.5393 14.5053 42.7346 14.5053 37.5768C14.5053 36.8548 13.9201 36.2695 13.198 36.2695C12.476 36.2695 11.8907 36.8548 11.8907 37.5768C11.8907 43.6047 14.8773 49.2194 19.8796 52.5963C20.1039 52.7477 20.3582 52.8202 20.6099 52.8202C21.0296 52.8202 21.4421 52.6184 21.6945 52.2442C22.0985 51.6459 21.9408 50.8333 21.3425 50.4293Z" fill="#111111"/>
</svg>
