<svg width="20" height="20" viewBox="0 0 20 20" fill="none" xmlns="http://www.w3.org/2000/svg">
<g clip-path="url(#clip0)">
<path d="M19.8387 8.04819L17.095 3.96962C16.8145 3.55275 16.3031 3.37039 15.822 3.51592L14.8783 3.8015C13.4931 2.7105 11.7701 2.11182 10.0002 2.11182C8.23028 2.11182 6.50713 2.71054 5.12192 3.80158L4.17803 3.51592C3.69701 3.37031 3.18548 3.55275 2.90505 3.96962L0.161236 8.04819C-0.0593631 8.37612 -0.053052 8.81151 0.176806 9.13146C0.466039 9.53409 1.08312 10.2907 1.96664 10.8349C2.03394 10.8764 2.10158 10.9153 2.16934 10.9528C2.39409 12.8164 3.27566 14.535 4.66818 15.8129C6.1263 17.1511 8.01989 17.888 10.0001 17.888C11.9802 17.888 13.8736 17.151 15.3317 15.8129C16.7242 14.535 17.6057 12.8164 17.8305 10.9529C17.8983 10.9153 17.966 10.8764 18.0333 10.8349C18.9167 10.2907 19.5339 9.53405 19.8231 9.13146C20.0531 8.81146 20.0593 8.37612 19.8387 8.04819ZM13.9358 4.14164C13.8668 4.21284 13.8237 4.30789 13.819 4.41156L13.7606 5.69629C13.7527 5.87101 13.855 6.03195 14.0166 6.0988L14.8634 6.44915C15.0078 6.50898 15.1737 6.48249 15.2923 6.38072L15.9787 5.79237C16.1985 6.1722 16.3067 6.65189 16.4121 7.11929C16.428 7.18979 16.4438 7.25959 16.4598 7.32872C16.1943 7.26349 15.9619 7.2625 15.7787 7.28475C15.4236 7.32789 15.0807 7.47728 14.7895 7.71233C13.7685 7.32814 13.0035 7.48314 12.5292 7.69319C12.2622 7.8114 12.0578 7.95797 11.9133 8.08411L11.4016 7.78786C11.7502 7.30161 11.9628 6.6293 11.9628 5.87571C11.9628 5.17621 11.7694 4.59064 11.4036 4.18233C11.054 3.79212 10.5556 3.57725 10.0001 3.57725C9.44455 3.57725 8.94614 3.79212 8.59653 4.18233C8.23069 4.59064 8.03733 5.17625 8.03733 5.87571C8.03733 6.62926 8.24992 7.30161 8.59852 7.78786L8.08678 8.08411C7.94229 7.95797 7.73788 7.8114 7.47091 7.69319C6.99645 7.48309 6.23156 7.32814 5.21061 7.71233C4.9193 7.47724 4.57646 7.32789 4.22146 7.28475C4.03814 7.2625 3.80575 7.26349 3.54035 7.32872C3.55638 7.25959 3.57212 7.18975 3.58798 7.11925C3.69336 6.65185 3.80152 6.1722 4.02137 5.79237L4.70779 6.38072C4.82641 6.48245 4.99229 6.50889 5.13674 6.44911L5.98347 6.09875C6.14511 6.03191 6.24742 5.87093 6.23949 5.69625L6.18111 4.41152C6.17642 4.30793 6.13332 4.21293 6.06444 4.14176C7.22182 3.36429 8.5945 2.94223 10.0003 2.94223C11.4059 2.94223 12.7785 3.36425 13.9358 4.14164ZM8.86774 5.87571C8.86774 4.95644 9.29101 4.40766 10.0001 4.40766C10.7091 4.40766 11.1323 4.95648 11.1323 5.87571C11.1323 6.89304 10.6138 7.75256 10.0001 7.75256C9.3863 7.75256 8.86774 6.89304 8.86774 5.87571ZM3.06864 11.3338C3.43688 11.4427 3.81082 11.4974 4.18936 11.4974C4.46988 11.4974 4.75301 11.4667 5.03813 11.4067C5.27509 12.0356 5.79891 13.3459 6.33581 14.1583C6.61255 14.5771 6.79703 15.0398 6.88418 15.5335C6.93977 15.8486 6.98059 16.1461 7.00986 16.3941C6.36529 16.0924 5.7647 15.6921 5.2297 15.2012C4.10433 14.1684 3.35197 12.8143 3.06864 11.3338ZM6.11746 10.4735L6.80002 11.7766C6.8471 11.8664 6.92545 11.9359 7.02024 11.972C7.04304 11.9807 7.58546 12.1853 8.22932 12.2894C8.47799 12.3297 8.70855 12.3497 8.92077 12.3497C9.36051 12.3497 9.72133 12.2635 10 12.0918C10.4131 12.3464 11.0066 12.413 11.7707 12.2894C12.4146 12.1853 12.957 11.9807 12.9798 11.972C13.0746 11.9359 13.1529 11.8664 13.2 11.7766L13.8825 10.4736C14.0437 10.5738 14.2172 10.7204 14.2711 10.8804C14.1194 11.2967 13.5377 12.8437 12.9714 13.7004C12.6316 14.2145 12.4051 14.7827 12.2981 15.3892C12.2003 15.9428 12.1463 16.4375 12.1194 16.733C12.0125 16.7666 11.9049 16.7978 11.7964 16.8262L12.1519 14.7129C12.2186 14.3165 12.0657 13.9136 11.7528 13.6612L10.8591 12.9404C10.3613 12.539 9.63866 12.5389 9.14099 12.9404L8.24722 13.6612C7.93436 13.9136 7.7814 14.3165 7.84812 14.7129L8.20366 16.8262C8.09521 16.7977 7.98755 16.7666 7.88072 16.733C7.85377 16.4374 7.79971 15.9428 7.70201 15.3892C7.59505 14.7828 7.36848 14.2147 7.02867 13.7005C6.46312 12.8447 5.88083 11.2968 5.72899 10.8804C5.78293 10.7202 5.95665 10.5735 6.11746 10.4735ZM9.07435 16.9966L8.66695 14.5751C8.65001 14.4743 8.68887 14.3718 8.76847 14.3076L9.66224 13.5868C9.85789 13.429 10.1419 13.429 10.3377 13.5868L11.2314 14.3076C11.311 14.3717 11.3499 14.4743 11.333 14.5751L10.9256 16.9966C10.6206 17.0367 10.3116 17.0575 10.0001 17.0575C9.68857 17.0576 9.37945 17.0367 9.07435 16.9966ZM14.7703 15.2012C14.2352 15.6922 13.6346 16.0925 12.99 16.3942C13.0193 16.1465 13.0601 15.8492 13.1158 15.5335C13.203 15.0397 13.3875 14.577 13.6642 14.1583C14.2011 13.3459 14.7249 12.0356 14.9619 11.4067C15.247 11.4666 15.5301 11.4973 15.8107 11.4973C16.1892 11.4973 16.5631 11.4426 16.9313 11.3338C16.648 12.8143 15.8956 14.1684 14.7703 15.2012ZM19.1488 8.647C18.6046 9.40454 17.1407 11.0648 15.0458 10.5751C14.8922 10.1628 14.5312 9.88868 14.2689 9.73605L14.4847 9.324C14.5912 9.12083 14.5127 8.86993 14.3096 8.76351C14.1064 8.65709 13.8555 8.73556 13.7491 8.93864L12.5397 11.2476C11.9372 11.4507 10.8594 11.6781 10.4152 11.3717V9.99991C10.4152 9.77059 10.2293 9.5847 10 9.5847C9.77074 9.5847 9.58481 9.77059 9.58481 9.99991V11.3715C9.14161 11.6764 8.06303 11.4496 7.46024 11.2473L6.25086 8.9386C6.14445 8.73548 5.89358 8.65705 5.69038 8.76347C5.48726 8.86988 5.40887 9.12079 5.51524 9.32395L5.73107 9.736C5.46878 9.88863 5.1078 10.1627 4.95422 10.5751C2.85946 11.065 1.39544 9.40455 0.851226 8.64696C0.822826 8.60743 0.822453 8.55304 0.850271 8.51169L3.59404 4.43315C3.66973 4.32063 3.80783 4.27151 3.93746 4.31075L5.36481 4.74273L5.39666 5.44289L5.05469 5.5844L4.22623 4.87427C4.0592 4.73115 3.80945 4.74306 3.65694 4.90151C3.10825 5.47129 2.93278 6.24976 2.77791 6.93656C2.69113 7.32129 2.60921 7.68468 2.47514 7.95282C2.3882 8.12671 2.43354 8.33763 2.5843 8.46045C2.73502 8.58323 2.95076 8.58493 3.10347 8.46468C3.9857 7.76959 4.59896 8.24491 4.8216 8.48154C4.94284 8.6103 5.13217 8.64821 5.29365 8.57592C5.97616 8.27033 6.5834 8.22357 7.09847 8.43695C7.46692 8.58962 7.66281 8.8299 7.68005 8.85174C7.80374 9.02745 8.03633 9.07284 8.2226 8.96505L9.23707 8.37774C9.47058 8.51007 9.72797 8.58298 10 8.58298C10.2721 8.58298 10.5295 8.51007 10.763 8.37774L11.7774 8.96505C11.9614 9.07159 12.1962 9.02189 12.3212 8.84995C12.3286 8.83982 13.0764 7.84611 14.7064 8.57592C14.8678 8.64816 15.0572 8.6103 15.1784 8.48154C15.4011 8.24487 16.0143 7.76963 16.8966 8.46473C17.0493 8.58501 17.265 8.58327 17.4157 8.46049C17.5665 8.33767 17.6118 8.12675 17.5249 7.95286C17.3908 7.68472 17.3089 7.32133 17.2221 6.9366C17.0673 6.24976 16.8917 5.47129 16.343 4.90151C16.1904 4.74306 15.9408 4.73106 15.7738 4.87427L14.9453 5.58435L14.6033 5.44285L14.6352 4.74269L16.0626 4.31071C16.1923 4.27151 16.3303 4.32063 16.406 4.43311L19.1497 8.51169C19.1776 8.55308 19.1772 8.60743 19.1488 8.647Z" fill="#111111"/>
</g>
<defs>
<clipPath id="clip0">
<rect width="20" height="20" fill="white"/>
</clipPath>
</defs>
</svg>
