<svg width="32" height="32" viewBox="0 0 32 32" fill="none" xmlns="http://www.w3.org/2000/svg">
<g clip-path="url(#clip0)">
<path d="M30.0959 21.6896L31.9718 9.7116C32.1669 8.4961 31.3398 7.35242 30.1243 7.15679L4.81111 3.09393C3.59561 2.89886 2.45198 3.72592 2.25692 4.94142L1.35742 10.5431V21.6199L30.0959 21.6896Z" fill="#286CDD"/>
<path d="M30.1238 7.15704L22.9343 6.00342C18.1056 13.3918 10.2997 18.5092 4.31348 21.6274L30.0954 21.6899L31.9713 9.71185C32.1664 8.49629 31.3393 7.35267 30.1238 7.15704Z" fill="#1E61D0"/>
<path d="M2.22931 9.98584H27.8663C29.0974 9.98584 30.0956 10.984 30.0956 12.2151V26.7056C30.0956 27.9367 29.0974 28.9349 27.8663 28.9349H2.22931C0.998186 28.9349 0 27.9367 0 26.7056V12.2151C0 10.984 0.998186 9.98584 2.22931 9.98584Z" fill="#4285F4"/>
<path d="M27.8661 9.98584H27.4202C22.1591 19.3261 12.3284 25.7331 6.32715 28.9349H27.8661C29.0972 28.9349 30.0954 27.9367 30.0954 26.7056V12.2151C30.0954 10.984 29.0972 9.98584 27.8661 9.98584Z" fill="#2E76ED"/>
<path d="M8.36035 12.7725H2.78711V17.2311H8.36035V12.7725Z" fill="#FBBC04"/>
<path d="M4.45911 14.4443H2.78711V15.559H4.45911V14.4443Z" fill="#FD7B2F"/>
<path d="M8.36047 14.4443H6.68848V15.559H8.36047V14.4443Z" fill="#FD7B2F"/>
<path d="M24.522 26.1479C26.061 26.1479 27.3086 24.9003 27.3086 23.3613C27.3086 21.8223 26.061 20.5747 24.522 20.5747C22.983 20.5747 21.7354 21.8223 21.7354 23.3613C21.7354 24.9003 22.983 26.1479 24.522 26.1479Z" fill="#FBBC04"/>
<path d="M21.1782 26.1479C22.7172 26.1479 23.9648 24.9003 23.9648 23.3613C23.9648 21.8223 22.7172 20.5747 21.1782 20.5747C19.6392 20.5747 18.3916 21.8223 18.3916 23.3613C18.3916 24.9003 19.6392 26.1479 21.1782 26.1479Z" fill="#EA4335"/>
<path d="M5.57342 21.1323H2.22949V22.2469H5.57342V21.1323Z" fill="white"/>
<path d="M11.1467 21.1323H7.80273V22.2469H11.1467V21.1323Z" fill="white"/>
<path d="M16.7199 21.1323H13.376V22.2469H16.7199V21.1323Z" fill="white"/>
<path d="M16.72 24.4761H2.22949V25.5907H16.72V24.4761Z" fill="white"/>
<path d="M20.6215 12.7725H19.5068V15.0018H20.6215V12.7725Z" fill="white"/>
<path d="M22.8509 12.7725H21.7363V15.0018H22.8509V12.7725Z" fill="white"/>
<path d="M25.0804 12.7725H23.9658V15.0018H25.0804V12.7725Z" fill="white"/>
<path d="M27.309 12.7725H26.1943V15.0018H27.309V12.7725Z" fill="white"/>
</g>
<defs>
<clipPath id="clip0">
<rect width="32" height="32" fill="white"/>
</clipPath>
</defs>
</svg>
