<svg width="20" height="20" viewBox="0 0 20 20" fill="none" xmlns="http://www.w3.org/2000/svg">
<g clip-path="url(#clip0)">
<path d="M18.7795 2.19807C17.1521 0.570694 14.5041 0.570694 12.8767 2.19807C12.0884 2.98644 11.6542 4.03459 11.6542 5.14947C11.6542 6.26435 12.0884 7.31251 12.8767 8.10083C13.2814 8.50551 13.7545 8.81655 14.27 9.02372C14.0889 9.27588 13.9038 9.45949 13.7643 9.5623C13.1622 10.0063 12.6287 10.5282 12.1805 11.1056C12.1284 10.7935 12.0404 10.4836 11.9154 10.1807C11.39 8.90797 10.3222 7.99447 8.98557 7.6745L8.4999 7.55825C8.49052 7.51819 8.48113 7.47813 8.47174 7.43753C7.92903 5.08813 5.95764 3.31233 3.56615 3.01865C3.3376 2.99061 3.12917 3.15322 3.10113 3.38197C3.07305 3.61068 3.23571 3.8189 3.46446 3.84699C5.50907 4.0981 7.19458 5.61649 7.65863 7.62539C7.87178 8.54807 8.08697 9.33902 8.29823 9.97628C8.35632 10.1515 8.51931 10.2624 8.69427 10.2624C8.73779 10.2624 8.78207 10.2555 8.82563 10.241C9.04437 10.1685 9.16292 9.93239 9.09039 9.71365C8.9703 9.35141 8.84846 8.9353 8.72607 8.4705L8.79129 8.4861C9.86444 8.74302 10.722 9.47676 11.144 10.4992C11.5567 11.4991 11.4706 12.5958 10.9079 13.5077C10.8907 13.5356 10.8731 13.5633 10.8551 13.5907C10.7288 13.7835 10.7826 14.0421 10.9754 14.1685C11.0459 14.2147 11.1252 14.2368 11.2037 14.2368C11.3397 14.2368 11.473 14.1704 11.5531 14.0482C11.5752 14.0145 11.5968 13.9805 11.618 13.9461C11.847 13.5751 12.0126 13.1798 12.1148 12.7724C12.5988 11.7897 13.3401 10.9122 14.2596 10.234C14.5594 10.013 14.8659 9.66187 15.1128 9.26266C15.3468 9.30284 15.5859 9.32337 15.8281 9.32337C16.1098 9.32337 16.3873 9.29554 16.6574 9.24137C16.3099 10.4931 16.0186 11.5885 15.7899 12.5043C15.2558 14.6422 13.8431 17.3801 12.5911 18.0483C12.3308 18.1873 12.1044 18.2217 11.8995 18.1532C5.8739 15.3911 4.66033 12.5317 4.41823 11.4298C4.37237 11.2211 4.17742 11.0833 3.96978 11.104C2.95989 10.849 2.08824 10.2249 1.51085 9.34194C0.912599 8.42706 0.701666 7.33046 0.917022 6.25417C0.962213 6.02818 0.815707 5.80835 0.58971 5.76312C0.363796 5.71801 0.14385 5.86444 0.0986587 6.09043C-0.159844 7.38262 0.0936096 8.69954 0.812369 9.79869C1.48761 10.8312 2.49942 11.5689 3.67447 11.8893C3.87372 12.58 4.32534 13.5589 5.33732 14.6858C6.73545 16.2427 8.83239 17.6674 11.57 18.9203C11.5806 18.9252 11.5914 18.9295 11.6024 18.9335C11.7684 18.9932 11.9383 19.023 12.1116 19.023C12.3946 19.023 12.6865 18.9434 12.9841 18.7846C13.9052 18.2929 14.69 17.1292 15.1861 16.2394C15.7973 15.1435 16.3125 13.8558 16.5996 12.7066C16.8588 11.6687 17.1993 10.397 17.612 8.92537C18.0401 8.72278 18.4346 8.44571 18.7795 8.10087C20.4069 6.47345 20.4069 3.8255 18.7795 2.19807ZM15.8281 8.48877C14.9362 8.48877 14.0976 8.14143 13.4669 7.51072C12.8362 6.88001 12.4888 6.04145 12.4888 5.14947C12.4888 4.2575 12.8362 3.4189 13.4669 2.78823C14.1179 2.13724 14.973 1.81172 15.8281 1.81172C16.6832 1.81172 17.5384 2.13724 18.1894 2.78819C19.4914 4.09022 19.4914 6.20873 18.1894 7.51072C17.5587 8.14143 16.7201 8.48877 15.8281 8.48877Z" fill="#111111"/>
<path d="M15.0551 4.37635C14.6288 4.80264 14.6288 5.49633 15.0551 5.9227C15.2682 6.13585 15.5482 6.24242 15.8282 6.24242C16.1082 6.24242 16.3882 6.13585 16.6014 5.9227C17.0277 5.49637 17.0277 4.80269 16.6014 4.3764C16.1751 3.95006 15.4814 3.95006 15.0551 4.37635ZM16.0113 5.33254C15.9103 5.43344 15.7461 5.43348 15.6452 5.33254C15.5443 5.23161 15.5443 5.06741 15.6452 4.96647C15.6957 4.91602 15.762 4.89077 15.8283 4.89077C15.8945 4.89077 15.9609 4.91598 16.0113 4.96647C16.1122 5.06741 16.1122 5.23161 16.0113 5.33254Z" fill="#111111"/>
<path d="M17.9614 3.01644C16.7852 1.84022 14.8714 1.84022 13.6952 3.01644C12.5189 4.19266 12.5189 6.1065 13.6952 7.28272C14.2833 7.87083 15.0558 8.16489 15.8283 8.16489C16.6009 8.16489 17.3733 7.87083 17.9615 7.28272C19.1377 6.1065 19.1377 4.19266 17.9614 3.01644ZM17.3713 6.69261C16.5205 7.54348 15.1361 7.54348 14.2853 6.69261C13.4345 5.84178 13.4345 4.45742 14.2853 3.6066C14.7107 3.18118 15.2695 2.9685 15.8283 2.9685C16.3871 2.9685 16.9459 3.18118 17.3713 3.6066C18.2221 4.45738 18.2221 5.84178 17.3713 6.69261Z" fill="#111111"/>
</g>
<defs>
<clipPath id="clip0">
<rect width="20" height="20" fill="white"/>
</clipPath>
</defs>
</svg>
