<svg width="80" height="80" viewBox="0 0 80 80" fill="none" xmlns="http://www.w3.org/2000/svg">
<g clip-path="url(#clip0)">
<path d="M9.10853 61.0882C8.92488 61.0147 8.77795 60.978 8.5943 60.9045C8.77795 61.0147 8.92488 61.0515 9.10853 61.0882ZM30.4125 65.9734C30.339 65.8632 30.3023 65.753 30.1921 65.6061C29.2371 64.7246 28.5759 63.7328 27.474 62.9615C27.4005 62.9248 27.3638 62.888 27.2903 62.8513C26.2252 62.0799 25.3069 61.6024 25.3069 61.6024C25.3803 61.6024 23.6173 63.1451 23.9478 65.4225C25.16 66.6713 26.4088 67.1121 27.3638 67.5528C26.4088 67.6263 24.3886 66.7448 24.4253 66.7815C22.4051 65.9 20.4951 64.8348 18.732 63.5859C19.3932 63.1084 20.2013 62.2636 19.9809 60.978C19.5401 58.3701 17.373 55.9459 17.373 55.9091C17.4097 55.9459 15.2426 56.8274 14.7651 59.068C15.3895 60.2067 16.0139 61.1984 16.9322 62.1901C13.553 59.8761 11.496 56.5703 10.5778 55.1378C11.2389 54.9541 12.0837 54.5134 12.451 53.5584C12.4878 53.4482 12.5245 53.338 12.5612 53.2278C12.1572 51.8687 12.4878 50.9137 12.5245 49.6649C12.4878 49.5547 12.4878 49.4078 12.451 49.2976C12.2674 48.4895 12.0837 47.9385 12.0837 47.9018C12.1205 47.9385 9.99007 48.0487 8.77795 49.8485C8.99834 51.2076 9.14526 52.787 9.95334 54.0359C9.95334 54.0359 8.37391 51.5382 7.38218 48.7466C6.86794 47.3141 6.42717 45.8816 6.0966 44.4491C6.83121 44.5225 7.96987 44.4491 8.66776 43.4206C10.0268 41.4371 10.0635 38.5354 10.1003 38.4987C10.1003 38.5354 8.77795 38.5354 7.34545 39.3802C7.23525 39.5271 7.12506 39.6741 7.01487 39.8577C6.24352 40.9596 6.09659 42.282 6.05986 43.5675C6.05986 43.5675 6.05986 43.5675 6.02313 43.5675C5.65582 43.2737 5.58236 41.0698 5.54563 41.1066C5.28851 38.4987 5.36198 35.8908 5.80275 33.3196C5.83948 33.3563 6.97814 34.0175 8.1168 33.7604C8.19026 33.7604 8.26372 33.7237 8.33718 33.6869C9.21873 33.0992 9.5493 31.8136 10.4676 31.2994C10.5043 31.2259 10.541 31.1525 10.5778 31.079C11.2022 29.7934 11.496 28.5813 11.5328 28.5813C11.5328 28.5813 11.3491 28.6181 11.0185 28.6548C10.9451 28.6548 10.8349 28.6915 10.7614 28.6915C9.58603 28.8384 8.5943 29.8302 7.74949 29.8669C7.67603 29.9036 7.60256 29.9771 7.5291 30.0138C7.38218 30.124 7.23525 30.2342 7.08833 30.3444C6.72102 30.6383 6.4639 30.9688 6.28025 31.2994C6.68429 29.7934 7.19852 28.2875 7.85968 26.8182C8.08007 26.7448 8.92488 26.4509 9.6595 25.6796C9.69623 25.6428 9.76969 25.5694 9.80642 25.5327C10.2839 24.2838 10.9451 23.3288 11.1655 22.3003C11.2022 22.1534 11.2022 22.0432 11.2389 21.933C11.3491 21.2351 11.3491 20.8311 11.3491 20.8311C11.3858 20.7944 8.37391 21.3821 7.19852 23.843C6.94141 24.394 6.86794 24.8715 6.90468 25.2755C7.89641 24.2838 8.77795 23.1819 9.87988 22.3003C8.81468 23.6594 8.0066 25.2388 7.08833 26.708C4.81101 30.6015 4.59063 36.0377 4.37024 36.001C4.37024 36.001 4.37024 36.001 4.33351 36.001C4.18659 35.0092 4.29678 34.0175 4.18659 33.0258C4.14986 32.8421 4.11312 32.6585 4.07639 32.4748C2.82754 31.079 1.17465 30.7852 1.13792 30.8219C1.02773 30.8219 0.256376 34.7521 1.79908 36.809C2.60716 37.911 3.78255 37.6906 4.40697 37.4702C4.40697 37.6171 4.40697 37.7273 4.40697 37.8742C4.4437 37.8375 4.48043 37.8008 4.51716 37.7641C4.59063 37.8742 4.62736 37.9477 4.66409 37.9844C4.5539 38.0212 4.48043 38.0579 4.40697 38.0579C4.40697 38.0579 4.40697 38.0579 4.37024 38.0579C4.33351 39.3435 4.37024 40.6658 4.48043 41.9514C4.62736 42.0248 4.81101 42.135 4.95794 42.2085C4.92121 42.282 4.92121 42.3187 4.88447 42.3922C4.77428 42.3922 4.62736 42.4656 4.5539 42.4289C4.51716 42.3922 4.51716 42.3922 4.48043 42.3554C4.5539 43.237 4.70082 44.0818 4.84774 44.9266C5.06813 45.8816 5.28851 46.5427 5.5089 47.4978C5.5089 47.5345 5.47217 47.5345 5.47217 47.4978C4.9212 45.9918 2.46023 44.0083 -0.0742028 44.1552C-0.110934 44.1552 0.109452 45.2204 0.623685 46.4693C0.623685 46.3958 0.660416 46.3591 0.660416 46.2856C0.733878 46.4326 0.844071 46.5427 0.917533 46.7264C0.880802 46.7999 0.844071 46.8733 0.80734 46.9101C1.32157 47.9753 2.05619 49.0772 3.08466 49.7383C4.37024 50.5464 5.5089 49.8485 6.02313 49.371C6.79448 51.5014 7.78622 53.5951 9.0718 55.6153C9.10853 55.652 10.2472 57.158 10.7247 58.1497C10.7247 58.1497 10.7247 58.1865 10.688 58.1497C8.41064 54.6603 3.85601 56.6805 3.85601 56.7172C3.81928 56.7172 4.11312 57.1947 4.62736 57.8191C4.70082 57.8926 4.77428 58.0028 4.84774 58.113C5.36198 59.4353 6.68429 59.9128 7.78622 60.4638C7.89641 60.5005 7.96987 60.574 8.08007 60.6107C8.22699 60.7209 8.33718 60.8311 8.48411 60.8678C8.63103 60.7209 8.74122 60.4638 8.88815 60.427C9.25546 60.3536 9.5493 60.5372 9.47584 61.0515L9.43911 61.0882C10.6512 61.0515 11.9001 60.023 13.1122 60.7209C13.1857 60.7944 13.2959 60.9045 13.3693 60.978C14.6549 62.2636 16.0139 63.439 17.4832 64.5042C18.5117 64.8348 19.4667 65.3123 20.3849 66.0102V66.0469C15.6834 63.5492 12.3041 67.1855 12.3409 67.2223C12.3041 67.259 13.8836 68.4344 15.9405 69.169C15.9405 69.1323 15.9038 69.0588 15.867 68.9854C15.9405 68.9486 16.0507 68.8752 16.1241 68.8017C16.1241 68.8752 16.1976 68.9486 16.1609 68.9854C16.1241 69.0588 16.0507 69.1323 15.9772 69.2057C16.1976 69.2792 16.4547 69.3894 16.7118 69.4629C16.7853 69.4996 16.8588 69.4996 16.969 69.5363C18.4015 69.9771 19.7238 70.3077 21.1195 69.2792C21.2297 69.2057 21.3399 69.0955 21.4134 69.0221C21.9276 68.4711 22.0746 67.7365 22.0746 67.2957C22.4051 67.4794 22.7357 67.663 23.0663 67.8467C23.1765 67.81 23.3234 67.7732 23.4336 67.7365C23.4703 67.7365 23.5071 67.81 23.5805 67.8467C23.4703 67.8834 23.3969 67.9202 23.3234 67.9569H23.2867C25.4538 68.9854 28.0984 69.6832 29.9717 70.1607C29.9717 70.1607 29.9717 70.1607 29.9717 70.124C29.9717 70.0873 30.1186 70.0506 30.1186 70.0506C30.1554 70.0873 30.1921 70.124 30.1921 70.1975C31.1471 70.4546 31.8817 70.6015 32.1388 70.7117V70.7484C26.3353 70.0506 24.6825 74.3848 24.7192 74.4215C24.6825 74.4583 26.4455 74.9358 28.6127 75.046C28.6494 74.9725 28.7596 74.8623 28.9065 74.7888C29.2738 74.6052 29.6411 74.2746 30.0084 74.8256C30.0452 74.899 30.0819 74.9725 30.1186 75.046C30.7798 75.0092 31.4777 74.9358 32.1021 74.7888C32.1756 74.7521 32.249 74.7521 32.3592 74.7154C33.4611 74.2746 34.4529 73.6135 35.0038 73.0992C35.0773 72.989 35.114 72.9156 35.1508 72.8054C35.4079 72.1075 35.1875 71.3729 35.0406 70.9321C36.1792 71.0423 37.3546 71.079 38.53 71.079C38.5667 71.079 38.5667 71.079 38.6035 71.079C38.9708 71.0423 32.9836 70.0138 30.0452 68.6915C30.5227 67.9936 30.9267 67.0019 30.4125 65.9734ZM24.7192 64.6878C24.6825 64.6511 24.6457 64.5776 24.6457 64.5409C24.7559 64.394 24.8661 64.2838 25.013 64.1369C25.013 64.1369 25.1232 64.2103 25.2334 64.3205C25.0498 64.4674 24.9028 64.5776 24.7192 64.6878ZM11.9368 52.383C12.0837 52.4197 12.1939 52.5299 12.451 52.7135C12.2307 52.8237 12.1205 52.8972 12.047 52.8972C11.8634 52.8237 11.7532 52.7135 11.5695 52.6401C11.7164 52.5299 11.8634 52.383 11.9368 52.383ZM10.2839 55.0643C10.1737 54.9174 10.0268 54.8072 9.91661 54.6603C9.91661 54.6603 9.99007 54.5868 10.0268 54.5501C10.137 54.697 10.2839 54.8439 10.3941 54.9541C10.3574 54.9909 10.3207 55.0276 10.2839 55.0643ZM7.01487 59.5822C6.94141 59.5822 6.90468 59.5455 6.86794 59.5088C6.83121 59.472 6.86794 59.4353 6.90468 59.3986C6.97814 59.4353 7.08833 59.472 7.16179 59.5088C7.08833 59.5455 7.01487 59.5822 7.01487 59.5822ZM9.43911 59.2149C9.18199 58.9211 8.99834 58.7742 8.96161 58.5905C8.92488 58.4803 9.14526 58.3334 9.25546 58.2232C9.40238 58.3334 9.62276 58.4068 9.6595 58.517C9.6595 58.664 9.5493 58.8476 9.43911 59.2149ZM16.8955 61.6392C16.822 61.6392 16.7118 61.6024 16.4915 61.529C16.7853 61.4188 16.8588 61.382 16.9322 61.3453C16.969 61.4188 17.0057 61.4922 17.0057 61.529C17.0424 61.5657 16.969 61.6392 16.8955 61.6392ZM14.9488 66.0102C14.8753 65.9734 14.8018 65.9 14.7651 65.8265C14.7651 65.8265 14.8386 65.7163 14.8753 65.7163C14.9488 65.753 15.0222 65.7898 15.0957 65.8632C15.0222 65.9 14.9855 65.9367 14.9488 66.0102ZM79.9992 44.1552C77.4648 44.0083 75.0038 45.9918 74.4529 47.4978C74.4529 47.5345 74.4161 47.4978 74.4161 47.4978C74.6365 46.5427 74.8569 45.8449 75.0773 44.9266C75.5548 42.4656 75.7385 39.9679 75.5915 37.4702C76.2527 37.6906 77.3913 37.911 78.1994 36.809C78.3831 36.5519 78.53 36.2581 78.6769 35.9642C78.7137 35.8908 78.7504 35.8173 78.7504 35.7439C78.8239 34.2012 79.485 32.5483 78.934 31.0423C78.8973 30.9321 78.8973 30.8586 78.8973 30.8586C78.8606 30.8219 77.2077 31.1158 75.9588 32.5115C75.9221 32.6952 75.8486 32.8788 75.8486 33.0625C75.7385 34.0542 75.8486 35.046 75.7017 36.0377C75.7017 36.0377 75.7017 36.0377 75.665 36.0377C75.4079 36.0744 75.2242 30.6383 72.9469 26.7448C72.3592 25.7898 71.8082 24.798 71.2206 23.843C71.1471 23.7328 71.0736 23.6226 71.0369 23.5124C70.9634 23.0349 70.7063 22.9982 70.4125 22.7778C70.4125 22.7778 70.4125 22.7778 70.3757 22.7778C70.3757 22.7411 70.3757 22.7411 70.339 22.7044C70.3023 22.6676 70.3023 22.6676 70.2655 22.6309H70.3023V22.5942C70.3757 22.5207 70.4492 22.484 70.5594 22.4473C70.5594 22.484 70.5961 22.5574 70.5961 22.5574C70.5594 22.5942 70.5594 22.5942 70.5227 22.5942C70.743 22.5942 70.9267 22.6676 70.9267 22.9248C71.0002 22.9982 71.1104 23.1084 71.1838 23.1819C71.845 23.843 72.4327 24.5409 73.0938 25.2021C73.1306 24.798 73.0938 24.3205 72.8 23.7696C71.5879 21.3086 68.6126 20.7576 68.6494 20.7576C68.6494 20.7576 68.6494 20.9413 68.6494 21.2719C68.6494 21.3453 68.6494 21.4555 68.6861 21.529C68.9065 22.888 69.5677 23.8798 69.8982 25.0551C69.935 25.1286 69.9717 25.2021 70.0452 25.2388C70.8165 26.304 71.8817 26.6713 72.1021 26.7448C72.7633 28.214 73.3142 29.72 73.6815 31.2259C73.4979 30.8954 73.2408 30.6015 72.8734 30.2709C70.8165 28.5813 68.3555 28.5446 68.3923 28.5079C68.3923 28.5079 68.5025 28.8752 68.6861 29.4261C68.7228 29.5363 68.7596 29.6465 68.7963 29.7567C69.2371 31.0423 69.5677 32.3646 70.7063 33.0625C70.7798 33.136 70.8532 33.2094 70.89 33.2462C72.1756 34.3113 74.0488 33.2462 74.0856 33.2094C74.5263 35.7806 74.5998 38.3885 74.3427 40.9964C74.3059 40.9596 74.2325 43.1268 73.8652 43.4573H73.8284C73.7917 42.1718 73.6448 40.8127 72.8734 39.7475C72.7632 39.6006 72.6531 39.4169 72.5429 39.27C71.1104 38.4252 69.788 38.4252 69.788 38.3885C69.788 38.3885 69.8248 38.6456 69.8615 39.0129C69.8615 39.1231 69.8982 39.2333 69.8982 39.3435C70.2288 40.2618 70.2288 41.2535 70.743 42.3922C70.7798 42.4656 70.8165 42.5391 70.8532 42.6125C70.9634 42.8329 71.1104 43.0533 71.2573 43.2737C71.9552 44.3022 73.0938 44.3756 73.8284 44.3022C73.4979 45.7714 73.0571 47.1672 72.5429 48.5997C72.4327 48.8935 72.3225 49.1874 72.2123 49.518C72.2123 49.6281 72.249 49.7016 72.2123 49.8118C72.2123 49.8485 72.1388 49.922 72.1021 49.922C72.1021 49.922 72.0654 49.922 72.0286 49.922C71.0736 52.1259 69.9717 53.9257 69.9717 53.9257C70.7798 52.6401 70.9267 51.0974 71.1471 49.7383C69.935 47.9385 67.8046 47.8283 67.8413 47.7916C67.878 47.8283 66.7761 50.6566 67.3638 53.0809C67.6209 54.2562 68.6127 54.7705 69.3473 54.9909C68.429 56.4234 66.3721 59.7292 62.9928 62.0432C63.9111 61.0515 64.5355 60.0597 65.1599 58.9211C64.6824 56.6805 62.5153 55.7989 62.552 55.7622C62.552 55.7622 62.3317 56.0193 62.0378 56.4234C61.9644 56.4968 61.9276 56.607 61.8542 56.6805C61.7807 56.7907 61.744 56.9376 61.6705 57.0478C61.597 57.158 61.5603 57.2682 61.4869 57.3784C60.4216 58.664 60.4217 59.9863 59.9074 61.1984C59.9074 61.3086 59.9074 61.4188 59.9074 61.529C60.0176 62.4105 60.642 63.0349 61.1563 63.439C59.3932 64.6878 57.4832 65.753 55.463 66.6346C55.4997 66.5978 53.4795 67.4794 52.5245 67.4059C52.5245 67.4059 52.4878 67.4059 52.5245 67.4059C53.4428 66.9284 54.6916 66.5244 55.9405 65.2755C56.2711 62.9982 54.508 61.4555 54.5814 61.4555C54.5814 61.4555 54.3243 61.6024 53.8835 61.8596C53.7734 61.933 53.6632 62.0065 53.553 62.0799C52.8551 62.6309 51.9001 62.9615 51.2022 64.0634C51.1287 64.1736 51.0553 64.2471 50.9818 64.3573C50.4308 64.9817 49.9166 65.6796 49.4024 66.1938C49.3656 66.304 49.3289 66.4142 49.3289 66.5244C49.2187 67.2957 49.5493 68.0304 49.8799 68.5079C46.9414 69.8302 40.9543 70.8586 41.3216 70.8954C41.3583 70.8954 41.3583 70.8954 41.395 70.8954C42.5704 70.8954 43.7458 70.8586 44.8845 70.7484C44.5906 71.5198 44.2233 73.0625 46.1333 74.0175C46.6476 74.2746 47.1985 74.4583 47.7862 74.6052C47.8597 74.6052 47.9331 74.6419 48.0433 74.6419C48.9616 74.7521 49.9533 74.7521 51.0553 74.8623C51.1287 74.8623 51.2022 74.8623 51.3124 74.8623C53.4795 74.7521 55.2426 74.2746 55.2059 74.2379C55.2426 74.2379 54.9487 73.0258 53.6632 72.034C53.553 71.9606 53.4428 71.8871 53.3326 71.8136C52.598 70.8586 50.9451 71.5198 50.1737 70.675C50.1003 70.675 50.0268 70.6382 49.9533 70.6382C49.2922 70.5648 48.5943 70.5281 47.7862 70.6015C47.7862 70.6015 47.7862 70.6015 47.7862 70.5648C48.631 70.2342 54.508 69.169 57.8872 67.1488C57.9607 67.9202 58.2913 69.3894 60.1645 69.6465C60.8624 69.7567 61.597 69.6832 62.2949 69.573C62.3684 69.573 62.4419 69.5363 62.5153 69.5363C63.7274 69.5363 64.3519 68.214 65.5273 68.3977C65.6374 68.3242 65.7844 68.2875 65.8946 68.214C66.923 67.663 67.5842 67.1488 67.5475 67.1488C67.5475 67.1488 67.1067 66.5978 66.2619 66.1203C66.1517 66.0469 66.0782 66.0101 65.968 65.9367C65.013 65.2755 63.7274 65.2755 62.5153 65.1286C62.4419 65.1286 62.3317 65.1286 62.2582 65.1286C61.4134 65.2021 60.4951 65.4592 59.5034 65.9734C59.5034 65.9734 59.4666 65.9734 59.5034 65.9367C60.4217 65.2388 61.3399 64.7246 62.4051 64.4307C64.3519 63.0349 66.1517 61.4188 67.7311 59.619C68.025 60.2067 68.7596 61.1984 70.1186 61.1249C70.1921 61.1249 70.2655 61.1249 70.339 61.0882C71.9184 61.0147 72.9102 59.6924 74.159 58.9211C74.1958 58.8843 74.2692 58.8109 74.3059 58.7742C75.3711 57.6722 76.0323 56.6438 75.9956 56.6438C75.9956 56.607 71.4777 54.5501 69.1636 58.0763H69.1269C69.5677 57.0845 70.743 55.5786 70.7798 55.5418C72.0286 53.5584 73.0571 51.4647 73.8284 49.2976C74.3794 49.7751 75.4813 50.4362 76.7669 49.6649C76.8404 49.6281 76.9138 49.5914 76.9506 49.518C77.024 49.4812 77.0608 49.4078 77.1342 49.371C78.126 48.563 78.7504 47.5712 79.2646 46.3224C79.3014 46.2489 79.3014 46.1754 79.3381 46.1387C79.8523 45.0735 80.036 44.1552 79.9992 44.1552ZM76.8037 32.4013C76.8404 32.4013 76.9138 32.5115 77.024 32.585C76.9138 32.6585 76.8404 32.7319 76.7669 32.7319C76.7302 32.7319 76.5833 32.6217 76.62 32.585C76.62 32.4748 76.7302 32.4013 76.8037 32.4013ZM53.2591 64.4674C53.2959 64.4674 53.3693 64.5409 53.553 64.6878C53.2591 64.798 53.0755 64.8715 52.8551 64.9082C52.7816 64.9082 52.7082 64.798 52.6347 64.7246C52.8551 64.6511 53.0755 64.5409 53.2591 64.4674ZM46.8679 74.2011C46.8312 74.1644 46.7577 74.091 46.7945 74.0542C46.8312 73.9808 46.9047 73.944 46.9414 73.9073C46.9781 73.944 47.0149 73.9808 47.0516 74.0542C47.0149 74.1277 46.9414 74.1644 46.8679 74.2011ZM66.0782 66.9284C66.2986 66.9284 66.5557 66.9284 66.7761 66.9284C66.9598 66.9284 67.2903 66.9652 67.3271 67.0386C67.4005 67.259 67.0332 67.5528 66.5925 67.5161C66.4455 67.4794 66.1884 67.4427 65.968 67.3325C65.7844 67.2223 65.6742 67.0386 65.5273 66.855C65.7109 66.8917 65.8946 66.9284 66.0782 66.9284ZM63.9111 65.9734C64.0213 66.0102 64.0947 66.0469 64.1315 66.0836C63.9846 66.1938 63.8376 66.3407 63.654 66.4509C63.6172 66.4509 63.5438 66.4142 63.507 66.3775C63.654 66.2673 63.8009 66.1203 63.9111 65.9734ZM63.2132 67.3325C63.3234 67.4059 63.4336 67.4794 63.507 67.5896C63.6172 67.7365 63.7274 67.9202 63.8376 68.0671C63.7274 68.0671 63.5438 68.1405 63.507 68.0671C63.3601 67.8467 63.2132 67.6263 63.103 67.4059C63.103 67.3692 63.1397 67.3692 63.2132 67.3325ZM64.9028 62.1534C64.8294 62.1534 64.7926 62.1167 64.7559 62.0799C64.7559 62.0432 64.7559 62.0065 64.7926 61.933C64.8661 62.0065 64.9396 62.0432 65.013 62.0799C64.9763 62.1167 64.9396 62.1901 64.9028 62.1534ZM73.8284 58.7742C73.8652 58.7742 73.9386 58.8476 74.0488 58.9211C73.9386 58.9945 73.9019 59.1047 73.8284 59.1047C73.7917 59.1047 73.6448 58.9945 73.6815 58.9578C73.6448 58.8843 73.755 58.7742 73.8284 58.7742ZM69.6411 60.427C69.7146 60.5005 69.788 60.5372 69.8248 60.574C69.7513 60.6107 69.6778 60.6842 69.6044 60.6842C69.5677 60.6842 69.4942 60.6474 69.4575 60.6107C69.4942 60.574 69.5677 60.5005 69.6411 60.427ZM71.845 53.6318C71.8083 53.6318 71.7715 53.5584 71.7348 53.5216C71.7715 53.4849 71.8083 53.4482 71.845 53.4114C71.8817 53.4482 71.9184 53.4849 71.9919 53.5216C71.9184 53.5584 71.8817 53.6318 71.845 53.6318ZM73.7917 47.7181C73.6448 47.8651 73.4979 48.012 73.3509 48.1222C73.2775 48.1956 73.1673 48.1956 73.0571 48.2324C73.0204 48.0854 72.9102 47.8651 72.9469 47.8283C73.1673 47.6814 73.4244 47.5712 73.6448 47.4243C73.755 47.461 73.7917 47.4978 73.8652 47.4978C73.8652 47.6447 73.8652 47.6814 73.7917 47.7181Z" fill="#E21A3D"/>
<path d="M6.7214 31.3362C7.41929 30.9689 8.2641 30.7118 8.92526 30.3077C9.18238 30.1608 9.36603 29.9404 9.54969 29.7568C9.95373 29.3895 10.3578 29.1691 10.9087 29.0589C10.9455 29.0589 10.9455 28.9854 10.9087 28.9854C10.2476 29.0956 9.43949 29.2793 8.81507 29.6098C8.08045 30.0506 7.45602 30.822 6.7214 31.3362C6.68467 31.3362 6.7214 31.3362 6.7214 31.3362Z" fill="#111111"/>
<path d="M9.10763 22.0065C9.84224 21.7126 10.7238 21.6759 11.3115 21.0882C11.238 21.0514 11.1646 21.0147 11.0911 20.978C10.9074 21.4922 10.834 21.9697 10.9442 22.5207C10.9442 22.5574 11.0176 22.5574 11.0176 22.5207C10.9809 22.0065 11.0544 21.529 11.3115 21.0882C11.3482 21.0147 11.3115 20.8678 11.2013 20.9045C10.3565 20.9413 9.80551 21.5657 9.10763 22.0065C9.0709 21.9697 9.0709 22.0065 9.10763 22.0065Z" fill="#111111"/>
<path d="M2.49609 31.336C2.90013 31.6666 3.48783 31.9972 3.63475 32.4747C3.81841 32.9889 3.9286 33.5399 4.03879 34.0908C4.03879 34.1276 4.11225 34.1276 4.11225 34.0908C4.07552 33.6868 4.07552 33.2827 4.11225 32.8787C4.11225 32.6583 4.18572 32.4012 4.07552 32.1808C4.00206 32.0339 3.85514 31.9972 3.70821 31.9604C3.30417 31.7768 2.90013 31.5564 2.49609 31.336Z" fill="#111111"/>
<path d="M7.16281 39.8209C7.45666 39.4536 8.08108 39.3801 8.48512 39.1964C9.03609 38.9393 9.55032 38.7189 10.138 38.5353C10.1747 38.5353 10.138 38.4985 10.138 38.4985C8.99936 38.6822 7.7505 38.7189 7.16281 39.8209C7.12608 39.8209 7.16281 39.8576 7.16281 39.8209Z" fill="#111111"/>
<path d="M3.04747 45.1837C2.16593 44.6327 1.28439 44.045 0.219189 44.1185C0.108997 44.1185 0.0722656 44.192 0.0722656 44.3022C0.182458 44.6695 0.292651 44.9633 0.439575 45.3306C0.439575 45.3674 0.513037 45.3674 0.513037 45.3306C0.476306 44.9633 0.439575 44.6327 0.366113 44.2654C0.292651 44.3389 0.25592 44.3756 0.182458 44.4491C1.13746 44.7062 2.09247 44.7429 3.04747 45.1837C3.04747 45.2204 3.04747 45.1837 3.04747 45.1837Z" fill="#111111"/>
<path d="M10.5783 48.4895C11.0558 48.3426 11.5333 48.3059 12.0476 48.2691C11.9741 48.1957 11.9374 48.1589 11.8639 48.0855C11.8272 48.8201 12.121 49.6282 12.4516 50.2526C12.4883 50.2893 12.5251 50.2526 12.5251 50.2159C12.3781 49.8486 12.268 49.4813 12.2312 49.1139C12.1945 48.7834 12.2312 48.4528 12.268 48.0855C12.268 47.9753 12.1578 47.9018 12.0476 47.9018C11.4966 48.012 10.9824 48.2324 10.5783 48.4895C10.5416 48.4895 10.5416 48.5263 10.5783 48.4895Z" fill="#111111"/>
<path d="M12.4149 50.8035C12.3414 50.9872 12.268 51.2443 12.4149 51.3912C12.4884 51.4279 12.5618 51.4279 12.5986 51.3545C12.6353 51.281 12.5986 51.2443 12.5986 51.1708C12.5618 51.0606 12.4884 50.9504 12.4884 50.8402C12.4516 50.7668 12.4149 50.7668 12.4149 50.8035Z" fill="#111111"/>
<path d="M12.5977 51.9423C12.6344 51.9423 12.6344 51.979 12.6712 51.979C12.6712 51.8321 12.414 51.9423 12.561 52.0525C12.6344 52.0892 12.6712 52.0525 12.6712 51.979C12.6712 51.9423 12.6344 51.9423 12.5977 51.9423Z" fill="#111111"/>
<path d="M4.99414 56.3498C5.87568 56.2763 6.90415 56.0192 7.74896 56.3498C8.59377 56.6804 9.62224 57.4517 10.3569 58.0027C10.3936 58.0394 10.4671 57.966 10.4303 57.9292C9.62224 57.1211 9.14474 56.46 7.96935 56.2029C6.97761 56.0192 6.02261 56.2029 4.99414 56.3498Z" fill="#111111"/>
<path d="M10.762 58.3333C10.7987 58.3701 10.7987 58.4435 10.7987 58.4803C10.7987 58.5905 10.9456 58.6639 11.0191 58.5905C11.0925 58.517 11.0925 58.3333 10.9823 58.3333C10.9089 58.3333 10.8722 58.2966 10.8354 58.2599C10.7987 58.2599 10.7252 58.2966 10.762 58.3333Z" fill="#111111"/>
<path d="M11.3496 58.8842C11.3496 58.9209 11.3863 58.9576 11.3863 58.9576C11.4231 59.0678 11.57 58.9209 11.4598 58.8842C11.4231 58.8842 11.4231 58.8842 11.3496 58.8842C11.3863 58.8475 11.3496 58.8842 11.3496 58.8842Z" fill="#111111"/>
<path d="M16.6758 56.6437C16.8594 56.5335 17.1166 56.3866 17.3369 56.4233C17.5206 56.4968 17.7777 56.7172 17.8879 56.8641C18.2552 57.2314 18.5491 57.7089 18.8062 58.1497C18.8062 58.1864 18.8429 58.1497 18.8429 58.113C18.6593 57.7824 18.4756 57.4518 18.2919 57.1212C18.1817 56.9376 18.0716 56.7539 17.9981 56.5703C17.9246 56.4233 17.8879 56.2397 17.8144 56.1295C17.4104 55.6153 16.9329 56.3866 16.6758 56.6437Z" fill="#111111"/>
<path d="M19.1731 58.6272C19.1731 58.7374 19.0996 58.7742 19.0996 58.8844C19.0996 58.9578 19.1363 59.0313 19.2098 59.1048C19.2833 59.215 19.4302 59.1048 19.4302 58.9946C19.4302 58.9211 19.4302 58.8476 19.3935 58.7742C19.32 58.7007 19.2465 58.7007 19.1731 58.6272C19.1731 58.5905 19.1731 58.5905 19.1731 58.6272Z" fill="#111111"/>
<path d="M19.5026 59.6558C19.6128 59.6558 19.6128 59.4721 19.5026 59.4721C19.3924 59.4721 19.3924 59.6558 19.5026 59.6558Z" fill="#111111"/>
<path d="M16.6016 65.5324C16.8954 65.5324 17.1525 65.5692 17.4096 65.6426C17.5933 65.6794 17.8137 65.7161 17.9973 65.6426C18.0708 65.6059 18.0708 65.5324 18.0341 65.4957C17.8504 65.3855 17.63 65.3855 17.4096 65.4223C17.1525 65.4223 16.8587 65.459 16.6016 65.5324C16.6016 65.4957 16.6016 65.5324 16.6016 65.5324Z" fill="#111111"/>
<path d="M18.3652 65.6428C18.4754 65.6795 18.5856 65.6795 18.6958 65.753C18.7693 65.7897 18.806 65.8265 18.8795 65.7897C18.9529 65.7897 19.0264 65.6795 18.9162 65.6428C18.8427 65.6061 18.806 65.6061 18.6958 65.6061C18.5856 65.6061 18.4754 65.6061 18.3652 65.6428Z" fill="#111111"/>
<path d="M25.1602 62.0431C25.6377 61.7125 26.2621 62.3736 26.6661 62.6308C27.2171 62.9981 27.7313 63.4021 28.2823 63.7694C28.2823 63.7694 28.319 63.7694 28.319 63.7327C27.4375 62.9981 26.5559 62.0798 25.5275 61.5656C25.454 61.5288 25.3438 61.5656 25.3438 61.639C25.2703 61.7859 25.1969 61.8961 25.1602 62.0431C25.1602 62.0063 25.1602 62.0431 25.1602 62.0431Z" fill="#111111"/>
<path d="M28.502 63.9532C28.6121 64.1368 28.6856 64.3572 28.906 64.3572C28.9795 64.3572 29.0529 64.2838 28.9795 64.2103C28.906 64.0634 28.6856 64.0634 28.502 63.9532Z" fill="#111111"/>
<path d="M28.502 71.336C29.1264 71.0789 29.6039 71.1156 30.2283 71.0789C30.412 71.0789 30.5956 71.0054 30.7793 70.9687C31.1833 70.8952 31.5506 70.9687 31.9547 70.8952C32.1016 70.8585 32.1016 70.6381 31.9547 70.6381C31.6241 70.6381 31.3302 70.7483 30.9997 70.7116C30.6691 70.7116 30.412 70.6014 30.0814 70.6749C29.5304 70.8218 28.9795 71.0422 28.502 71.336C28.502 71.2993 28.502 71.336 28.502 71.336Z" fill="#111111"/>
<path d="M32.6895 70.7117C32.6895 70.8219 32.6895 70.8587 32.7629 70.8954C32.7996 70.9321 32.8364 70.8954 32.8731 70.8954H32.9098C33.02 70.8587 32.9466 70.675 32.8731 70.7117C32.8364 70.7117 32.7262 70.7485 32.6895 70.7117Z" fill="#111111"/>
<path d="M34.1961 71.2258C34.3431 71.2258 34.3431 71.0054 34.1961 71.0054C34.0492 71.0054 34.0492 71.2258 34.1961 71.2258Z" fill="#111111"/>
<path d="M8.55734 30.9322C8.81446 30.7118 9.03484 30.5281 9.32869 30.3445C9.51235 30.2343 9.73273 30.1608 9.91639 30.0139C10.1 29.867 10.247 29.6466 10.3939 29.4997C10.651 29.2425 10.9449 29.0589 11.2387 28.8752C11.2754 28.8385 11.2387 28.8018 11.202 28.8018C10.9081 28.912 10.6877 29.0956 10.3939 29.2058C10.1368 29.3527 9.84292 29.4262 9.58581 29.6099C9.2185 29.9404 8.85119 30.4914 8.55734 30.9322C8.52061 30.9322 8.55734 30.9689 8.55734 30.9322Z" fill="#111111"/>
<path d="M9.03536 29.6464C9.54959 29.4995 10.0638 29.3158 10.5413 29.1322C10.6148 29.0955 10.6515 29.0955 10.725 29.0587C10.7984 29.022 11.1658 28.9118 11.2025 28.8751C11.2392 28.8016 11.2392 28.8383 11.1658 28.8383C11.0188 28.8751 10.8352 28.9853 10.725 29.022C10.6883 29.0587 10.6883 29.1322 10.7617 29.0955C10.9086 29.0587 10.8719 29.0587 10.9821 28.9853C11.0188 28.9485 10.9821 28.9118 10.9454 28.9118C10.7984 28.9485 10.8719 28.9118 10.7617 29.022C10.725 29.0587 10.7617 29.0955 10.7984 29.0955C10.9821 28.9853 11.2025 28.9118 11.3861 28.8016C11.4229 28.8016 11.3861 28.7281 11.3861 28.7281C10.5046 28.8383 9.73325 29.2424 9.03536 29.6464C8.99863 29.6464 8.99863 29.6464 9.03536 29.6464Z" fill="#111111"/>
<path d="M53.0027 62.9616C53.4802 62.631 54.0311 62.1902 54.6188 62.0433C54.5454 62.0066 54.4719 62.0066 54.3984 61.9698C54.8025 62.3371 55.2432 62.631 55.4636 63.1452H55.5004C55.3167 62.5942 55.1331 62.08 54.6923 61.676C54.5821 61.5658 54.4352 61.6025 54.3617 61.7127C54.0679 62.2637 53.4434 62.5942 53.0027 62.9616C52.9659 62.9616 53.0027 62.9616 53.0027 62.9616Z" fill="#111111"/>
<path d="M55.6105 63.7695C55.5738 63.9165 55.5371 64.1001 55.5738 64.247C55.6105 64.394 55.7942 64.3572 55.7942 64.2103C55.8309 64.0634 55.7575 63.8797 55.6105 63.7695C55.6473 63.7695 55.6105 63.7695 55.6105 63.7695Z" fill="#111111"/>
<path d="M62.2585 56.754C62.3687 56.607 62.5156 56.4234 62.6626 56.3132C62.5891 56.3132 62.5156 56.3132 62.4789 56.2765C63.4339 57.0845 64.4256 57.562 64.7562 58.9211C64.7562 58.9578 64.8664 58.9578 64.8664 58.9211C64.8297 58.2967 64.4624 57.7457 64.0583 57.2682C63.691 56.754 63.2502 56.2765 62.6258 56.0561C62.5156 56.0193 62.4422 56.1295 62.4422 56.203C62.4422 56.3866 62.3687 56.5703 62.2585 56.754C62.2218 56.754 62.2585 56.7907 62.2585 56.754Z" fill="#111111"/>
<path d="M68.943 21.6023C69.2002 20.3902 72.1386 23.0348 72.6161 23.4756C72.6161 23.4756 72.6529 23.4756 72.6529 23.4389C72.1019 22.8144 71.5509 22.19 70.853 21.6758C70.3755 21.3085 69.5675 20.7575 68.9063 20.831C68.7961 20.831 68.7227 20.9044 68.7227 21.0146C68.7594 21.235 68.8696 21.4187 68.943 21.6023C68.9063 21.639 68.943 21.639 68.943 21.6023Z" fill="#111111"/>
<path d="M70.5593 29.2057C70.6695 29.3159 70.7797 29.3527 70.8899 29.3894C71.3306 29.573 71.6245 29.6832 71.9918 30.0505C72.506 30.5648 73.461 30.8219 73.6447 31.5932C73.6447 31.63 73.7181 31.63 73.7181 31.5932C73.5712 30.9321 72.9835 30.4546 72.4693 30.0505C72.2122 29.8302 71.8081 29.6098 71.5143 29.4996C71.1837 29.3894 70.8531 29.4261 70.5593 29.2057C70.5593 29.2057 70.5226 29.2057 70.5593 29.2057Z" fill="#111111"/>
<path d="M72.9109 30.8953C73.0578 31.0422 73.168 31.1892 73.2782 31.3361C73.3516 31.4095 73.3884 31.4463 73.4618 31.5197C73.4985 31.5565 73.6087 31.5932 73.6455 31.6667C73.6455 31.7034 73.6822 31.7034 73.6822 31.6667C73.976 31.4463 73.0578 30.9688 72.9109 30.8953C72.9109 30.8953 72.8741 30.8953 72.9109 30.8953Z" fill="#111111"/>
<path d="M77.2441 31.5932C77.7584 31.3728 78.2726 31.2626 78.7868 31.0789C78.7501 31.0422 78.6766 31.0422 78.6399 31.0055C78.7868 31.2993 78.9338 31.5932 79.0439 31.9238C79.0439 31.9605 79.0807 31.9238 79.0807 31.9238C79.0807 31.5564 79.044 31.2626 78.897 30.932C78.8603 30.8586 78.8236 30.8218 78.7501 30.8586C78.1991 30.9687 77.7216 31.2993 77.2441 31.5932Z" fill="#111111"/>
<path d="M70.0078 38.5721C71.1097 38.9027 72.4321 39.2333 73.1299 40.2985C73.1299 40.3352 73.1667 40.2985 73.1667 40.2985C72.6157 38.9394 71.3301 38.6823 70.0078 38.5721Z" fill="#111111"/>
<path d="M76.8398 45.0367C77.3173 44.8898 77.7948 44.7429 78.3091 44.6327C78.6764 44.5592 79.6681 44.2287 79.815 44.7062C79.815 44.7429 79.8518 44.7429 79.8518 44.7062C79.9252 44.449 79.9252 44.5592 79.8885 44.3021C79.8885 44.2287 79.8151 44.1552 79.7416 44.1919C78.7499 44.3389 77.7581 44.6327 76.8398 45.0367Z" fill="#111111"/>
<path d="M78.3464 44.8532C78.8239 44.743 79.3749 44.7797 79.7055 44.4124C79.7789 44.3389 79.7055 44.2655 79.632 44.2287C79.1178 44.192 78.7504 44.5961 78.3464 44.8532C78.3097 44.8532 78.3464 44.8532 78.3464 44.8532Z" fill="#111111"/>
<path d="M67.989 48.1956C68.3931 48.0119 69.2379 48.4894 69.5685 48.6731C70.046 48.8935 70.45 49.1873 70.854 49.5179C70.8908 49.5179 70.8908 49.5179 70.8908 49.4812C70.1929 48.7833 69.091 47.865 68.0258 47.9385C67.9523 47.9385 67.8788 48.0119 67.9523 48.0854C67.9523 48.1589 67.989 48.1589 67.989 48.1956Z" fill="#111111"/>
<path d="M68.4295 48.4528C68.4295 48.2691 68.2091 48.1589 68.1356 48.0487C68.0255 47.9018 67.8418 48.0487 67.8418 48.1957C67.8785 48.3058 67.952 48.416 68.0622 48.416C68.1724 48.4528 68.3193 48.3793 68.4295 48.4528C68.4295 48.4895 68.4295 48.4895 68.4295 48.4528Z" fill="#111111"/>
<path d="M71.4785 56.5703C71.6622 56.2764 72.3968 56.3499 72.6539 56.3866C72.9478 56.3866 73.2049 56.4233 73.4987 56.3499C73.5722 56.3499 73.5722 56.203 73.4987 56.1662C73.0947 56.056 72.6906 56.1295 72.2866 56.203C72.0662 56.2764 71.6254 56.3132 71.4785 56.5703Z" fill="#111111"/>
<path d="M73.9023 56.3498C73.9023 56.3498 73.9391 56.46 73.9758 56.46C74.0125 56.4967 74.0493 56.4967 74.086 56.4967C74.1595 56.4967 74.1962 56.46 74.2329 56.3865C74.2329 56.313 74.1962 56.2396 74.1227 56.2396C74.0125 56.2028 73.9391 56.2763 73.9023 56.3498C73.9023 56.313 73.9023 56.313 73.9023 56.3498Z" fill="#111111"/>
<path d="M75.1875 56.5335C75.2977 56.6804 75.4813 56.7539 75.6283 56.8273C75.665 56.8273 75.7017 56.8641 75.7385 56.9008C75.8119 56.9375 75.8119 56.9375 75.7752 56.8641C75.7752 56.7906 75.7752 56.7906 75.7385 56.8273C75.7017 56.9008 75.665 57.0477 75.665 57.1212C75.665 57.1579 75.7017 57.1946 75.7385 57.1579C75.8487 57.0477 76.1792 56.8641 75.9588 56.6804C75.8487 56.6069 75.665 56.5702 75.5181 56.5335C75.4079 56.4968 75.2977 56.46 75.1875 56.5335Z" fill="#111111"/>
<path d="M50.1367 71.079C50.5408 71.3361 50.9448 71.5932 51.4223 71.6667C51.8998 71.7402 52.4875 71.6667 52.9283 71.8504C52.965 71.8504 53.0017 71.8136 52.965 71.7769C52.5977 71.5198 52.3406 71.4463 51.8998 71.483C51.2386 71.483 50.7611 71.3361 50.1367 71.079C50.1367 71.0423 50.1367 71.079 50.1367 71.079Z" fill="#111111"/>
<path d="M51.0918 71.9237C51.4958 71.9605 51.9366 72.0339 52.3406 72.0339C52.7447 72.0339 53.0753 72.1074 53.4793 72.2176C53.516 72.2176 53.516 72.1809 53.516 72.1809C53.2222 71.9605 52.9651 71.7401 52.5978 71.7034C52.1203 71.6299 51.606 71.7768 51.0918 71.9237C51.0918 71.887 51.0918 71.9237 51.0918 71.9237Z" fill="#111111"/>
<path d="M54.0298 72.6952C54.0298 72.585 54.0298 72.5482 53.9196 72.4748C53.8461 72.438 53.7359 72.5115 53.8094 72.585C53.8828 72.6952 53.8828 72.6952 54.0298 72.6952C54.0298 72.7319 54.0298 72.6952 54.0298 72.6952Z" fill="#111111"/>
<path d="M54.3608 73.0257C54.3608 72.989 54.3608 72.989 54.3608 72.9522C54.3975 72.6951 54.0302 72.9522 54.2506 73.0257C54.2873 73.0257 54.2873 73.0257 54.3608 73.0257C54.324 73.0624 54.3608 73.0257 54.3608 73.0257Z" fill="#111111"/>
<path d="M63.0664 65.4958C63.6908 65.5693 64.3153 65.8631 64.9397 65.7897C65.0499 65.7897 65.0866 65.6427 64.9764 65.606C64.3887 65.2387 63.6908 65.3856 63.0664 65.4958Z" fill="#111111"/>
<path d="M65.3809 65.8265C65.3809 65.8632 65.4176 65.8999 65.4176 65.9367C65.4543 66.0101 65.4911 66.0469 65.5645 66.0469H65.6012C65.6747 66.0469 65.7114 66.0101 65.7114 65.9367V65.8999C65.7114 65.8265 65.6747 65.753 65.6012 65.753C65.5278 65.753 65.4911 65.7163 65.4176 65.753C65.4176 65.753 65.3809 65.7898 65.3809 65.8265Z" fill="#111111"/>
<path d="M66.2242 66.3406C66.2242 66.3038 66.2242 66.3038 66.2242 66.2671C66.1875 66.1569 66.0038 66.1569 66.0038 66.2671C65.9671 66.3773 66.114 66.4507 66.2242 66.3773C66.1875 66.3773 66.2242 66.3773 66.2242 66.3406C66.2242 66.3773 66.2242 66.3406 66.2242 66.3406Z" fill="#111111"/>
<path d="M50.2845 16.4233C49.3295 16.4233 48.1908 17.1212 47.6766 17.4885C47.6031 18.4068 47.4562 19.3251 47.3093 20.2433C47.346 20.2066 47.3827 20.2066 47.4562 20.1699C48.4479 19.7291 49.6968 20.3535 50.5049 20.9412C51.8272 21.8962 52.0476 22.1166 53.6637 22.1901C53.7739 21.382 53.9209 20.2433 53.4801 19.1781C52.8924 17.7456 51.4966 16.4233 50.2845 16.4233ZM64.5728 35.1928V20.1332C64.5728 20.1332 64.5728 20.1332 64.5361 20.1332C64.5361 20.1332 64.5361 20.1332 64.5728 20.1332V17.1212C64.3524 17.1579 64.1688 17.1947 63.9851 17.2314C63.9484 17.2314 63.9117 17.2314 63.9117 17.1947C63.728 17.0478 63.5811 16.9376 63.3974 16.7906C63.6178 16.8274 63.8382 16.8274 64.0586 16.8641C64.2422 16.8641 64.3892 16.8641 64.5728 16.9008V12.236L62.8097 11.7218L62.4792 11.6116C62.2588 11.5381 62.0017 11.5014 61.7813 11.4279C60.6426 11.1708 59.504 10.877 58.5857 10.4729L56.1614 9.73829H56.0513C55.3166 9.70156 54.5085 9.40771 53.627 9.07714C53.2597 8.93021 52.8557 8.78329 52.4516 8.63636C50.9089 7.71809 49.2193 7.24059 47.2358 7.16713C46.0972 6.91001 45.032 6.5427 43.8566 6.17539C42.6077 5.77135 41.3221 5.33058 39.9264 5.03673L39.7427 5L39.5591 5.03673C39.4489 5.07346 39.3387 5.07346 39.2285 5.11019C38.3837 5.29385 37.5389 5.5877 36.694 5.84481C36.1431 6.02847 35.6288 6.21212 35.0779 6.35905L34.784 6.46924L34.7106 6.50597C33.7188 7.05693 32.5435 7.31405 31.3313 7.57117C30.2661 7.79155 29.2009 8.04867 28.1357 8.45271L27.3644 8.67309L26.7767 8.85675C26.0421 9.11387 25.3075 9.33425 24.5728 9.51791C23.728 9.73829 22.8832 9.99541 22.0017 10.326C21.8915 10.3627 21.818 10.3627 21.7078 10.3994C21.3038 10.5096 20.9365 10.5831 20.5324 10.6933C19.2469 11.0239 17.9613 11.3177 16.7491 11.832L15.537 12.1993V16.8641V16.9376C15.6105 17.7824 15.6472 18.5904 15.6105 19.4353C15.6105 19.4353 15.6472 19.3985 15.6472 19.4353C15.8309 19.5087 16.0145 19.6189 16.2349 19.7658C16.0513 19.9495 15.9043 20.0964 15.8676 20.0964C15.7574 20.023 15.684 19.9495 15.5738 19.876C15.5738 20.4637 15.537 21.0147 15.5003 21.6024V25.7163C15.2432 26.8549 15.3901 27.9936 15.5003 29.0955C15.6105 30.0872 15.7207 31.0055 15.537 31.8136L15.5003 31.9238V36.0009V36.2948V36.3315C15.5003 36.4417 15.5003 36.5519 15.537 36.6621C15.5738 36.6253 15.6105 36.5886 15.6472 36.5886C15.7574 36.5886 15.8676 36.6621 16.088 36.7355C15.7941 36.8825 15.7207 36.9559 15.684 36.9559C15.6472 36.9192 15.6105 36.9192 15.5738 36.8825C15.6472 38.168 15.6472 39.2332 15.537 40.4454V41.0698C15.537 42.2452 15.6472 43.3838 15.8309 44.4858H15.7941L16.0513 45.551C16.1615 45.955 16.2716 46.359 16.3818 46.7264C16.4186 46.8365 16.4553 46.9467 16.492 47.0937C16.9328 48.6364 17.594 49.9587 18.4755 51.0239C18.549 51.0973 18.5857 51.2075 18.6592 51.281C18.8428 51.5381 19.0265 51.7952 19.2469 52.0523C19.3203 52.1258 19.3938 52.236 19.4672 52.3095L19.5774 52.4197C20.2386 53.0073 21.3038 54.1093 21.8915 54.7337C22.1853 55.0275 22.2588 55.1377 22.3322 55.1745C22.8832 55.7254 23.5811 56.1295 24.279 56.5335C24.8667 56.9008 25.4176 57.2314 25.8584 57.6354L25.9319 57.6722C25.9686 57.7089 26.4094 58.0028 27.2175 58.4068C27.4011 58.517 27.5113 58.5537 27.6215 58.5904C28.2459 58.8476 28.9438 59.1047 29.6417 59.2883C31.9925 59.9128 38.4204 61.382 38.7142 61.4555L38.8612 61.4922H39.0081C39.155 61.4922 42.2404 61.382 44.077 61.2351H44.1137C44.885 61.2351 45.3993 61.1249 45.7299 61.0147C46.6114 60.7576 52.5251 58.4435 53.7739 57.7456H53.8107C53.9209 57.6722 54.031 57.5987 54.1412 57.562C54.2514 57.4885 54.3616 57.4518 54.4351 57.3783L54.5085 57.3049C54.9493 56.9743 55.4268 56.6804 55.9411 56.3499C57.0063 55.6887 58.2551 54.9541 59.1734 53.6685C59.2468 53.595 59.3203 53.5216 59.357 53.4481C60.6793 52.0891 61.7445 50.6198 62.5894 49.0771C62.6261 48.9669 62.6996 48.8935 62.7363 48.7833C63.2505 47.865 63.4709 46.9467 63.6913 46.1019C63.8382 45.551 63.9484 45.0367 64.1321 44.6327L64.2055 44.5225L64.2422 44.3756C64.279 44.2286 64.279 44.1185 64.3157 43.9715C64.4626 43.0165 64.5361 42.0615 64.5361 41.0331V40.5188C64.6463 38.8292 64.6463 36.9559 64.5728 35.1928ZM16.088 23.0716C16.0513 23.0349 16.0145 22.9614 16.0145 22.9247C16.0145 22.9247 16.088 22.888 16.1615 22.8512C16.1982 22.888 16.2349 22.9247 16.2349 22.9982C16.1982 22.9982 16.1247 23.0349 16.088 23.0716ZM56.088 11.5748C56.1982 11.6116 56.2716 11.685 56.4186 11.7585C56.3084 11.832 56.1982 11.9054 56.1614 11.8687C56.088 11.832 56.0145 11.7585 55.9043 11.685C55.9778 11.6483 56.0512 11.5381 56.088 11.5748ZM51.6068 9.84848C51.6803 9.88522 51.7537 9.92195 51.8272 9.92195C51.7905 9.99541 51.7537 10.0321 51.717 10.1056C51.6435 10.0689 51.5701 10.0321 51.4966 9.99541C51.5701 9.92195 51.6068 9.84848 51.6068 9.84848ZM16.639 41.18C16.4553 41.0698 16.3451 40.9963 16.2349 40.9596C16.4553 40.8861 16.6757 40.8127 16.8961 40.7759C16.9328 40.7759 17.0063 40.8494 17.0797 40.8861C16.9328 40.9963 16.7859 41.0698 16.639 41.18ZM27.2542 57.6354C27.2175 57.5987 27.144 57.5987 27.144 57.562C27.144 57.5253 27.1807 57.4885 27.2175 57.4151C27.2542 57.4518 27.3277 57.4885 27.3644 57.5253C27.3277 57.562 27.2909 57.5987 27.2542 57.6354ZM34.4902 45.6979L34.4167 45.5877C34.4902 45.551 34.5637 45.5142 34.6371 45.4775C34.6738 45.5142 34.6738 45.551 34.7106 45.6244C34.6004 45.6612 34.5637 45.6612 34.4902 45.6979ZM34.9677 37.1763C34.931 37.1763 34.8575 37.1396 34.8208 37.1028C34.8942 37.0294 34.931 36.9559 35.0412 36.9192C35.1146 36.8825 35.1881 36.9559 35.3717 36.9927C35.1513 37.1028 35.0779 37.1396 34.9677 37.1763ZM35.5187 49.8118C35.4819 49.7383 35.4452 49.6648 35.4452 49.5914L35.5554 49.5179C35.5921 49.5546 35.6288 49.6281 35.6656 49.7016C35.6656 49.7383 35.5921 49.775 35.5187 49.8118ZM36.3267 42.0983C36.0696 41.9513 35.886 41.6942 35.7023 41.5106C35.6656 41.4738 35.7758 41.3636 35.8492 41.2902C36.1064 41.4371 36.3635 41.5106 36.5471 41.6208C36.6573 41.6942 36.7308 41.8044 36.8042 41.9146C36.6206 41.9881 36.4002 42.135 36.3267 42.0983ZM37.8327 49.6281C37.796 49.6281 37.7225 49.5179 37.6491 49.4812C37.8327 49.4077 38.0164 49.2975 38.2 49.2608C38.2367 49.2608 38.3102 49.3343 38.4571 49.4444C38.2 49.5179 38.0164 49.5914 37.8327 49.6281ZM46.3543 60.5372C46.3543 60.5372 46.2441 60.4637 46.2808 60.427C46.3176 60.3903 46.391 60.3168 46.4277 60.2801C46.4277 60.2801 46.5012 60.3535 46.5379 60.3903C46.4645 60.4637 46.4277 60.5372 46.3543 60.5372ZM61.6344 49.8485C61.5609 49.7383 61.5242 49.6281 61.4507 49.5179C61.4507 49.5179 61.5242 49.4812 61.6344 49.4444C61.6711 49.5546 61.7078 49.6648 61.7445 49.775C61.7813 49.8118 61.7078 49.8485 61.6344 49.8485ZM62.5526 40.5188V41.1065C62.5526 41.9881 62.4792 42.8696 62.3322 43.7144C62.3322 43.7879 62.2955 43.8613 62.2955 43.9348C62.0384 44.4858 61.8915 45.1102 61.7445 45.6979C61.5609 46.4692 61.3772 47.1671 61.0099 47.8283L60.9732 47.9017C60.9365 48.0119 60.863 48.0854 60.8263 48.1956C60.0917 49.5546 59.1367 50.8769 57.9613 52.0891C57.8878 52.1625 57.8143 52.236 57.7041 52.3462L57.6674 52.3829L57.6307 52.4564C56.9328 53.4481 55.9778 54.0358 54.9493 54.6602C54.4351 54.9908 53.8841 55.3214 53.3699 55.6887C53.2964 55.7254 53.223 55.7989 53.1128 55.8356C53.0026 55.9091 52.9291 55.9458 52.8189 56.0193C52.4883 56.2029 51.8272 56.4968 50.9824 56.8274C50.4681 57.1212 49.9172 57.4151 49.3662 57.6722C48.1541 58.1864 46.6849 58.9578 45.2524 59.1781C44.5177 59.3618 43.8198 59.4353 43.0852 59.4353C43.122 59.472 43.122 59.472 43.1587 59.5087C43.122 59.5455 43.0852 59.5822 43.0118 59.6189C42.9383 59.5822 42.8648 59.5087 42.7914 59.472C41.9466 59.472 41.1018 59.4353 40.1468 59.3251V59.2883C41.065 59.1781 42.02 59.0312 42.975 58.7741C42.7547 54.9541 43.0852 51.2075 43.0852 47.3875C43.2689 50.7668 44.077 57.9293 44.1137 57.966C44.1137 55.7989 44.4443 53.6685 44.481 51.5014C44.5912 53.0073 45.5829 57.9293 45.7666 57.8558C45.6197 51.5748 45.8033 43.8981 45.8033 43.8981C45.8033 43.8981 45.032 43.7879 44.5177 43.8613C42.6077 44.1185 40.1835 44.3388 38.4571 43.09C38.2735 42.9798 37.6123 48.416 37.6123 48.416C37.6123 48.416 37.6123 42.3921 37.4654 42.2452C37.245 42.0248 37.0614 41.18 36.8777 40.8861C37.9429 42.3921 40.1468 42.6125 42.2037 42.3921C40.7344 42.1717 39.3754 41.5473 38.0531 40.8861V40.8494C41.065 41.9513 44.9952 41.5473 48.0072 40.4086C49.4764 39.5271 50.7987 38.4986 52.3414 37.6171C53.3332 36.9192 54.1412 36.258 54.4351 35.7805C54.2514 35.5234 54.0678 35.2296 53.9209 34.9725C53.8841 34.9357 53.9576 34.8623 53.9943 34.8255C54.2147 34.8623 54.4718 35.0826 54.6922 35.303C55.3534 33.5399 57.043 27.5895 57.1164 27.3691C57.2266 27.1488 56.4553 24.8714 56.088 24.5776C56.088 24.6143 56.0513 24.6143 56.0513 24.6511C56.0145 24.6511 55.9043 24.6143 55.9043 24.6143C55.8676 24.5409 55.8309 24.4674 55.7941 24.3939C55.6472 24.3205 55.4636 24.2103 55.2799 24.1368C54.4351 23.9899 53.5535 23.8797 52.7455 23.5491C52.0476 23.2553 50.1008 21.8962 49.6601 21.6391C49.0724 21.3085 47.7501 20.8678 47.0889 21.3453C46.7583 22.3003 47.346 25.3489 48.1541 26.6345C49.1826 28.2507 51.5701 28.5078 53.3699 28.3976C53.4801 28.3976 52.2312 29.573 50.2478 29.2792C50.2478 29.5363 50.1743 29.7567 50.211 30.0505C50.2478 30.3076 50.3947 31.6667 50.762 31.6667C50.5049 31.7401 50.2478 31.5565 50.0274 31.4463C49.8805 31.3728 49.7335 31.2994 49.6233 31.2259C49.6601 31.9238 49.9172 32.5849 50.358 33.0624C50.3947 33.0992 49.5131 32.9522 48.7418 31.1524C48.5581 30.9688 48.3378 30.7851 48.1541 30.7117C47.3093 30.4545 46.5747 30.7117 45.987 31.2626C45.5829 31.6667 45.1422 32.034 44.5912 32.2544C43.4525 32.7686 42.2404 32.6217 41.1018 32.2544V32.2176C41.9833 32.2544 42.8281 32.034 43.5995 31.6299C43.3791 31.6667 43.122 31.6667 42.9016 31.6299C41.616 31.7034 40.5508 31.2259 39.2285 31.8871C38.6041 32.2176 38.0898 32.6584 37.6123 33.1726C37.5756 33.2094 37.5389 33.2461 37.5389 33.2828C36.4002 34.8255 35.8492 36.8825 36.2165 38.7925C36.2165 38.8292 34.9677 35.7805 36.5839 32.4013C36.5471 32.438 36.5104 32.4747 36.4369 32.5115C35.6656 33.1359 35.0779 33.6869 35.0779 34.7153C34.8942 33.9073 35.1513 33.1726 35.5554 32.5115C35.8492 32.034 36.2165 31.3728 36.694 30.8953C36.5471 30.6749 36.3267 30.4545 36.0329 30.2709C35.9227 30.2342 35.8492 30.1974 35.739 30.1607C35.7023 30.2342 35.7023 30.2709 35.6656 30.3811C35.5921 30.2709 35.5187 30.1974 35.4819 30.124C35.0779 29.977 34.6004 29.977 34.1596 29.8668C33.9392 29.7934 33.7188 29.7199 33.5352 29.6465C33.1679 29.5363 32.8006 29.3159 32.3598 28.9853C31.0375 28.0303 30.4498 24.7245 29.8988 23.3655C29.8988 23.3655 31.5517 26.708 32.3965 27.4793C33.5719 28.5445 34.6738 27.9936 35.9594 27.5161C35.6289 26.0101 35.5187 24.4307 35.2615 22.9614C35.0412 21.6758 34.6004 18.6639 33.7188 18.6272C33.5352 18.6272 30.4865 20.2066 30.0825 20.3903C29.6784 20.5739 29.2009 22.4472 29.2009 22.4472C29.2009 22.4472 28.1357 23.4022 27.8052 23.9532C27.4746 24.5041 27.695 26.8549 27.695 26.8549C27.695 26.8549 26.0788 30.9688 26.7032 35.3765C26.9236 36.8457 27.144 37.8742 27.4011 38.5354C27.695 38.7925 27.9888 39.0496 28.2827 39.27C27.8419 38.2415 27.7684 37.0294 27.548 36.0009C27.548 35.9642 27.5848 35.9642 27.5848 36.0009C27.9521 37.36 28.5398 38.4986 29.605 39.4536C30.3396 40.1148 31.3681 40.5923 32.2863 41.0698C33.1679 41.3269 33.9025 41.4738 34.3433 41.5473C34.3433 41.5473 33.9392 42.3554 33.5352 42.4656C33.3148 42.539 32.5802 52.9706 32.5802 52.9706C32.5802 52.9706 32.3231 42.6859 31.919 42.7227C30.8906 42.7961 29.5682 42.7227 28.0623 42.2452C28.0255 42.2452 28.1725 43.3104 28.3194 45.9917C28.3929 47.3875 28.3194 51.1708 28.2459 55.0275C28.3929 55.5418 28.6867 55.9458 29.1275 55.5785C29.3111 55.3949 29.6417 54.5133 29.6417 54.3664C29.8254 53.4848 29.9356 52.5666 30.009 51.6483H30.0457C30.0825 52.7502 30.2294 53.8522 30.3763 54.9541C30.6334 55.9826 30.4865 56.2397 32.1394 57.4885C32.2863 57.562 32.4333 57.6722 32.5802 57.7824C32.5802 57.7824 32.5802 57.7824 32.6169 57.7456C32.6169 57.7824 32.6536 57.7824 32.6536 57.8191C32.874 57.966 33.0577 58.1129 33.2781 58.2599V58.2966C33.1311 58.2231 32.3231 58.1129 31.515 58.0762C30.5967 57.7824 28.7602 57.0477 28.4296 56.9008C27.9154 56.7172 27.4746 56.4968 27.0705 56.1295C26.7032 55.8724 26.3727 55.6152 26.0421 55.3581C25.8217 55.2112 25.6013 55.101 25.4176 54.9541C24.7932 54.5868 24.2055 54.2195 23.8015 53.8154L23.7648 53.7787C23.728 53.742 23.5811 53.595 23.4342 53.4114C22.8465 52.8237 21.7813 51.7218 21.0834 51.0606C21.0467 50.9871 21.0099 50.9504 20.9365 50.8769C20.8263 50.73 20.7528 50.6198 20.6426 50.4729C20.6059 50.5096 20.5692 50.5464 20.5324 50.6198C20.4957 50.5096 20.4222 50.4362 20.4222 50.3627C20.4222 50.326 20.459 50.2893 20.4957 50.2893C20.459 50.2525 20.4222 50.2158 20.4222 50.1791C20.3488 50.0689 20.2753 49.9954 20.2386 49.8852L20.1651 49.8118C19.4305 48.9669 18.8795 47.865 18.549 46.5794L18.5122 46.506C18.4755 46.3958 18.4388 46.2856 18.402 46.1754C18.3286 45.955 18.2551 45.6979 18.1817 45.4775C18.1817 45.4408 18.1817 45.3673 18.2184 45.3306C18.2184 45.1102 18.1449 44.5592 17.8878 44.1185C17.7042 43.1635 17.6307 42.135 17.6307 41.1432V40.629C17.7409 39.1965 17.7409 37.8742 17.6307 36.2948V32.2176C17.8511 31.1157 17.7409 30.0138 17.594 28.9486C17.4838 27.9201 17.3736 26.9651 17.594 26.1203L17.6307 26.0101V24.3205C17.6307 24.247 17.6307 24.1368 17.6307 24.0634V22.8512C17.594 22.8145 17.5572 22.7778 17.5205 22.741C17.4838 22.7043 17.5572 22.6309 17.6307 22.5207V21.8228C17.7409 20.1331 17.7409 18.5537 17.6307 16.9376V13.7787C18.6959 13.3379 19.908 13.0441 21.0834 12.7502C21.1569 12.7502 21.1936 12.7135 21.2671 12.7135C21.3405 12.6033 21.4874 12.5298 21.5976 12.4197C21.6344 12.4931 21.6711 12.5298 21.7446 12.6033C21.9282 12.5666 22.1486 12.4931 22.3322 12.4564C22.4424 12.4197 22.5526 12.3829 22.6996 12.3462L22.773 12.3095C23.6178 12.0156 24.4626 11.7585 25.2707 11.5381C26.0053 11.3177 26.7767 11.0973 27.5848 10.8402L28.8704 10.4729L28.9438 10.4362C29.8621 10.0689 30.8538 9.84848 31.8823 9.6281C33.1679 9.33425 34.4902 9.07714 35.7023 8.41598L35.6288 8.30579C36.1798 8.15886 36.7675 7.93848 37.3185 7.75482C38.0898 7.4977 38.8979 7.24059 39.6693 7.05693C39.706 7.05693 39.706 7.05693 39.7427 7.05693C40.9548 7.31405 42.1302 7.71809 43.2322 8.0854C44.4075 8.48944 45.6564 8.89348 46.942 9.18733H47.0154H47.0889C48.7785 9.22406 50.211 9.6281 51.4966 10.3994L51.6068 10.4729L51.717 10.5096C52.121 10.6198 52.4883 10.7668 52.8924 10.9504C53.8107 11.3177 54.8024 11.685 55.7941 11.7585L57.7776 12.3462C58.8428 12.8237 60.0917 13.1175 61.267 13.4114C61.4874 13.4481 61.7078 13.5216 61.9282 13.5583L62.369 13.7052C62.369 13.9624 62.369 14.2195 62.4057 14.3664C62.4057 14.5868 62.4424 14.8439 62.5159 15.0643V34.9357V35.2296C62.6261 36.9559 62.6261 38.8292 62.5526 40.5188ZM37.0246 39.674C37.0981 39.6006 37.1348 39.4904 37.2083 39.4169C37.245 39.3802 37.3552 39.4536 37.4287 39.4904C37.4654 39.5638 37.5389 39.6006 37.5756 39.674C37.4654 39.7107 37.3552 39.7475 37.2083 39.7475C37.1716 39.7475 37.0981 39.7107 37.0246 39.674ZM43.0485 41.0331C43.0852 40.9963 43.122 40.9596 43.1587 40.9596C43.1954 40.9963 43.2689 41.0331 43.2689 41.0698C43.2689 41.1065 43.2322 41.1432 43.1954 41.18C43.1587 41.1065 43.0852 41.0698 43.0485 41.0331ZM46.5747 31.4463C46.5747 31.3728 46.6849 31.2994 46.7583 31.2626C46.8318 31.3361 46.942 31.3728 46.9787 31.4463C46.9787 31.483 46.9052 31.5565 46.7951 31.6299C46.7216 31.5565 46.5747 31.5197 46.5747 31.4463ZM50.5049 34.2378C50.5783 34.2011 50.6151 34.1276 50.6885 34.0909C50.6885 34.0909 50.762 34.1276 50.7987 34.1644C50.7253 34.2378 50.6518 34.2746 50.5783 34.3113C50.5783 34.3113 50.5416 34.2378 50.5049 34.2378ZM51.5333 33.9807C51.5701 33.944 51.5701 33.8705 51.6068 33.8705C51.6803 33.8705 51.7537 33.9073 51.8272 33.9073C51.7905 33.9807 51.7537 34.0542 51.7537 34.0542C51.6803 34.0542 51.6068 34.0174 51.5333 33.9807ZM53.5535 32.9155C53.5535 32.8421 53.627 32.7686 53.6637 32.6951C53.7372 32.7319 53.8474 32.7686 53.8474 32.8053C53.8474 32.8788 53.8107 32.989 53.7372 33.1359C53.6637 33.0257 53.5535 32.9522 53.5535 32.9155ZM53.4066 24.247C53.4066 24.3939 53.2964 24.5409 53.223 24.6511C53.1495 24.5409 53.076 24.4307 52.9658 24.2837C53.0393 24.1368 53.1128 24.0634 53.1862 23.9532C53.2597 24.0634 53.4066 24.1736 53.4066 24.247ZM33.7188 30.1607C33.7188 30.1607 33.6086 30.2709 33.5719 30.2342C33.4617 30.1974 33.3883 30.124 33.2413 30.0505C33.3883 29.977 33.4985 29.9036 33.5352 29.9403C33.6086 29.977 33.6454 30.0872 33.7188 30.1607ZM31.3681 34.6419C31.2579 34.7521 31.1477 34.899 31.1109 34.899C31.0008 34.8623 30.9273 34.7888 30.8171 34.7153C30.8906 34.6419 30.964 34.5317 31.0375 34.5317C31.1109 34.4949 31.2211 34.5684 31.3681 34.6419ZM32.3598 21.1616C32.3598 21.1249 32.4333 21.0514 32.5067 20.978C32.5802 21.0147 32.6169 21.0514 32.6904 21.1249C32.6536 21.2351 32.6169 21.3085 32.5802 21.382C32.5067 21.3085 32.3965 21.2351 32.3598 21.1616ZM35.5554 27.1488C35.5554 27.112 35.6288 27.0386 35.6288 27.0018C35.6656 27.0386 35.7023 27.0753 35.739 27.112C35.7023 27.1488 35.7023 27.1855 35.6656 27.2222C35.6288 27.1855 35.5187 27.1488 35.5554 27.1488ZM31.6986 53.3012C31.7721 53.3012 31.8456 53.3747 32.1027 53.4848C31.6986 53.5583 31.5517 53.595 31.4048 53.6318L31.3313 53.4848C31.4415 53.4114 31.5517 53.3012 31.6986 53.3012ZM31.1844 51.832C31.1109 51.685 31.0375 51.6116 31.0375 51.5748C31.1477 51.3545 31.2946 51.1341 31.4048 50.9137C31.4783 51.0239 31.6619 51.1708 31.6252 51.2443C31.5517 51.4279 31.3681 51.6116 31.1844 51.832ZM29.8254 48.7466C29.9356 49.0037 30.009 49.1139 30.0457 49.2241C30.0457 49.2608 30.009 49.2975 30.009 49.3343C29.8988 49.2608 29.7886 49.1873 29.6784 49.1139C29.6417 49.1506 29.6784 49.0771 29.8254 48.7466ZM29.605 46.2121C29.4581 46.1754 29.3111 46.1019 29.2009 46.0285C29.1275 45.9917 29.0907 45.9183 29.0173 45.8448C29.1275 45.7713 29.2009 45.7346 29.3846 45.6244C29.5315 45.7713 29.6784 45.8815 29.7886 46.0285C29.7886 46.0285 29.6417 46.2121 29.605 46.2121ZM40.6243 23.1084C40.6243 21.5289 40.4773 19.3618 40.2937 18.1497C40.0366 18.0762 39.7794 18.0028 39.5223 17.9293C38.7877 17.7089 38.0898 17.7456 37.3552 17.966C37.3552 17.966 37.3185 17.9293 37.3552 17.9293C38.0531 17.6354 38.7877 17.4151 39.5223 17.2314C39.5591 17.2314 39.5591 17.2314 39.5958 17.2314C38.5673 16.8641 37.2817 17.2681 36.6573 17.5987C36.1064 17.8926 35.8125 18.517 35.7023 18.8843C35.9594 19.6556 36.0329 20.4637 36.1798 21.3453C36.4002 22.5941 36.5839 23.8797 36.7675 25.1286C36.9512 26.2672 36.9512 27.8099 37.5756 28.8384C38.4204 30.2342 39.5958 29.6832 40.8446 29.3526C40.8079 29.2792 40.7712 29.169 40.7712 29.0588C40.2937 27.259 40.661 25.0184 40.6243 23.1084ZM37.5389 20.2801C37.4654 20.1331 37.3919 20.0597 37.3919 20.023C37.4287 19.876 37.5021 19.7658 37.5756 19.6189C37.6491 19.6556 37.7592 19.7291 37.7225 19.7658C37.6858 19.9495 37.6123 20.0964 37.5389 20.2801ZM38.3102 28.5078C38.2735 28.4711 38.2367 28.4343 38.2 28.4343C38.2367 28.4343 38.3102 28.3976 38.3469 28.3976C38.3837 28.3976 38.4204 28.4343 38.4571 28.4711C38.4204 28.4711 38.3837 28.4711 38.3102 28.5078ZM43.4893 16.1662C44.2606 16.2029 45.032 16.2029 45.7666 16.2764C44.9952 15.9458 43.9668 15.6887 43.3056 15.7622C42.5343 15.8356 41.8731 16.9008 41.5058 17.4885C41.7996 19.9128 41.6895 22.2268 41.7262 24.5041C41.7262 25.8632 41.4323 27.5895 41.8364 28.9118C42.3873 30.7851 45.6564 29.6832 45.9135 26.8916C46.0237 25.6428 45.84 24.2837 45.9135 22.9982C46.1339 20.0964 46.5379 18.1864 46.6849 17.3049C45.5829 17.0845 44.5912 16.4968 43.4893 16.1662C43.4525 16.1662 43.4525 16.1662 43.4893 16.1662ZM42.6077 23.0349C42.5343 22.9614 42.4608 22.888 42.4241 22.8145C42.4241 22.7778 42.5343 22.7043 42.571 22.6676C42.6445 22.7043 42.6812 22.7778 42.7547 22.8512C42.6812 22.9247 42.6445 22.9982 42.6077 23.0349Z" fill="#111111"/>
</g>
<defs>
<clipPath id="clip0">
<rect width="80" height="80" fill="white"/>
</clipPath>
</defs>
</svg>
