<svg width="80" height="80" viewBox="0 0 80 80" fill="none" xmlns="http://www.w3.org/2000/svg">
<g clip-path="url(#clip0)">
<path fill-rule="evenodd" clip-rule="evenodd" d="M34.8997 19.9943C34.8997 20.2235 34.957 20.7393 35.1862 20.8539C35.5874 20.6819 35.2436 19.8797 34.8997 19.9943ZM19.0258 73.1175C18.4527 73.1175 18.3954 72.086 18.7393 71.7994C19.1404 72.1433 18.9112 72.7163 19.0258 73.1175ZM19.8281 69.851C19.5415 70.0802 19.3123 70.0229 19.1977 69.6791C19.255 69.6218 19.255 69.5645 19.255 69.5072C19.5415 69.1633 19.8281 69.5645 19.8281 69.851ZM21.3754 70.596C21.4327 71.0544 21.49 71.5129 21.5473 71.9713C21.0888 72.2579 20.8596 72.1433 20.5158 72.3725C20.6877 72.5444 21.1461 72.659 21.1461 73.0029C20.6877 73.0602 20.4011 72.659 20 72.5444C19.8854 71.6848 18.3954 70.8825 19.1977 70.0802C19.3696 69.9656 19.4842 70.0229 19.5989 70.2521C19.7708 70.4814 19.4269 70.5387 19.4842 70.7106C19.8281 71.0544 19.8281 71.5702 20.3438 71.4556C20.3438 71.0544 20.8596 70.6533 21.3754 70.596ZM20.1719 65.8395C20 66.0115 19.9427 65.8395 19.8281 65.8968C19.6562 65.6103 19.5989 65.3811 19.8854 65.2092C20.0573 65.3238 20.3438 65.6676 20.1719 65.8395ZM22.6361 68.6476C22.5215 69.106 23.0373 69.7364 22.3496 70.0802C22.235 69.7364 21.6046 69.2206 21.7765 68.8195C22.235 68.8768 22.4069 68.8768 22.6361 68.6476ZM23.2092 68.5329C23.3238 68.6476 23.3238 68.8195 23.1519 68.8768C23.0373 68.8195 22.9799 68.5902 23.2092 68.5329ZM23.0946 67.2149C23.0946 67.3295 23.3238 67.5014 23.2092 67.5587C22.9799 67.6734 22.8653 67.2149 23.0946 67.2149ZM24.9857 69.106C24.8138 69.106 24.5845 69.2779 24.4699 69.2779C24.3553 68.4183 23.8395 68.1318 23.3811 67.3868C23.4957 67.2149 23.553 67.1003 23.7822 66.9857C24.298 67.3868 24.8138 68.2464 24.9857 69.106ZM23.553 66.1834C23.4384 66.3553 23.1519 66.5272 22.9799 66.4126C22.4642 65.8395 23.6103 65.3811 23.553 66.1834ZM4.92837 34.5501C4.75645 34.4355 4.69914 34.2063 4.92837 34.0344C5.15759 34.0917 5.27221 34.4355 4.92837 34.5501ZM25.7307 67.4441C25.7307 67.5014 25.788 67.5014 25.788 67.5587C25.9026 67.8453 25.616 68.0172 25.5014 68.3037C25.1003 68.0172 25.3295 67.616 25.7307 67.4441ZM6.24642 33.0602C6.41834 33.4613 6.47565 33.8625 6.24642 34.149C5.78797 33.8052 5.67335 33.2321 5.15759 33.0029C5.2149 32.9456 5.2149 32.8883 5.2149 32.8309C5.44413 32.659 5.55874 32.7736 5.73066 32.7736C5.90258 32.9456 5.78797 33.0029 5.90258 33.1748C6.01719 33.1748 6.13181 33.1175 6.24642 33.0602ZM7.22063 33.9198C7.33524 34.0344 7.39255 34.2063 7.39255 34.3209C7.27794 34.4355 7.16332 34.4355 7.04871 34.4355C6.9914 34.3782 6.9341 34.2636 6.9341 34.2063C7.04871 34.0344 7.04871 33.9771 7.22063 33.9198ZM9.28367 36.8424C9.34097 36.8997 9.39828 37.0143 9.39828 37.0716C9.22636 37.2436 9.05444 36.8997 9.28367 36.8424ZM10.2579 37.8166C10.3152 37.9312 10.3725 37.9885 10.4298 38.1031C10.3725 38.1605 10.2579 38.2178 10.2006 38.2178C10.086 38.0458 10.0287 37.9312 10.2579 37.8166ZM25.5014 60.6819C25.3295 60.8539 25.1576 60.7966 25.043 60.7966C24.8711 60.5673 24.8711 60.4527 24.8711 60.2808C25.2722 59.8797 25.7307 60.3381 25.5014 60.6819ZM12.0917 37.1289C12.149 37.3009 12.2063 37.4728 12.0344 37.5874C11.9198 37.5874 11.8052 37.3582 11.8052 37.2436C11.9198 37.1289 11.9771 37.1862 12.0917 37.1289ZM13.0659 38.3897C13.1805 38.5616 13.1805 38.7335 13.0086 38.8481C12.894 38.8481 12.7794 38.6189 12.7794 38.5043C12.894 38.3324 12.9513 38.3897 13.0659 38.3897ZM11.2894 37.1289C10.8883 37.3582 10.7736 37.7593 10.3152 37.6447C10.4298 37.1289 9.45559 36.957 9.68481 36.3266C9.85673 36.1547 9.91404 36.2693 10.086 36.1547C10.0287 35.5817 10.659 35.4097 10.659 34.8367C10.8883 34.6648 11.0029 34.7221 11.1748 34.7794C11.3467 35.639 11.0602 36.3266 11.2894 37.1289ZM28.596 64.2923C28.5387 64.2923 28.4814 64.2923 28.3668 64.3496C28.1948 64.063 28.0229 63.8338 28.3095 63.6619C28.5387 63.8338 28.7106 64.1203 28.596 64.2923ZM14.4413 39.9943C14.212 40.2235 13.9828 39.7077 14.212 39.5931C14.2693 39.6504 14.4986 39.8797 14.4413 39.9943ZM10.1433 34.0344C9.97135 33.5759 10.086 33.1748 9.97135 32.7163C10.8309 32.4871 10.7736 33.6905 10.1433 34.0344ZM30.0287 65.4384C30.2006 65.8395 30.3152 66.1834 29.914 66.4699C29.914 66.1261 29.6848 65.7249 30.0287 65.4384ZM11.8052 34.8367C11.7479 34.894 11.6905 34.894 11.7479 34.9513C11.5186 35.1805 11.2321 34.894 11.2321 34.6074C11.2894 34.5501 11.3467 34.5501 11.2894 34.4928C11.5186 34.4355 11.6905 34.5501 11.8052 34.8367ZM30.2579 64.9799C30.4871 65.0373 30.4871 65.3811 30.2579 65.4957C30.0287 65.2092 30.2579 65.0946 30.2579 64.9799ZM14.384 36.957C14.6132 37.3009 14.7278 37.5874 14.384 37.7593C14.3266 37.702 14.2693 37.7593 14.212 37.7593C13.9828 37.4155 13.9828 37.1289 14.384 36.957ZM26.1318 56.6705C25.9026 56.8424 25.6734 56.5559 25.7307 56.384C26.0172 56.1547 26.1891 56.4413 26.1318 56.6705ZM12.7794 34.0917C12.4928 34.2063 12.2636 34.2063 12.0917 34.0344C12.149 33.6905 12.8367 33.6332 12.7794 34.0917ZM19.1404 44.5215C19.0831 44.5788 18.9685 44.6361 18.9112 44.6361C18.7393 44.5788 18.6246 44.2923 18.6819 44.1203C18.9112 44.0057 19.1977 44.2923 19.1404 44.5215ZM16.6762 39.937C16.3897 40.0516 16.3324 40.3381 16.3324 40.6819C15.702 40.4527 15.3582 39.1347 15.702 38.6189C16.2751 38.6762 16.5616 39.5931 16.6762 39.937ZM19.1977 43.6619C18.6246 43.7192 18.0516 43.8911 17.6504 43.4327C17.9943 43.2034 19.0831 42.8023 19.1977 43.6619ZM30.2579 63.0888C29.9713 63.0315 29.914 62.6877 29.9713 62.4585C30.3725 61.8854 31.0602 62.8596 30.2579 63.0888ZM16.2751 37.8166C16.1605 37.8739 16.2178 37.9885 16.1032 37.9885C16.0458 37.9312 15.9885 37.9312 15.9312 37.9312C15.8739 37.702 15.8166 37.5301 16.0458 37.3582C16.2178 37.4155 16.2178 37.6447 16.2751 37.8166ZM17.4785 39.3066C17.192 39.2493 17.0774 38.7908 17.4212 38.6189C17.6504 38.7335 17.7077 39.1347 17.4785 39.3066ZM27.3352 54.9513C27.2206 55.1232 27.1633 55.2378 26.9341 55.2378C26.7622 54.9513 26.8195 54.7794 27.0487 54.6074C27.1633 54.6648 27.2779 54.7794 27.3352 54.9513ZM25.1003 51.2264C24.9284 51.3983 24.9857 51.341 24.8138 51.3983C24.5272 51.2837 24.4699 50.8825 24.8138 50.7679C24.9857 50.7679 25.1576 51.0544 25.1003 51.2264ZM31.4613 61.7135C31.1748 61.5989 31.1175 61.1404 31.4613 61.0258C31.6905 61.1977 31.6905 61.5989 31.4613 61.7135ZM20.2292 41.4269C19.9427 41.6562 19.7708 41.5415 19.6562 41.255C19.9427 41.0258 20.1146 41.1977 20.2292 41.4269ZM15.2436 32.4871C15.4155 32.659 15.4155 32.8309 15.1862 32.9456C15.1289 32.8309 15.0716 32.7736 15.0143 32.659C15.0716 32.6017 15.1862 32.5444 15.2436 32.4871ZM22.235 44.235C21.8338 44.1203 21.5473 43.5473 22.063 43.3181C22.4642 43.3754 22.6934 43.9484 22.235 44.235ZM16.9628 34.6074C16.6189 34.8367 16.3897 34.7794 16.2178 34.4355C16.6189 34.0344 17.1347 34.149 16.9628 34.6074ZM34.4413 64.0057C34.0401 64.1776 33.8682 64.0057 33.5817 64.4069C33.5244 64.3496 33.4671 64.3496 33.4097 64.3496C33.1805 63.9484 33.5244 63.7192 33.8109 63.49C33.8109 63.3181 33.5244 63.1461 33.8109 62.9169C34.0401 62.9742 33.9828 63.1461 33.9828 63.3181C34.3266 63.2607 34.7278 63.6619 34.4413 64.0057ZM15.8166 32.3725C15.5301 32.0287 14.7278 31.6848 14.957 31.1691C15.3582 31.2264 16.2178 31.8567 15.8166 32.3725ZM17.765 35.0086C17.5931 34.9513 17.4785 34.6648 17.5358 34.4928C18.1089 34.0344 18.3381 34.8367 17.765 35.0086ZM17.8797 33.8625C17.5931 34.5501 16.6762 33.4613 17.4212 33.2321C17.5931 33.404 17.765 33.5759 17.8797 33.8625ZM18.9685 35.2378C18.8539 35.2951 18.9112 35.4097 18.7966 35.4097C18.5673 35.3524 18.51 35.0086 18.7393 34.894C18.7966 34.9513 18.8539 35.1232 18.9685 35.2378ZM35.3009 62.2865C35.1862 62.2292 34.957 61.9427 35.1862 61.8854C35.3582 61.8854 35.5874 62.1719 35.3009 62.2865ZM27.7364 47.5587C27.851 47.6734 27.7937 47.7307 27.7937 47.8453C27.6791 47.9599 27.6218 47.9026 27.5072 47.9026C27.4499 47.7307 27.5645 47.6734 27.7364 47.5587ZM35.4155 60.3954C34.957 60.7966 34.5559 59.937 34.8424 59.7077C35.2436 59.5931 35.3009 60.1089 35.4155 60.3954ZM28.7679 48.0745C28.8825 48.361 28.4814 48.6476 28.3095 48.361C28.3668 48.1891 28.6533 48.0172 28.7679 48.0745ZM20.5158 34.0344C20.6304 34.2063 20.6304 34.3209 20.4585 34.3782C20.3438 34.2063 20.2865 34.0917 20.5158 34.0344ZM20.1719 32.4298C19.0258 33.4613 21.3754 33.1175 20.1719 32.4298V32.4298ZM36.1605 59.4212C35.9885 59.3639 35.9885 59.0774 36.1605 58.9054C36.3897 59.0201 36.5043 59.3066 36.1605 59.4212ZM37.8797 60.7393C37.5931 60.6246 37.3066 60.1089 37.765 59.8797C38.1089 59.9943 38.1662 60.51 37.8797 60.7393ZM37.6504 59.5358C37.4785 59.4785 37.3639 59.2493 37.5931 59.192C37.765 59.2493 37.8797 59.4785 37.6504 59.5358ZM39.8281 59.765C39.5989 59.937 39.3696 59.8797 39.255 59.6504C39.5415 59.4212 39.7135 59.5358 39.8281 59.765ZM40.2865 59.8223C40.1146 59.765 40 59.5358 40.2292 59.4785C40.3438 59.4785 40.5158 59.765 40.2865 59.8223ZM24.3553 33.4613C24.0688 33.2894 24.1261 32.9456 24.4126 32.7736C24.7564 32.9456 24.6418 33.3467 24.3553 33.4613ZM40.6877 58.8481C40.8023 59.0201 40.745 59.0774 40.5731 59.1347C40.4585 58.9627 40.4585 58.8481 40.6304 58.7908C40.6304 58.8481 40.6877 58.8481 40.6877 58.8481ZM41.4327 57.7593C41.49 57.9312 41.5473 58.1605 41.3754 58.2751C41.2607 58.2751 41.0888 57.9885 41.1461 57.8739C41.2034 57.8166 41.3181 57.7593 41.4327 57.7593ZM40.5158 55.639C40.5158 55.9255 40.5158 56.2693 40.1719 56.4986C40.0573 56.2693 39.8281 56.0401 39.8281 55.8109C40.1146 55.639 40.3438 55.639 40.5158 55.639ZM43.4384 60.8539C43.2092 60.9112 42.9226 61.1977 42.7507 60.8539C42.5788 60.5673 43.1519 60.2235 43.2665 60.1662C43.553 60.2808 43.3811 60.6819 43.4384 60.8539ZM27.7364 33.2894C27.851 33.404 27.851 33.5186 27.851 33.6332C27.7364 33.7478 27.6218 33.7479 27.5072 33.7479C27.3352 33.4613 27.5072 33.2894 27.7364 33.2894ZM28.2521 35.1805C28.1948 34.9513 28.0229 35.0086 27.9656 34.7794C28.1375 34.4355 28.2522 34.0344 28.1948 33.5759C28.5387 33.404 28.9398 33.5186 28.9971 33.8052C28.5387 34.2636 28.2521 34.7221 28.2521 35.1805ZM47.106 63.4327C46.9914 63.318 46.8768 63.4327 46.8195 63.2034C46.9341 62.8023 47.5072 63.2034 47.106 63.4327ZM46.361 62.2292C46.0745 62.1146 46.1318 61.7708 46.361 61.6562C46.5903 61.7135 46.6476 62.1146 46.361 62.2292ZM45.5014 61.3696C45.2722 61.5415 45.3868 61.7708 45.3868 62C44.9284 62.0573 45.043 62.1719 44.6991 62.4585C44.6991 62.0573 44.7565 61.6562 44.6991 61.255C44.9284 61.1404 44.9857 61.0258 45.1003 60.8539C44.9857 60.5673 44.8138 60.7966 44.6991 60.5673C44.6418 60.2808 44.7564 60.1089 45.043 59.8797C45.1003 60.6246 46.4183 60.6246 45.9599 61.255C45.788 61.4269 45.6734 61.1977 45.5014 61.3696ZM31.2894 35.1232C31.3467 35.3524 31.1175 35.2951 31.0029 35.2951C30.8883 35.0659 31.1175 35.1232 31.2894 35.1232ZM49.5702 66.1261C49.341 65.7822 49.1117 65.4384 49.1117 65.0946C49.7421 64.6934 50.086 65.9542 49.5702 66.1261ZM46.0745 59.192C46.0172 59.2493 45.9026 59.3066 45.8453 59.3066C45.7307 59.1347 45.7307 59.0201 45.9026 58.9627C45.9599 59.0201 46.0172 59.1347 46.0745 59.192ZM47.5072 62.4585C47.0487 62.1719 47.2206 61.6562 47.3352 61.3696C47.851 61.3123 48.1375 62.2865 47.5072 62.4585ZM48.4814 62.3438C48.6533 62.5731 48.3095 62.6877 48.1375 62.6877C47.9656 62.4585 48.3095 62.4011 48.4814 62.3438ZM49.5129 63.3181C49.7421 63.5473 49.6848 63.7765 49.7421 63.9484C49.4556 64.063 49.3983 64.235 49.1117 64.4069C48.8825 64.1203 49.1118 63.8911 48.9398 63.6046C49.1118 63.49 49.341 63.2607 49.5129 63.3181ZM48.0229 60.7966C48.1948 61.0258 48.2522 61.3123 48.0802 61.4842C47.6791 61.6562 47.6218 60.7393 48.0229 60.7966ZM49.6275 62.5158C49.4556 62.6877 49.3983 62.4585 49.2837 62.4585C49.2837 62.3438 49.2837 62.1719 49.4556 62.1146C49.6275 62.1719 49.7421 62.4011 49.6275 62.5158ZM53.0659 67.3868C53.0086 67.4441 52.894 67.5014 52.8367 67.5014C52.7221 67.3295 52.6648 67.2149 52.8367 67.1003C52.9513 67.1576 53.0086 67.2149 53.0659 67.3868ZM33.7536 34.6074C33.8682 34.7221 33.8109 34.7794 33.8109 34.894C33.6963 34.894 33.5244 34.894 33.4671 34.7221C33.5817 34.6074 33.639 34.6648 33.7536 34.6074ZM56.447 70.1948C56.5043 70.2521 56.447 70.3094 56.5043 70.4241C56.1605 70.4814 55.9885 70.8252 55.702 71.0544C55.4728 70.9971 55.1862 70.6533 55.3009 70.4241C55.8166 70.0802 56.1605 70.4814 56.447 70.1948ZM34.212 32.3725C34.384 32.6017 34.4413 32.8309 34.1547 32.9456C33.9255 32.8309 33.8682 32.4298 34.212 32.3725ZM30.4298 32.086C30.6017 32.0287 30.6017 31.914 30.4871 31.7421C30.2006 31.7994 30.2579 32.0287 30.4298 32.086ZM33.2378 29.3925C33.2378 29.4499 33.2951 29.4499 33.2951 29.5072C33.2378 29.5072 33.2378 29.5645 33.2951 29.6218C33.2378 29.6218 33.2378 29.6791 33.1805 29.6791C33.1805 29.6218 33.1232 29.6218 33.0659 29.6791C33.0659 29.6218 33.0086 29.6218 33.0086 29.5645C33.0659 29.5645 33.0659 29.5072 33.0086 29.4499C33.0659 29.4499 33.0659 29.3925 33.1232 29.3925C33.1805 29.3925 33.1805 29.3925 33.2378 29.3925ZM58.9112 73.1748C58.4527 72.8883 58.4527 72.3152 58.8539 72.086C59.4842 71.7994 59.7135 72.8309 58.9112 73.1748ZM58.4527 70.3094C58.2808 70.596 58.0516 70.8252 57.8224 71.1117C57.937 71.5702 58.3954 71.5702 58.3954 71.9713C57.8797 72.086 57.4212 71.8567 57.3066 71.4556C57.192 71.0544 57.937 70.4241 57.7077 70.0229C58.0516 69.5645 58.3954 69.851 58.4527 70.3094ZM34.3266 29.6218C34.1547 29.3352 34.212 29.1633 34.3266 28.9914C34.957 28.7049 34.957 29.7937 34.3266 29.6218ZM57.6504 67.2722C57.8224 67.5587 57.6504 67.7307 57.3639 67.9026C57.1347 67.5587 57.3639 67.1576 57.6504 67.2722ZM63.1519 75.5817C62.9799 75.5244 62.808 75.1232 62.7507 74.9513C63.3238 74.4355 63.6676 75.4097 63.1519 75.5817ZM53.4097 56.7278C53.2378 56.6705 53.0659 56.3266 53.1232 56.212C53.5244 55.8109 54.1547 56.5559 53.4097 56.7278ZM54.8997 57.702C54.8424 57.7593 54.7278 57.8166 54.6705 57.8166C54.4413 57.7593 54.4413 57.5301 54.4413 57.3582C54.4986 57.3582 54.4986 57.3009 54.5559 57.3009C54.7278 57.3582 54.957 57.4728 54.8997 57.702ZM56.9628 60.5673C56.8481 60.7393 56.6762 60.9685 56.447 60.7966C56.3324 60.4527 56.8481 60.1089 56.9628 60.5673ZM36.0458 25.7249C35.4728 25.7822 34.8424 25.1519 35.1289 24.5788C35.5301 24.6361 36.3324 25.2665 36.0458 25.7249ZM51.5759 51.7421C52.2636 51.6848 51.3467 51.1117 51.5759 51.7421V51.7421ZM55.4155 55.8109C55.2436 55.9255 55.0716 55.8109 54.957 55.5817C55.0143 55.5244 55.1289 55.467 55.1863 55.467C55.3582 55.467 55.4728 55.639 55.4155 55.8109ZM55.0716 54.5501C55.1289 54.7794 55.1289 54.9513 54.8424 55.0659C54.5559 54.9513 54.7851 54.4355 55.0716 54.5501ZM56.5043 56.7278C56.6189 56.8424 56.6189 56.957 56.6189 57.0716C56.447 57.1289 56.3324 57.1289 56.2751 56.957C56.3324 56.7851 56.2751 56.7278 56.5043 56.7278ZM52.0344 48.8768C51.9198 48.9914 51.8052 48.9914 51.6905 48.9914C51.5759 48.8195 51.5759 48.6476 51.8052 48.5329C51.9198 48.5329 52.0344 48.7622 52.0344 48.8768ZM37.3066 23.9484C37.2493 23.8338 37.0201 23.6619 37.2493 23.6046C37.3639 23.6046 37.4785 23.8911 37.3066 23.9484ZM57.5358 57.3009C57.6504 57.4728 57.5358 57.5874 57.3639 57.6447C57.3066 57.5874 57.2493 57.4728 57.2493 57.4155C57.3066 57.3009 57.4212 57.3009 57.5358 57.3009ZM37.3066 22.9742C37.4785 23.0888 37.0774 23.3181 37.0774 23.2034C36.9054 23.0315 37.2493 22.9742 37.3066 22.9742ZM56.3897 55.0659C56.2178 55.1805 56.0458 55.3524 55.8739 55.2951C55.8166 55.1805 55.7593 55.1232 55.702 55.0086C55.8739 54.894 55.8166 54.7221 56.0458 54.6648C56.3324 54.6074 56.447 54.7794 56.3897 55.0659ZM52.0344 46.7564C51.9198 47.3295 52.6075 47.8453 52.149 48.361C51.6332 48.533 51.6905 47.788 51.3467 47.5587C51.2894 47.2149 51.5186 46.6418 52.0344 46.7564ZM54.6132 50.0229C54.4986 50.1948 54.4413 50.0229 54.2693 50.1375C54.212 50.4814 54.3267 50.8252 54.1547 51.1691C54.3267 51.341 54.6132 51.5129 54.6132 51.8567C54.212 52.0287 54.1547 52.086 53.8682 52.3725C53.639 52.3152 53.7536 52.0287 53.6963 51.8567C53.4671 51.2264 52.7221 50.8252 52.7794 50.2521C53.4671 50.1375 54.5559 48.8768 54.6132 50.0229ZM53.1232 47.1003C52.894 47.3295 52.6075 46.7564 52.894 46.6991C53.0659 46.7564 53.0086 46.9284 53.1232 47.1003ZM54.7278 48.7622C54.3267 48.6476 54.0974 47.8453 54.4413 47.616C54.7851 47.8453 55.0143 48.533 54.7278 48.7622ZM53.9828 46.4699C53.5817 46.5272 53.3524 45.7249 53.4097 45.4957C53.8109 45.4384 54.2693 46.0688 53.9828 46.4699ZM47.2206 33.8625C46.7622 34.0344 46.533 33.2321 46.9914 33.0602C47.0487 33.0029 47.106 33.0029 47.1633 33.0602C47.3353 33.1748 47.2779 33.6332 47.2206 33.8625ZM38.9112 19.1347C38.5673 19.4212 38.2808 19.0774 38.51 18.8481C38.7393 18.6762 38.9112 18.9054 38.9112 19.1347ZM54.5559 45.1519C54.6132 45.2092 54.6132 45.2665 54.6705 45.3238C54.6132 45.3811 54.5559 45.3811 54.4986 45.4384C54.4413 45.3811 54.384 45.2665 54.384 45.2092C54.384 45.2092 54.4986 45.2092 54.5559 45.1519ZM55.8739 46.298C55.3009 46.8138 56.5616 46.8138 55.8739 46.298V46.298ZM44.8138 27.8453C44.6991 27.8453 44.6418 27.8453 44.5272 27.8453C44.3553 27.7307 44.5272 27.616 44.4126 27.5014C44.6991 27.3295 44.9284 27.616 44.8138 27.8453ZM46.0172 28.5329C45.8453 28.7622 45.6734 29.2206 45.2722 29.2206C44.7565 28.7622 45.6161 27.5587 46.0172 28.5329ZM44.1261 26.5272C43.7822 26.298 43.8969 25.7249 44.1261 25.4957C44.3553 25.7249 44.5272 26.3553 44.1261 26.5272ZM39.0831 16.8997C39.1404 16.8424 39.1977 16.8424 39.255 16.7851C39.8281 17.0143 39.0258 17.4728 39.0831 16.8997ZM43.553 23.8911C43.3238 24.063 42.9799 23.8911 42.9799 23.6046C43.2092 23.4327 43.553 23.6046 43.553 23.8911ZM37.0774 14.4355C36.3324 14.4928 36.2751 13.404 36.7335 13.2321C37.4212 12.9456 37.765 14.0344 37.0774 14.4355ZM38.2808 13.9198C38.0516 14.0917 37.8223 13.8052 37.8797 13.6332C38.1089 13.404 38.2808 13.6905 38.2808 13.9198ZM57.4785 46.4126C57.0201 46.5272 57.0774 45.6676 57.2493 45.4384C57.4785 45.6103 57.7077 46.1834 57.4785 46.4126ZM47.0487 28.6476C46.8195 28.8195 46.5903 28.533 46.5903 28.3037C46.8768 28.1318 47.4499 28.361 47.0487 28.6476ZM43.4384 21.5415C43.553 21.8854 43.0373 21.7135 42.808 22C42.5215 21.7708 41.9484 21.4842 42.0057 21.0258C42.1777 20.8539 42.235 21.0258 42.3496 20.9685C42.5215 21.1977 42.3496 21.3123 42.5215 21.5415C42.5788 21.5989 42.7507 21.3123 42.9799 21.3696C43.0946 21.6562 43.2665 21.5415 43.4384 21.5415ZM46.361 27.3868C46.0745 27.4441 45.788 27.3868 45.5587 27.2149C45.4441 26.8711 45.6734 26.4126 45.9026 26.298C46.5903 26.0688 46.4183 26.8711 46.361 27.3868ZM47.3926 27.5014C47.5072 27.6734 47.5645 27.788 47.3926 27.9026C47.2779 27.788 47.106 27.5587 47.3926 27.5014ZM47.0487 26.8711C47.106 26.9857 47.2206 27.1003 47.106 27.1576C46.9914 27.2722 46.7622 26.8711 47.0487 26.8711ZM51.8052 34.2063C51.9771 34.3782 51.9771 34.5501 51.7479 34.6648C51.6905 34.5501 51.6332 34.4928 51.5759 34.3782C51.6905 34.3209 51.7479 34.2636 51.8052 34.2063ZM45.1003 22.4011C45.1576 22.4585 45.2149 22.5731 45.2149 22.6304C45.043 22.8596 44.8138 22.6304 44.8711 22.4585C44.9857 22.4585 45.043 22.4585 45.1003 22.4011ZM46.6476 24.808C46.7622 25.1519 46.8195 25.4384 46.9914 25.7822C46.8768 25.8395 46.8768 26.0115 46.6476 26.0688C46.361 25.7249 46.533 25.4957 46.2464 25.1519C46.3037 24.9799 46.4756 24.9226 46.6476 24.808ZM40.2292 13.9198C40.2292 14.6074 40.9169 15.5244 40.0573 15.9828C39.5989 15.8682 39.6562 15.5244 39.6562 15.1805C39.4842 15.0086 39.255 15.1805 39.0831 15.0659C38.9685 14.6648 39.0258 14.3782 39.0831 14.0344C39.4842 13.9198 39.8281 14.0917 40.2292 13.9198ZM51.7479 32.7163C51.4613 32.9456 51.3467 32.7163 51.1748 32.4298C51.404 32.2006 51.7479 32.3725 51.7479 32.7163ZM58.7966 43.4327C58.8539 43.49 58.9112 43.6046 58.9112 43.6619C58.8539 43.7192 58.7966 43.7192 58.8539 43.7765C58.6819 43.8911 58.5673 43.8338 58.4527 43.6046C58.51 43.49 58.682 43.3754 58.7966 43.4327ZM39.0831 8.18911C39.255 8.36103 39.1977 8.30372 39.255 8.47564C38.7393 8.70487 38.8539 9.04871 38.4527 9.39255C38.5673 9.73639 38.6246 10.0802 38.2235 10.3095C37.3066 9.90831 38.3381 8.53295 39.0831 8.18911ZM38.6246 7.2149C38.7393 7.38682 38.7393 7.55874 38.5673 7.67335C38.3381 7.61604 38.3954 7.61605 38.2808 7.32951C38.3954 7.2149 38.51 7.2149 38.6246 7.2149ZM60 41.9427C60.1719 42.1719 60.2292 42.3438 60 42.5158C59.9427 42.4584 59.8854 42.5158 59.8281 42.5158C59.7708 42.4011 59.7135 42.3438 59.6562 42.2292C59.7135 42.0573 59.8281 42 60 41.9427ZM56.0458 35.3524C55.9312 35.467 55.8739 35.4097 55.7593 35.4097C55.8166 35.2951 55.6447 35.1805 55.8166 35.1232C55.9312 35.1805 55.9885 35.2378 56.0458 35.3524ZM39.3123 6.75645C38.9685 6.92837 38.6819 6.46991 38.7393 6.18338C39.1977 5.83954 39.4269 6.52722 39.3123 6.75645ZM55.0143 33.0602C54.4986 33.2894 54.0974 32.659 54.0401 32.2006C54.6705 31.7421 55.1289 32.659 55.0143 33.0602ZM40.5158 8.01719C40.4011 7.55874 40.0573 7.50143 40 7.15759C40.4585 6.98567 41.5473 7.84527 40.5158 8.01719ZM55.2436 31.7994C55.1289 31.7421 54.957 31.4556 54.957 31.341C55.0143 31.2837 55.1289 31.2264 55.1863 31.2264C55.4155 31.2837 55.5301 31.6848 55.2436 31.7994ZM42.063 8.9914C42.1777 9.39255 41.8911 9.96562 41.7192 10.1375C41.2034 10.1948 41.3181 9.50716 41.3754 9.27794C41.6046 9.16332 41.8338 9.10602 42.063 8.9914ZM62.6361 41.5415C62.7507 41.6562 62.7507 41.7708 62.7507 41.8854C62.6361 41.9427 62.3496 41.5415 62.6361 41.5415ZM61.5473 40.0516C61.4327 39.8797 61.3181 39.7077 61.3754 39.5931C61.4327 39.5358 61.49 39.5358 61.4327 39.4785C61.8911 39.3066 62.0057 40.0516 61.5473 40.0516ZM59.9427 33.1748C59.4842 33.5759 59.0831 32.7163 59.5416 32.5444C59.7708 32.6017 59.8281 33.0029 59.9427 33.1748ZM65.4441 39.765C65.5587 39.937 65.5014 40.0516 65.2722 40.1662C65.1576 40.1089 65.1003 39.9943 64.9857 39.8223C65.043 39.765 65.1003 39.765 65.043 39.7077C65.2149 39.6504 65.3295 39.7077 65.4441 39.765ZM65.1576 38.2751C65.3295 38.5616 64.9284 38.3897 64.8138 38.5616C64.9284 38.7908 65.2149 39.2493 64.6991 39.4785C64.3553 39.0201 64.1261 38.1605 64.298 37.6447C64.7564 37.3582 64.8711 38.1605 65.1576 38.2751ZM65.5014 33.9198C65.2149 34.0917 64.9857 33.9198 64.7565 33.6332C64.9857 33.1748 65.788 33.4613 65.5014 33.9198ZM67.2206 34.8367C67.5072 35.1805 67.3925 35.639 67.1633 35.639C67.1633 35.4097 66.8768 35.0086 67.2206 34.8367ZM66.9341 32.0287C66.7622 32.2006 66.8195 32.1433 66.6476 32.2006C66.533 32.0287 66.533 31.8567 66.7049 31.7421C66.7622 31.7994 66.8195 31.914 66.9341 32.0287ZM70.2579 36.4986C69.7994 36.6132 69.6848 36.5559 69.4556 36.957C68.8252 36.2693 70.3725 35.4097 70.2579 36.4986ZM71.4613 36.7851C71.2321 36.957 71.0029 36.8997 70.8883 36.6705C71.0029 36.2693 71.5186 36.384 71.4613 36.7851ZM73.4098 35.2951C73.1805 35.5244 72.894 35.0659 72.894 34.8367C73.1805 34.6648 73.6963 34.9513 73.4098 35.2951ZM72.6075 31.5702C72.6648 31.914 72.3209 32.1433 72.5501 32.4871C72.6648 32.8309 72.9513 32.4871 73.1232 32.7736C73.0659 32.8883 73.1232 33.0029 73.0659 33.1175C72.8367 33.2894 72.6075 33.404 72.4355 33.3467C72.2063 33.5186 72.3782 33.9771 71.9771 33.9198C71.6906 33.5759 72.2636 33.5186 72.0917 33.2321C71.8052 33.1175 71.404 33.2894 71.2321 32.7163C71.5759 32.3152 71.9771 31.7994 72.6075 31.5702ZM76.1032 32.6017C76.1605 32.7736 76.1605 32.8883 75.9885 33.0029C75.8739 32.7736 75.8739 32.659 76.1032 32.6017ZM77.1347 31.6848C76.7335 32.0287 76.3324 32.0287 76.1032 31.5702C76.2178 31.4556 76.2751 31.2837 76.5043 31.1691C76.7335 31.2837 76.9628 31.5129 77.1347 31.6848ZM77.937 31.341C77.937 31.3983 77.9943 31.3983 77.9943 31.4556C77.937 31.4556 77.937 31.5129 77.9943 31.5702C77.937 31.5702 77.937 31.6275 77.8797 31.6275C77.8797 31.5702 77.8223 31.5702 77.765 31.6275C77.765 31.5702 77.7077 31.5702 77.7077 31.5129C77.765 31.5129 77.765 31.4556 77.7077 31.3983C77.765 31.3983 77.7651 31.341 77.8224 31.341C77.8797 31.341 77.8797 31.341 77.937 31.341ZM49.3983 31.1117H50.8883C50.9456 31.1691 51.0029 31.1691 51.1175 31.2264C51.1748 31.1691 51.2321 31.1691 51.2894 31.1117L68.3095 31.0544C68.3668 31.1691 68.4241 31.2837 68.5387 31.341C68.596 31.2837 68.7106 31.2264 68.7679 31.2264C68.7679 31.1691 68.7679 31.1691 68.7679 31.1117H80.0573L68.6533 39.3639H68.596C68.4814 39.4212 68.4241 39.4785 68.4241 39.5931L55.1863 48.9914L57.2493 55.3524C57.192 55.639 57.2493 55.9828 57.5358 56.212L58.9112 60.51C58.8539 60.4527 58.7393 60.3954 58.5673 60.51C58.51 60.6819 58.51 60.8539 58.6246 61.0258C58.8539 61.0831 58.9685 60.9112 59.0258 60.7393L59.3123 61.5415C59.255 61.5989 59.255 61.5989 59.255 61.6562C59.3123 61.7708 59.3696 61.8854 59.4269 61.8854L64.6991 78.0458L56.2751 71.914C56.3324 71.6848 56.1032 71.6275 55.8739 71.6275L55.7593 71.5129C55.7593 71.3983 55.7593 71.2264 55.5874 71.1691L55.4155 71.2837L53.2378 69.6791C53.639 69.2779 54.0974 68.9341 53.9255 68.4183C53.5817 68.4756 53.2378 68.4756 52.9513 68.8195C52.6075 68.7049 52.2636 68.7049 51.8625 68.7049L50.7736 67.9026C50.7736 67.9026 50.7736 67.9026 50.8309 67.8453C50.8883 67.6733 50.8883 67.5014 50.8309 67.2722C50.659 67.043 50.4298 67.2722 50.2579 66.8711C50.3152 66.8138 50.3152 66.7564 50.2579 66.6991C50.4298 66.5272 50.4871 66.6991 50.659 66.5272C50.5444 66.0115 50.6017 65.4957 50.2579 64.9226C49.6848 65.1519 50.086 65.9542 50.1433 66.4699C49.914 66.5845 49.7421 66.7564 49.6848 66.9284L48.1375 65.7822C48.1375 65.7249 48.1375 65.6676 48.1948 65.6103C48.4814 65.6103 48.5387 65.6676 48.7106 66.0115C49.2837 65.3811 48.596 64.808 47.9656 64.5215C47.7937 64.808 48.1375 65.2092 48.0229 65.553C47.9656 65.553 47.9083 65.553 47.851 65.553L47.0487 64.9799C47.1633 64.8653 47.2206 64.7507 47.3926 64.6934C47.106 64.2923 46.8768 64.063 46.6476 63.7192C46.4183 63.7192 46.3037 64.063 46.1891 64.235C46.3037 64.3496 46.361 64.4069 46.361 64.5215L40.0573 59.937L36.447 62.5731C36.447 62.4585 36.447 62.3438 36.3324 62.2292C35.9885 62.1719 35.8739 62.6304 36.0458 62.8596L27.851 68.8195C27.9083 68.6476 27.9656 68.4756 28.0802 68.3037C28.8252 67.9026 28.9398 67.3295 29.341 66.8138C29.2264 66.4126 28.8252 66.1834 28.596 65.6676C28.4241 65.2092 28.5387 64.2923 27.851 64.5215C27.6218 64.6934 28.0229 65.0946 28.0229 65.3238C27.6218 64.9226 27.2206 64.4069 26.7622 64.1776L27.3926 63.7192C27.4499 63.7765 27.5072 63.8911 27.5645 63.9484C27.7364 63.8338 27.7937 63.6619 27.7364 63.49L28.8252 62.6877C28.9398 62.6877 29.0544 62.6304 29.1691 62.745C29.4556 63.4327 28.6533 63.8338 29.0544 64.5788C29.1117 64.5788 29.1691 64.5788 29.2264 64.6361C29.6275 64.5215 29.5129 63.8911 29.6275 63.6046C29.7421 63.318 29.9713 63.2607 29.914 62.9742C29.7994 62.6877 29.5129 62.5731 29.2264 62.4011L34.957 58.2178C35.0143 58.2178 35.0716 58.2178 35.1289 58.2178C35.1289 58.1605 35.1289 58.1605 35.1289 58.1031L38.3381 55.7536C38.3381 55.8109 38.3954 55.8682 38.3954 55.9255C38.6246 55.9828 38.8539 55.6963 38.6819 55.467L40 54.4928L49.4556 61.4269C49.341 61.5415 49.341 61.7135 49.3983 61.8854C49.5702 62 49.7994 62 50.086 61.8854L56.3897 66.4699L50.086 47.2149L56.5616 42.5731C56.6762 42.745 56.7335 42.8596 56.8481 42.9742C56.9054 42.8596 57.0201 42.5731 57.0201 42.2865L66.533 35.4097L46.3037 35.467L45.8453 33.9771C46.0172 33.9198 45.9599 33.7478 45.8453 33.5759C45.788 33.5759 45.788 33.5759 45.7307 33.6332L44.5272 29.9083C44.6418 29.9083 44.7565 29.851 44.9284 29.7937C44.9857 29.6791 45.043 29.5645 45.043 29.3925C44.8138 29.2779 44.6418 29.5072 44.4699 29.6791L43.1519 25.553C43.2665 25.553 43.3811 25.4384 43.3238 25.3238C43.2665 25.3238 43.1519 25.2665 43.0946 25.3238L42.808 24.4069C42.9799 24.4069 43.0946 24.4069 43.2092 24.4642C42.8653 24.063 42.9226 23.6046 42.6361 23.3754C42.5788 23.4327 42.5788 23.49 42.5215 23.5473L41.3754 20.0516C41.5473 19.9943 41.7192 19.8797 41.8911 19.8797C41.9484 19.5358 41.49 19.6504 41.4327 19.192C41.3181 19.192 41.2034 19.192 41.1461 19.2493L40.5731 17.4155C40.745 17.5301 40.9169 17.5874 41.0888 17.5301C41.2034 17.1862 40.8023 16.6132 40.4011 16.8424L40.1719 16.1547L36.6762 27.043L34.0974 35.0659C34.0401 35.0659 34.0401 35.1232 34.0401 35.1805V35.2378L33.8109 35.5244H26.3037C26.4756 35.4097 26.4756 35.2378 26.361 35.0659C26.2464 35.0659 26.1318 35.0659 26.0172 35.1805C26.0172 35.2951 26.0172 35.467 26.0745 35.5244H13.5817L24.0688 43.0888C23.8395 43.0888 23.6676 43.3754 23.8969 43.6046C23.9542 43.6046 24.0115 43.5473 24.0688 43.6046C24.1834 43.49 24.298 43.3181 24.1834 43.1461L29.914 47.3295L25.3295 61.3123C25.043 61.5989 24.7564 61.9427 24.5845 62.1719C24.4126 61.7708 24.1261 61.8281 23.8969 61.7135C23.6103 61.8281 23.8395 62.1146 23.4957 62.2292C23.2665 62.0573 23.0373 61.8854 22.808 61.7135C22.3496 62.0573 22.6934 63.0315 23.2092 63.3181C23.8395 62.8596 24.298 63.0315 24.8138 63.2034L23.7249 66.5845L24.7564 65.8395C24.8138 66.0688 24.9284 66.2407 25.2722 66.4699C25.4441 66.4699 25.7307 66.1834 25.9026 66.3553C25.4441 66.9284 26.6476 67.4441 26.4756 68.0745C26.2464 68.1891 26.1891 68.3037 26.0745 68.4756C26.0172 69.2206 26.5903 69.2779 27.0487 69.6791L22.7507 72.8309C22.6934 72.7736 22.6934 72.7163 22.6361 72.7163C22.4069 73.0029 22.1777 73.2894 21.6619 73.5186C21.49 73.4613 21.3754 73.1748 21.1461 73.3467C20.9169 73.5186 20.9742 73.8052 21.0888 74.0344L20.6877 74.3209C20.6304 73.6905 19.8854 73.6905 19.5415 74.2063C19.7708 74.6647 20.1146 74.6075 20.4585 74.4928L15.3582 78.2178L16.7335 74.0344C16.7335 74.0917 16.7335 74.149 16.7335 74.2063C16.6762 74.6074 16.3324 75.0659 16.5616 75.5244C16.9628 76.212 17.9943 75.9255 18.3954 75.4097C18.3381 75.1232 18.1089 75.4097 17.9943 75.1805C17.9943 74.894 17.9943 74.5501 18.0516 74.2636C17.765 73.5759 17.2493 73.8625 16.8481 73.6905L18.0516 70.0229C18.1089 70.0229 18.1662 69.9656 18.1662 69.9656C18.1662 69.9083 18.1089 69.9083 18.1089 69.9083L18.51 68.6476C18.6246 68.5903 18.7966 68.533 18.8539 68.4183C18.7966 68.361 18.7393 68.2464 18.6819 68.1891L20.2292 63.49C20.2865 63.5473 20.2865 63.5473 20.3438 63.6046C20.4585 63.6619 20.6877 63.4327 20.8023 63.49C20.745 63.6046 20.9169 63.8338 21.0315 64.0057C21.2607 64.0057 21.49 63.8338 21.6046 63.6619C21.2034 63.3181 21.0888 62.3438 20.745 61.9427L24.8138 48.9914L21.7765 46.8138L21.8338 46.7564C21.7765 46.6991 21.7192 46.5845 21.7192 46.5272C21.6619 46.5272 21.6046 46.5845 21.5473 46.6418L16.8481 43.2607C16.9054 43.2607 16.9628 43.2607 17.0201 43.2034C17.0774 42.9742 16.7908 42.8596 16.6189 43.0315C16.6189 43.0315 16.6189 43.0888 16.6762 43.0888L16.2751 42.8023C16.9054 42.4585 16.3324 41.8854 15.9885 41.5415C16.1032 41.1404 15.7593 40.3381 15.2436 40.3381C15.1289 40.7966 14.8424 41.1977 14.4986 41.5415C14.4986 41.3696 14.4986 41.1977 14.384 41.0258C14.1547 40.9112 13.9255 40.9685 13.7536 41.0258L11.404 39.3066C11.7479 38.7908 11.404 37.8166 10.5444 38.2751C10.5444 38.3897 10.4871 38.5043 10.4871 38.6189L8.42407 37.1289C8.53868 37.0716 8.48138 36.957 8.48138 36.8424C8.36676 36.8424 8.30946 36.8424 8.19484 36.8997L8.25215 37.0143L7.44986 36.4413C7.44986 36.2693 7.56447 36.1547 7.73639 35.9828C7.67908 35.5817 7.27794 35.1232 6.9341 35.1232C6.70487 35.2951 6.70487 35.639 6.81948 35.9828L6.01719 35.4097C6.13181 35.3524 6.30373 35.2951 6.41834 35.2378C6.13181 34.6648 6.01719 33.9771 5.2149 34.4355C5.15759 34.5501 5.27221 34.7794 5.32951 34.9513L4.24069 34.2063C4.29799 34.0344 4.29799 33.8625 4.12607 33.6905C3.89685 33.6905 3.78224 33.7479 3.66762 33.8052L2.86533 33.2321C2.80802 33.0602 2.69341 32.8309 2.86533 32.7163C3.09456 32.6017 3.15186 33.0029 3.26648 33.1748C3.55301 32.7736 3.78224 32.9456 4.06877 32.7163C4.01146 32.659 4.06877 32.6017 4.01146 32.4871C3.78224 32.3725 3.55301 32.7163 3.4384 32.659C3.15186 32.4871 2.97994 31.8567 2.5788 32.0287C2.46418 32.2006 2.6361 32.3725 2.40688 32.5444C2.29226 32.4871 2.12034 32.4871 1.94842 32.5444L0 31.0544H5.95989C6.0745 31.4556 6.0745 31.8567 6.0745 32.2006C6.18911 32.3152 6.30373 32.3152 6.41834 32.3725C6.64756 32.2006 6.81948 32.0287 6.87679 31.8567C6.64756 31.6848 6.59026 31.2837 6.53295 30.9971H8.53868C8.48138 31.5129 8.82522 32.086 8.7106 32.6017C8.25215 32.7163 8.08023 31.9713 7.67908 31.9713C7.27794 32.1433 7.73639 32.6017 7.67908 32.8309C7.39255 33.1175 7.04871 32.8309 6.9341 33.1748C7.22063 33.6905 7.67908 33.4613 8.02292 33.6332C8.13754 33.9198 7.67908 34.0917 7.851 34.4355C8.19484 34.6074 8.48138 35.0086 8.88252 35.0086C9.05444 34.8367 8.76791 34.5501 8.93983 34.3209C9.39828 34.2636 9.62751 33.8625 9.91404 33.5186C9.62751 33.0029 9.5702 32.659 9.11175 32.4871C8.93983 31.914 8.99714 31.4556 9.16905 30.9971H11.1748C11.3467 31.6848 11.8625 32.2579 12.7221 31.9713C13.2378 32.5444 12.7794 33.0602 13.4097 33.4613C13.2951 33.404 12.9513 33.5759 12.9513 33.7479C13.0086 34.0344 13.0659 34.2063 13.2951 34.4355C13.8682 34.3782 13.8109 33.8625 13.5817 33.4613C13.8109 33.0029 14.1547 32.5444 14.0401 31.9713C13.6963 31.7421 13.2378 31.7421 12.894 31.4556C12.894 31.341 12.8367 31.1691 12.894 31.0544C12.9513 31.0544 13.0086 30.9971 13.0659 30.9398H13.8109C13.7536 31.1691 13.8682 31.4556 14.0974 31.5702C14.2693 31.4556 14.212 31.1117 14.0974 30.9398H18.7393C18.8539 31.1117 19.0831 31.2837 19.1977 31.341C19.4269 31.2264 19.3123 31.0544 19.3123 30.9398H19.5415C19.5989 31.1691 19.5415 31.4556 19.8281 31.6275C20.0573 31.3983 20.3438 31.341 20.5158 31.1691C20.6877 31.2264 20.6304 31.1691 20.6304 31.1117H26.2464C26.3037 31.2837 26.4183 31.5129 26.5903 31.7421C27.0487 31.4556 27.3926 31.914 27.7937 31.7994C27.7937 31.5702 27.851 31.341 27.9656 31.1117H30.6017L32.2636 25.8968C32.4355 25.8395 32.5501 25.6676 32.3782 25.4957L37.3639 10.0802C37.5358 10.0229 37.5931 9.7937 37.765 9.67908C37.7077 9.56447 37.6504 9.50716 37.5931 9.44986L40 2L47.106 24.0057L47.0487 23.9484C46.6476 24.1203 46.7622 24.3496 46.6476 24.5788C46.8195 24.8653 47.106 24.7507 47.2206 25.1519C47.2779 25.0946 47.3352 25.0372 47.3926 24.9799L47.5072 25.3811L47.3352 25.4957C47.106 25.8968 47.6218 26.5272 47.9656 26.7564L48.9398 29.851C48.6533 29.6218 48.3095 29.9083 47.9656 30.0229C48.0229 30.3668 47.7364 30.7679 48.1375 30.9971C48.8252 30.7679 48.596 30.2521 48.9971 30.0802L49.3983 31.1117Z" fill="#111111"/>
<path fill-rule="evenodd" clip-rule="evenodd" d="M39.9826 22.3591L38.6645 26.5425C39.0657 26.7717 39.4668 27.0583 39.4095 27.6313C39.2949 27.746 39.2376 27.574 39.123 27.6313C39.0083 27.4594 39.0657 27.2875 39.0657 27.1156C39.0083 26.9437 38.8364 27.1729 38.7791 27.0583C38.5499 27.2302 38.7218 27.5167 38.6645 27.746C38.5499 27.746 38.4353 27.746 38.3207 27.746L35.2261 37.3735H25.8851C26.1144 37.5454 26.1144 37.9465 25.9424 38.1184C25.6559 38.3477 25.0255 37.8892 25.1975 37.4308C25.2548 37.4308 25.2548 37.3735 25.3121 37.3735H19.4668L32.2462 46.5998L27.547 60.9265C27.6043 61.0411 27.7189 61.0984 27.7763 61.213L29.7247 59.7803C29.7247 59.723 29.7247 59.6657 29.782 59.6084C29.8393 59.5511 29.8966 59.5511 30.0112 59.6084L38.0341 53.7632C37.9768 53.7632 37.9195 53.7632 37.8622 53.8205C37.8622 53.6485 37.9195 53.5339 38.0914 53.4193C38.1487 53.5339 38.1487 53.5912 38.1487 53.6485L39.4095 52.7316H39.3522C39.123 52.5024 39.123 52.3878 39.1803 52.1586C39.6387 51.7574 39.8679 52.2732 39.6387 52.617L40.1545 52.2732L52.7619 61.6142L52.2462 59.9523H52.1889C52.0169 59.6657 51.9023 59.3792 52.0169 59.2073L50.2977 53.9351C50.2404 53.9351 50.1831 53.8778 50.1258 53.8778C50.0685 53.7058 50.0685 53.5912 50.1831 53.5339L47.9482 46.6571L48.8651 45.9695C48.8078 45.9695 48.8078 45.9695 48.7505 46.0268C48.2347 45.6256 48.6359 45.1099 48.6359 44.6514C48.8078 44.4795 48.8078 44.766 48.9224 44.8806C49.1516 44.6514 49.5528 44.1356 49.782 44.5941C49.7247 44.8806 49.6101 44.8806 49.2662 45.0525C49.2089 45.3391 49.2089 45.6256 48.9797 45.8548L50.2404 44.9379C50.0685 44.766 50.0112 44.4222 50.1831 44.2503C50.4697 44.021 50.7562 44.1356 50.8708 44.4795L51.3293 44.1356C51.3293 44.021 51.4439 43.9064 51.6158 43.8491C51.6158 43.1041 52.6473 42.8749 52.8765 42.2445C53.1058 42.4164 53.1631 42.5884 53.1631 42.8176L53.6788 42.4738C53.3923 42.2445 53.5642 41.6142 54.0227 41.6715C54.1373 41.8434 54.1373 42.0153 54.08 42.1872L60.6702 37.4308L44.9109 37.4881L42.9625 31.5855C42.8479 31.6428 42.676 31.6428 42.676 31.4136C42.676 31.299 42.7906 31.2417 42.9052 31.2417L42.676 30.6686C42.6187 30.6113 42.5614 30.554 42.504 30.4394C42.5614 30.4394 42.5614 30.3821 42.6187 30.3821L41.5871 27.1729L40.441 23.7918C40.2691 23.7345 40.0972 23.5053 40.0972 23.3334C40.1545 23.276 40.2118 23.276 40.2118 23.2187L39.9826 22.3591ZM29.782 56.7431C30.0112 57.4308 28.8078 57.3735 28.9797 56.7431C29.3235 56.5139 29.5528 56.5139 29.782 56.7431ZM31.9023 55.1385C31.5585 55.3104 31.6158 55.9981 31.1573 55.8262C31.2146 55.4824 31.3293 55.1385 31.6731 54.7947C31.7877 54.852 31.845 54.9666 31.9023 55.1385ZM24.7963 39.2073C24.3379 39.4938 23.9367 39.723 23.7075 39.2073C23.9367 38.9207 24.1086 38.9781 24.4525 38.6915C24.6817 38.8061 24.8536 38.9207 24.7963 39.2073ZM34.2519 54.5654C34.0227 54.7947 33.6788 54.6227 33.7361 54.3362C33.9654 54.107 34.1373 54.2789 34.2519 54.5654ZM24.739 38.2331C24.3379 38.405 24.2806 38.3477 24.0513 38.6342C23.3063 38.2331 24.6244 37.3735 24.739 38.2331ZM34.9969 53.7058C35.0542 53.8205 35.1115 53.8778 35.1688 53.9924C35.1115 54.0497 34.9969 54.107 34.9396 54.107C34.8823 53.9924 34.825 53.9351 34.7677 53.8205C34.8823 53.7632 34.9396 53.7632 34.9969 53.7058ZM34.8823 52.5597C34.825 52.617 34.7104 52.6743 34.653 52.6743C34.5957 52.5024 34.4811 52.617 34.4238 52.4451C34.4811 52.3305 34.5384 52.2732 34.653 52.2159C34.825 52.2732 34.9396 52.4451 34.8823 52.5597ZM32.1889 45.3391C32.1316 45.3964 32.0742 45.3964 32.0169 45.4537C31.9023 45.3391 31.9596 45.2818 31.9596 45.1672C32.0169 45.1099 32.1316 45.2245 32.1889 45.3391ZM36.143 51.7001C36.3149 51.9293 36.0284 52.1586 35.8565 52.1013C35.6846 51.9293 35.9138 51.6428 36.143 51.7001ZM35.4553 46.5998C35.1688 46.4852 35.2261 46.1414 35.4553 46.0268C35.6846 46.1414 35.7992 46.5425 35.4553 46.5998ZM37.6903 45.0525C37.633 44.9952 37.5757 45.0525 37.5184 45.0525C36.888 44.0783 38.4353 44.3649 37.6903 45.0525ZM38.8364 47.8606C37.9195 47.5167 39.2949 46.1987 39.4668 47.2302C39.2376 47.4594 39.123 47.6886 38.8364 47.8606ZM34.653 38.8061C34.7677 38.978 34.7103 39.0354 34.5384 39.0927C34.4811 39.0354 34.4238 38.9207 34.4238 38.8634C34.4811 38.8061 34.5384 38.8634 34.653 38.8061ZM42.4467 52.2159C42.2748 52.3305 42.1602 52.2159 41.9883 52.3878C41.7591 51.7574 42.5614 51.3563 42.4467 52.2159ZM43.0198 52.7889C42.8479 52.5597 42.9052 52.3878 42.9625 52.1586C43.249 52.1586 43.3636 52.7316 43.0198 52.7889ZM45.1975 54.2216C44.9682 54.107 45.0828 53.9351 45.0828 53.7632C45.2548 53.6485 45.5413 54.1643 45.1975 54.2216ZM43.249 48.3763C43.3063 48.5482 43.249 48.7202 43.1917 48.8921C43.0771 48.8921 43.0198 48.8348 42.9625 48.8921C42.7333 48.6056 43.0198 48.2617 43.249 48.3763ZM36.8307 37.6027C37.0599 37.8892 36.9453 38.0611 36.6588 38.1758C36.4869 37.9465 36.6015 37.7746 36.8307 37.6027ZM46.7447 55.0812C46.6301 55.0239 46.4582 54.9666 46.4009 54.7374C46.5728 54.0497 47.6043 54.7374 46.7447 55.0812ZM44.4525 49.9809C44.5671 50.2101 44.4525 50.3248 44.4525 50.554C43.9367 50.6113 44.1659 51.0124 43.7648 51.2417C43.5356 50.7832 43.9367 50.4967 44.0513 50.1528C44.1659 50.0382 44.2806 49.9809 44.4525 49.9809ZM51.9023 60.1242C51.9023 60.2388 51.845 60.2961 51.9023 60.3534C51.7877 60.4107 51.7304 60.3534 51.6731 60.1815C51.7304 60.0669 51.7877 60.1242 51.9023 60.1242ZM49.6101 56.17C49.6101 56.2846 49.6101 56.4566 49.4381 56.5139C49.1516 56.3419 49.3808 56.0554 49.6101 56.17ZM51.0427 58.2904C50.9854 58.3477 50.8708 58.405 50.8135 58.405C50.6989 58.2331 50.6416 58.1184 50.8135 58.0038C50.9281 58.1184 50.9854 58.1758 51.0427 58.2904ZM47.6616 54.107C47.4897 53.8205 47.4324 53.5912 47.3751 53.362C48.1774 52.5597 48.6932 54.2789 47.6616 54.107ZM45.4267 47.5167C45.1975 48.0898 45.3694 48.6629 45.9998 49.2359C45.484 49.5798 45.3121 49.1213 44.9109 49.5225C44.6817 49.1786 44.9682 49.0067 45.0255 48.7775C44.7963 48.2617 44.7963 47.8033 45.1975 47.4594C45.1975 47.4594 45.3121 47.5167 45.4267 47.5167ZM49.4955 54.5081C49.3235 54.5081 49.2089 54.5654 49.037 54.4508C48.9224 54.1643 48.9797 53.8778 49.2089 53.7058C49.6101 53.8205 49.6674 54.2216 49.4955 54.5081ZM44.3952 45.0525C44.8536 45.4537 44.2232 45.9695 43.8221 45.8548C43.4783 45.3964 43.994 44.9379 44.3952 45.0525ZM48.5785 49.9236C48.3493 50.0955 47.9482 49.5225 48.292 49.4078C48.4066 49.4652 48.6359 49.6944 48.5785 49.9236ZM47.3751 48.319C47.0886 48.4336 46.802 48.3763 46.6301 48.0325C46.802 47.3448 47.8336 47.8033 47.3751 48.319ZM48.2347 48.7775C48.0628 49.1786 47.6616 48.3763 47.6043 48.1471C47.6616 48.0898 47.719 48.0898 47.7763 48.0325C47.9482 48.0898 48.2347 48.5482 48.2347 48.7775ZM47.8909 47.1729C47.6043 47.2875 47.3751 47.4021 47.1459 47.4594C46.8594 46.8864 46.974 46.4852 47.3751 46.0841C47.4897 46.5425 48.0055 46.7717 47.8909 47.1729ZM47.547 44.9952C47.6043 45.0525 47.6616 45.1672 47.6616 45.2245C47.4897 45.3964 47.3178 45.5683 47.0886 45.4537C46.9167 45.1672 47.3178 44.9952 47.547 44.9952ZM39.4668 30.9551C39.3522 30.9551 39.2949 30.8978 39.2376 30.9551C39.1803 30.8405 39.123 30.6686 39.2949 30.6113C39.3522 30.6686 39.4668 30.8405 39.4668 30.9551ZM46.802 43.0468C46.8593 43.1614 46.9167 43.2187 46.974 43.3334C46.9167 43.3907 46.8594 43.3907 46.9167 43.448C46.6874 43.5626 46.4582 43.1041 46.802 43.0468ZM40.5556 31.0124C40.441 31.1844 40.2691 31.1844 40.0972 30.9551C40.0972 30.8978 40.2118 30.8405 40.2691 30.7832C40.441 30.7832 40.4983 30.8978 40.5556 31.0124ZM41.7591 32.7316C41.4725 32.9609 41.3006 32.9036 41.1287 32.7316C41.0714 32.2732 41.931 32.1586 41.7591 32.7316ZM46.4009 39.4938C46.5155 39.6657 46.4009 39.7803 46.229 39.8377C46.1717 39.7803 46.1717 39.723 46.1144 39.7803C45.9998 39.6084 46.2863 39.4365 46.4009 39.4938ZM37.2891 23.9637C37.2318 23.8491 37.0026 23.6772 37.2318 23.6199C37.3465 23.6199 37.4611 23.9064 37.2891 23.9637ZM37.2891 22.9895C37.4611 23.1041 37.0599 23.3334 37.0599 23.2187C36.888 23.0468 37.2318 22.9895 37.2891 22.9895ZM40.5556 28.2617C40.5556 28.3763 40.5556 28.5483 40.3837 28.4909C40.2118 28.3763 40.3837 28.2617 40.5556 28.2617ZM48.2347 40.6972C48.292 40.7546 48.2347 40.8119 48.292 40.9265C48.1774 41.0411 48.0628 40.9838 48.0055 40.8119C48.0628 40.6972 48.1201 40.6972 48.2347 40.6972ZM40.3264 25.9121C39.9826 26.1987 39.696 26.256 39.2949 26.3706C39.123 26.3133 39.0657 26.0841 38.8937 25.9695C39.0657 25.7402 39.0657 25.2818 39.4095 25.2818C39.696 25.6256 40.0399 25.5683 40.3264 25.9121ZM51.6731 42.4738C51.6158 42.0726 51.7877 41.7861 52.1316 41.4995C52.6473 41.7861 52.1316 42.703 51.6731 42.4738ZM53.5069 40.8119C53.3923 40.468 53.5642 40.0669 54.0227 40.0669C54.4238 40.468 53.9081 41.0411 53.5069 40.8119ZM56.143 40.2961C56.2003 40.3534 56.2003 40.4107 56.2576 40.468C56.2576 40.5826 55.9711 40.7546 55.8565 40.6399C55.7419 40.4107 55.9711 40.2388 56.143 40.2961Z" fill="#E21A3D"/>
</g>
<defs>
<clipPath id="clip0">
<rect width="80" height="80" fill="white"/>
</clipPath>
</defs>
</svg>
