<svg width="80" height="80" viewBox="0 0 80 80" fill="none" xmlns="http://www.w3.org/2000/svg">
<path d="M16.16 55.1998C16.72 53.7598 16.96 52.1598 16.8 50.9598C16.8 50.6398 16.72 50.3998 16.72 50.1598C16.72 49.9198 16.72 49.6798 16.64 49.5198C16.64 49.1198 16.56 48.8798 16.56 48.8798C16.56 48.8798 15.52 48.9598 14.32 49.4398C13.68 49.6798 13.04 49.9998 12.4 50.4798C11.76 50.9598 11.12 51.5198 10.8 52.3198C10.16 53.5998 10 55.1198 10.16 56.4798C10.16 56.4798 10 56.1598 9.84 55.6798C9.68 55.1998 9.52 54.4798 9.36 53.8398C9.2 53.1998 8.96 52.4798 8.88 51.9998C8.8 51.5198 8.72 51.1198 8.72 51.1198C9.68 50.9598 12.32 50.0798 13.76 48.1598C14.56 46.9598 15.12 45.5998 15.28 44.3998C15.36 43.8398 15.36 43.3598 15.44 42.9598C15.52 42.6398 15.52 42.3998 15.52 42.3998C15.52 42.3998 14.64 42.3198 13.44 42.4798C12.88 42.5598 12.16 42.7198 11.52 43.0398C10.88 43.3598 10.24 43.7598 9.76 44.3198C8.96 45.2798 8.48 46.5598 8.32 47.6798C8.24 47.6798 8.24 46.2398 8.16 44.7998C8.16 44.0798 8.08 43.3598 8.08 42.7998C8.16 42.2398 8.16 41.9198 8.16 41.9198C9.04 41.9998 11.44 41.8398 13.12 40.3998C13.68 39.9998 14 39.4398 14.32 38.8798C14.72 38.3198 14.96 37.8398 15.12 37.3598C15.52 36.3998 15.6 35.5998 15.6 35.5998C15.6 35.5998 14.8 35.3598 13.76 35.2798C12.72 35.1998 11.36 35.3598 10.24 36.2398C9.44 36.8798 8.72 37.8398 8.4 38.7998C8.4 38.7998 8.4 38.3998 8.56 37.9198C8.64 37.3598 8.8 36.6398 8.96 35.9198C9.12 35.1998 9.28 34.4798 9.36 33.9198C9.52 33.3598 9.6 33.0398 9.6 33.0398C10.4 33.2798 12.48 33.5998 14.08 32.7198C14.64 32.3998 15.04 32.0798 15.44 31.6798C15.84 31.2798 16.24 30.8798 16.48 30.4798C17.04 29.6798 17.28 29.0398 17.28 29.0398C17.28 29.0398 16.64 28.6398 15.76 28.3998C14.88 28.1598 13.68 27.9998 12.56 28.5598C11.76 28.9598 11.04 29.5198 10.56 30.2398C10.56 30.2398 10.64 30.0798 10.72 29.8398C10.8 29.5998 10.96 29.2798 11.12 29.0398C11.36 28.3998 11.68 27.8398 11.68 27.8398C12.08 27.5998 12.8 27.1998 13.44 26.7198C14.16 26.2398 14.88 25.5998 15.36 24.7198C16 23.5198 16.32 22.3198 16.4 21.2798C16.48 20.2398 16.4 19.4398 16.4 19.4398C16.4 19.4398 15.68 19.5198 14.64 19.9998C13.68 20.4798 12.32 21.1998 11.68 22.4798C11.12 23.4398 10.88 24.4798 10.8 25.3598C10.8 26.3198 10.88 27.0398 11.04 27.5998C11.04 27.5998 10.48 28.7998 10 29.9998C9.6 31.2798 9.2 32.4798 9.2 32.4798C9.28 31.5998 9.2 30.6398 8.88 29.7598C8.4 28.4798 7.6 27.5998 6.88 27.0398C6.08 26.4798 5.44 26.2398 5.44 26.2398C5.44 26.2398 5.36 26.4798 5.2 26.7998C5.04 27.1998 4.88 27.6798 4.72 28.3198C4.48 29.5998 4.4 31.1998 4.8 32.4798C5.68 34.5598 7.68 35.1198 8.48 35.3598C8.48 35.3598 8.16 36.8798 7.84 38.3198C7.68 39.8398 7.6 41.3598 7.6 41.3598C7.44 40.3198 7.12 39.1998 6.48 38.2398C5.6 36.7998 4.48 36.0798 3.44 35.5998C2.48 35.1198 1.68 35.0398 1.68 35.0398C1.68 35.0398 1.36 36.1598 1.36 37.5998C1.44 39.1198 1.68 40.8798 2.56 42.2398C4 44.3198 6.48 44.4798 7.36 44.4798C7.36 44.4798 7.44 45.9198 7.44 47.3598C7.68 48.7998 7.84 50.2398 7.84 50.2398C7.44 49.1198 6.64 47.9198 5.84 46.9598C4.72 45.7598 3.28 45.1198 2.08 44.8798C0.88 44.6398 0 44.7198 0 44.7198C0 44.7198 0 45.9998 0.24 47.6798C0.56 49.3598 1.44 51.2798 2.72 52.4798C4.88 54.3998 7.68 53.8398 8.56 53.6798C8.56 53.6798 8.88 55.0398 9.36 56.3998C9.92 57.6798 10.4 59.0398 10.4 59.0398C9.68 57.9198 8.48 56.7198 7.28 55.8398C5.84 54.7198 4.08 54.3998 2.72 54.3998C1.36 54.3998 0.4 54.7198 0.4 54.7198C0.4 54.7198 0.72 56.1598 1.44 57.9198C2.16 59.6798 3.68 61.5998 5.36 62.5598C8.32 64.1598 11.12 62.7198 12 62.2398C12 62.2398 12.16 62.5598 12.48 63.1198C12.64 63.3598 12.8 63.6798 12.96 63.9998C13.2 64.3198 13.44 64.6398 13.68 64.9598C14.64 66.2398 15.6 67.5998 15.6 67.5998L16.16 67.1198C16.16 67.1198 14.88 65.3598 13.6 63.5198C13.04 62.5598 12.56 61.5998 12.16 60.8798C11.92 60.4798 11.76 60.2398 11.68 59.9998C11.6 59.7598 11.52 59.6798 11.52 59.6798C12.4 59.2798 15.12 57.6798 16.16 55.1998Z" fill="#E21A3D"/>
<path d="M77.6793 51.5199C77.0393 51.5999 76.2393 51.6799 75.5193 51.9999C74.7993 52.2399 73.9993 52.6399 73.1993 53.1999C71.9193 54.1599 71.1193 55.4399 70.3993 56.6399C70.3993 56.6399 70.5593 56.3199 70.7193 55.8399C70.8793 55.3599 71.0393 54.6399 71.1993 53.9999C71.3593 53.2799 71.5993 52.6399 71.6793 52.1599C71.7593 51.6799 71.8393 51.2799 71.8393 51.2799C72.7993 51.4399 75.5193 51.8399 77.5193 49.6799C78.8793 48.3999 79.3593 46.3999 79.6793 44.7199C79.8393 43.9199 79.9193 43.1199 79.9193 42.6399C79.9193 42.0799 79.8393 41.7599 79.8393 41.7599C79.8393 41.7599 78.9593 41.7599 77.7593 42.0799C77.1993 42.2399 76.5593 42.4799 75.9193 42.8799C75.2793 43.2799 74.6393 43.7599 74.0793 44.3999C73.1993 45.4399 72.7193 46.6399 72.3193 47.8399C72.3193 47.8399 72.3193 47.7599 72.3993 47.5999C72.3993 47.4399 72.3993 47.1999 72.3993 46.9599C72.3993 46.3999 72.4793 45.6799 72.4793 44.9599C72.4793 44.2399 72.5593 43.5199 72.5593 42.9599C72.4793 42.3999 72.4793 42.0799 72.4793 42.0799C73.3593 41.9999 75.7593 41.7599 77.1193 39.5199C77.5193 38.7999 77.8393 37.9999 77.9193 37.1999C77.9993 36.3999 77.9993 35.5999 77.9193 34.7999C77.8393 33.3599 77.5193 32.2399 77.5193 32.2399C77.5193 32.2399 76.7193 32.3999 75.7593 32.8799C74.7993 33.3599 73.6793 34.2399 72.9593 35.5999C72.3993 36.5599 72.3193 37.6799 72.1593 38.7199C72.1593 38.7199 72.1593 38.3199 71.9993 37.7599C71.9193 37.1999 71.7593 36.4799 71.5993 35.7599C71.4393 35.0399 71.2793 34.2399 71.1993 33.7599C71.0393 33.1999 70.8793 32.8799 70.8793 32.8799C71.6793 32.6399 73.5993 31.9199 74.3193 29.8399C74.5593 29.1999 74.6393 28.3999 74.6393 27.7599C74.5593 27.0399 74.3993 26.3199 74.2393 25.7599C73.8393 24.5599 73.4393 23.6799 73.4393 23.6799C73.4393 23.6799 72.7993 23.9199 72.0793 24.5599C71.3593 25.1999 70.5593 26.1599 70.1593 27.4399C69.9193 28.3199 69.9993 29.2799 70.0793 30.1599C70.0793 30.1599 69.9993 29.9999 69.9193 29.7599C69.8393 29.5199 69.6793 29.1999 69.5193 28.8799C69.2793 28.2399 68.9593 27.6799 68.9593 27.6799C69.0393 27.1999 69.1993 26.3999 69.1993 25.4399C69.1193 24.5599 68.8793 23.5199 68.3193 22.5599C67.5993 21.1999 66.3193 20.5599 65.3593 20.0799C64.3993 19.5999 63.5993 19.5199 63.5993 19.5199C63.5993 19.5199 63.5193 20.3199 63.5993 21.3599C63.6793 22.3999 64.0793 23.5999 64.6393 24.7999C65.1193 25.6799 65.8393 26.3199 66.5593 26.7999C67.1993 27.3599 67.8393 27.7599 68.3193 27.9199C68.3193 27.9199 68.8793 29.1199 69.3593 30.3199C69.7593 31.5199 70.1593 32.7999 70.1593 32.7999C69.6793 32.0799 69.1193 31.3599 68.3193 30.9599C67.2793 30.3199 65.9193 30.3999 65.0393 30.6399C64.0793 30.7999 63.4393 31.1199 63.4393 31.1199C63.4393 31.1199 63.5193 31.2799 63.5993 31.5199C63.7593 31.7599 63.9193 32.1599 64.1593 32.5599C64.5593 33.3599 65.2793 34.3999 66.3993 34.9599C67.9993 35.9999 69.9993 35.7599 70.7993 35.5999C70.7993 35.5999 71.1193 37.0399 71.3593 38.4799C71.5193 39.9199 71.5993 41.4399 71.5993 41.4399C71.2793 40.4799 70.7993 39.5199 69.9993 38.7999C68.8793 37.8399 67.5193 37.6799 66.3993 37.6799C65.3593 37.6799 64.5593 37.9199 64.5593 37.9199C64.5593 37.9199 64.7193 38.7199 65.0393 39.6799C65.2793 40.7199 65.8393 41.9199 66.8793 42.8799C68.4793 44.3999 70.7193 44.7199 71.6793 44.7199C71.6793 44.7199 71.5993 46.1599 71.5993 47.5999C71.3593 49.0399 71.1993 50.3999 71.1993 50.3999C71.1193 49.1999 70.8793 47.9199 70.0793 46.9599C69.0393 45.6799 67.5993 45.1199 66.4793 44.8799C65.2793 44.6399 64.3993 44.6399 64.3993 44.6399C64.3993 44.6399 64.3193 45.5199 64.4793 46.6399C64.5593 47.7599 64.7993 49.1999 65.6793 50.4799C67.0393 52.4799 69.5193 53.5199 70.3993 53.7599C70.3993 53.7599 70.0793 55.1199 69.6793 56.3999C69.1193 57.6799 68.6393 58.9599 68.6393 58.9599C68.7993 57.5999 69.0393 56.1599 68.3193 54.7999C67.5193 53.1999 66.1593 52.2399 64.9593 51.7599C63.7593 51.1999 62.7993 51.0399 62.7993 51.0399C62.7993 51.0399 62.4793 51.9199 62.3993 53.1199C62.3993 53.7599 62.2393 54.3999 62.3193 55.1199C62.3193 55.8399 62.4793 56.6399 62.7993 57.4399C63.6793 59.9199 66.1593 61.6799 67.0393 62.2399C67.0393 62.2399 66.8793 62.5599 66.5593 63.1199C66.3993 63.3599 66.2393 63.6799 66.0793 63.9999C65.8393 64.3199 65.5993 64.6399 65.4393 64.9599C64.4793 66.2399 63.5993 67.5199 63.5993 67.5199L64.1593 67.9999C64.1593 67.9999 65.5193 66.1599 66.7993 64.3199C67.3593 63.3599 67.9193 62.3199 68.3193 61.5999C68.5593 61.1999 68.7193 60.9599 68.7993 60.7199C68.8793 60.4799 68.9593 60.3999 68.9593 60.3999C69.9193 60.7999 72.7193 61.9999 75.5193 60.2399C77.2793 59.1999 78.3993 57.1199 79.1193 55.3599C79.2793 54.8799 79.4393 54.4799 79.5993 54.0799C79.6793 53.6799 79.7593 53.3599 79.8393 53.0399C79.9193 52.4799 79.9993 52.0799 79.9993 52.0799C79.9993 52.0799 79.0393 51.4399 77.6793 51.5199Z" fill="#E21A3D"/>
<path d="M60.8011 10.7199L60.4811 14.1599L63.1211 16.4799L59.6811 17.1999L58.4011 20.4799L56.6411 17.4399L53.1211 17.1999L55.4411 14.5599L54.6411 11.1199L57.8411 12.5599L60.8011 10.7199Z" fill="#E21A3D"/>
<path d="M39.9993 4L42.0793 8.24L46.7193 8.88L43.3593 12.16L44.1593 16.8L39.9993 14.64L35.8393 16.8L36.6393 12.16L33.2793 8.88L37.9193 8.24L39.9993 4Z" fill="#E21A3D"/>
<path d="M19.1989 10.7199L22.1589 12.5599L25.3589 11.1199L24.5589 14.5599L26.8789 17.1999L23.3589 17.4399L21.5989 20.4799L20.3189 17.1999L16.8789 16.4799L19.5189 14.1599L19.1989 10.7199Z" fill="#E21A3D"/>
<path d="M18.3984 71.0826L19.8868 71.6351L21.1569 68.2135L21.8334 72.3578L22.6639 72.666L25.8808 69.9671L24.6106 73.3887L26.1387 73.956L27.9737 69.0129L25.8544 68.2261L22.9982 70.6659L22.4327 66.9559L20.2336 66.1395L18.3984 71.0826Z" fill="#111111"/>
<path d="M28.8545 69.011L27.9453 74.2047L33.4881 75.175L33.6996 73.9673L29.7624 73.2781L29.9114 72.4264L33.688 73.0875L33.8958 71.9007L30.1192 71.2397L30.2536 70.4718L34.121 71.1487L34.3275 69.969L28.8545 69.011Z" fill="#111111"/>
<path d="M39.4019 75.4374C42.4139 75.4374 42.9384 73.9633 42.9384 73.2972V73.2192H41.1879C41.1453 73.3397 40.9752 74.1547 39.2673 74.1547C37.7294 74.1547 37.3113 73.3326 37.3113 72.7089V72.6239C37.3113 71.9648 37.6728 71.2561 39.2532 71.2561C40.9256 71.2561 41.1383 71.9932 41.1807 72.1349H42.9313V72.0569C42.9313 71.4404 42.4564 69.9805 39.4019 69.9805H39.1114C35.9931 69.9805 35.582 71.6317 35.582 72.5885V72.794C35.582 73.7295 36.0569 75.4374 39.1114 75.4374H39.4019Z" fill="#111111"/>
<path d="M49.3123 72.3288L49.6513 74.1689L51.2753 73.8697L50.32 68.6842L46.0685 69.4675C44.34 69.7859 43.97 70.7116 44.1202 71.527L44.1357 71.6107C44.2845 72.4192 44.9033 72.9609 46.3139 72.7948L44.5843 75.1023L46.6613 74.7197L48.246 72.5253L49.3123 72.3288ZM49.1005 71.1788L46.5705 71.6449C46.1035 71.731 45.8742 71.5426 45.8216 71.2568L45.8203 71.2499C45.7702 70.978 45.909 70.7147 46.383 70.6274L48.913 70.1613L49.1005 71.1788Z" fill="#111111"/>
<path d="M53.5645 73.1657L59.0076 71.0897L59.3232 71.9175L60.7999 71.3543L60.0296 69.3346L59.2351 69.6377L57.8107 65.903L56.2679 66.4914L57.6922 70.2261L54.6527 71.3853L53.2284 67.6506L51.6855 68.239L53.5645 73.1657Z" fill="#111111"/>
<path d="M44.2184 34.2529H36.2644V40.4138H47.5287C47.8352 40.4138 48.1264 40.4291 48.4023 40.4598C48.7088 40.4904 48.9847 40.5517 49.2299 40.6437C49.659 40.7663 50.0268 40.9962 50.3333 41.3333C50.6398 41.6398 50.8697 42.023 51.023 42.4828C51.1149 42.728 51.1762 42.9885 51.2069 43.2644C51.2375 43.5402 51.2529 43.8314 51.2529 44.1379V56.2759C51.2529 56.8276 51.1762 57.3793 51.023 57.931C50.931 58.1456 50.8238 58.3602 50.7011 58.5747C50.6092 58.7586 50.4866 58.9272 50.3333 59.0805C50.1801 59.2337 50.0115 59.3716 49.8276 59.4943C49.6437 59.6169 49.4291 59.7088 49.1839 59.7701C48.9387 59.8621 48.6782 59.9234 48.4023 59.954C48.1264 59.9847 47.8352 60 47.5287 60H32.7241C32.4176 60 32.1111 59.9847 31.8046 59.954C31.5287 59.9234 31.2682 59.8621 31.023 59.7701C30.6245 59.6169 30.2567 59.387 29.9195 59.0805C29.613 58.7739 29.3831 58.3908 29.2299 57.931C29.1379 57.6858 29.0766 57.4253 29.046 57.1494C29.0153 56.8736 29 56.5824 29 56.2759V50.2069H29.092V40.7356L36.2644 40.7816V42.069L36.1724 50.2069V53.7931H44.1264L44.1724 47.0805V46.5287L36.2184 46.4828L36.2644 42.069V40.7816L29.1379 40.7356V31.7241C29.1379 31.1724 29.2146 30.6207 29.3678 30.069C29.4598 29.8544 29.5517 29.6552 29.6437 29.4713C29.7663 29.2567 29.9042 29.0728 30.0575 28.9195C30.2107 28.7663 30.3793 28.6284 30.5632 28.5057C30.7471 28.3831 30.9617 28.2912 31.2069 28.2299C31.4521 28.1379 31.7126 28.0766 31.9885 28.046C32.2644 28.0153 32.5556 28 32.8621 28H47.6667C47.9732 28 48.2644 28.0153 48.5402 28.046C48.8467 28.0766 49.1226 28.1379 49.3678 28.2299C49.7969 28.3525 50.1648 28.5824 50.4713 28.9195C50.7778 29.2261 51.0077 29.6092 51.1609 30.069C51.2529 30.3142 51.3142 30.5747 51.3448 30.8506C51.3755 31.1264 51.3908 31.4176 51.3908 31.7241V37.7931H44.2184V34.2529Z" fill="#111111"/>
</svg>
