<svg width="80" height="80" viewBox="0 0 80 80" fill="none" xmlns="http://www.w3.org/2000/svg">
<path d="M42.4112 35.1777C42.4112 35.1029 42.4112 35.0281 42.4112 34.9534C42.3738 34.8412 42.2617 34.8038 42.1495 34.8412C42.0747 34.8412 42 34.8786 41.9626 34.9907C41.9626 35.0281 41.9626 35.0655 41.9252 35.1029C41.8504 35.2898 41.8504 35.4767 41.9252 35.701C41.9626 35.9253 42.299 35.8506 42.299 35.6636C42.299 35.6263 42.299 35.5889 42.299 35.5515C42.3364 35.5141 42.3364 35.5141 42.3738 35.4767C42.4486 35.3272 42.4486 35.2524 42.4112 35.1777Z" fill="#E21A3D"/>
<path d="M35.5332 30.6917L36.9164 44.2991C37.2528 44.2617 37.5519 44.2244 37.851 44.2244L36.1313 30.43C35.9444 30.5421 35.7575 30.6169 35.5332 30.6917Z" fill="#E21A3D"/>
<path d="M32.1309 31.3645L32.5421 33.2711C32.7664 33.3084 32.9533 33.4954 32.9533 33.7197C32.9533 33.8692 32.9159 34.0561 32.729 34.1683L35.0094 44.7103C35.3458 44.5982 35.7196 44.5234 36.0935 44.4486L32.9533 31.2897C32.6916 31.3271 32.3925 31.3645 32.1309 31.3645Z" fill="#E21A3D"/>
<path d="M38.9721 29.2336H38.9347L38.7852 44.1869C39.159 44.1869 39.5328 44.2243 39.9067 44.2617L39.7571 28.8972C39.4581 29.0467 39.2338 29.1589 38.9721 29.2336Z" fill="#E21A3D"/>
<path d="M42.2615 36.486C42.1867 36.5608 42.112 36.5982 41.9998 36.5982C41.9624 36.5982 41.9251 36.5982 41.8877 36.5608C41.7755 36.5234 41.7381 36.4486 41.6634 36.3739L40.6914 44.3365C41.0279 44.3739 41.3269 44.4486 41.626 44.5234L42.4858 36.1496C42.3737 36.2991 42.3363 36.3739 42.2615 36.486Z" fill="#E21A3D"/>
<path d="M46.4495 27.9252L42.4121 44.785C42.7859 44.8972 43.1224 45.0093 43.4588 45.1589L47.3841 27.1028C47.1224 27.4019 46.7859 27.7009 46.4495 27.9252Z" fill="#E21A3D"/>
<path d="M31.9064 38.729C31.869 38.6916 31.7942 38.6542 31.7569 38.5795C31.7195 38.5047 31.6447 38.4299 31.6821 38.3178C31.7195 38.243 31.7195 38.2056 31.7569 38.2056L29.4017 31.6636C29.2148 31.9253 29.0653 32.1869 28.9531 32.3739L33.327 45.2711C33.4391 45.2337 33.5139 45.1963 33.626 45.1589C33.8129 45.0841 34.0372 45.0094 34.2242 44.9346L31.9812 38.729C31.9438 38.729 31.9064 38.729 31.9064 38.729Z" fill="#E21A3D"/>
<path d="M28.0938 38.7664L31.533 46.0935C31.8321 45.944 32.1685 45.7571 32.5423 45.6075L28.4302 37.3459C28.318 37.8318 28.2059 38.3178 28.0938 38.7664Z" fill="#E21A3D"/>
<path d="M28.4674 13.1215C28.4674 13.0841 28.4674 13.0841 28.4674 13.0468C28.4674 12.972 28.5048 12.8972 28.5422 12.8225L27.3833 7.92526L27.0469 8.00003L28.1684 13.2711L28.4674 13.1215Z" fill="#E21A3D"/>
<path d="M28.5047 48.0374C28.729 47.8505 28.9907 47.6636 29.2524 47.4767L28.3926 46.4299C28.4673 46.9907 28.5047 47.5141 28.5047 48.0374Z" fill="#E21A3D"/>
<path d="M27.8692 43.5514L30.0001 46.9907C30.2618 46.8038 30.5234 46.6542 30.8225 46.5047L27.7571 41.757C27.6823 42.6542 27.7945 43.2524 27.8692 43.5514Z" fill="#E21A3D"/>
<path d="M60.6548 43.5141C61.066 43.4393 61.5146 43.4019 62.0006 43.4019L68.767 37.9066C68.7296 37.8692 68.6548 37.7944 68.6174 37.757C68.5427 37.6449 68.5427 37.5327 68.58 37.4206C68.6922 37.1589 68.9913 37.1589 69.066 37.1589H69.1034V36.7103L60.3184 43.5514C60.4679 43.5514 60.5427 43.5514 60.6548 43.5141Z" fill="#E21A3D"/>
<path d="M67.6088 32.7103C67.6462 32.7476 67.6462 32.8224 67.6836 32.8972L69.1789 31.3645V30.7663L67.4219 32.486C67.4593 32.5233 67.534 32.5981 67.6088 32.7103Z" fill="#E21A3D"/>
<path d="M23.7581 16.1495H23.7207C23.7207 16.1121 23.6833 16.0748 23.6833 16.0374C23.6459 15.9252 23.6085 15.8505 23.5712 15.7383C23.4964 15.514 23.1226 15.6262 23.1973 15.8505C23.2721 16.0374 23.3095 16.1869 23.3842 16.3738C23.4216 16.486 23.4964 16.5607 23.5712 16.5981C23.8328 16.5981 23.945 16.2617 23.7581 16.1495Z" fill="#E21A3D"/>
<path d="M55.906 13.4206H55.8686C55.8312 13.4206 55.7565 13.458 55.7565 13.4954L44.2051 45.4954C44.5041 45.6449 44.7658 45.7945 45.0649 45.944L55.9808 13.5702C55.9808 13.4954 55.9434 13.458 55.906 13.4206Z" fill="#E21A3D"/>
<path d="M67.1215 43.7757L69.1402 42.4673V41.7944L66.2617 43.5888C66.5234 43.6635 66.8225 43.7383 67.1215 43.7757Z" fill="#E21A3D"/>
<path d="M68.8785 23.514C68.9159 23.5514 68.9159 23.5888 68.9159 23.6635C68.9159 23.8131 68.8411 23.9252 68.729 24C68.6542 24.0374 68.5795 24.0748 68.5047 24.1121C68.4673 24.1121 68.4299 24.1495 68.3926 24.1495L58.2617 36.5981H58.2991C58.3365 36.5981 58.3739 36.5607 58.4112 36.5234C58.4486 36.486 58.486 36.4486 58.5608 36.4112C58.5982 36.3738 58.6729 36.3738 58.7103 36.3738C58.7851 36.3738 58.8598 36.4112 58.8972 36.4486C59.0094 36.5234 59.0468 36.6355 59.0094 36.785C59.0094 36.785 58.972 37.0093 58.9346 37.0841L59.7197 36.0748C59.7197 35.9626 59.7197 35.8505 59.7944 35.7383C59.9066 35.5514 60.0935 35.4392 60.3178 35.3645L69.1776 24.0748V23.1776L68.8785 23.514Z" fill="#E21A3D"/>
<path d="M62.748 37.9065L67.1592 33.4205C67.0844 33.4205 66.9723 33.3832 66.8975 33.3832C66.8227 33.3458 66.748 33.271 66.7106 33.1962L66.6732 33.2336C66.6358 33.271 66.6358 33.3084 66.5611 33.3458L65.6639 34.243L65.6265 34.4299C65.5143 34.9906 65.4022 35.6635 64.4676 35.7009C64.3928 35.7009 64.3181 35.6635 64.2433 35.6261L63.9816 35.8504C64.0564 35.8878 64.0938 35.9252 64.1311 36C64.1685 36.0374 64.1685 36.1121 64.1685 36.1869C64.1685 36.2617 64.1685 36.299 64.1685 36.3738C64.1311 36.5233 63.9816 36.6355 63.8321 36.6355C63.6452 36.6355 63.4956 36.5607 63.4209 36.4112L54.2246 45.4205C54.8601 45.1588 55.4956 44.8972 56.1312 44.6729L62.5611 38.0934C62.6358 37.9813 62.6732 37.9439 62.748 37.9065Z" fill="#E21A3D"/>
<path d="M63.1973 22.5047L47.1973 47.4393C47.4963 47.701 47.758 47.9253 47.9075 48.1122L63.5337 22.6542C63.4216 22.6168 63.3094 22.5795 63.1973 22.5047Z" fill="#E21A3D"/>
<path d="M63.0844 11.1776L45.7012 46.3178C46.0376 46.5421 46.3367 46.7664 46.6358 46.9907L63.3834 11.2524L63.0844 11.1776Z" fill="#E21A3D"/>
<path d="M57.7758 37.3832C57.7758 37.3458 57.7758 37.3084 57.7384 37.3084C57.7384 37.271 57.7384 37.2336 57.7384 37.1963L48.3926 48.6729C48.3926 48.6729 48.3926 48.6729 48.3926 48.7103C49.3272 48.0748 50.2617 47.4766 51.1963 46.9533L58.2991 37.8692C57.9627 37.7196 57.8131 37.5327 57.7758 37.3832Z" fill="#E21A3D"/>
<path d="M16.3186 24.5234V24.7103H16.2812L16.4682 25.0093C16.5055 24.972 16.5055 24.8972 16.5429 24.8598C16.6177 24.8598 16.6925 24.785 16.6925 24.6729V24.486C16.6925 24.2617 16.3186 24.2617 16.3186 24.5234Z" fill="#E21A3D"/>
<path d="M8.05664 41.6449L8.61739 42.0187L8.87907 41.5327L8.05664 41.0094V41.6449Z" fill="#E21A3D"/>
<path d="M10.3734 24.8599C10.4108 24.7478 10.4482 24.673 10.523 24.5608C10.523 24.5235 10.5604 24.5235 10.5604 24.5235L9.62579 23.402C9.55102 23.4767 9.51364 23.5141 9.43887 23.5889C9.40149 23.6263 9.32672 23.6636 9.25195 23.6636L10.2987 25.0094C10.3361 24.9347 10.3361 24.8973 10.3734 24.8599Z" fill="#E21A3D"/>
<path d="M8.35571 22.4673C8.35571 22.2804 8.39309 22.0935 8.43047 21.9066C8.43047 21.9066 8.43047 21.9066 8.43047 21.8692L8.05664 21.3832V21.6823C8.16879 21.8692 8.28094 22.0935 8.28094 22.3926L8.35571 22.4673Z" fill="#E21A3D"/>
<path d="M39.4575 5.00937L39.1585 4.93461L39.1211 8.97199C39.2332 8.97199 39.3828 9.00937 39.4949 9.04676L39.4575 5.00937Z" fill="#E21A3D"/>
<path d="M13.7399 20.2617C13.7399 20.2243 13.7399 20.1869 13.7773 20.1495L13.5904 19.8131C13.553 19.8131 13.5156 19.8131 13.4782 19.8131C13.4034 19.8131 13.3287 19.8131 13.2539 19.8131L13.6277 20.4486C13.6277 20.4486 13.7399 20.2991 13.7399 20.2617Z" fill="#E21A3D"/>
<path d="M48.3186 22.916L51.0849 10.2431C51.0475 10.1683 51.0101 10.0935 51.0475 9.9814C51.0849 9.79448 51.1597 9.68233 51.2344 9.57018L51.4214 8.6356C51.384 8.67299 51.3466 8.67299 51.3092 8.71037C51.3092 8.74775 51.3092 8.78514 51.2718 8.8599C51.2344 8.93467 51.1971 9.00944 51.0849 9.04682C51.0475 9.0842 51.0101 9.0842 50.9354 9.12159L49.7391 14.1683C49.8139 14.2431 49.8887 14.3552 49.926 14.4674C49.9634 14.6543 49.9634 14.8786 49.8513 15.0655C49.8139 15.1777 49.7017 15.215 49.5522 15.215C49.5148 15.215 49.5148 15.215 49.4774 15.215L47.7578 22.3178L47.9073 22.4674C48.0943 22.5795 48.2064 22.7291 48.3186 22.916Z" fill="#E21A3D"/>
<path d="M44.9916 11.0654C44.9916 11.028 44.9916 10.9906 44.9542 10.9906C44.9168 10.9532 44.8794 10.9532 44.842 10.9532C44.7673 10.9532 44.7299 10.9906 44.7299 11.0654L44.543 12.486C44.6177 12.5607 44.6925 12.6355 44.8046 12.7102L44.9916 11.0654Z" fill="#E21A3D"/>
<path d="M41.8889 34.6542L41.8516 34.8785C41.8516 34.8785 41.8889 34.8785 41.8889 34.8411C41.8889 34.729 41.8889 34.6916 41.8889 34.6542Z" fill="#E21A3D"/>
<path d="M22.7848 13.5327C22.7848 13.4953 22.7101 13.4579 22.6727 13.4579C22.6353 13.4579 22.6353 13.4579 22.6353 13.4579C22.5605 13.4579 22.5605 13.5327 22.5605 13.6075L23.0465 15.0654C23.0465 14.9906 23.1213 14.9159 23.1961 14.8785C23.2334 14.8785 23.2708 14.8411 23.2708 14.8411L22.7848 13.5327Z" fill="#E21A3D"/>
<path d="M42.2246 33.9813C42.262 33.9813 42.2993 33.9439 42.3367 33.9065C42.3741 33.8691 42.4489 33.8317 42.5236 33.8317C42.561 33.8317 42.561 33.8317 42.5984 33.8317C42.6358 33.8317 42.6732 33.8691 42.7106 33.8691L43.2339 28.785C43.1591 28.785 43.0844 28.785 43.0096 28.7476C42.8975 28.7476 42.7479 28.7103 42.6358 28.7103L41.9629 34.0934C42.0003 34.056 42.1498 34.0187 42.2246 33.9813Z" fill="#E21A3D"/>
<path d="M8.05664 36.4486L10.4118 38.3551L10.7482 37.7196L8.05664 35.6261V36.4486Z" fill="#E21A3D"/>
<path d="M15.2344 11.3272L17.1409 15.402C17.3278 15.4393 17.5147 15.4767 17.6643 15.5515L15.5334 11.2524L15.2344 11.3272Z" fill="#E21A3D"/>
<path d="M17.8145 16.8224L19.6836 20.8224C19.7958 20.6355 19.9079 20.4486 19.9827 20.2617L18.1509 16.5607C18.0761 16.6729 17.964 16.7476 17.8145 16.8224Z" fill="#E21A3D"/>
<path d="M16.2806 23.6637C16.2432 23.5889 16.2059 23.5141 16.1685 23.4394C16.0937 23.3272 15.9816 23.3272 15.8694 23.402C15.832 23.4394 15.832 23.4394 15.832 23.4767C15.832 23.5141 15.832 23.5515 15.832 23.6263C15.8694 23.701 15.9068 23.7758 15.9442 23.8506C16.0937 24.0749 16.4302 23.888 16.2806 23.6637Z" fill="#E21A3D"/>
<path d="M64.8412 20.486L66.0748 18.4673C66.1122 18.4299 66.0748 18.3551 66.0374 18.3178C66.0001 18.3178 66.0001 18.3178 65.9627 18.3178C65.9253 18.3178 65.8879 18.3551 65.8505 18.3551L64.3926 20.6355C64.43 20.6355 64.5047 20.6355 64.5795 20.6355C64.6543 20.5607 64.729 20.486 64.8412 20.486Z" fill="#E21A3D"/>
<path d="M14.5239 29.4579C14.4866 29.6822 14.337 29.7944 14.1875 29.9065L14.5239 30.3178L14.8604 29.7196L14.5613 29.3458C14.5239 29.3832 14.5239 29.4206 14.5239 29.4579Z" fill="#E21A3D"/>
<path d="M8.05664 30.0188L12.3931 34.43L12.6174 33.9814L8.05664 29.4954V30.0188Z" fill="#E21A3D"/>
<path d="M12.8796 27.3271C12.6179 27.2523 12.4684 27.1028 12.431 26.8037L12.0945 26.3551H12.0572C12.0198 26.3551 12.0198 26.3551 11.9824 26.4673C11.945 26.5794 11.9076 26.729 11.7207 26.7664L13.5525 29.0841H13.6272C13.7768 29.0467 13.9263 29.0093 14.0385 29.0093C14.1132 29.0093 14.2254 29.0093 14.3001 29.0467L12.8796 27.3271Z" fill="#E21A3D"/>
<path d="M15.4216 22.4299C15.2347 22.0187 14.973 21.6075 14.6365 21.3084C14.4496 21.1215 14.1879 21.4206 14.3749 21.5701C14.6739 21.8692 14.9356 22.243 15.0851 22.6168C15.1973 22.8411 15.5337 22.6542 15.4216 22.4299Z" fill="#E21A3D"/>
<path d="M28.9163 13.8692C28.8416 13.8692 28.8042 13.8692 28.7294 13.8692C28.6173 13.8692 28.5051 13.9814 28.5425 14.0935C28.5799 14.2057 28.6546 14.2805 28.7668 14.3178C28.8789 14.3552 28.9537 14.2805 28.9911 14.2057C29.1406 14.1683 29.1406 13.8692 28.9163 13.8692Z" fill="#E21A3D"/>
<path d="M33.9254 11.4392C33.888 11.2149 33.8132 10.9906 33.7758 10.7663C33.7384 10.5794 33.7385 10.3925 33.5515 10.2804C33.4768 10.243 33.402 10.243 33.3272 10.3178C33.3272 10.3178 33.3272 10.3178 33.2899 10.3178C33.1777 10.4299 33.2525 10.5794 33.3646 10.6168C33.3646 10.6542 33.402 10.7663 33.402 10.7663C33.4394 10.8411 33.4394 10.9533 33.4768 11.028C33.5142 11.1776 33.5515 11.3645 33.5889 11.514C33.6263 11.7757 34.0001 11.7009 33.9254 11.4392Z" fill="#E21A3D"/>
<path d="M44.7674 13.1589H44.6552C44.3936 13.1589 44.3936 13.5327 44.6552 13.5327H44.7674C45.0291 13.5327 45.0291 13.1589 44.7674 13.1589Z" fill="#E21A3D"/>
<path d="M47.4586 24.7476C47.3465 24.9346 47.3465 25.1215 47.4212 25.3458C47.5334 25.5701 47.8699 25.3832 47.7577 25.1589C47.7203 25.0841 47.7577 25.0093 47.7951 24.9719C47.9446 24.7476 47.6082 24.5607 47.4586 24.7476Z" fill="#E21A3D"/>
<path d="M58.3364 36.8972C58.1495 36.8972 58 37.0468 58 37.2337C58 37.458 58.3364 37.4954 58.3738 37.2711C58.5981 37.1963 58.5607 36.8972 58.3364 36.8972Z" fill="#E21A3D"/>
<path d="M71.2718 45.3832C72.2437 45.8692 73.1409 46.4299 73.9633 47.0654C73.9633 47.0654 73.9633 46.2056 73.9633 44.7477V44.4112C73.8886 42.5794 73.8886 41.0467 73.9633 39.028V29.4206C73.8886 27.5888 73.8886 25.271 73.9633 23.2897V14.6168C73.8886 13.0093 73.8886 11.8505 73.9633 10.2804V9.83178C73.9633 9.42056 73.9633 9.23365 73.9633 9.23365C73.9633 9.23365 72.9166 8.97196 71.1596 8.48598C71.0101 8.4486 70.8605 8.41121 70.711 8.37383C68.954 8.03738 67.0101 8.03738 65.5521 7.02804C65.44 6.99065 65.3278 6.95327 65.2157 6.95327C64.8792 6.8785 64.5428 6.76636 64.2063 6.69159C64.0942 6.65421 64.0194 6.65421 63.9073 6.61682C62.0381 6.13084 59.7577 5.75701 57.8886 5.04673C57.7764 5.00935 57.6643 5.00935 57.5895 4.97196C57.5521 4.97196 57.5147 4.97196 57.5147 4.93458C57.4026 4.97196 57.2531 5.00935 57.1035 5.04673C56.9914 5.00935 56.8419 4.97196 56.7297 4.93458C56.7671 4.8972 56.8419 4.78505 56.8792 4.74766C55.5708 4.41121 54.2624 4.07477 52.954 3.73832C52.8419 3.70093 52.7297 3.66355 52.6175 3.66355C49.8138 2.69159 47.1222 2.31776 44.4306 1.53271C44.3559 1.49533 44.2437 1.49533 44.169 1.45794C40.7671 0.560748 38.5615 0 38.5615 0C38.5615 0 38.2624 0.0747664 37.739 0.224299C37.6643 0.261682 37.5895 0.261682 37.4774 0.299065C35.9073 0.373832 34.7484 1.1215 33.3278 1.45794C33.2531 1.49533 33.1783 1.49533 33.0661 1.53271C30.8232 2.16822 28.0568 2.95327 25.1035 3.73832C24.9914 3.7757 24.9166 3.7757 24.8045 3.81308C22.4493 4.56075 20.5428 4.93458 18.1503 5.68224C18.0381 5.71963 17.9633 5.71963 17.8512 5.75701C15.9447 6.28037 14.1129 6.80374 12.3933 7.28972C12.2811 7.3271 12.2063 7.36449 12.0942 7.36449C10.9727 8 9.43998 8.37383 7.75774 8.56075C7.68297 8.59813 7.60821 8.59813 7.53344 8.63551C4.91662 9.38318 3.23438 9.83178 3.23438 9.83178C3.23438 9.83178 3.23438 10.1682 3.23438 10.729C3.23438 10.8411 3.23438 10.9907 3.23438 11.1028C3.30914 12.5607 3.30914 13.7196 3.34652 15.2897C3.38391 15.4019 3.38391 15.5514 3.42129 15.7009C3.57082 17.0467 3.30914 18.5794 3.27176 19.8131V21.6075C3.34652 24.0748 3.34652 26.3925 3.27176 28.5234V32.3364C3.34652 34.0935 3.34652 36.3738 3.27176 38.243V38.5794C3.27176 47.0654 3.27176 54.0935 3.27176 54.0935C3.90727 52.486 4.84185 50.3178 5.96335 47.9252C5.96335 47.9252 5.96335 37.7196 5.96335 28.1495V27.8131C6.03811 26.0187 6.03811 24.0748 5.96335 22.1308V21.8318C5.96335 16.1869 5.96335 11.8505 5.96335 11.8505C5.96335 11.8505 6.71101 11.6262 8.01942 11.2897C8.13157 11.2523 8.24372 11.215 8.39325 11.1776C10.2624 11.0654 11.7951 9.90654 13.5521 9.75701C13.6643 9.71963 13.739 9.71963 13.8512 9.68224C15.4961 9.23364 17.2905 8.71028 19.1222 8.18692C19.2344 8.14953 19.3091 8.14953 19.4213 8.11215C21.7764 7.62617 24.0568 6.84112 26.225 6.20561C26.2998 6.16822 26.4119 6.16822 26.5241 6.13084C29.5521 5.27103 32.3933 4.48598 34.5615 3.88785C34.6362 3.85047 34.711 3.85047 34.8232 3.81308C35.982 3.7757 36.7671 2.99065 37.4026 3.1028C37.5147 3.06542 37.5895 3.06542 37.7017 3.02804C38.3372 2.84112 38.6736 2.76636 38.6736 2.76636C38.6736 2.76636 41.0662 3.40187 44.5802 4.29907C44.6549 4.33645 44.7671 4.33645 44.8419 4.37383C47.1222 4.97196 49.44 5.71963 51.982 6.24299C52.0568 6.28037 52.1316 6.28037 52.2063 6.31776C52.0942 6.16822 52.0568 6.09346 52.0568 6.05608C52.0942 5.98131 52.2063 5.94393 52.3185 5.90654C52.3559 5.98131 52.468 6.05607 52.468 6.13084C52.468 6.20561 52.4306 6.28037 52.3933 6.35514C54.1876 6.84112 56.0568 7.3271 57.8512 7.7757C57.9633 7.81308 58.0381 7.81308 58.1503 7.85047C59.7951 8.03738 60.9166 8.78505 62.2624 8.93458C62.3746 8.97196 62.4493 8.97196 62.5241 9.00935C65.44 9.75701 67.982 10.4299 69.5521 10.8411C69.5147 10.8037 69.5147 10.8037 69.5147 10.8037C69.7391 10.5421 69.9633 10.3178 70.1876 10.0561C70.1876 10.0561 70.3372 10.1682 70.5615 10.3178C70.2624 10.5421 70.0007 10.729 69.739 10.8785C70.7484 11.1402 71.3465 11.2897 71.3465 11.2897C71.3465 11.2897 71.3465 12.972 71.3465 15.6262C71.4587 15.5514 71.5334 15.514 71.6082 15.514C72.2063 15.514 71.6456 16.1495 71.9073 16.486C71.982 16.5607 71.982 16.6729 72.0194 16.8598C71.9073 17.0093 71.7951 17.2336 71.6456 17.4206C71.6082 17.4579 71.4587 17.4206 71.3465 17.3832V20.2991C71.2718 22.5421 72.0568 24.486 71.3465 26.9159V31.215C71.2718 33.6822 71.2718 35.5888 71.3465 37.7196V37.9813C71.2718 42.3178 71.2718 45.3832 71.2718 45.3832ZM3.68297 11.5888C3.68297 11.4393 3.83251 11.2897 3.90727 11.1402C3.98204 11.3271 4.0568 11.4766 4.09419 11.7383C4.13157 11.8879 4.01942 12.1495 3.94466 12.3738H3.75774C3.72036 12.1121 3.64559 11.8505 3.68297 11.5888ZM3.90727 39.9626C3.86989 39.9252 3.79512 39.8879 3.79512 39.8505C3.83251 39.7757 3.90727 39.7009 3.94466 39.6262C4.01942 39.6636 4.09419 39.7383 4.09419 39.7383C4.0568 39.8131 3.98204 39.8879 3.90727 39.9626ZM3.90727 29.1589C3.83251 29.0841 3.75774 29.0467 3.72036 28.972C3.72036 28.9346 3.79512 28.8224 3.79512 28.8224C3.86989 28.8224 3.94466 28.8972 4.09419 28.9346C4.01942 29.0467 3.94466 29.1215 3.90727 29.1589ZM10.0007 9.49533C9.81381 9.42056 9.70166 9.27103 9.58952 9.1215C9.58952 9.1215 9.81381 8.85981 9.81381 8.8972C10.0381 9.04673 10.225 9.19626 10.5615 9.45794C10.2624 9.49533 10.0755 9.57009 10.0007 9.49533ZM12.169 9.68224C12.1316 9.64486 12.0194 9.60748 12.0194 9.57009C12.0194 9.53271 12.0568 9.45794 12.0942 9.42056C12.1316 9.45794 12.2437 9.49533 12.2437 9.53271C12.2437 9.53271 12.169 9.60748 12.169 9.68224ZM30.6736 4.71028C30.4119 4.52336 30.1876 4.26168 30.0007 4C29.926 3.92523 30.0007 3.73832 30.0007 3.58879C30.1129 3.66355 30.225 3.73832 30.3372 3.7757C30.5615 3.88785 30.8232 3.96262 31.0475 4.07477C31.197 4.14953 31.3091 4.29907 31.4213 4.33645C31.4213 4.71028 30.9353 4.8972 30.6736 4.71028ZM34.1129 2.28037C33.8512 2.20561 33.6269 1.90654 33.4026 1.71963C33.5895 1.57009 33.7764 1.27103 33.926 1.30841C34.225 1.34579 34.6736 1.30841 34.711 1.90654C34.5615 2.01869 34.2998 2.31776 34.1129 2.28037ZM43.982 4.11215C43.7577 3.96262 43.5708 3.85047 43.3839 3.73832C43.4587 3.70093 43.5708 3.62617 43.6456 3.62617C43.7951 3.66355 43.9447 3.73832 44.0942 3.85047C44.0942 3.85047 44.0194 3.96262 43.982 4.11215ZM73.4774 29.5327C73.5147 29.5701 73.5895 29.6075 73.6269 29.6822C73.5895 29.7196 73.5521 29.7944 73.5521 29.8318C73.4774 29.7944 73.4026 29.757 73.4026 29.757C73.4026 29.6822 73.44 29.6075 73.4774 29.5327ZM73.3652 32.9346C73.5147 33.0467 73.7017 33.1963 73.7764 33.3458C73.8138 33.4579 73.7017 33.6075 73.6269 33.9065C73.2905 33.4206 73.1783 33.271 73.0662 33.1215C73.0288 33.1215 73.3278 32.9346 73.3652 32.9346ZM72.6923 42.5794C72.7671 42.5421 72.8792 42.6168 73.1035 42.6542C72.8792 42.7664 72.7297 42.8411 72.6175 42.8785C72.5802 42.8785 72.5054 42.8411 72.4306 42.8037C72.5054 42.729 72.5802 42.6168 72.6923 42.5794Z" fill="#E21A3D"/>
<path d="M23.8335 58.1683C23.7961 58.1683 23.7961 58.1683 23.7961 58.2057L23.8335 58.1683ZM74.4129 51.1403C74.5251 51.2898 74.6746 51.4019 74.8241 51.5141C74.5251 51.1403 74.1886 50.7664 73.8522 50.43C73.8895 50.4674 73.8895 50.5047 73.9269 50.5421C74.0017 50.8038 74.226 50.9533 74.4129 51.1403ZM75.8335 68.972C78.1138 65.6449 78.8241 61.8692 78.6746 61.3459C78.1139 62.5047 77.3288 63.5888 76.5438 64.3739C74.9363 65.9066 72.955 66.3178 70.8989 66.1309C70.8241 66.2057 70.7867 66.2804 70.712 66.2804C70.5998 66.2431 70.4877 66.1683 70.4129 66.0935C70.0017 66.0561 69.5905 65.9814 69.1793 65.8692V65.8318C71.8335 65.8692 74.1512 64.7103 74.9737 63.3272C75.4596 62.5047 75.1232 61.2337 72.5438 62.1683C68.0952 63.701 65.2914 62.6917 61.3662 61.458C61.3288 61.458 61.3288 61.4206 61.3662 61.4206C63.6092 61.458 69.74 61.9066 74.226 59.4393C75.4223 58.7664 76.0952 56.2991 72.5438 55.4019C70.4503 54.8786 68.2447 54.6169 66.0765 54.5047C65.0671 54.5421 64.0204 54.6169 63.0484 54.6917C62.7494 54.729 62.4503 54.729 62.1512 54.7664C62.1512 54.8038 62.1512 54.8786 62.1512 54.9159C62.1138 54.8786 62.0391 54.8412 62.0017 54.8038L62.0391 54.7664C60.469 54.916 58.8989 55.215 57.4036 55.6636C57.4036 55.701 57.4036 55.7758 57.441 55.8505C57.441 55.8505 57.4409 55.8505 57.4783 55.8505C57.4783 55.8879 57.5157 55.8879 57.5157 55.9253C57.5157 55.9253 57.5531 55.9253 57.5531 55.9627C57.7026 56.1496 57.8895 56.3365 58.0391 56.5234C58.0017 56.5234 57.9643 56.5608 57.9269 56.5608C57.7774 56.3739 57.6279 56.1496 57.4783 55.9627C57.4409 55.9627 57.4409 55.9253 57.4036 55.9253V55.8879C57.3662 55.8505 57.2914 55.8131 57.254 55.7758C55.6839 56.2617 54.1512 56.8599 52.6559 57.6823C52.6185 57.6823 52.6185 57.6823 52.6185 57.6449C56.3568 54.6169 60.6933 53.1963 65.1045 52.7477C65.1419 52.7477 65.1419 52.7477 65.1793 52.7103C65.1793 52.7103 65.1793 52.7103 65.2167 52.7103C68.1699 52.4113 71.1232 52.5608 73.9269 52.972C74.4503 53.0468 74.9737 53.1589 75.497 53.2711L75.5344 53.2337C75.5344 53.2337 75.5718 53.2711 75.6466 53.3085C75.7961 53.3459 75.9082 53.3832 76.0578 53.4206C75.7213 52.7851 75.3101 52.187 74.8615 51.6262C74.6746 51.5515 74.4877 51.4393 74.3382 51.4767C74.0391 51.4767 73.74 51.5515 73.441 51.6262C72.5811 51.8131 72.0578 51.6262 71.7587 50.8786C71.4223 50.0935 71.5344 49.944 72.5811 49.944C72.8428 49.8692 73.1045 49.9066 73.2914 49.9814C72.1325 48.972 70.7494 48.1122 69.254 47.5141C69.254 47.5515 69.2167 47.5515 69.2167 47.5888C69.2167 47.5515 69.2167 47.5515 69.2167 47.5141C67.497 46.8038 65.5905 46.3926 63.6839 46.3178C62.8241 46.2804 61.9269 46.3552 61.0297 46.4674C61.0671 46.5421 61.0671 46.6543 61.1045 46.729C61.2167 46.8412 61.3288 46.9533 61.4783 47.0655C61.2914 47.1029 61.1045 47.1776 60.9176 47.2524C60.6933 47.215 60.4316 47.215 60.2447 47.1029C60.1325 47.0281 60.0578 46.8412 60.0204 46.6917C57.0671 47.2524 53.9643 48.5608 50.8615 50.5795C50.8989 50.6169 50.8989 50.6917 50.9363 50.729C50.9737 50.8412 50.8989 50.9907 50.8615 51.1029C50.7867 51.0655 50.6746 51.0655 50.6746 51.0281C50.6372 50.9533 50.5998 50.8412 50.5624 50.7664C50.1886 51.0281 49.8148 51.2898 49.4036 51.5515C42.8989 56.2244 39.6839 57.1589 39.6839 57.1589C42.7494 55.4393 42.5998 53.3459 42.1886 52.2991C41.8895 51.5888 40.5811 50.6917 39.198 50.3552C35.6839 49.4954 33.0671 51.215 33.1045 51.215C35.0484 49.4954 37.4783 48.8225 40.1325 48.8599C42.9737 48.8599 46.5251 50.6917 46.5251 50.6917C46.5251 50.6917 41.8895 45.1963 34.5251 48.0374C34.0391 48.2244 33.5905 48.4113 33.1793 48.6356C33.2167 48.673 33.2914 48.7477 33.3288 48.7851C33.254 48.8973 33.1793 48.972 33.1045 49.0468C33.0297 48.972 32.955 48.8599 32.8802 48.7851C28.0952 51.1776 25.4036 55.1776 24.0578 57.8318C24.1325 57.9066 24.1699 57.9814 24.2073 58.0561C24.9176 57.5702 25.74 57.2337 26.4877 56.8225C26.4877 56.8225 26.5251 56.8225 26.4877 56.8599C25.6652 57.458 24.955 58.1309 24.3942 58.9907C24.1699 59.3272 24.0204 59.701 23.7587 60.0001C23.5344 60.2991 23.1606 60.5234 22.9737 60.8973C22.9363 60.972 22.8241 60.9346 22.8241 60.8599C22.8241 60.6356 22.7867 60.3739 22.7867 60.1496C22.6746 59.7758 22.6372 59.4019 22.6372 59.0281C22.5624 58.9533 22.5251 58.9159 22.4503 58.8412C22.5251 58.8412 22.5998 58.8038 22.6372 58.8038C22.6372 57.3459 23.198 55.7758 23.9082 54.5047C23.8709 54.4674 23.7961 54.4674 23.7961 54.4674C23.8335 54.3926 23.8709 54.3178 23.9082 54.2804C23.9456 54.3178 23.983 54.3178 23.983 54.3552C23.983 54.3552 23.983 54.3178 24.0204 54.3178C24.2073 53.8318 24.4316 53.4206 24.6559 53.0468C25.74 51.2524 26.5998 49.7197 25.7026 45.7197L25.6652 45.7571C25.5905 45.7571 25.5531 45.6823 25.4783 45.6823C25.5157 45.6449 25.5531 45.5328 25.5905 45.5328C25.6279 45.5328 25.6279 45.5328 25.6652 45.5702C25.6279 45.3459 25.5531 45.1589 25.5157 44.9346C24.8054 42.2057 25.7774 38.1309 26.8615 34.8786C26.7494 34.9907 26.6372 35.1403 26.5624 35.2524C26.5251 35.2898 26.0017 36.1496 25.5531 37.0094C25.5905 37.0468 25.6279 37.0842 25.6279 37.0842C25.6279 37.1216 25.5531 37.1963 25.5157 37.2337L25.4783 37.1963C25.254 37.6075 25.0297 38.0188 24.8802 38.3178C23.497 41.1963 22.712 44.187 22.1512 47.2524C22.1512 47.2898 22.0765 47.2898 22.1138 47.2524C22.5251 43.9627 22.9363 40.5982 24.0204 37.4206C24.5811 35.7758 25.4036 34.2431 26.3381 32.7851C26.6372 32.3365 27.1232 31.4393 27.6466 30.6917C27.6839 30.6543 27.6839 30.5795 27.7213 30.5421C27.7213 30.5047 27.7213 30.4674 27.7213 30.43C27.7213 30.43 27.7587 30.43 27.7961 30.43C27.8335 30.3552 27.8709 30.2804 27.9082 30.2057C27.3849 30.5795 24.8428 33.1589 24.0952 34.0561C24.0952 34.0561 24.0578 34.0561 24.0578 34.0188C24.768 32.8225 25.3662 31.5141 26.0765 30.3552C26.4129 29.7945 26.8241 29.3085 27.3101 28.9346C26.8989 28.7103 26.4877 28.4487 26.0391 28.1122C26.0017 28.0748 26.0391 28.0374 26.0765 28.0374C27.0858 28.486 28.0952 28.3365 29.1419 27.9627C29.74 27.7384 30.3008 28.3365 30.1138 28.9346C30.0391 29.1963 29.9643 29.4206 29.8895 29.6823C30.7494 29.7197 32.0204 29.6823 33.3288 29.4954C34.5998 29.3085 35.6466 28.7477 36.7307 28.2244C36.8802 28.0748 37.0297 27.8505 37.1793 27.8879C37.254 27.8879 37.3662 27.8879 37.4783 27.9253C37.7774 27.8131 38.1138 27.6636 38.4503 27.5888C37.7026 27.4767 36.9924 27.4393 36.3568 27.5888C36.2821 27.5888 38.0391 25.944 42.4129 26.9533C42.8615 27.0655 43.3475 27.0655 43.8335 27.1402C46.0391 26.7664 46.3755 24.8973 46.3755 24.8973L44.4316 23.0655C44.1325 22.916 43.8335 22.729 43.5344 22.5795C40.3568 21.458 37.0297 21.4206 35.3475 21.4954C34.3755 21.8692 33.3288 21.9814 32.2821 22.2057C32.2447 22.2057 32.2447 22.1683 32.2447 22.1683C33.4783 21.5328 34.5998 20.5982 35.6092 19.6636C36.0204 19.2898 36.3195 18.6917 36.6933 18.2057C36.8428 17.8692 36.9924 17.4954 37.0671 17.1589C37.0297 17.1216 37.0297 17.0842 36.9923 17.0468C36.8428 16.8225 37.1419 16.5982 37.3288 16.7103C37.8522 16.972 38.5251 17.1216 39.1232 17.3832C39.2727 17.458 39.4223 17.4954 39.5344 17.4954C39.6466 17.4954 39.7587 17.4954 39.7961 17.4954C40.2447 17.458 40.9176 17.4954 41.1793 17.0468C41.1419 16.7477 41.5531 16.5234 41.7774 16.7477C41.9643 16.972 42.1886 17.0842 42.3755 17.3085C42.5624 17.5328 42.712 17.8318 42.8615 18.0935C43.198 18.6917 43.2353 19.2524 43.4223 19.8879C43.4223 19.9253 43.3849 19.9253 43.3849 19.9253C42.9363 19.5515 42.5251 19.2898 42.1512 18.8412C42.0017 18.7664 41.8522 18.729 41.7026 18.6917C41.5531 18.6543 41.4409 18.6543 41.2914 18.6169C40.8802 18.5795 40.5064 18.5421 40.0952 18.5421C39.8335 18.5421 39.4223 18.5795 38.9737 18.7664C38.7867 18.8786 38.5998 19.0281 38.4503 19.1776C38.0765 19.5515 37.8522 19.9627 37.5905 20.4113C39.0858 20.4487 42.6746 21.1216 43.4596 21.4206C43.7213 21.4954 43.983 21.5702 44.2821 21.6449C44.3942 21.6449 44.469 21.6449 44.5438 21.6075C45.0297 21.3459 46.0765 18.6917 45.8522 17.9066C45.5905 17.0842 41.7774 13.8692 40.469 12.9346C39.1606 12.0001 38.6746 11.5515 35.5718 13.0842C31.1606 15.2524 28.469 16.5608 26.7494 17.458L26.712 17.4954C26.0017 17.8692 25.4409 18.1683 24.9923 18.4674C23.5344 19.4019 22.7494 21.1589 19.011 27.8879C18.3381 29.1216 17.4783 30.729 16.5064 32.5982C12.1325 41.0094 5.66525 54.3552 4.80543 57.6449C2.93627 64.9346 4.46898 65.7197 4.31945 67.2898C4.16992 68.8599 5.70263 72.4487 6.74936 73.0842C7.49702 73.4954 8.80543 73.6449 9.5531 73.6823C9.62786 73.4954 9.77739 73.4206 9.96431 73.4954C9.96431 73.4954 9.96431 73.4954 10.0017 73.4954L8.8802 71.4767C12.6185 73.7197 19.1232 76.2991 28.5438 78.0935C28.5811 78.0561 28.6185 78.0188 28.6559 77.944C28.7681 78.0188 28.9176 78.0935 29.0297 78.1683C29.5531 78.2804 30.0765 78.3552 30.5998 78.4673C40.1325 80.1122 51.5344 77.3832 53.2167 76.7103C53.1793 76.673 53.1045 76.673 53.0671 76.6356C52.8802 76.5608 52.2821 76.2991 51.5344 75.9253C50.8241 76.3739 49.8895 76.5608 49.0671 76.673C47.9082 76.8599 46.3755 77.1963 45.2166 76.972C45.2166 76.972 48.0204 76.8599 49.4036 75.3272C49.5905 75.1403 49.74 74.8786 49.6279 74.7664C49.5905 74.7664 46.4129 75.701 43.0858 76.2617C42.9737 76.486 42.8241 76.7103 42.6746 76.972C42.4503 76.8225 42.3008 76.7103 42.3008 76.7103C42.3755 76.5982 42.4877 76.486 42.5624 76.3739C41.5157 76.5608 40.4316 76.673 39.497 76.7103C41.9643 75.9627 44.0952 74.9533 46.226 73.6823C42.4129 74.43 38.7494 74.9907 34.8241 74.2804C30.7867 73.5702 27.4596 71.5888 24.5811 68.7477C24.5811 68.7477 24.5811 68.7103 24.5811 68.7477C27.8709 71.5515 32.3942 72.972 36.8428 73.3459C40.0204 73.2711 43.6092 72.486 45.9269 70.6169C45.3288 69.6075 44.955 68.5608 44.7307 67.4393C44.469 67.5888 44.2821 67.701 44.0952 67.701C44.0204 67.701 43.9082 67.5515 43.7961 67.4393C43.9456 67.2898 44.0952 67.1402 44.2447 67.0655C44.3195 67.0281 44.469 67.215 44.6933 67.3645C44.5064 66.43 44.4316 65.458 44.3942 64.4487C44.3942 64.4113 44.469 64.4113 44.469 64.4487C44.6933 66.5047 46.0017 68.3739 47.4596 69.944C47.4596 69.8318 47.4596 69.7571 47.4223 69.7197C47.4596 69.5328 47.4223 69.4206 47.497 69.3459C47.5344 69.2711 47.6466 69.2337 47.7213 69.1589C47.7587 69.2337 47.7961 69.2711 47.7587 69.3459C47.7587 69.458 47.6839 69.5702 47.6466 69.6449C47.6092 69.7571 47.5344 69.8692 47.4596 69.9814C47.8335 70.3926 48.2073 70.8038 48.6185 71.1403C49.8895 72.3739 51.3475 73.4206 52.9176 74.2804C55.3475 75.2524 58.3381 76.0374 62.2634 75.6636C62.2634 75.3272 62.4503 75.1776 62.712 75.2524C63.0484 75.2898 63.198 75.3272 63.3475 75.3646C63.2727 75.4393 63.198 75.5141 63.1232 75.5515C65.4783 75.215 67.6092 74.9533 70.6746 73.6449C72.8802 72.7103 74.5251 71.1403 75.7587 69.3832C75.7213 69.3832 75.7213 69.3459 75.6839 69.3459C75.6466 69.1216 75.7213 69.0094 75.8335 68.972ZM69.8522 63.2898C69.9269 63.3272 70.0391 63.3645 70.0391 63.3645C70.0017 63.5515 69.9643 63.7384 69.8895 63.9627C69.74 63.8879 69.6279 63.8505 69.6279 63.8131C69.7026 63.6262 69.7774 63.4767 69.8522 63.2898ZM71.4596 56.4487C71.5344 56.486 71.5718 56.5234 71.6466 56.5608C71.6092 56.5982 71.5718 56.7103 71.5344 56.7103C71.4596 56.7103 71.3849 56.673 71.3101 56.6356C71.3849 56.5982 71.4223 56.5234 71.4596 56.4487ZM65.2167 56.3365C65.3288 56.4113 65.441 56.486 65.5531 56.5982C65.441 56.673 65.3662 56.7477 65.3288 56.7477C65.2166 56.673 65.1045 56.5982 64.9924 56.486C65.1045 56.4487 65.2167 56.3365 65.2167 56.3365ZM64.5438 48.2244C64.7681 48.0748 65.0297 48.0374 65.2914 47.9253C65.3288 48.0748 65.4036 48.2244 65.4036 48.3739C65.4036 48.5234 65.3662 48.673 65.2914 48.7851C65.0671 48.9346 64.8428 49.0468 64.5811 49.1963C64.5438 49.0094 64.469 48.8599 64.4316 48.673C64.469 48.673 64.469 48.673 64.5064 48.673C64.5438 48.486 64.469 48.2617 64.5438 48.2244ZM62.0765 50.6169C62.226 50.729 62.3381 50.8412 62.5624 50.9907C62.3755 51.1402 62.2634 51.2524 62.1512 51.3645C62.0765 51.215 61.9269 51.1029 61.8895 50.9533C61.8522 50.8412 62.0017 50.6916 62.0765 50.6169ZM58.226 51.7758C58.3381 51.7758 58.4503 51.8879 58.712 52.0001C58.4503 52.1122 58.3381 52.187 58.226 52.187C58.1512 52.187 58.0017 52.0374 58.0017 52.0374C58.0391 51.9253 58.1512 51.7758 58.226 51.7758ZM53.4036 52.972C53.3288 53.0094 53.254 53.0842 53.2167 53.1216C53.1793 53.0842 53.1045 53.0094 53.1045 52.972C53.1419 52.8973 53.2166 52.8225 53.2914 52.7851C53.3288 52.8225 53.3288 52.8973 53.4036 52.972ZM52.955 49.944C53.1045 50.1309 53.1793 50.2057 53.2167 50.3178C53.2167 50.3926 53.1045 50.4674 53.0671 50.5421C52.9924 50.4674 52.8428 50.3926 52.8054 50.2804C52.7681 50.2057 52.8802 50.1309 52.955 49.944ZM23.011 53.8692C23.0858 53.9814 23.1232 54.0561 23.1606 54.1309C23.0484 54.1683 22.9737 54.2057 22.8615 54.2057C22.8241 54.2057 22.7494 54.0935 22.7494 54.0561C22.8241 54.0188 22.9363 53.944 23.011 53.8692ZM36.5438 26.2057C36.6185 26.2057 36.6559 26.2057 36.7307 26.2057C36.6933 26.2057 36.6933 26.2431 36.6559 26.2804C36.5811 26.2804 36.5064 26.2804 36.4316 26.2431C36.5064 26.2431 36.5438 26.2057 36.5438 26.2057ZM33.74 23.0281C33.8895 23.1402 34.0391 23.2898 34.2634 23.4767C34.0765 23.5888 33.8895 23.7384 33.8522 23.7384C33.7026 23.6636 33.5531 23.5141 33.5157 23.3645C33.5157 23.2898 33.6652 23.1402 33.74 23.0281ZM41.1419 20.4487C41.1045 20.3739 41.0671 20.2617 41.0297 20.187C41.1045 20.1496 41.1793 20.1122 41.254 20.0748C41.2914 20.1496 41.3288 20.2617 41.3662 20.3365C41.3662 20.3739 41.2166 20.4113 41.1419 20.4487ZM43.983 20.5982C44.0578 20.3739 44.2073 20.1496 44.3568 19.9253C44.3942 19.8879 44.5438 19.8505 44.5811 19.8879C44.6559 19.9627 44.7307 20.0374 44.8054 20.1496C44.6559 20.3739 44.5438 20.5982 44.3942 20.7851C44.2821 20.9346 44.1699 21.0468 44.0204 21.1963C43.983 20.972 43.9082 20.7851 43.983 20.5982ZM38.8989 13.7571C39.011 13.7571 39.1606 13.8318 39.4223 13.9066C39.198 14.0561 39.0858 14.2057 38.9737 14.2057C38.8615 14.2057 38.7494 14.0561 38.6746 13.9814C38.7494 13.8692 38.8241 13.7571 38.8989 13.7571ZM32.5811 21.2337C32.6559 21.2337 32.7307 21.3832 32.8054 21.458C32.6559 21.5328 32.5064 21.6449 32.5064 21.6075C32.4316 21.5328 32.3568 21.4206 32.3195 21.3085C32.3942 21.3085 32.5064 21.2337 32.5811 21.2337ZM29.8522 16.0374C29.9269 16.0374 30.0765 16.1122 30.1138 16.187C30.1512 16.2244 30.0017 16.3365 29.9269 16.4487C29.8148 16.3365 29.74 16.2991 29.6279 16.2244C29.74 16.1496 29.8148 16.0374 29.8522 16.0374ZM29.8148 22.2804C29.8895 22.2804 30.0017 22.3552 30.1886 22.43C29.9269 22.5421 29.8522 22.6169 29.7774 22.6169C29.7026 22.6169 29.6652 22.5047 29.5905 22.43C29.6279 22.3926 29.7026 22.2804 29.8148 22.2804ZM26.8241 24.972C27.0484 25.1589 27.2353 25.3085 27.4223 25.458C27.3101 25.5328 27.2353 25.7197 27.1232 25.7197C26.712 25.7571 26.5998 25.4954 26.5624 25.1963C26.5251 25.1589 26.6746 25.0842 26.8241 24.972ZM25.2166 21.0094C25.254 21.0842 25.3662 21.1963 25.3662 21.2711C25.3662 21.3459 25.254 21.4206 25.1793 21.4954C25.1045 21.4206 25.0297 21.3832 24.9176 21.2711C25.0297 21.1589 25.1045 21.0842 25.2166 21.0094ZM23.9082 21.1963C23.983 21.2337 24.0578 21.3085 24.2073 21.3832C24.0578 21.458 23.9456 21.4954 23.8709 21.5328C23.8335 21.458 23.7587 21.3832 23.7213 21.2711C23.7213 21.2711 23.8709 21.1963 23.9082 21.1963ZM21.4036 31.5141C21.4783 31.5515 21.5531 31.5888 21.6279 31.6636C21.5531 31.7384 21.4783 31.8131 21.3662 31.8879C21.2914 31.7758 21.2166 31.701 21.2166 31.6262C21.2166 31.6262 21.3288 31.5141 21.4036 31.5141ZM20.5811 34.5795C20.5811 34.5795 20.7307 34.6917 20.955 34.8412C20.6185 35.0655 20.3568 35.2524 20.0578 35.4393L19.9082 35.3272C20.0952 35.0655 20.3568 34.8412 20.5811 34.5795ZM19.8335 46.2057C19.9082 46.2804 19.983 46.3178 20.0578 46.3926C19.983 46.5047 19.9456 46.6169 19.9082 46.6917C19.8335 46.6169 19.6839 46.5421 19.6466 46.43C19.6466 46.3926 19.7961 46.2804 19.8335 46.2057ZM18.6372 63.8131C18.7494 63.9627 18.8241 64.1496 18.9363 64.2991C18.8615 64.4113 18.8241 64.486 18.7867 64.5234C18.712 64.3739 18.6372 64.2244 18.5624 64.0748C18.5624 64.0001 18.5998 63.8879 18.6372 63.8131ZM17.8895 63.9253C18.0017 63.9253 18.1138 64.0001 18.3381 64.1122C18.1886 64.2617 18.0765 64.4487 18.0017 64.4113C17.8522 64.3739 17.74 64.2617 17.6279 64.187C17.7026 64.0748 17.8148 63.9253 17.8895 63.9253ZM16.768 49.0468C16.768 49.1216 16.8054 49.1963 16.8054 49.2337C16.768 49.2711 16.6933 49.3085 16.6559 49.3832C16.6559 49.3085 16.6185 49.2337 16.6185 49.1963C16.6559 49.1216 16.7307 49.1216 16.768 49.0468ZM15.198 35.7758C15.2353 35.8131 15.3475 35.8505 15.3475 35.8879C15.3475 35.9253 15.3101 36.0001 15.2727 36.0748C15.2353 36.0374 15.1232 36.0001 15.1232 35.9627C15.1232 35.8879 15.198 35.8131 15.198 35.7758ZM15.4596 55.1776C15.4223 55.215 15.3849 55.2898 15.3475 55.3272C15.3101 55.2898 15.2353 55.2524 15.198 55.215L15.2353 55.1402C15.3475 55.1402 15.4223 55.1403 15.4596 55.1776ZM14.1886 56.2991C14.1138 56.3365 14.0765 56.3739 13.9643 56.4113C13.8895 56.2991 13.8148 56.187 13.74 56.0748C13.8148 56.0374 13.9643 55.9627 13.9643 55.9627C14.0765 56.0748 14.1138 56.187 14.1886 56.2991ZM13.7026 40.8973C13.74 40.972 13.74 41.0094 13.8148 41.1963C13.5157 41.2711 13.254 41.3832 12.9923 41.4206C12.955 41.4206 12.9176 41.3459 12.8428 41.3085C13.1419 41.1963 13.4036 41.0468 13.7026 40.8973ZM12.8802 54.7664C12.7681 54.8412 12.6933 54.9159 12.6559 54.9159C12.5438 54.8412 12.4316 54.7664 12.3195 54.6543C12.3942 54.6169 12.5064 54.5047 12.5438 54.5047C12.6559 54.5795 12.7681 54.6543 12.8802 54.7664ZM9.36618 48.7477C9.51571 48.8599 9.62786 48.972 9.85216 49.1216C9.66525 49.2711 9.5531 49.3832 9.44095 49.4954C9.36618 49.3459 9.21665 49.2337 9.17926 49.0842C9.14188 48.972 9.29141 48.8599 9.36618 48.7477ZM7.04842 66.3178C7.01104 66.2804 6.93627 66.2431 6.93627 66.2057C6.97366 66.1309 7.04842 66.0561 7.08581 65.9814C7.16057 66.0188 7.23534 66.0935 7.23534 66.0935C7.19796 66.2057 7.12319 66.2804 7.04842 66.3178ZM7.04842 55.5515C6.97366 55.4767 6.89889 55.4393 6.86151 55.3645C6.86151 55.3272 6.93627 55.215 6.93627 55.215C7.01104 55.215 7.08581 55.2898 7.23534 55.3272C7.16057 55.4393 7.12319 55.4767 7.04842 55.5515ZM7.7587 67.3272C7.72132 67.3272 7.68394 67.2524 7.64655 67.215C7.72132 67.1776 7.79609 67.1029 7.87085 67.0655C7.87085 67.0655 7.94562 67.1403 8.02039 67.215C7.94562 67.2524 7.87085 67.3272 7.7587 67.3272ZM14.3381 71.4767C14.1886 71.3645 14.0391 71.215 13.8522 71.1029C13.8895 71.0655 13.9643 71.0281 14.0391 70.9533C14.1886 71.1029 14.3381 71.2524 14.4877 71.4019C14.4503 71.4393 14.3381 71.5141 14.3381 71.4767ZM16.2821 68.7477C16.0578 68.5982 15.9082 68.5234 15.7587 68.4113C15.9082 68.3365 16.0578 68.1496 16.2073 68.1496C16.469 68.187 16.6933 68.3365 16.955 68.4113C16.768 68.5234 16.5438 68.6356 16.2821 68.7477ZM20.8428 65.9814C20.8054 66.0188 20.768 66.0561 20.7307 66.0935C20.5438 66.1683 20.3568 66.2431 20.1699 66.2804C20.0204 66.3552 19.8335 66.3926 19.6839 66.4674C19.7587 66.5421 19.8335 66.6169 19.9456 66.729C19.6092 66.9907 19.3101 67.2524 19.011 67.4767C19.011 67.4767 18.8989 67.4019 18.8241 67.3645C19.0858 67.0655 19.3475 66.7664 19.6092 66.4674C19.3101 66.5795 19.0484 66.6917 18.7494 66.7664C16.3568 67.5889 13.4409 68.2244 11.198 67.4393C9.74001 67.0281 8.61852 65.7945 8.4316 63.9627C8.24468 61.6823 9.29141 59.215 10.0391 57.0842C10.9737 54.5047 11.8335 51.9253 12.6185 49.3085C12.6185 49.2711 12.6559 49.3085 12.6559 49.3085C12.5438 49.8318 12.3942 50.3552 12.2821 50.8412C12.3195 50.8412 12.3568 50.8038 12.3942 50.8038C12.5064 50.8786 12.6185 50.9533 12.7307 51.0655C12.6559 51.1029 12.5438 51.1776 12.5064 51.1776C12.3942 51.1029 12.3195 51.0281 12.2447 50.9533C10.4503 58.6543 9.96431 62.0561 9.92693 63.1029C9.88954 63.8131 10.0391 64.5234 10.3755 65.0842C10.7867 65.6823 11.4223 66.0935 12.3568 66.2431C12.469 66.2804 12.5811 66.2804 12.7307 66.2804C12.9923 66.2804 13.254 66.2057 13.5157 66.1309C14.8241 65.4206 14.5624 64.7477 14.3008 64.187C14.3008 64.1496 14.3381 64.1496 14.3381 64.187C14.712 64.9346 16.4316 65.3085 17.1419 65.4206C18.2634 65.6449 19.3849 65.7197 20.5064 65.8318C20.5438 65.8318 20.5811 65.8318 20.6185 65.8318C20.6559 65.8318 20.6933 65.8318 20.7307 65.8692C20.8802 65.8318 20.9176 65.944 20.8428 65.9814ZM21.254 58.3178C21.1419 58.2804 21.0297 58.1683 20.8428 58.0561C21.0297 57.9814 21.1793 57.8692 21.2166 57.9066C21.3288 57.9814 21.3662 58.0935 21.4409 58.2057C21.4036 58.2057 21.2914 58.3178 21.254 58.3178ZM21.5905 41.8692C21.3662 41.6075 20.955 41.2337 21.0297 41.0094C21.1793 40.6356 21.6279 40.0374 21.9643 40.0374C22.5624 40.0374 22.0017 40.673 22.2634 41.0094C22.3381 41.0842 22.3381 41.1963 22.3755 41.3832C22.2634 41.5328 22.1512 41.7571 22.0017 41.944C21.9643 42.0188 21.6652 41.9814 21.5905 41.8692ZM51.2727 76.5234C51.3101 76.5234 51.4223 76.5982 51.5344 76.673C51.4223 76.7477 51.3475 76.8599 51.2727 76.8599C51.198 76.8599 51.0858 76.7477 51.0858 76.673C51.0858 76.673 51.198 76.5608 51.2727 76.5234ZM29.4783 73.458C29.6279 73.6075 29.7774 73.7945 29.9269 73.944C29.8522 73.9814 29.8148 74.0188 29.7774 74.0561C29.6279 73.9066 29.5157 73.7197 29.3662 73.5702C29.3288 73.5702 29.4409 73.4954 29.4783 73.458ZM28.8054 74.3552C28.8428 74.3926 28.8802 74.43 28.955 74.5047C28.9176 74.5795 28.8428 74.6169 28.768 74.6917C28.7307 74.6169 28.6933 74.5795 28.6933 74.5047C28.7307 74.4674 28.768 74.43 28.8054 74.3552ZM22.8615 67.3272C22.9363 67.2524 23.011 67.1403 23.1232 67.1029C23.198 67.0655 23.3101 67.1402 23.5344 67.1776C23.3101 67.2898 23.1606 67.3646 23.0484 67.4019C23.011 67.4393 22.9363 67.3646 22.8615 67.3272ZM23.5718 75.4393C23.4596 75.4393 23.3475 75.2898 23.2353 75.215C23.3475 75.1029 23.4596 74.9533 23.6466 74.8786C23.7213 74.8412 23.9082 74.9907 24.1325 75.1403C23.8709 75.2898 23.7587 75.4393 23.5718 75.4393ZM26.0017 70.3552C26.0391 70.3178 26.1886 70.3926 26.2634 70.43C26.3381 70.5047 26.4129 70.5795 26.4877 70.6543C26.3381 70.6917 26.1886 70.7664 26.0391 70.7664C25.9643 70.7664 25.8522 70.6917 25.7774 70.6543C25.8522 70.5421 25.8895 70.43 26.0017 70.3552ZM25.1045 73.2337C25.254 73.3085 25.3288 73.4954 25.4409 73.6075C25.254 73.6823 24.955 73.9066 24.8428 73.8692C24.5064 73.6449 24.2447 73.3459 24.0204 73.0842C23.983 73.0468 24.1325 72.8973 24.2073 72.7851C24.5811 72.972 24.8428 73.0842 25.1045 73.2337ZM27.5344 55.8879C27.5718 55.8879 27.6466 55.9627 27.6839 56.0001C27.6092 56.0001 27.5718 56.0374 27.497 56.0374C27.4596 56.0001 27.3849 55.9627 27.3475 55.9253C27.3849 55.9253 27.4596 55.8879 27.5344 55.8879ZM27.5718 58.3552C27.3849 58.2057 27.198 58.0561 26.9737 57.8692C27.0858 57.8318 27.198 57.7945 27.2727 57.8318C27.4596 57.9066 27.6092 58.0561 27.7961 58.1683C27.6839 58.2804 27.5718 58.3552 27.5718 58.3552ZM28.6559 63.701C28.6185 63.6262 28.5438 63.5515 28.5064 63.5141L28.768 63.4393C28.8054 63.5141 28.8054 63.5515 28.8428 63.6262C28.7307 63.6262 28.6933 63.6636 28.6559 63.701ZM31.8709 71.5141C31.6839 71.4393 31.497 71.3272 31.3475 71.215C31.497 71.1029 31.6466 70.916 31.7587 70.9533C31.9456 70.9907 32.0952 71.1403 32.3568 71.3272C32.0578 71.4019 31.9456 71.5515 31.8709 71.5141ZM33.4783 60.7103C33.4036 60.6356 33.3662 60.5982 33.2914 60.5234C33.3662 60.486 33.4036 60.4113 33.4409 60.4487C33.4783 60.4487 33.5157 60.5234 33.5531 60.5982C33.5531 60.5982 33.5157 60.6356 33.4783 60.7103ZM33.8522 72.5982C33.7774 72.5608 33.74 72.486 33.6652 72.4487C33.7026 72.4113 33.7774 72.3739 33.8148 72.3365C33.8522 72.3739 33.9269 72.4113 33.9643 72.4487C33.9643 72.486 33.8895 72.5608 33.8522 72.5982ZM37.5531 61.1216C37.5157 61.0842 37.4409 61.0094 37.4783 60.972C37.5157 60.8973 37.5905 60.8225 37.6652 60.7477C37.6652 60.7477 37.7774 60.7851 37.8522 60.8225C37.74 60.9346 37.6279 61.0094 37.5531 61.1216ZM38.5624 60.187C38.4503 60.0748 38.2634 60.0001 38.2634 59.9253C38.2634 59.8505 38.4129 59.7384 38.4877 59.6636C38.5998 59.7384 38.712 59.8131 38.7867 59.9253C38.8241 59.9253 38.6746 60.0374 38.5624 60.187ZM43.2727 61.5702C43.497 61.8318 43.6466 62.0188 43.7213 62.2057C43.7587 62.2804 43.6092 62.43 43.5718 62.5047C43.3849 62.3552 43.1606 62.2057 43.011 62.0188C42.9737 62.0188 43.1232 61.8318 43.2727 61.5702ZM40.7681 58.7664L40.6559 58.6169C40.7681 58.5421 40.8802 58.4674 40.9924 58.43C40.9924 58.43 41.0671 58.5047 41.1419 58.6169C41.0297 58.6543 40.9176 58.729 40.7681 58.7664ZM43.0484 71.3272C42.9363 71.2524 42.8241 71.1403 42.7494 71.0281C42.712 70.9907 42.8241 70.8786 42.9737 70.6917C43.0484 70.916 43.1232 71.0281 43.1606 71.1403C43.1606 71.215 43.0858 71.2524 43.0484 71.3272ZM43.5344 69.458C43.497 69.3459 43.4596 69.2711 43.4223 69.1963C43.4223 69.1589 43.497 69.1216 43.5718 69.0842C43.6092 69.1589 43.6839 69.2711 43.6839 69.3459C43.6839 69.3459 43.6092 69.3832 43.5344 69.458ZM43.5344 63.6262C43.5344 63.6262 43.4596 63.5515 43.3849 63.5141C43.4596 63.4393 43.5344 63.3645 43.6466 63.3272C43.6466 63.3272 43.7213 63.3646 43.7961 63.4019C43.7213 63.5141 43.6466 63.5888 43.5344 63.6262ZM45.0297 63.3272C44.9176 63.2898 44.8428 63.2524 44.7307 63.2524C44.7681 63.1776 44.7681 63.1029 44.8054 63.1029C44.9176 63.1029 44.9924 63.1402 45.1045 63.1402C45.0671 63.215 45.0297 63.3272 45.0297 63.3272ZM47.6839 62.0935C47.5344 61.944 47.4223 61.9066 47.4223 61.8318C47.4223 61.7197 47.5344 61.6449 47.5718 61.5328C47.6466 61.5702 47.7961 61.6449 47.7961 61.6823C47.8335 61.7945 47.7587 61.9066 47.6839 62.0935ZM51.1232 50.4674C51.1606 50.5421 51.198 50.5795 51.198 50.6543C51.198 50.6917 51.1232 50.729 51.0484 50.8038C51.011 50.729 50.9363 50.6543 50.9363 50.5795C50.9363 50.5421 51.0484 50.5047 51.1232 50.4674ZM48.955 70.5421C48.9176 70.5421 48.8428 70.4674 48.8054 70.43C48.8428 70.3926 48.9176 70.3552 48.955 70.3178C48.9924 70.3552 49.0671 70.3926 49.1045 70.43C49.0671 70.4674 49.0297 70.5421 48.955 70.5421ZM48.8802 68.1496C48.8054 68.1496 48.7307 68.0374 48.6559 68.0001C48.7681 67.9253 48.8428 67.8131 48.955 67.7758C49.0297 67.7758 49.1419 67.8505 49.2914 67.9627C49.1045 68.0374 48.9924 68.1122 48.8802 68.1496ZM49.4409 66.2804C49.4409 66.3552 49.3662 66.43 49.3288 66.43C49.254 66.43 49.1793 66.3926 49.1419 66.3552C48.7307 65.7571 48.3568 65.1216 47.983 64.5234C47.9456 64.486 48.0204 64.4113 48.0578 64.3365C48.8054 64.486 49.5905 65.6823 49.4409 66.2804ZM50.4877 69.0094C50.3755 68.972 50.3008 68.8599 50.1886 68.7851C50.2634 68.7103 50.3755 68.5982 50.4503 68.5982C50.5998 68.5982 50.7494 68.673 51.011 68.7851C50.6746 68.9346 50.5624 69.0468 50.4877 69.0094ZM51.2727 63.6636C51.1232 63.8131 50.9363 64.0001 50.7494 64.1496C50.6746 64.2244 50.5251 64.2617 50.4129 64.2991C50.3755 64.1496 50.226 63.8879 50.3008 63.8505C50.5624 63.6636 50.8615 63.5141 51.1232 63.4019C51.2353 63.4393 51.3101 63.4767 51.3849 63.5141C51.3475 63.5515 51.3101 63.5888 51.2727 63.6636ZM54.1512 58.6169C54.0765 58.5795 54.0391 58.4674 54.0017 58.3926C54.1138 58.3926 54.226 58.3552 54.3008 58.3926C54.3755 58.43 54.4503 58.5421 54.5624 58.6543C54.3755 58.6543 54.226 58.6543 54.1512 58.6169ZM54.7867 72.2617C54.6746 72.1496 54.5998 72.1122 54.5624 72.0001C54.5624 71.9627 54.6746 71.8505 54.712 71.8879C54.8241 71.8879 54.8989 71.9627 54.9737 72.0001C54.9363 72.0748 54.8615 72.1496 54.7867 72.2617ZM55.497 65.3459C55.4596 65.2711 55.4223 65.1589 55.4223 65.0842C55.4223 64.972 55.497 64.8225 55.497 64.7103C55.5718 64.7477 55.6466 64.8225 55.7213 64.8599C55.6466 65.0468 55.5718 65.1963 55.497 65.3459ZM55.2353 63.1029C55.1232 63.0655 55.0484 62.916 54.9737 62.8038C55.0858 62.7664 55.198 62.6917 55.2727 62.6917C55.3849 62.6917 55.497 62.8038 55.7961 62.9533C55.4596 63.0655 55.3475 63.1403 55.2353 63.1029ZM60.469 69.1963C60.4316 69.1963 60.3942 69.1216 60.3568 69.0842C60.4316 69.0468 60.5064 68.972 60.5811 68.9346C60.5811 68.9346 60.6559 69.0094 60.7307 69.0842C60.6559 69.1216 60.5438 69.1589 60.469 69.1963ZM62.6746 64.3739C62.6372 64.3365 62.5624 64.2991 62.5251 64.2617C62.5624 64.2244 62.5998 64.187 62.6746 64.1122L62.8241 64.2244C62.7494 64.2991 62.712 64.3365 62.6746 64.3739ZM64.9924 71.6262C64.9176 71.5141 64.8428 71.4393 64.7681 71.3272C64.8428 71.2898 64.955 71.215 65.0671 71.1403C65.1419 71.2524 65.2167 71.3272 65.2167 71.4019C65.1793 71.5141 65.0671 71.5515 64.9924 71.6262ZM65.8522 63.9627C65.7774 63.8879 65.6279 63.8505 65.6279 63.7758C65.6652 63.6636 65.74 63.5515 65.8522 63.4019C65.9643 63.5141 66.1138 63.6262 66.1138 63.6636C66.0765 63.7758 65.9643 63.8879 65.8522 63.9627ZM67.011 73.3459C66.8615 73.2337 66.712 73.0842 66.5251 72.972C66.5624 72.9346 66.6372 72.8973 66.712 72.8225C66.8615 72.972 67.011 73.1216 67.1606 73.2711C67.1232 73.2711 67.0484 73.3459 67.011 73.3459ZM67.4596 72.0748C67.3475 72.0374 67.2353 71.9253 67.1232 71.8505C67.198 71.7758 67.2727 71.6636 67.3475 71.6636C67.4596 71.6636 67.5718 71.7384 67.7587 71.8505C67.6092 72.0001 67.497 72.1122 67.4596 72.0748ZM72.1325 72.1122C72.1325 72.0748 72.1325 71.9627 72.1699 71.9627C72.2447 71.9627 72.3195 71.9627 72.3942 71.9627C72.4316 72.0001 72.469 72.0374 72.5064 72.1122C72.3568 72.1496 72.2447 72.1122 72.1325 72.1122ZM75.8335 68.972C75.7587 69.0842 75.6839 69.1589 75.6466 69.2337C75.6839 69.2711 75.7213 69.2711 75.7587 69.2711C75.9082 69.2337 76.0204 69.1589 76.2447 69.0468C76.0578 68.972 75.9082 68.9346 75.8335 68.972Z" fill="#111111"/>
</svg>
