<svg width="80" height="80" viewBox="0 0 80 80" fill="none" xmlns="http://www.w3.org/2000/svg">
<path d="M53.1059 74.5897V66.7989L52.3846 63.6249H50.004C50.004 63.6249 50.3647 64.2741 47.6235 64.7069C48.6334 64.4184 48.922 64.1298 48.922 64.1298V63.697V62.0379C47.9121 62.6871 46.325 63.3363 44.3052 63.697C43.2953 63.9134 42.1411 63.9856 40.9148 63.9856C39.6884 63.9856 38.6064 63.8413 37.5243 63.697C35.5045 63.3363 33.9175 62.6871 32.9076 62.0379V63.697V64.1298C32.9076 64.1298 33.4125 64.7791 36.0094 65.1398C32.6911 64.9955 32.114 64.202 32.1862 63.697H29.8057L29.1564 66.6546H51.3025L29.0843 67.881V74.5176H28.8679L27.2087 76.4653H29.1564H53.3223H53.7552H53.3223L29.1564 77.3309L27.0645 77.4031V79.9279H55.7029V76.6096L53.7552 74.5176L53.1059 74.5897ZM40.1213 73.9405C40.1213 74.229 39.977 74.4454 39.7606 74.5897C39.6884 74.6619 39.5442 74.6619 39.3999 74.6619H36.4423C36.298 74.6619 36.2259 74.5897 36.0816 74.5897C35.8652 74.4454 35.7209 74.229 35.7209 73.9405V73.0027C35.7209 72.5699 36.0094 72.2813 36.4423 72.2813H36.6587V71.4157H36.5144C36.0816 71.4157 35.793 71.1271 35.793 70.6943V69.9729C35.793 69.6123 36.0094 69.3237 36.3701 69.2516C36.803 69.1794 37.0915 69.0352 37.3079 68.8909C37.4522 68.8188 37.5243 68.7466 37.6686 68.7466H38.5342C38.9671 68.7466 39.2556 69.0352 39.2556 69.468V72.2813H39.3278C39.7606 72.2813 40.0491 72.5699 40.0491 73.0027V73.9405H40.1213ZM47.4071 71.8485C47.4071 72.2813 47.1186 72.5699 46.6857 72.5699V74.0126C46.6857 74.3012 46.5415 74.5176 46.3251 74.5897C46.1808 74.6619 46.1086 74.734 45.9644 74.734H45.243C45.0987 74.734 44.9544 74.6619 44.8823 74.5897C44.6659 74.4454 44.5216 74.229 44.5216 74.0126V72.5699C44.3052 72.5699 44.1609 72.4977 44.0167 72.3535C44.1609 72.5699 44.2331 72.8584 44.2331 73.147C44.2331 73.7962 43.8724 74.3012 43.2953 74.5897C43.0789 74.6619 42.7903 74.734 42.5018 74.734C42.2132 74.734 41.9247 74.6619 41.6361 74.5897C41.4197 74.5176 41.2033 74.3733 40.9869 74.1569C40.6984 73.8684 40.6984 73.4355 40.9148 73.147L41.1312 72.8584C40.9869 72.642 40.8426 72.2813 40.8426 71.9928C40.8426 71.1271 41.6361 70.4058 42.5739 70.4058C43.0789 70.4058 43.5117 70.6222 43.8724 70.9107C44.0167 70.6222 44.2331 70.4779 44.5216 70.4779H46.6857C47.1186 70.4779 47.4071 70.7665 47.4071 71.1993V71.8485Z" fill="#111111"/>
<path d="M44.5215 71.8485H45.2429V73.9405H45.9642V71.8485H46.6856V71.1993H44.5215V71.8485Z" fill="#E21A3D"/>
<path d="M21.2215 3.31831L19.4902 4.11181L19.7788 4.68891L20.2837 4.4725L22.015 8.44004L22.6643 8.07935L21.0051 4.18395L21.5101 3.96754L21.2215 3.31831Z" fill="#E21A3D"/>
<path d="M25.5495 1.80343L24.8281 2.01984L26.1987 6.78088L26.9201 6.63661L26.2709 4.40036L26.9201 4.18395L27.5693 6.4202L28.2907 6.20379L26.9201 1.44274L26.1987 1.65915L26.7758 3.60685L26.1266 3.75113L25.5495 1.80343Z" fill="#E21A3D"/>
<path d="M32.6181 0.360687L30.959 0.577098L31.6804 5.48242L33.4116 5.19387L33.2674 4.61677L32.3296 4.68891L32.1132 3.17403L32.9788 3.02976L32.9067 2.38053L32.041 2.5248L31.8246 1.08206L32.6903 0.937784L32.6181 0.360687Z" fill="#E21A3D"/>
<path d="M42.9334 1.44274V1.29847C42.9334 0.865645 42.9334 0.577096 42.7891 0.432822C42.6448 0.216411 42.4284 0.144274 41.9956 0.144274L40.9857 0L40.625 4.97746L41.7071 5.04959C42.0677 5.04959 42.3563 4.97746 42.5727 4.76105C42.7891 4.54463 42.8613 4.18395 42.9334 3.67899V3.53472C42.9334 2.88548 42.7891 2.5248 42.4284 2.38052C42.717 2.30839 42.9334 1.9477 42.9334 1.44274ZM42.1399 3.39044V3.82326C42.0677 4.03968 42.0677 4.18395 41.9956 4.32822C41.9235 4.40036 41.8513 4.4725 41.6349 4.4725H41.3464L41.4906 2.66907H41.7792C41.9235 2.66907 41.9956 2.74121 42.0677 2.81335C42.1399 2.95762 42.1399 3.10189 42.1399 3.39044ZM42.212 1.44274C42.212 1.73129 42.1399 1.87556 42.1399 1.9477C42.0677 2.01984 41.9956 2.09197 41.8513 2.01984H41.5628L41.6349 0.577096H41.8513C41.9956 0.577096 42.0677 0.649234 42.1399 0.721371C42.212 0.793508 42.212 0.937782 42.212 1.08206V1.44274Z" fill="#E21A3D"/>
<path d="M48.5601 1.73129L48.7044 1.08205L47.0452 0.721367L46.1074 5.62669L47.7666 5.91524L47.8387 5.266L46.9731 5.12173L47.2616 3.53471L48.1273 3.75112L48.1994 3.10189L47.4059 2.95762L47.6944 1.51487L48.5601 1.73129Z" fill="#E21A3D"/>
<path d="M53.2493 4.03967L53.8985 4.25609L53.9707 3.96754C54.115 3.53471 54.1871 3.17403 54.115 2.95762C54.0428 2.66907 53.8264 2.5248 53.4657 2.38052C53.105 2.23625 52.8165 2.23625 52.6001 2.38052C52.3837 2.5248 52.2394 2.81334 52.0951 3.17403C52.023 3.39044 52.023 3.60685 52.023 3.82326C52.023 4.03967 52.0951 4.25609 52.2394 4.4725L52.4558 4.97746C52.5279 5.19387 52.6001 5.41028 52.6722 5.55455C52.6722 5.69883 52.6722 5.91524 52.6001 6.13165C52.5279 6.34806 52.4558 6.49233 52.3837 6.56447C52.3115 6.63661 52.2394 6.63661 52.0951 6.63661C51.9508 6.56447 51.8787 6.49233 51.8787 6.4202C51.8787 6.27592 51.8787 6.13165 52.023 5.8431L52.1673 5.266L51.518 5.04959L51.3737 5.48241C51.2295 5.91524 51.1573 6.27592 51.2295 6.56447C51.3016 6.85302 51.518 7.06943 51.8787 7.14157C52.2394 7.28584 52.5279 7.2137 52.7444 7.06943C52.9608 6.92516 53.1772 6.63661 53.3214 6.20379C53.3936 5.91524 53.4657 5.69883 53.3936 5.48241C53.3936 5.266 53.3214 4.97746 53.1772 4.68891L52.8886 4.11181C52.8165 3.8954 52.7444 3.75113 52.7444 3.67899C52.7444 3.60685 52.7444 3.46258 52.8165 3.3183C52.8886 3.17403 52.8886 3.02976 53.0329 2.95762C53.105 2.88548 53.1772 2.88548 53.3214 2.95762C53.4657 3.02976 53.4657 3.10189 53.4657 3.17403C53.4657 3.3183 53.4657 3.46258 53.3936 3.67899L53.2493 4.03967Z" fill="#E21A3D"/>
<path d="M56.8563 9.1614L58.7318 5.266L59.2368 5.55455L59.5253 4.90532L57.794 4.11181L57.5055 4.68891L58.0105 4.97745L56.207 8.80072L56.8563 9.1614Z" fill="#E21A3D"/>
<path d="M28.002 19.9098C27.5692 20.0541 27.2807 20.2705 27.2085 20.4869C26.415 20.1262 24.9723 19.6213 23.9623 19.6213C22.4475 19.6213 19.2734 20.2705 19.2734 25.0316C19.2734 33.3273 31.0318 39.3868 32.4024 40.1082C34.855 44.3643 37.5963 46.7448 38.3898 49.1253C38.6062 49.1253 38.7504 49.1975 38.9669 49.1975C39.544 49.2696 40.1932 49.3417 40.9146 49.3417C41.8523 49.3417 42.718 49.2696 43.4394 49.1253C43.5115 48.9089 43.5836 48.7647 43.6558 48.5482C44.6657 46.2399 47.2626 43.8593 49.6431 39.6754C52.6008 38.0884 61.9786 32.3895 61.9786 25.0316C61.9786 20.2705 58.8045 19.6213 57.2897 19.6213C56.424 19.6213 55.342 19.982 54.5485 20.2705C54.4042 20.3426 54.1878 20.4148 54.0435 20.4869C53.9714 20.1984 53.25 19.9098 52.1679 19.6213C49.8596 19.1163 45.6035 18.7556 40.6981 18.7556C35.7928 18.7556 31.4646 19.0442 29.0841 19.6213C28.6513 19.6934 28.2906 19.8377 28.002 19.9098ZM22.0146 21.1362C24.5394 19.6213 27.0642 21.8575 27.0642 21.8575L27.2085 22.8674C27.2085 22.8674 24.9001 20.6312 22.9524 21.569C20.3555 22.7953 21.3654 28.3499 23.3131 31.596C20.4998 27.1957 19.562 23.0117 22.0146 21.1362ZM22.2311 25.8972C22.2311 23.7331 22.4475 22.2182 23.8181 22.2182C25.1887 22.2182 25.9822 22.5789 26.9921 23.9495C27.2807 24.3823 27.5692 24.5987 27.9299 24.743C28.3627 29.7205 29.3726 33.5437 30.6711 36.5735C25.0444 33.5437 22.2311 27.917 22.2311 25.8972ZM31.1039 32.9666C32.4024 33.2552 35.7928 33.9766 38.9669 33.6159C36.5863 34.4815 32.8352 33.9766 31.3925 33.7601C31.2482 33.4716 31.1761 33.183 31.1039 32.9666ZM31.6089 34.5536C32.9795 34.8422 35.7928 35.4193 38.534 35.1307C36.5142 35.8521 33.4123 35.5636 31.8974 35.3472C31.7532 35.1307 31.681 34.8422 31.6089 34.5536ZM32.186 36.0685C33.4123 36.3571 36.0092 36.862 38.4619 36.5735C36.6585 37.2949 33.8451 37.0063 32.4745 36.862C32.4024 36.6456 32.2581 36.3571 32.186 36.0685ZM32.8352 37.6555C32.8352 37.5834 32.7631 37.5834 32.7631 37.5113C33.773 37.7998 36.2256 38.3048 38.6062 38.0162C37.3798 38.5212 35.6486 38.5212 34.3501 38.3769C33.9173 38.3769 33.4844 38.3048 33.1959 38.2326C33.0516 38.0884 32.9795 37.872 32.8352 37.6555ZM33.4844 39.0261C33.8451 39.0983 34.4222 39.2426 35.0715 39.3868C36.0814 39.5311 37.452 39.6754 38.6783 39.5311C37.452 40.0361 35.5764 39.9639 34.4222 39.8918C34.2058 39.8918 34.0615 39.8918 33.9173 39.8197C33.8451 39.5311 33.7008 39.3147 33.4844 39.0261ZM34.3501 40.541C35.1436 40.7574 37.0192 41.1903 38.8226 40.9738C37.6684 41.4788 35.7928 41.4067 34.855 41.3345C34.7108 41.046 34.5665 40.7574 34.3501 40.541ZM35.36 42.0559C36.1535 42.2723 37.5963 42.5609 38.9669 42.4166C38.1012 42.8494 36.7306 42.8494 35.865 42.7773C35.7207 42.5609 35.5764 42.3444 35.36 42.0559ZM36.947 44.2922C36.8027 44.0757 36.6585 43.8593 36.5142 43.6429C37.1634 43.7872 38.1733 44.0036 39.1833 43.8593C38.534 44.1479 37.6684 44.22 36.947 44.2922ZM30.8875 32.101C30.8154 31.8124 30.7432 31.596 30.6711 31.3075C31.9696 31.596 35.7928 32.3895 39.3275 32.0289C36.5863 33.0388 32.186 32.3895 30.8875 32.101ZM30.5268 30.514C30.4547 30.2254 30.4547 30.009 30.3825 29.7205C31.681 30.009 35.865 30.9468 39.8325 30.514C36.7306 31.596 31.7531 30.8025 30.5268 30.514ZM30.1661 28.927C30.094 28.6384 30.094 28.422 30.0219 28.1334C31.3925 28.422 35.9371 29.4319 40.121 28.927C36.8749 30.1533 31.5367 29.2155 30.1661 28.927ZM29.9497 27.4121C29.9497 27.1235 29.8776 26.9071 29.8776 26.6186C31.3925 26.9793 36.1535 27.917 40.626 27.4842C37.0913 28.6384 31.4646 27.7006 29.9497 27.4121ZM29.8054 25.8251C29.8054 25.5365 29.7333 25.3201 29.7333 25.0316C31.4646 25.3922 36.4421 26.4022 41.0588 25.8972C37.3798 27.1957 31.5367 26.1857 29.8054 25.8251ZM29.7333 24.3102C29.7333 24.0216 29.7333 23.8052 29.6612 23.5167C31.6089 23.9495 36.7306 24.8873 41.4917 24.3823C37.6684 25.6808 31.681 24.6709 29.7333 24.3102ZM48.4889 37.5834C48.0561 38.449 47.6954 39.2426 47.2626 39.9639C46.3248 41.6952 45.3149 43.2101 44.4493 44.22C45.3871 42.7773 46.2527 41.3345 46.9741 39.8918C47.3348 39.1704 47.6954 38.4491 47.984 37.7998C50.1481 33.0388 51.2302 28.1334 51.4466 23.7331C51.9515 23.661 51.5908 23.7331 52.3843 23.4445C52.5286 23.3724 52.6729 23.3724 52.8172 23.3003C52.8172 23.8052 52.745 24.3823 52.6729 24.9594C52.0958 28.7105 50.4366 33.5437 48.4889 37.5834ZM54.3321 22.2903L54.4042 21.6411C54.4042 21.6411 56.929 19.4049 59.4538 20.9197C61.9064 22.8674 60.9687 26.9793 58.2275 31.4518C60.1752 28.2056 61.1129 22.651 58.5881 21.4247C56.7847 20.5591 54.6206 22.4346 54.3321 22.651V22.2903ZM54.1878 23.8774C55.1256 22.5789 55.9191 22.2182 57.2897 22.2182C58.6603 22.2182 58.8767 23.7331 58.8767 25.8972C58.8767 27.8449 56.3519 33.0388 51.158 36.2128C51.5187 35.4193 51.8073 34.5536 52.0958 33.6159C52.8893 31.0189 53.4664 27.9892 53.755 24.3823C53.8992 24.238 53.9714 24.1659 54.1156 24.0216C54.1878 23.9495 54.1878 23.8774 54.1878 23.8774ZM48.6332 19.6213C48.8496 19.6213 48.9939 19.6934 49.2103 19.6934C51.0137 19.9098 52.6008 20.2705 53.6828 20.6312C53.755 20.6312 53.8271 20.7033 53.9714 20.7033C53.9714 20.6312 54.0435 20.6312 54.0435 20.5591C54.0435 20.6312 54.0435 20.6312 53.9714 20.7033C53.9714 20.7033 53.9714 20.7755 53.8992 20.7755C53.8271 20.9197 53.6828 21.064 53.5385 21.1362C53.4664 21.2083 53.3943 21.2083 53.3221 21.2083C53.25 21.2083 53.1779 21.2804 53.1057 21.2804C51.2302 22.2182 46.3248 23.3003 40.5539 23.3003C34.7829 23.3003 29.9497 22.2182 28.002 21.2804C27.9299 21.2083 27.7856 21.2083 27.7135 21.1362C27.3528 20.9197 27.1364 20.7033 27.1364 20.5591C27.1364 20.7755 27.3528 20.9197 27.7856 21.1362C27.8577 21.1362 27.8577 21.1362 27.9299 21.2083C29.8054 21.9297 34.7108 22.4346 40.4817 22.4346C43.0787 22.4346 45.4592 22.3625 47.479 22.1461C46.7577 21.9297 45.2428 21.6411 42.718 21.6411C44.5935 21.2804 48.2004 21.4968 49.7874 21.8575C50.076 21.8575 50.2924 21.7854 50.5088 21.7854C50.1481 21.6411 49.4267 21.4247 48.3447 21.1362C46.7577 20.7755 44.4493 20.4148 41.6359 20.4869C43.6558 20.1262 48.2725 20.5591 50.8695 21.1362C51.3744 21.2083 51.7351 21.3526 52.0958 21.4968C52.3843 21.4247 52.6008 21.3526 52.8172 21.2804C52.8172 21.2804 52.6729 21.2083 52.3843 21.1362C51.3744 20.8476 48.4168 19.982 44.305 19.6213C44.2329 19.6213 44.1607 19.6213 44.0165 19.6213C42.5016 19.477 40.8424 19.4049 39.039 19.477C41.4917 19.0442 45.3149 19.1885 48.6332 19.6213Z" fill="#111111"/>
<path d="M38.6056 69.468H37.74C37.3793 69.6844 37.0908 69.8287 36.5858 69.9008V70.6222H37.4515V72.9306H36.5137V73.8683H39.4713V72.9306H38.6778V69.468H38.6056Z" fill="#E21A3D"/>
<path d="M42.9348 72.3535L42.5741 72.2092C42.502 72.2092 42.4298 72.1371 42.4298 72.1371C42.3577 72.0649 42.2856 72.0649 42.2134 71.9928V71.9206C42.2134 71.7764 42.3577 71.7042 42.502 71.7042C42.7184 71.7042 42.8627 71.7764 43.0791 71.9206L43.4398 71.4878C43.1512 71.2714 42.8627 71.1271 42.502 71.1271C41.9249 71.1271 41.4921 71.4878 41.4921 71.9928C41.4921 72.3535 41.7806 72.642 42.0692 72.7863L42.4298 72.9306C42.502 72.9306 42.5741 73.0027 42.5741 73.0027C42.6463 73.0748 42.7184 73.0748 42.7905 73.147V73.2191C42.7905 73.2912 42.7905 73.3634 42.7184 73.3634C42.6463 73.3634 42.5741 73.4355 42.502 73.4355C42.2856 73.4355 42.0692 73.2913 41.8527 73.147L41.4199 73.6519C41.4921 73.7241 41.5642 73.7962 41.6363 73.7962C41.7806 73.8683 41.997 73.9405 42.1413 74.0126C42.2134 74.0126 42.2856 74.0126 42.4298 74.0126C43.0791 74.0126 43.5119 73.5798 43.5119 73.147C43.5119 72.7863 43.2955 72.4977 42.9348 72.3535Z" fill="#E21A3D"/>
<path d="M38.3895 52.0108C38.1731 52.083 37.9566 52.1551 37.8845 52.2994C37.8124 52.4436 37.7402 52.66 37.7402 52.8043C37.7402 52.9486 37.7402 53.0929 37.7402 53.2372C37.7402 53.3814 37.7402 53.5257 37.7402 53.7421C37.7402 53.8142 37.7402 53.8864 37.7402 53.9585C37.7402 54.0307 37.7402 54.1028 37.7402 54.2471C37.7402 54.4635 37.7402 54.6799 37.8124 54.8963C37.8124 55.1127 37.8845 55.4013 37.8845 55.6177C37.8845 55.6898 37.8845 55.7619 37.8845 55.8341C37.8845 55.9062 37.8845 55.9784 37.8845 55.9784C37.8845 56.0505 37.8845 56.0505 37.8845 56.1226C37.8845 56.2669 37.9566 56.4833 37.9566 56.6276C37.9566 56.7719 38.0288 56.9161 38.0288 56.9883C38.0288 57.0604 38.1009 57.1326 38.1009 57.2047C38.1009 57.2768 38.1731 57.4211 38.1731 57.4932C38.2452 57.6375 38.3173 57.7818 38.3895 57.8539C38.4616 57.9261 38.4616 57.9261 38.5337 57.9982C38.6059 58.0703 38.6059 58.0703 38.678 58.0703C38.7502 58.0703 38.8223 58.1425 38.8944 58.1425C38.9666 58.1425 39.0387 58.1425 39.1108 58.1425C39.2551 58.1425 39.3273 58.0703 39.4715 57.9982C39.5437 57.9261 39.6158 57.7818 39.6879 57.5654V57.4932L39.8322 56.9883L39.9765 56.4112L40.1208 55.9062L40.5536 54.1028H40.6257C40.6257 54.4635 40.6979 54.752 40.6979 55.0406C40.6979 55.3291 40.77 55.6177 40.8421 55.8341C40.8421 55.9062 40.9143 55.9784 40.9143 56.1226C40.9864 56.2669 40.9864 56.4833 41.0585 56.5555V56.6276C41.1307 56.7719 41.2028 56.9883 41.275 57.0604L41.3471 57.1325C41.4192 57.2047 41.4192 57.2768 41.4914 57.2768C41.4914 57.2768 41.4914 57.2768 41.5635 57.349L41.6356 57.4211H41.7078H41.7799H41.852C41.9242 57.4211 41.9242 57.4211 41.9963 57.4211C42.1406 57.4211 42.2127 57.349 42.2849 57.349C42.357 57.2768 42.5013 57.2768 42.5734 57.2047C42.6456 57.1326 42.7898 57.0604 43.0784 56.844C43.1505 56.7719 43.2227 56.6997 43.3669 56.6276C43.5112 56.4833 43.7276 56.339 43.944 56.1226C44.0162 56.0505 44.0162 56.0505 44.0883 55.9784C44.2326 55.8341 44.3047 55.7619 44.3768 55.6898C44.449 55.6898 44.449 55.6177 44.449 55.6177L44.6654 55.3291L44.3768 53.9585C44.1604 54.1749 44.0162 54.3192 43.8719 54.4635C43.7276 54.6078 43.5112 54.8242 43.3669 54.9684C43.2948 55.0406 43.2227 55.1127 43.1505 55.1848L43.0784 55.257C43.0784 55.257 43.0784 55.257 43.0062 55.3291C43.0062 55.3291 43.0062 55.3291 42.9341 55.4013C42.862 55.4734 42.862 55.5455 42.7898 55.6177C42.7898 55.6898 42.7177 55.6898 42.5734 55.8341C42.5013 55.9062 42.4291 55.9062 42.357 55.9062H42.2849H42.2127H42.1406C42.0685 55.9062 42.0685 55.8341 41.9963 55.7619C41.9242 55.6177 41.852 55.4013 41.7799 55.1848C41.7799 55.0406 41.7078 54.8963 41.7078 54.6799C41.7078 54.4635 41.7078 54.3192 41.6356 54.1028C41.6356 53.8864 41.6356 53.67 41.5635 53.4536C41.5635 53.2371 41.5635 53.0207 41.5635 52.8765C41.5635 52.7322 41.5635 52.5879 41.5635 52.5158C41.5635 52.4436 41.5635 52.4436 41.5635 52.3715C41.5635 52.2994 41.5635 52.2994 41.5635 52.2994C41.4914 52.0108 41.4192 51.7944 41.2028 51.6501C41.1307 51.578 41.0585 51.578 40.9864 51.5059H40.9143H40.8421C40.77 51.5059 40.77 51.5059 40.6979 51.5059C40.4814 51.578 40.3372 51.6501 40.1929 51.7223C40.0486 51.8665 39.9043 52.0108 39.8322 52.2994C39.8322 52.3715 39.7601 52.4436 39.7601 52.5879C39.7601 52.7322 39.6879 52.8043 39.6158 52.9486C39.5437 53.0929 39.5437 53.2371 39.4715 53.3814C39.3994 53.5257 39.3994 53.7421 39.3273 53.9585C39.3273 54.1749 39.2551 54.3192 39.2551 54.4635C39.2551 54.6078 39.183 54.6799 39.183 54.6799H39.0387C39.0387 54.6799 39.0387 54.6078 39.0387 54.5356C39.0387 54.4635 39.0387 54.3192 38.9666 54.1749C38.9666 54.0307 38.9666 53.8142 38.8944 53.7421C38.8944 53.5978 38.8944 53.4536 38.8944 53.3814C38.8944 53.2371 38.8944 53.165 38.8944 53.0207C38.8944 52.9486 38.8944 52.8043 38.8944 52.8043C38.8223 52.5879 38.7502 52.4436 38.678 52.2994C38.6059 52.2272 38.5337 52.2272 38.4616 52.2272H38.3895H38.3173C38.5337 52.0108 38.4616 52.0108 38.3895 52.0108Z" fill="#E21A3D"/>
<path d="M37.1637 55.6898C37.0915 55.9062 37.0194 56.0505 36.9473 56.1948C37.0194 56.2669 37.1637 56.2669 37.2358 56.339C37.2358 56.2669 37.2358 56.1948 37.2358 56.1226C37.2358 56.0505 37.2358 55.9062 37.1637 55.6898Z" fill="#111111"/>
<path d="M40.8415 49.8467C40.1201 49.8467 39.4709 49.7746 38.8938 49.7024C38.7495 49.7024 38.6052 49.6303 38.4609 49.6303C38.5331 49.9189 38.5331 50.1353 38.5331 50.4238C38.5331 50.7124 38.5331 51.0009 38.4609 51.2895C38.4609 51.2895 38.4609 51.2895 38.5331 51.2895H38.6052C38.8938 51.2895 39.1823 51.4337 39.3266 51.6501L39.3987 51.7223C39.543 51.5059 39.6873 51.2895 39.8315 51.1452C40.048 50.9288 40.3365 50.8566 40.625 50.7845C40.6972 50.7845 40.8415 50.7845 40.9136 50.7845C41.2743 50.7845 41.5628 50.9288 41.7792 51.1452C42.0678 51.3616 42.2121 51.7223 42.3563 52.1551C42.3563 52.2272 42.3563 52.3715 42.4285 52.5158V52.5879V52.8765C42.4285 53.0207 42.4285 53.2371 42.4285 53.4536C42.4285 53.67 42.4285 53.8864 42.5006 54.1028C42.5006 54.2471 42.5006 54.4635 42.5727 54.6078C42.5727 54.752 42.5727 54.8242 42.6449 54.9684C42.717 54.8963 42.7892 54.8242 42.7892 54.8242C42.8613 54.752 42.9334 54.6799 43.0777 54.6078C43.2941 54.3913 43.5105 54.1749 43.7991 53.8864C43.4384 52.8043 43.1498 51.578 43.1498 50.4959C43.1498 50.2074 43.1498 49.991 43.222 49.7024C42.5006 49.7746 41.7071 49.8467 40.8415 49.8467Z" fill="#111111"/>
<path d="M48.5604 61.8936C47.5505 61.3886 44.2322 59.5131 43.8715 57.349C43.7993 57.4211 43.7272 57.4932 43.7272 57.4932C43.2944 57.7818 43.2222 57.8539 43.078 57.9261C42.8616 58.0703 42.573 58.1425 42.2845 58.2146C42.2123 58.2146 42.1402 58.2146 41.9959 58.2146C41.5631 58.2146 41.2024 57.9982 40.8417 57.5654C40.6974 57.5654 40.5532 57.5654 40.4089 57.5654V57.7096C40.3368 58.0703 40.1925 58.2867 39.9761 58.431C39.7597 58.5753 39.5432 58.7196 39.3268 58.7917C39.1826 58.7917 39.1104 58.8638 38.9662 58.8638C38.8219 58.8638 38.6055 58.8638 38.4612 58.7917C38.2448 58.7196 38.0284 58.5032 37.8841 58.3589C37.812 58.2146 37.7398 58.1425 37.6677 57.9982C36.8742 59.9459 33.9887 61.4608 33.123 61.9657C34.7101 62.6871 37.5955 63.1921 40.8417 63.1921C44.16 63.0478 47.0455 62.615 48.5604 61.8936Z" fill="#111111"/>
<path d="M27.7141 58.936C27.7862 59.0803 27.8583 59.2245 27.9305 59.3688C28.0026 59.5131 28.1469 59.5852 28.219 59.6573C28.3633 59.7295 28.4354 59.7295 28.5797 59.8016C28.724 59.8016 28.8683 59.8016 28.9404 59.8016C29.0847 59.8016 29.2289 59.7295 29.3732 59.6573C29.5175 59.5852 29.6618 59.4409 29.806 59.3688C29.9503 59.2245 30.0946 59.0803 30.2389 58.936C30.3831 58.7917 30.4553 58.5753 30.5995 58.431L30.2389 57.2047C30.2389 57.4211 30.1667 57.5654 30.0946 57.7096C30.0225 57.8539 29.9503 57.9982 29.8782 58.1425C29.806 58.2867 29.6618 58.3589 29.5896 58.431C29.4454 58.5032 29.3732 58.5753 29.2289 58.5753C29.1568 58.5753 29.0847 58.5753 29.0125 58.5753C28.9404 58.5753 28.9404 58.5753 28.8683 58.5753C28.724 58.5753 28.6518 58.5032 28.5797 58.431C28.5076 58.3589 28.4354 58.2867 28.2912 58.1425C28.219 57.9982 28.1469 57.8539 28.1469 57.6375C28.1469 57.5654 28.1469 57.5654 28.1469 57.4211C28.1469 57.349 28.1469 57.2047 28.1469 57.1326C28.1469 56.9883 28.1469 56.844 28.1469 56.6997C28.1469 56.5555 28.1469 56.339 28.219 56.1226C28.2912 55.6898 28.2912 55.257 28.219 54.8242C28.1469 54.3913 28.1469 53.9585 28.1469 53.5257C28.1469 53.0929 28.1469 52.5879 28.1469 52.1551C28.1469 51.7223 28.0747 51.2894 28.0026 50.9288C28.0026 50.8566 28.0026 50.7845 27.9305 50.7845C27.9305 50.7124 27.8583 50.7124 27.8583 50.6402C27.7862 50.5681 27.7141 50.4959 27.6419 50.4959C27.5698 50.4959 27.4977 50.4238 27.3534 50.4238C27.2812 50.4238 27.137 50.4238 27.0648 50.4238C26.9206 50.4238 26.7763 50.4959 26.632 50.5681C26.4877 50.6402 26.4156 50.7124 26.2713 50.7845C26.1992 50.8566 26.127 51.0009 26.0549 51.073C25.9828 51.2173 25.9828 51.3616 26.0549 51.5059C26.0549 51.6501 26.127 51.9387 26.127 52.2272C26.127 52.3715 26.127 52.5879 26.1992 52.8765C26.1992 53.165 26.2713 53.5257 26.2713 53.8864C26.3435 54.4635 26.3435 54.8963 26.4156 55.0406C26.4156 55.1127 26.4156 55.1127 26.4156 55.1127C26.4156 55.1127 26.4156 55.4734 26.4156 56.1948C26.4156 56.9161 26.4156 57.5654 26.4156 57.9982C26.3435 58.5032 26.2713 58.936 26.1992 59.2967C26.127 59.5131 26.0549 59.6574 26.0549 59.8016C25.9828 59.9459 25.9106 60.0902 25.8385 60.2344C25.6942 60.4509 25.4778 60.6673 25.1893 60.6673C25.1171 60.6673 25.1171 60.6673 25.045 60.6673H24.9729C24.9729 60.6673 24.9729 60.6673 24.9007 60.6673C24.8286 60.6673 24.7564 60.5951 24.7564 60.5951C24.6122 60.523 24.54 60.3787 24.3958 60.1623C24.3236 60.0902 24.3236 59.9459 24.2515 59.8016C24.1793 59.6574 24.1793 59.5131 24.1072 59.4409C24.0351 59.2967 24.0351 59.1524 23.9629 59.0081C23.8908 58.8638 23.8908 58.6474 23.8187 58.5032C23.7465 58.1425 23.6744 57.7818 23.6022 57.349C23.5301 56.9161 23.458 56.4833 23.458 56.0505C23.3858 55.6177 23.3858 55.1849 23.3137 54.752C23.3137 54.5356 23.3137 54.3192 23.2416 54.1749C23.2416 53.9585 23.2416 53.8142 23.2416 53.67C23.2416 53.3093 23.1694 53.0207 23.1694 52.8043C23.1694 52.6601 23.1694 52.5879 23.1694 52.5158C23.1694 52.4436 23.1694 52.4436 23.1694 52.3715C23.1694 52.2994 23.0973 52.2272 23.0973 52.1551C23.0252 52.083 23.0252 52.0108 22.953 52.0108C22.8809 52.0108 22.8087 51.9387 22.6645 51.9387C22.5923 51.9387 22.4481 51.9387 22.3038 52.0108C22.1595 52.0108 22.0152 52.083 21.871 52.1551C21.7267 52.2272 21.6545 52.2994 21.5824 52.4436C21.5103 52.5158 21.5103 52.5879 21.5103 52.6601C21.5103 52.7322 21.4381 52.8043 21.4381 52.8765C21.4381 53.0207 21.366 53.2371 21.366 53.4536C21.366 53.8142 21.366 54.1749 21.366 54.5356C21.366 54.8963 21.366 55.257 21.366 55.5455C21.366 56.1948 21.2939 56.844 21.2939 57.4211C21.2939 57.7818 21.2217 58.0703 21.2217 58.431C21.1496 58.7917 21.1496 59.0803 21.0775 59.3688C21.0053 59.6574 20.9332 59.9459 20.861 60.2344C20.7889 60.523 20.7168 60.7394 20.5725 60.9558C20.5004 61.1722 20.3561 61.3165 20.2118 61.4608C20.0675 61.605 19.9233 61.6772 19.779 61.7493C19.7068 61.7493 19.7068 61.7493 19.6347 61.7493H19.5626H19.4904C19.4183 61.7493 19.3462 61.7493 19.274 61.6772C19.1298 61.6051 18.9855 61.4608 18.8412 61.3165C18.6969 61.1722 18.6248 60.9558 18.4805 60.6673C18.3362 60.3787 18.3362 60.1623 18.2641 59.8738C18.192 59.5131 18.1198 59.1524 18.1198 58.7196C18.1198 58.2867 18.1198 57.8539 18.1198 57.4211C18.1198 56.9883 18.1198 56.4833 18.192 56.0505C18.192 55.6177 18.2641 55.1849 18.2641 54.8242C18.2641 54.6078 18.2641 54.4635 18.2641 54.3192C18.2641 54.1749 18.2641 54.0307 18.2641 53.8864C18.2641 53.5978 18.2641 53.3814 18.2641 53.2372C18.2641 53.165 18.2641 53.0929 18.192 53.0929C18.192 53.0207 18.1198 53.0207 18.1198 52.9486C18.0477 52.8765 18.0477 52.8043 17.9756 52.8043C17.9034 52.8043 17.8313 52.7322 17.7591 52.7322C17.687 52.7322 17.6149 52.7322 17.5427 52.7322C17.3985 52.7322 17.3263 52.8043 17.2542 52.8043C17.1821 52.8043 17.0378 52.8765 16.9656 53.0207C16.8935 53.0929 16.8214 53.2372 16.7492 53.3814C16.6771 53.5257 16.605 53.7421 16.5328 54.0307C16.4607 54.4635 16.3885 54.9684 16.3885 55.4013C16.3164 55.9062 16.3164 56.339 16.3164 56.844C16.3164 57.349 16.3885 57.7818 16.3885 58.2146C16.4607 58.6474 16.5328 59.1524 16.605 59.5852C16.7492 60.3066 16.9656 60.8837 17.1821 61.3886C17.3263 61.6051 17.3985 61.8936 17.5427 62.0379C17.687 62.2543 17.7591 62.3986 17.9034 62.5428C18.192 62.8314 18.4084 63.0478 18.6969 63.1921C18.8412 63.2642 18.9133 63.2642 19.0576 63.2642H19.1298C19.274 63.2642 19.3462 63.2642 19.4904 63.2642C19.7068 63.1921 19.9233 63.1199 20.1397 63.0478C20.3561 62.9757 20.5004 62.8314 20.7168 62.7592C20.861 62.615 21.0775 62.4707 21.2217 62.3264C21.366 62.1821 21.5103 61.9657 21.5824 61.7493C21.6545 61.5329 21.7988 61.2444 21.871 61.028C21.9431 60.7394 22.0152 60.4509 22.0152 60.0902C22.0874 59.7295 22.0874 59.3688 22.0874 59.0081C22.0874 58.7917 22.0874 58.5753 22.0874 58.3589C22.0874 58.1425 22.0874 57.9261 22.0874 57.6375C22.0874 57.7818 22.0874 57.9261 22.1595 58.0703C22.1595 58.2146 22.2316 58.431 22.2316 58.6474C22.3038 58.936 22.3759 59.1524 22.4481 59.4409C22.5202 59.6574 22.5923 59.9459 22.6645 60.1623C22.7366 60.3787 22.8809 60.5951 22.953 60.8115C23.0252 61.028 23.1694 61.1722 23.3137 61.3165C23.5301 61.6051 23.8187 61.8215 24.1793 61.9657C24.2515 62.0379 24.3958 62.0379 24.4679 62.0379H24.54C24.6122 62.0379 24.6843 62.0379 24.7564 62.0379H24.8286C24.9729 62.0379 25.045 62.0379 25.1893 61.9657C25.4778 61.8936 25.7664 61.7493 26.0549 61.6051C26.3435 61.4608 26.5599 61.2444 26.7763 60.9558C26.9927 60.7394 27.2091 60.3787 27.3534 60.0902C27.4255 59.6574 27.5698 59.2967 27.7141 58.936Z" fill="#E21A3D"/>
<path d="M32.1849 58.3589C32.257 58.5753 32.257 58.7196 32.3291 58.8638C32.4013 59.0081 32.4734 59.1524 32.6177 59.2245C32.6898 59.2967 32.762 59.2967 32.8341 59.2967C32.9062 59.2967 32.9784 59.3688 33.0505 59.3688C33.1226 59.3688 33.1948 59.3688 33.2669 59.3688C33.3391 59.3688 33.4833 59.3688 33.6276 59.2967C33.7719 59.2967 33.844 59.2245 33.9883 59.1524C34.1326 59.0803 34.2047 59.0081 34.349 59.0081C34.5654 58.8638 34.8539 58.7196 35.0703 58.5032C35.2868 58.2867 35.5032 58.1425 35.6474 57.9261C35.7196 57.8539 35.7917 57.7097 35.8639 57.6375C35.936 57.5654 36.0081 57.4932 36.0803 57.349L35.7917 56.1226C35.6474 56.2669 35.5753 56.4112 35.431 56.6276C35.2868 56.844 35.1425 56.9883 34.9982 57.2047C34.8539 57.4211 34.7097 57.5654 34.5654 57.7096C34.4211 57.8539 34.2768 57.9261 34.1326 57.9982H34.0604H33.9883C33.9883 57.9982 33.9883 57.9982 33.9161 57.9982C33.844 57.9982 33.844 57.9261 33.7719 57.9261C33.6997 57.8539 33.6276 57.7096 33.6276 57.4932C33.5555 57.2768 33.5555 57.0604 33.5555 56.844C33.5555 56.6276 33.5555 56.339 33.5555 56.1226C33.5555 55.9062 33.5555 55.6177 33.5555 55.257C33.5555 54.8963 33.6276 54.6078 33.6276 54.3913C33.6276 54.1749 33.6276 53.9585 33.6276 53.8142C33.6276 53.7421 33.6276 53.67 33.6276 53.5978C33.6276 53.5257 33.6276 53.4536 33.6276 53.4536C33.6276 53.3814 33.5555 53.2372 33.4833 53.2372C33.4112 53.2372 33.4112 53.165 33.3391 53.165C33.2669 53.165 33.1948 53.165 33.1226 53.165C33.0505 53.165 32.9062 53.2372 32.8341 53.2372C32.6898 53.3093 32.6177 53.3093 32.5455 53.3814C32.4734 53.4536 32.4013 53.5257 32.3291 53.5978C32.257 53.67 32.257 53.67 32.257 53.7421C32.257 53.8142 32.257 53.8142 32.257 53.8864C32.257 53.9585 32.257 54.1028 32.257 54.2471C32.257 54.3913 32.257 54.6078 32.1849 54.8963C32.1849 55.1848 32.1849 55.4734 32.1127 55.6898C32.1127 55.9062 32.1127 56.0505 32.1127 56.1226C32.1127 56.1226 32.1127 56.1948 32.1127 56.2669C32.1127 56.4833 32.1127 56.844 32.1849 57.349C32.0406 57.8539 32.1127 58.1425 32.1849 58.3589Z" fill="#E21A3D"/>
<path d="M32.3293 52.2994C32.4014 52.3715 32.5457 52.3715 32.69 52.3715H32.7621C32.9064 52.3715 33.0507 52.3715 33.195 52.3715C33.2671 52.3715 33.4114 52.2994 33.4835 52.2994C33.5556 52.2994 33.6278 52.2272 33.6999 52.1551C33.8442 52.083 33.9163 51.9387 33.9885 51.7944C34.0606 51.7223 34.0606 51.6501 34.0606 51.578C34.0606 51.5059 34.1327 51.4337 34.1327 51.3616C34.1327 51.2173 34.1327 51.073 34.1327 50.9288C34.1327 50.7845 34.0606 50.6402 33.9885 50.5681C33.9163 50.4959 33.8442 50.4238 33.6999 50.3517C33.6278 50.2795 33.4835 50.2795 33.3392 50.2795C33.195 50.2795 33.0507 50.2795 32.9064 50.3517C32.69 50.4238 32.4736 50.4959 32.3293 50.5681C32.185 50.6402 32.1129 50.7845 32.0408 50.9288C31.9686 51.073 31.8965 51.1452 31.8965 51.2894C31.8965 51.4337 31.8965 51.5059 31.8965 51.6501C31.9686 51.9387 32.1129 52.1551 32.3293 52.2994Z" fill="#E21A3D"/>
<path d="M49.1374 52.1551C49.1374 52.5158 49.2096 52.8043 49.2096 53.0929C49.2096 53.3814 49.2817 53.67 49.3538 53.8864C49.4981 54.5356 49.6424 54.9684 49.8588 55.257C49.9309 55.3291 49.9309 55.4013 50.0031 55.4013C50.0031 55.4013 50.0031 55.4013 50.0752 55.4734L50.1474 55.5455H50.2195H50.2916H50.3638C50.4359 55.5455 50.4359 55.5455 50.508 55.5455C50.7244 55.4734 50.9409 55.4013 51.1573 55.3291C51.2294 55.257 51.3737 55.1849 51.6622 54.9684C51.8065 54.8963 52.0951 54.6799 52.5279 54.2471C52.8164 53.9585 53.0328 53.8142 53.0328 53.8142L53.3214 53.5257L53.0328 52.1551C52.8164 52.3715 52.6721 52.5158 52.5279 52.7322C52.3836 52.8765 52.2393 53.0207 52.0951 53.165C51.9508 53.3093 51.8786 53.3814 51.8065 53.3814C51.8065 53.3814 51.7344 53.3814 51.7344 53.4536C51.7344 53.4536 51.7344 53.4536 51.6622 53.5257C51.5901 53.5978 51.5901 53.67 51.518 53.7421C51.518 53.8143 51.4458 53.8143 51.3015 53.9585C51.2294 54.0307 51.1573 54.0307 51.0851 54.0307H51.013H50.9409H50.8687C50.7966 54.0307 50.7966 53.9585 50.7244 53.8864C50.6523 53.7421 50.5802 53.5257 50.508 53.3093C50.508 53.165 50.4359 53.0207 50.4359 52.8043C50.4359 52.5879 50.3638 52.4436 50.3638 52.2272C50.3638 52.0108 50.3638 51.7944 50.2916 51.578C50.2916 51.3616 50.2916 51.1452 50.2916 51.0009C50.2916 50.8566 50.2916 50.7124 50.2916 50.6402C50.2916 50.4959 50.2916 50.4238 50.2916 50.4238C50.2195 50.1353 50.1474 49.9188 49.9309 49.7746C49.8588 49.7024 49.7867 49.7024 49.7145 49.6303H49.6424C49.5703 49.6303 49.4981 49.6303 49.426 49.6303C49.2096 49.7024 49.0653 49.7746 48.921 49.8467C48.8489 49.9188 48.7768 49.991 48.7046 50.0631C48.6325 50.1353 48.6325 50.2795 48.5603 50.3517C48.5603 50.4238 48.4882 50.4959 48.4882 50.6402C48.4882 50.7845 48.4161 50.8566 48.3439 51.0009C48.2718 51.1452 48.2718 51.2895 48.1997 51.4337C48.1275 51.578 48.1275 51.7944 48.0554 52.0108C48.0554 52.2272 47.9832 52.3715 47.9832 52.5158C47.9832 52.5879 47.9832 52.5879 47.9111 52.6601C47.9111 52.7322 47.9111 52.7322 47.9111 52.7322H47.7668C47.7668 52.7322 47.7668 52.6601 47.7668 52.5879C47.7668 52.5158 47.7668 52.3715 47.6947 52.2272C47.6947 52.083 47.6947 51.8666 47.6226 51.7944C47.6226 51.6501 47.6226 51.5059 47.6226 51.4337C47.6226 51.2895 47.6226 51.2173 47.6226 51.073C47.6226 51.0009 47.6226 50.8566 47.6226 50.8566C47.5504 50.6402 47.4783 50.4959 47.4061 50.3517C47.334 50.2795 47.2619 50.2795 47.1897 50.2795H47.1176C47.0455 50.2795 46.9733 50.2795 46.9012 50.2795C46.6848 50.3517 46.5405 50.4238 46.3962 50.5681C46.3241 50.7124 46.252 50.9288 46.252 51.073C46.252 51.2895 46.252 51.6501 46.252 52.0108C46.252 52.3715 46.3241 52.7322 46.3241 53.165C46.3962 53.5978 46.3962 53.9585 46.4684 54.3192C46.5405 54.6799 46.5405 54.9684 46.6126 55.257C46.6126 55.4013 46.6848 55.5455 46.7569 55.6898C46.829 55.8341 46.9012 55.9784 46.9733 56.0505C47.0455 56.1226 47.1897 56.2669 47.2619 56.2669C47.334 56.2669 47.4061 56.339 47.4783 56.339C47.5504 56.339 47.6226 56.339 47.6947 56.339C47.839 56.339 47.9111 56.2669 48.0554 56.1948C48.1275 56.1226 48.1275 56.1226 48.1997 56.0505C48.1997 55.9784 48.2718 55.9062 48.2718 55.8341L49.1374 52.2994V52.1551Z" fill="#E21A3D"/>
<path d="M59.0932 51.2894C58.8768 51.5059 58.6604 51.7223 58.444 51.9387C58.2276 52.1551 58.0111 52.2994 57.7226 52.4436C57.5062 52.5879 57.2176 52.7322 57.0012 52.7322C56.9291 52.7322 56.857 52.7322 56.7848 52.7322C56.7127 52.7322 56.6405 52.7322 56.5684 52.6601C56.4963 52.6601 56.4241 52.5879 56.352 52.5158C56.2799 52.4436 56.2077 52.3715 56.1356 52.2994C56.2799 52.2272 56.4241 52.083 56.6405 52.0108C56.7848 51.9387 56.9291 51.7944 57.0734 51.6501C57.3619 51.4337 57.5783 51.1452 57.7226 50.9288C57.8669 50.6402 58.0112 50.3517 58.1554 49.991C58.2276 49.6303 58.2997 49.3417 58.2276 49.1253C58.1554 48.9089 58.0833 48.6925 57.939 48.5482C57.7947 48.404 57.6505 48.2597 57.5062 48.1154C57.3619 48.0433 57.1455 47.9711 56.9291 47.899C56.857 47.899 56.7127 47.899 56.6405 47.899C56.4963 47.899 56.4241 47.899 56.2799 47.9711C55.9913 48.0433 55.7749 48.1154 55.5585 48.2597C55.3421 48.404 55.1978 48.6204 55.0535 48.7647C54.9093 48.9811 54.765 49.1975 54.6928 49.4139C54.6207 49.6303 54.5486 49.9188 54.4764 50.2074C54.4043 50.4959 54.4043 50.7845 54.4043 51.073C54.4043 51.4337 54.4043 51.6501 54.4764 51.9387C54.5486 52.2994 54.6928 52.5879 54.8371 52.8765C54.9814 53.165 55.1978 53.3814 55.4142 53.5978C55.6306 53.8142 55.9192 53.9585 56.2799 54.0307C56.4241 54.1028 56.5684 54.1028 56.7848 54.1028C56.9291 54.1028 57.1455 54.1028 57.3619 54.0307C57.5783 53.9585 57.8669 53.8864 58.0833 53.8142C58.2997 53.67 58.5161 53.5978 58.7325 53.4536C58.9489 53.3093 59.0932 53.165 59.3096 53.0207C59.4539 52.8765 59.6703 52.6601 59.8146 52.5158C59.9588 52.2994 60.1753 52.1551 60.3195 51.9387C60.4638 51.7223 60.6081 51.5059 60.7524 51.2894L59.8146 50.6402C59.4539 50.8566 59.3096 51.073 59.0932 51.2894ZM55.7749 51.1452C55.7749 51.0009 55.7749 50.8566 55.7749 50.6402C55.7749 50.4238 55.847 50.2795 55.847 50.1353C55.847 49.991 55.9192 49.8467 55.9913 49.7746C56.0635 49.6303 56.1356 49.5582 56.2799 49.486C56.4241 49.4139 56.5684 49.3418 56.7127 49.2696C56.7127 49.2696 56.7127 49.2696 56.7848 49.2696H56.857C56.857 49.2696 56.857 49.2696 56.9291 49.2696C57.0012 49.2696 57.0012 49.3418 57.0734 49.3418C57.1455 49.4139 57.1455 49.486 57.2176 49.5582C57.2176 49.6303 57.2898 49.7024 57.2898 49.7746C57.2898 49.8467 57.2898 49.9188 57.2898 49.991C57.2898 50.0631 57.2176 50.2074 57.2176 50.2795C57.1455 50.4959 57.0012 50.7124 56.857 50.8566C56.7127 51.0009 56.5684 51.1452 56.4241 51.2173C56.2799 51.3616 56.1356 51.4337 55.9913 51.4337C55.7749 51.3616 55.7749 51.2173 55.7749 51.1452Z" fill="#E21A3D"/>
<path d="M67.0281 48.3318C66.8838 48.4761 66.7396 48.6204 66.5232 48.6925C66.3789 48.8368 66.1625 48.9089 66.0182 48.9089H65.9461H65.8739C65.8018 48.9089 65.7296 48.8368 65.6575 48.8368C65.5854 48.7647 65.5132 48.6925 65.5132 48.6204C65.5132 48.5482 65.4411 48.5482 65.4411 48.4761C65.4411 48.404 65.369 48.3318 65.369 48.2597C65.369 48.1876 65.369 48.0433 65.2968 47.899C65.2968 47.7547 65.2968 47.6105 65.2968 47.394C65.2968 47.1776 65.2968 47.0334 65.2968 46.8891C65.2968 46.817 65.2968 46.7448 65.2968 46.7448C65.2968 46.6727 65.2968 46.6727 65.2968 46.6005C65.2968 46.5284 65.2247 46.4563 65.2247 46.3841C65.1525 46.312 65.1525 46.2399 65.0804 46.2399C65.0083 46.1677 64.9361 46.1677 64.864 46.1677C64.7919 46.1677 64.7197 46.1677 64.6476 46.1677C64.4312 46.2399 64.2148 46.312 64.0705 46.4563C63.9262 46.6005 63.7819 46.8169 63.7098 46.9612C63.6377 47.1776 63.5655 47.394 63.4934 47.6826C63.4213 47.9711 63.3491 48.1876 63.3491 48.404H63.277C63.2048 48.1876 63.2048 47.9711 63.1327 47.6826C63.0606 47.394 63.0606 47.1776 62.9884 47.0334C62.9884 46.8891 62.9163 46.817 62.9163 46.7448C62.9163 46.6727 62.8442 46.6005 62.8442 46.6005C62.772 46.6005 62.772 46.5284 62.6999 46.5284C62.6277 46.5284 62.5556 46.5284 62.4835 46.6005C62.4113 46.6005 62.3392 46.6727 62.2671 46.6727C62.1949 46.6727 62.1228 46.7448 62.1228 46.7448C62.1228 46.817 62.0507 46.817 62.0507 46.8891C62.0507 46.9612 61.9785 47.0334 61.9785 47.1055C61.9785 47.1776 61.9785 47.2498 61.9785 47.3219C61.9785 47.394 61.9785 47.5383 61.9785 47.6105C61.9785 47.8269 61.9785 48.1154 61.9785 48.404C61.9785 48.7647 61.9785 49.0532 61.9785 49.3418C61.9785 49.6303 61.9785 49.9188 62.0507 50.2074C62.0507 50.4959 62.1228 50.7124 62.1228 51.0009C62.1228 51.1452 62.1228 51.2173 62.1949 51.3616C62.1949 51.4337 62.2671 51.578 62.2671 51.6501C62.2671 51.7944 62.3392 51.8665 62.3392 52.0108V52.083C62.3392 52.1551 62.4113 52.1551 62.4113 52.2272C62.4835 52.2994 62.4835 52.4436 62.5556 52.4436C62.6278 52.5158 62.6277 52.5158 62.6999 52.5879C62.772 52.6601 62.772 52.6601 62.8442 52.6601C62.9163 52.6601 62.9884 52.7322 63.0606 52.7322C63.1327 52.7322 63.2048 52.7322 63.277 52.7322C63.3491 52.7322 63.4213 52.6601 63.4934 52.6601C63.5655 52.5879 63.5655 52.5879 63.6377 52.5158C63.7098 52.4436 63.7098 52.3715 63.7098 52.2272C63.7098 52.1551 63.7098 52.083 63.7819 52.0108C63.7819 51.9387 63.7819 51.8666 63.7819 51.7944L64.2148 48.5482H64.2869C64.359 48.7647 64.5033 49.0532 64.5754 49.2696C64.6476 49.486 64.7919 49.7024 64.9361 49.9188C65.0804 50.0631 65.2968 50.2074 65.5132 50.2795C65.6575 50.3517 65.7296 50.3517 65.8739 50.3517C66.0182 50.3517 66.1625 50.3517 66.3067 50.2795C66.451 50.2074 66.6674 50.2074 66.8117 50.0631C66.956 49.991 67.1002 49.8467 67.2445 49.7746C67.3888 49.7024 67.5331 49.5582 67.6052 49.4139C67.7495 49.2696 67.8216 49.1975 67.8938 49.1253L67.6773 47.6826C67.3167 47.9711 67.1724 48.1876 67.0281 48.3318Z" fill="#E21A3D"/>
<path d="M11.7716 13.5618C11.2667 14.8602 12.0602 16.4472 12.0602 16.4472C12.0602 16.4472 13.7193 15.8702 14.2964 14.5717C14.8014 13.2732 14.0079 11.6862 14.0079 11.6862C14.0079 11.6862 12.2766 12.1912 11.7716 13.5618Z" fill="#111111"/>
<path d="M9.8949 14.3553C9.8949 14.3553 8.66857 15.6537 8.88498 17.0965C9.02926 18.5392 10.5441 19.477 10.5441 19.477C10.5441 19.477 11.7705 18.1785 11.5541 16.7358C11.4098 15.3652 9.8949 14.3553 9.8949 14.3553Z" fill="#111111"/>
<path d="M7.65964 21.569C8.30887 22.8675 10.0402 23.3003 10.0402 23.3003C10.0402 23.3003 10.6894 21.6411 10.1123 20.4148C9.46306 19.1163 7.73177 18.6835 7.73177 18.6835C7.73177 18.6835 7.0104 20.3427 7.65964 21.569Z" fill="#111111"/>
<path d="M6.64919 26.6186C7.6591 27.8449 9.6068 27.9892 9.6068 27.9892C9.6068 27.9892 9.96749 26.0415 9.02971 24.8152C8.09193 23.5167 6.07209 23.4445 6.07209 23.4445C6.07209 23.4445 5.7114 25.3201 6.64919 26.6186Z" fill="#111111"/>
<path d="M7.80368 32.5338C9.03001 33.3995 10.6892 33.2552 11.3384 33.183C10.3285 32.6059 8.66933 31.5239 7.65941 29.9369C9.24642 31.596 10.6892 32.5338 11.5548 32.9666C11.4827 32.3895 11.122 30.6582 9.89566 29.7205C8.38078 28.6384 6.14453 29.1434 6.14453 29.1434C6.14453 29.1434 6.36094 31.4517 7.80368 32.5338Z" fill="#111111"/>
<path d="M14.3679 37.4391C13.5022 37.367 10.9774 36.9342 9.10187 35.4914C11.6988 36.7899 13.6465 37.0784 14.44 37.0784C14.0793 36.4292 13.0694 34.6979 11.4103 34.193C9.31828 33.5437 7.08203 34.9865 7.08203 34.9865C7.08203 34.9865 8.16409 37.4391 10.2561 38.0884C11.9152 38.6655 13.7908 37.7277 14.3679 37.4391Z" fill="#111111"/>
<path d="M12.9247 40.0361C16.0266 40.6132 17.9743 40.2525 18.6235 40.1082C18.1907 39.6754 16.5315 37.9441 14.4396 37.9441C12.059 37.9441 10.1113 40.1082 10.1113 40.1082C10.1113 40.1082 11.9869 42.3445 14.3674 42.4166C16.243 42.4166 17.83 41.046 18.4071 40.4689C17.5414 40.6132 15.0888 40.9017 12.9247 40.0361Z" fill="#111111"/>
<path d="M20.2103 39.6754C20.4267 39.0983 20.9317 37.2227 20.2103 35.7078C19.2725 33.9044 16.8199 33.2552 16.8199 33.2552C16.8199 33.2552 15.8821 35.5636 16.7477 37.4391C17.5412 39.0261 19.4168 39.6754 19.9939 39.8197C19.2725 39.0983 18.2626 37.872 17.8298 36.3571C18.6954 38.0162 19.6332 39.0261 20.2103 39.6754Z" fill="#111111"/>
<path d="M14.5121 30.2254C14.5121 30.2254 13.0694 31.7403 13.2858 33.3995C13.4301 34.7701 14.5843 35.78 15.0171 36.1407C14.6564 35.2029 14.2236 33.9044 14.2957 32.606C14.5121 34.193 14.9449 35.3472 15.2335 36.1407C15.522 35.78 16.532 34.4815 16.3877 33.1109C16.2434 31.4518 14.5121 30.2254 14.5121 30.2254Z" fill="#111111"/>
<path d="M13.9349 30.009C14.2235 28.6384 13.1414 27.2678 13.1414 27.2678C13.1414 27.2678 11.6265 28.1335 11.338 29.5041C11.0494 30.8747 12.1315 32.2453 12.1315 32.2453C12.1315 32.2453 13.6464 31.3796 13.9349 30.009Z" fill="#111111"/>
<path d="M12.9977 26.0415C13.7191 24.9594 13.2863 23.3724 13.2863 23.3724C13.2863 23.3724 11.6992 23.5888 10.9779 24.6709C10.2565 25.7529 10.6893 27.3399 10.6893 27.3399C10.6893 27.3399 12.2763 27.1235 12.9977 26.0415Z" fill="#111111"/>
<path d="M11.2658 23.3003C11.2658 23.3003 12.8528 23.0839 13.5742 22.0018C14.2955 20.9197 13.8627 19.3327 13.8627 19.3327C13.8627 19.3327 12.2757 19.5491 11.5543 20.6312C10.7608 21.7854 11.2658 23.3003 11.2658 23.3003Z" fill="#111111"/>
<path d="M12.4925 16.9522C11.8433 17.89 12.2761 19.2606 12.2761 19.2606C12.2761 19.2606 13.7188 19.0442 14.2959 18.1064C14.9452 17.1686 14.5123 15.798 14.5123 15.798C14.5123 15.798 13.0696 15.9423 12.4925 16.9522Z" fill="#111111"/>
<path d="M23.6729 42.2002C23.8893 41.9116 23.745 41.4788 23.3843 41.3345L20.2103 40.3968L19.8496 40.8296L22.8072 42.4887C23.0958 42.633 23.5286 42.5609 23.6729 42.2002Z" fill="#111111"/>
<path d="M65.6578 11.5419C65.6578 11.5419 64.8643 13.1289 65.3693 14.4274C65.8743 15.7259 67.6055 16.303 67.6055 16.303C67.6055 16.303 68.3991 14.716 67.8941 13.4175C67.3891 12.119 65.6578 11.5419 65.6578 11.5419Z" fill="#111111"/>
<path d="M68.0379 16.7358C67.8936 18.1785 69.0478 19.477 69.0478 19.477C69.0478 19.477 70.4905 18.4671 70.7069 17.0965C70.8512 15.6537 69.697 14.3553 69.697 14.3553C69.697 14.3553 68.2543 15.2931 68.0379 16.7358Z" fill="#111111"/>
<path d="M69.5522 20.3427C68.903 21.6411 69.6244 23.2281 69.6244 23.2281C69.6244 23.2281 71.3556 22.7953 72.0049 21.4968C72.6541 20.1984 71.9327 18.6114 71.9327 18.6114C71.9327 18.6114 70.2014 19.0442 69.5522 20.3427Z" fill="#111111"/>
<path d="M70.5633 24.743C69.6255 26.0415 69.9862 27.917 69.9862 27.917C69.9862 27.917 71.9339 27.7728 72.9438 26.5464C73.8816 25.248 73.5209 23.3724 73.5209 23.3724C73.5209 23.3724 71.5732 23.4445 70.5633 24.743Z" fill="#111111"/>
<path d="M69.6963 29.6483C68.4699 30.5861 68.1092 32.3174 68.0371 32.8945C68.9028 32.4617 70.3455 31.5239 71.9325 29.8647C70.9226 31.4518 69.2634 32.5338 68.2535 33.1109C68.9028 33.1831 70.5619 33.3995 71.7882 32.4617C73.3031 31.3796 73.4474 28.9991 73.4474 28.9991C73.4474 28.9991 71.2111 28.4941 69.6963 29.6483Z" fill="#111111"/>
<path d="M68.2544 34.193C66.5952 34.6979 65.5132 36.4292 65.2246 37.0784C66.0181 37.0063 67.9658 36.7899 70.5628 35.4914C68.6872 36.9342 66.1624 37.2949 65.2967 37.4391C65.8738 37.7277 67.7494 38.6655 69.4807 38.1605C71.5727 37.5113 72.6547 35.0586 72.6547 35.0586C72.6547 35.0586 70.3463 33.5437 68.2544 34.193Z" fill="#111111"/>
<path d="M65.1527 37.872C63.0607 37.872 61.4016 39.6032 60.9688 40.0361C61.618 40.1803 63.6378 40.541 66.6676 39.9639C64.5035 40.8296 62.0508 40.541 61.113 40.3968C61.6901 40.9739 63.3493 42.3445 65.1527 42.3445C67.5332 42.3445 69.4088 40.0361 69.4088 40.0361C69.4088 40.0361 67.5332 37.872 65.1527 37.872Z" fill="#111111"/>
<path d="M62.7727 37.367C63.7105 35.5636 62.7006 33.183 62.7006 33.183C62.7006 33.183 60.2479 33.7601 59.3102 35.6357C58.5166 37.1506 59.0937 39.0261 59.3102 39.6032C59.8872 39.0261 60.825 37.9441 61.6907 36.2849C61.2578 37.7998 60.2479 39.0261 59.5266 39.7475C60.1037 39.5311 62.0514 38.8819 62.7727 37.367Z" fill="#111111"/>
<path d="M63.2044 33.0388C63.0601 34.4094 63.9979 35.7078 64.3586 36.0685C64.7193 35.275 65.08 34.1208 65.2964 32.5338C65.3685 33.8323 65.0078 35.1307 64.575 36.0685C65.0078 35.7078 66.162 34.6979 66.3063 33.3273C66.4506 31.6682 65.08 30.1533 65.08 30.1533C65.08 30.1533 63.3487 31.3796 63.2044 33.0388Z" fill="#111111"/>
<path d="M66.5221 27.1957C66.5221 27.1957 65.4401 28.5663 65.7286 29.9369C66.0172 31.3075 67.4599 32.1731 67.4599 32.1731C67.4599 32.1731 68.542 30.8025 68.2534 29.4319C68.037 28.0613 66.5221 27.1957 66.5221 27.1957Z" fill="#111111"/>
<path d="M68.6872 24.6709C67.9658 23.5888 66.3788 23.3724 66.3788 23.3724C66.3788 23.3724 65.946 24.9594 66.6673 26.0415C67.3887 27.1235 68.9757 27.3399 68.9757 27.3399C68.9757 27.3399 69.4085 25.7529 68.6872 24.6709Z" fill="#111111"/>
<path d="M65.8006 19.2606C65.8006 19.2606 65.3678 20.8476 66.0892 21.9297C66.8106 23.0117 68.3976 23.2281 68.3976 23.2281C68.3976 23.2281 68.8304 21.6411 68.109 20.5591C67.3877 19.477 65.8006 19.2606 65.8006 19.2606Z" fill="#111111"/>
<path d="M65.3695 18.0343C66.0187 18.9721 67.3893 19.1885 67.3893 19.1885C67.3893 19.1885 67.8221 17.8179 67.1729 16.8801C66.5237 15.9423 65.153 15.7259 65.153 15.7259C65.153 15.7259 64.7202 17.0965 65.3695 18.0343Z" fill="#111111"/>
<path d="M56.2066 41.3345C55.846 41.4067 55.7017 41.8395 55.9181 42.128C56.1345 42.4166 56.4952 42.5609 56.8559 42.3445L59.8135 40.6853L59.3807 40.3968L56.2066 41.3345Z" fill="#111111"/>
</svg>
