<svg width="20" height="20" viewBox="0 0 20 20" fill="none" xmlns="http://www.w3.org/2000/svg">
<g clip-path="url(#clip0)">
<path d="M9.99993 1.29102C7.77282 1.29102 5.96094 3.10289 5.96094 5.32996C5.96094 7.55708 7.77282 9.36895 9.99993 9.36895C12.227 9.36895 14.0389 7.55708 14.0389 5.32996C14.0389 3.10289 12.227 1.29102 9.99993 1.29102ZM7.96076 7.70063L8.12824 7.53311C8.30586 7.35548 8.30586 7.06747 8.12824 6.88985C7.95057 6.71222 7.66256 6.71222 7.48494 6.88985L7.36303 7.01175C7.12956 6.647 6.96936 6.23126 6.90404 5.78482H7.09221C7.34338 5.78482 7.54707 5.58118 7.54707 5.32996C7.54707 5.07874 7.34338 4.8751 7.09221 4.8751H6.90404C6.98064 4.35152 7.18705 3.86955 7.48994 3.46332L7.62217 3.59559C7.711 3.68443 7.8274 3.72882 7.9438 3.72882C8.06019 3.72882 8.17659 3.68443 8.26538 3.59559C8.44305 3.41797 8.44305 3.12996 8.26542 2.95233L8.13315 2.82006C8.53939 2.51717 9.0214 2.31076 9.54498 2.23416V2.42234C9.54498 2.67355 9.74867 2.87719 9.99984 2.87719C10.251 2.87719 10.4547 2.67355 10.4547 2.42234V2.23416C10.9783 2.31076 11.4602 2.51717 11.8665 2.82006L11.7342 2.95233C11.5566 3.12996 11.5566 3.41797 11.7342 3.59564C11.823 3.68447 11.9394 3.72887 12.0558 3.72887C12.1722 3.72887 12.2886 3.68447 12.3775 3.59564L12.5097 3.46337C12.8126 3.8696 13.019 4.35156 13.0956 4.87515H12.9075C12.6563 4.87515 12.4526 5.07879 12.4526 5.33001C12.4526 5.58122 12.6563 5.78486 12.9075 5.78486H13.0956C13.0303 6.2313 12.8701 6.64709 12.6366 7.01184L12.5147 6.88989C12.337 6.71227 12.049 6.71227 11.8714 6.88989C11.6938 7.06751 11.6938 7.35553 11.8714 7.53315L12.0389 7.70067C11.4908 8.17282 10.7783 8.45928 9.99979 8.45928C9.2214 8.45928 8.50891 8.17282 7.96076 7.70063Z" fill="#111111"/>
<path d="M16.5184 2.65395H14.6104C13.6568 1.00992 11.9151 0 9.99983 0C8.08452 0 6.34278 1.00992 5.38926 2.65395H3.48118C2.31339 2.65395 1.36328 3.60401 1.36328 4.77185V17.8821C1.36328 19.0499 2.31339 20 3.48118 20H16.5184C17.6862 20 18.6363 19.05 18.6363 17.8821V4.77181C18.6363 3.60401 17.6862 2.65395 16.5184 2.65395ZM17.7266 17.8821C17.7266 18.5483 17.1846 19.0903 16.5184 19.0903H3.48118C2.815 19.0903 2.27299 18.5483 2.27299 17.8821V4.77181C2.27299 4.10563 2.81496 3.56362 3.48118 3.56362H5.65899C5.82961 3.56362 5.98594 3.4681 6.06372 3.31627C6.82484 1.83184 8.33305 0.909713 9.99983 0.909713C11.6666 0.909713 13.1748 1.83184 13.9359 3.31631C14.0137 3.46814 14.17 3.56367 14.3406 3.56367H16.5184C17.1846 3.56367 17.7266 4.10567 17.7266 4.77185V17.8821Z" fill="#111111"/>
<path d="M9.99978 3.25977C9.74861 3.25977 9.54492 3.46341 9.54492 3.71462V5.33C9.54492 5.58122 9.74861 5.78486 9.99978 5.78486C10.2509 5.78486 10.4546 5.58122 10.4546 5.33V3.71462C10.4546 3.46341 10.2509 3.25977 9.99978 3.25977Z" fill="#111111"/>
</g>
<defs>
<clipPath id="clip0">
<rect width="20" height="20" fill="white"/>
</clipPath>
</defs>
</svg>
