<svg width="20" height="20" viewBox="0 0 20 20" fill="none" xmlns="http://www.w3.org/2000/svg">
<g clip-path="url(#clip0)">
<path d="M12.7344 2.73438C12.7344 1.22664 11.5077 0 10 0C8.49227 0 7.26562 1.22664 7.26562 2.73438C7.26562 4.24211 8.49227 5.46875 10 5.46875C11.5077 5.46875 12.7344 4.24211 12.7344 2.73438ZM10 4.6875C8.92305 4.6875 8.04688 3.81133 8.04688 2.73438C8.04688 1.65742 8.92305 0.78125 10 0.78125C11.077 0.78125 11.9531 1.65742 11.9531 2.73438C11.9531 3.81133 11.077 4.6875 10 4.6875Z" fill="black"/>
<path d="M4.60938 10.9375C5.32551 10.9375 6.07782 10.8116 6.71028 10.5928C6.88895 11.5292 7.06934 12.4889 7.17352 13.3936C5.42196 13.4479 4.23032 13.5737 3.34516 13.7958C2.0586 14.1186 1.40625 14.6946 1.40625 15.5078C1.40625 16.4598 2.34617 17.5621 3.92055 18.4567C4.10965 18.5641 4.34746 18.496 4.45313 18.31C4.55973 18.1225 4.49407 17.884 4.30649 17.7775C2.8427 16.9457 2.1875 16.0382 2.1875 15.5078C2.1875 14.4168 5.28457 14.2179 7.61418 14.1632C8.36871 14.5159 9.1843 14.6927 10 14.6927C10.8157 14.6927 11.6313 14.5159 12.3858 14.1632C14.7154 14.2179 17.8125 14.4168 17.8125 15.5078C17.8125 16.8186 15.134 18.1598 13.8537 18.5905C13.7416 18.0616 13.452 17.5864 13.0207 17.2429C12.8963 17.1438 12.7636 17.0588 12.625 16.9866C13.2748 16.7214 13.9027 16.4844 14.6875 16.4844C14.9032 16.4844 15.0781 16.3095 15.0781 16.0938C15.0781 15.878 14.9032 15.7031 14.6875 15.7031C13.6953 15.7031 12.9328 16.0159 12.1954 16.3183C11.7519 16.5002 11.333 16.672 10.8697 16.7764C10.8679 16.7768 10.8661 16.7772 10.8643 16.7776C10.638 16.8318 10.3099 16.875 10 16.875C9.16176 16.875 8.5025 16.6046 7.8045 16.3183C7.06715 16.0159 6.30473 15.7031 5.3125 15.7031C5.09676 15.7031 4.92188 15.878 4.92188 16.0938C4.92188 16.3095 5.09676 16.4844 5.3125 16.4844C6.15075 16.4844 6.81 16.7548 7.50801 17.0411C8.24536 17.3435 9.00778 17.6562 10 17.6562C10.3836 17.6562 10.778 17.6021 11.0623 17.5339C11.5902 17.4128 12.1265 17.5295 12.5339 17.854C12.8432 18.1003 13.0397 18.4351 13.1028 18.8152C12.0906 19.0828 11.0484 19.2188 10 19.2188C9.1566 19.2188 8.30821 19.1296 7.47836 18.9539C7.26723 18.9092 7.06 19.0441 7.01528 19.2551C6.97059 19.4662 7.10547 19.6735 7.31649 19.7182C8.19946 19.9052 9.10231 20 10 20C14.6934 20 18.5938 17.4119 18.5938 15.5078C18.5938 13.5771 14.8878 13.4575 12.8266 13.3936C12.9308 12.4891 13.111 11.53 13.2895 10.594C13.9223 10.8144 14.6639 10.9375 15.3906 10.9375C17.4744 10.9375 19.8887 9.76941 19.9994 7.75582C20.0068 7.62066 19.9438 7.49129 19.8327 7.41391C19.7216 7.33652 19.5785 7.32211 19.4542 7.3759C18.8225 7.6493 17.9606 7.8125 17.1484 7.8125C14.9116 7.8125 13.7521 6.66898 13.6231 6.61305C12.5869 5.87207 11.3286 5.46875 10.0277 5.46875H9.97227C9.56461 5.46875 9.15559 5.50875 8.75657 5.5875C7.66586 5.79023 6.43786 6.48844 6.23965 6.71352C5.23938 7.47051 4.08848 7.8125 2.85157 7.8125C2.03946 7.8125 1.1775 7.6493 0.545785 7.3759C0.421566 7.32215 0.278363 7.33652 0.167308 7.41391C0.0562533 7.49129 -0.00683261 7.62066 0.000589266 7.75582C0.111605 9.77523 2.53485 10.9375 4.60938 10.9375ZM7.96739 13.4658C7.75063 11.4204 7.14836 9.1832 6.94356 7.17043C7.39809 6.86324 7.9052 6.62547 8.4375 6.46945V7.03125C8.4375 7.89281 9.13844 8.59375 10 8.59375C10.8616 8.59375 11.5625 7.89281 11.5625 7.03125V6.46941C12.0945 6.62535 12.6014 6.86305 13.0565 7.17051C12.8546 9.16488 12.25 11.4173 12.0326 13.4657C10.7454 14.0595 9.25469 14.0595 7.96739 13.4658ZM17.1484 8.59375C17.7895 8.59375 18.4622 8.50156 19.057 8.33816C18.5704 9.37137 17.068 10.1562 15.3906 10.1562C14.7153 10.1562 14.0064 10.0311 13.437 9.81617C13.572 9.09578 13.6965 8.38715 13.7836 7.6907C14.6963 8.26148 15.9166 8.59375 17.1484 8.59375ZM10.0277 6.25C10.2795 6.25 10.5318 6.26777 10.7813 6.30223V7.03125C10.7813 7.46203 10.4308 7.8125 10 7.8125C9.56922 7.8125 9.21875 7.46203 9.21875 7.03125V6.30223C9.46821 6.26777 9.72047 6.25 9.97227 6.25H10.0277ZM2.85157 8.59375C4.08364 8.59375 5.30403 8.26137 6.21672 7.69055C6.3052 8.39484 6.432 9.11621 6.56289 9.81578C5.99348 10.031 5.28598 10.1562 4.60938 10.1562C2.93203 10.1562 1.42961 9.37137 0.943011 8.33816C1.53778 8.50156 2.21055 8.59375 2.85157 8.59375Z" fill="black"/>
<path d="M5.70312 19.2578C5.91886 19.2578 6.09375 19.0829 6.09375 18.8672C6.09375 18.6515 5.91886 18.4766 5.70312 18.4766C5.48739 18.4766 5.3125 18.6515 5.3125 18.8672C5.3125 19.0829 5.48739 19.2578 5.70312 19.2578Z" fill="black"/>
</g>
<defs>
<clipPath id="clip0">
<rect width="20" height="20" fill="white"/>
</clipPath>
</defs>
</svg>
