<svg width="80" height="80" viewBox="0 0 80 80" fill="none" xmlns="http://www.w3.org/2000/svg">
<g clip-path="url(#clip0)">
<path d="M44.9914 43.2314C45.0887 44.1388 44.4387 44.9961 43.5376 45.1405C42.8059 45.2598 42.1088 44.9113 41.754 44.3178C41.6818 44.1985 41.5122 44.2236 41.4777 44.3555C41.2924 45.0275 40.7147 45.5581 39.9736 45.6366C39.0285 45.7371 38.1493 45.0243 38.0488 44.0792C37.9797 43.4229 38.2843 42.8106 38.7961 42.4589C39.1729 42.1983 39.3519 41.7304 39.2891 41.2783L38.9908 39.1211L42.5893 38.6218L42.8781 40.7131C42.9441 41.1935 43.2769 41.6017 43.7417 41.7367C44.3979 41.9314 44.9129 42.4997 44.9914 43.2314Z" fill="white"/>
<path d="M39.7963 45.7277C38.8826 45.7277 38.0662 45.0149 37.9688 44.0886C37.8997 43.4229 38.198 42.7729 38.7507 42.393C39.0898 42.1575 39.2719 41.7273 39.2091 41.2908L38.8983 39.052L42.6569 38.5307L42.9583 40.7036C43.0211 41.1621 43.3383 41.5389 43.7622 41.6614C44.4781 41.8717 44.9931 42.484 45.0716 43.2251C45.1721 44.1734 44.4907 45.0714 43.5487 45.2253C42.8013 45.3477 42.0697 45.0086 41.6803 44.3618C41.6646 44.3335 41.6364 44.321 41.6081 44.3241C41.5956 44.3272 41.5642 44.3335 41.5516 44.3775C41.3506 45.1122 40.7321 45.6366 39.9784 45.7183C39.9188 45.7246 39.856 45.7277 39.7963 45.7277ZM39.0804 39.1901L39.3693 41.2688C39.4384 41.765 39.2311 42.258 38.8418 42.528C38.3393 42.8734 38.0662 43.4669 38.129 44.0729C38.2232 44.9741 39.0647 45.6523 39.9627 45.5581C40.6504 45.4859 41.2125 45.0055 41.3946 44.3367C41.4197 44.2456 41.4919 44.1765 41.583 44.164C41.6772 44.1483 41.7651 44.1954 41.8185 44.277C42.1733 44.8642 42.839 45.175 43.5204 45.062C44.3776 44.9207 44.9994 44.1043 44.9083 43.2408C44.8361 42.5657 44.3682 42.0068 43.7151 41.8184C43.2284 41.6771 42.8673 41.2469 42.7951 40.7256L42.5156 38.7129L39.0804 39.1901Z" fill="#111111"/>
<g opacity="0.3">
<path opacity="0.3" d="M38.0488 44.0793C37.9797 43.423 38.2843 42.8107 38.7961 42.459C39.1729 42.1984 39.355 41.7305 39.2891 41.2752L38.9908 39.118L40.3316 38.9327L40.6267 41.0648C40.6895 41.5201 40.5106 41.988 40.1338 42.2455C39.6219 42.5972 39.3174 43.2095 39.3864 43.8689C39.4649 44.6099 40.0239 45.2065 40.7178 45.3792C40.498 45.5143 40.2468 45.6053 39.9736 45.6336C39.0285 45.7341 38.1493 45.0244 38.0488 44.0793Z" fill="#6B184E"/>
<path opacity="0.3" d="M39.7956 45.7277C38.8818 45.7277 38.0623 45.0149 37.9649 44.0886C37.8958 43.4197 38.1941 42.7729 38.7468 42.393C39.0859 42.1575 39.268 41.7241 39.2052 41.2877L38.8944 39.0488L40.3953 38.8416L40.703 41.0553C40.7721 41.5514 40.5649 42.0476 40.1755 42.3145C39.6731 42.6599 39.3999 43.2533 39.4627 43.8594C39.5381 44.5502 40.0468 45.1311 40.7344 45.3006L40.9228 45.3477L40.7595 45.4482C40.5272 45.5927 40.2571 45.6869 39.9808 45.7151C39.918 45.7245 39.8584 45.7277 39.7956 45.7277ZM38.1282 44.0697C38.2255 44.9678 39.0639 45.6492 39.962 45.555C40.1504 45.5361 40.3356 45.4828 40.5052 45.4011C39.8489 45.1625 39.3748 44.5721 39.3026 43.8782C39.2335 43.2125 39.5318 42.5594 40.0844 42.1794C40.4236 41.9471 40.6057 41.5138 40.5429 41.0773L40.2571 39.0237L39.0796 39.187L39.3685 41.2657C39.4376 41.7618 39.2304 42.2579 38.841 42.5248C38.3354 42.8702 38.0654 43.4637 38.1282 44.0697Z" fill="#111111"/>
</g>
<path d="M39.7954 46.048C38.7215 46.048 37.7606 45.2096 37.6445 44.12C37.5628 43.335 37.9145 42.5719 38.5645 42.1229C38.8031 41.9565 38.9319 41.6456 38.8879 41.3285L38.5896 39.1713C38.5739 39.0645 38.6022 38.9578 38.6681 38.873C38.7341 38.7882 38.8283 38.7317 38.935 38.716L42.5335 38.2167C42.7533 38.1853 42.9574 38.3392 42.9888 38.5621L43.2777 40.6534C43.3248 40.9862 43.5509 41.2594 43.8523 41.3473C44.6938 41.5923 45.2999 42.3145 45.3909 43.1843C45.5103 44.299 44.7064 45.354 43.6011 45.5361C42.882 45.6555 42.1755 45.4074 41.692 44.8987C41.3623 45.5267 40.7437 45.9569 40.0152 46.0323C39.9398 46.0448 39.8676 46.048 39.7954 46.048ZM39.4437 39.4633L39.6886 41.2217C39.7734 41.8372 39.5128 42.4526 39.0229 42.7886C38.6179 43.0681 38.3981 43.5453 38.4483 44.0352C38.5268 44.7605 39.2019 45.3101 39.9304 45.2316C40.4862 45.1719 40.9384 44.7857 41.0859 44.2456C41.1425 44.0321 41.3214 43.8719 41.5412 43.8405C41.761 43.8091 41.9808 43.9127 42.097 44.1074C42.3828 44.5816 42.9229 44.8296 43.4724 44.7417C44.1632 44.6287 44.6656 43.9693 44.5902 43.2722C44.5337 42.7289 44.1569 42.2768 43.6294 42.1229C43.0202 41.9471 42.568 41.4133 42.4801 40.7664L42.2446 39.0739L39.4437 39.4633ZM41.8647 44.456C41.8647 44.4591 41.8647 44.4591 41.8615 44.4622C41.8647 44.4622 41.8647 44.4591 41.8647 44.456Z" fill="#111111"/>
<path d="M43.1373 35.2996L43.423 37.3626C43.5078 37.9812 43.0776 38.5527 42.459 38.6375L39.1023 39.1022C38.4837 39.187 37.9122 38.7568 37.8275 38.1382L37.5417 36.0752C37.4161 35.174 36.9671 34.3576 36.3014 33.739C32.9227 30.5896 31.381 24.5764 34.5336 20.9371C36.3956 18.7862 39.5356 18.3497 41.9126 19.9134C45.935 22.5573 46.0889 28.7621 43.693 32.7122C43.222 33.4941 43.0117 34.4016 43.1373 35.2996Z" fill="#E21A3D"/>
<path d="M38.9457 39.1964C38.3491 39.1964 37.831 38.7568 37.7462 38.1508L37.4604 36.0878C37.3411 35.2306 36.9109 34.4204 36.2452 33.7987C32.854 30.6367 31.2903 24.5544 34.4711 20.8837C36.3771 18.6826 39.5234 18.2461 41.957 19.8475C46.017 22.5166 46.1677 28.7935 43.7625 32.7562C43.2915 33.5349 43.0968 34.433 43.2161 35.2871L43.5019 37.3501C43.5929 38.0126 43.1282 38.6249 42.4688 38.716L39.1121 39.1807C39.0587 39.1933 39.0022 39.1964 38.9457 39.1964ZM38.7918 19.0531C37.2312 19.0531 35.6989 19.7188 34.5936 20.9936C31.4724 24.5953 33.0173 30.5707 36.3551 33.6825C37.0459 34.3262 37.495 35.174 37.6206 36.0658L37.9063 38.1288C37.9848 38.7034 38.5155 39.1054 39.0901 39.0237L42.4468 38.559C43.0214 38.4805 43.4202 37.9498 43.3417 37.3752L43.056 35.3122C42.9335 34.4204 43.1345 33.4816 43.6243 32.6746C45.9888 28.7746 45.8506 22.6013 41.8659 19.9857C40.9145 19.3577 39.8469 19.0531 38.7918 19.0531Z" fill="#111111"/>
<g opacity="0.3">
<path opacity="0.3" d="M37.8287 38.1381L37.5429 36.0751C37.4173 35.174 36.9683 34.3607 36.3026 33.739C32.9239 30.5895 31.3822 24.5763 34.5379 20.937C35.8379 19.4361 37.7564 18.7736 39.6028 19.0373C38.846 19.2917 38.1301 19.7093 37.5147 20.2902C34.0104 23.5904 34.9336 29.726 37.9762 33.2052C38.576 33.8897 38.9402 34.7469 38.9716 35.6544L39.047 37.7331C39.069 38.358 39.5934 38.8478 40.2182 38.8227L41.4271 38.7787L39.1067 39.1021C38.4849 39.1901 37.9134 38.7567 37.8287 38.1381Z" fill="#6B184E"/>
<path opacity="0.3" d="M38.9455 39.1964C38.3489 39.1964 37.8308 38.7568 37.746 38.1508L37.4603 36.0878C37.3409 35.2305 36.9076 34.4204 36.2451 33.8018C32.8538 30.6398 31.2932 24.5576 34.4741 20.8869C35.7584 19.4016 37.6801 18.6826 39.6112 18.9589L39.9503 19.0091L39.6237 19.119C38.8544 19.3765 38.1605 19.791 37.5639 20.3531C34.0973 23.6187 35.0267 29.7229 38.0317 33.155C38.6535 33.8646 39.0146 34.7533 39.0491 35.6544L39.1245 37.7331C39.1339 38.0126 39.2532 38.2732 39.4573 38.4648C39.6614 38.6563 39.9315 38.7537 40.2109 38.7442L41.4198 38.7003L41.4324 38.8636L39.1119 39.187C39.0554 39.1933 39.002 39.1964 38.9455 39.1964ZM38.7948 19.0625C37.1965 19.0625 35.6704 19.7533 34.5965 20.9905C31.4754 24.5921 33.0203 30.5707 36.3581 33.6794C37.0489 34.3231 37.4979 35.1709 37.6235 36.0626L37.9093 38.1257C37.9878 38.6971 38.5184 39.0991 39.0931 39.0206L40.0068 38.895C39.7619 38.8604 39.5327 38.7537 39.3506 38.581C39.1119 38.3612 38.9769 38.0597 38.9643 37.7363L38.889 35.6576C38.8576 34.7941 38.509 33.94 37.9124 33.2586C34.8603 29.77 33.9214 23.559 37.4571 20.2306C37.9846 19.7313 38.5875 19.3451 39.2501 19.0782C39.0962 19.0688 38.9455 19.0625 38.7948 19.0625Z" fill="#111111"/>
</g>
<g opacity="0.55">
<path opacity="0.55" d="M41.9032 38.7159C42.346 38.5149 42.6254 38.0377 42.5564 37.5321L42.2706 35.4691C42.145 34.5679 42.3554 33.6605 42.8295 32.8817C44.4247 30.2504 44.8894 26.6205 43.8343 23.7066C43.0619 23.5464 42.2361 22.6766 42.7353 21.6655C42.2738 21.0595 41.7148 20.5226 41.0491 20.083C39.9062 19.3293 38.5842 19.0405 37.3125 19.1818C38.8323 18.761 40.5059 18.9902 41.9158 19.9134C45.9382 22.5604 46.0889 28.762 43.6962 32.7122C43.2252 33.4909 43.0148 34.3984 43.1404 35.2964L43.4261 37.3594C43.5109 37.978 43.0807 38.5495 42.4622 38.6343L41.9032 38.7159Z" fill="white"/>
<path opacity="0.55" d="M41.3636 38.873L41.8723 38.6406C42.2899 38.4491 42.5412 37.9969 42.4784 37.5416L42.1926 35.4817C42.0701 34.5868 42.2711 33.648 42.761 32.841C44.3844 30.1625 44.78 26.6111 43.772 23.7788C43.2948 23.6658 42.8552 23.3173 42.6416 22.8808C42.5098 22.6107 42.4061 22.1868 42.6385 21.675C42.1738 21.0721 41.6243 20.5603 41.0025 20.149C39.9129 19.433 38.6067 19.1159 37.3224 19.2603L37.291 19.1002C38.8736 18.6637 40.5755 18.9338 41.9602 19.8412C46.0172 22.5103 46.1679 28.7872 43.7658 32.7531C43.2948 33.5286 43.1001 34.4298 43.2194 35.2839L43.5051 37.3469C43.5962 38.0095 43.1315 38.6218 42.4721 38.7128L41.3636 38.873ZM38.3461 19.0813C39.3163 19.1504 40.2678 19.4707 41.0936 20.0139C41.7467 20.4441 42.3214 20.9811 42.8018 21.6154L42.8332 21.6562L42.8112 21.7001C42.5788 22.1711 42.673 22.5636 42.7924 22.8086C42.9902 23.2136 43.4078 23.5339 43.8537 23.6281L43.8976 23.6375L43.9133 23.6815C44.9558 26.564 44.5602 30.1908 42.9023 32.9258C42.4313 33.7013 42.2366 34.6025 42.3559 35.4598L42.6416 37.5196C42.6982 37.9215 42.5443 38.3203 42.2523 38.5841L42.4501 38.5558C43.0216 38.4773 43.4235 37.9467 43.345 37.372L43.0593 35.309C42.9337 34.4173 43.1378 33.4784 43.6276 32.6714C45.992 28.7715 45.8507 22.5982 41.8723 19.9825C40.8173 19.2917 39.5738 18.9809 38.3461 19.0813Z" fill="#111111"/>
</g>
<path d="M38.9449 39.5167C38.1913 39.5167 37.5319 38.9609 37.4251 38.1916L37.1394 36.1286C37.0295 35.3467 36.6339 34.6025 36.0247 34.0311C32.5267 30.7686 30.9284 24.4791 34.2286 20.6702C36.2068 18.3843 39.6075 17.9133 42.1352 19.5743C46.346 22.3439 46.5187 28.8312 44.0412 32.9195C43.6079 33.6323 43.4289 34.4581 43.5388 35.24L43.8245 37.303C43.9407 38.1414 43.3535 38.9169 42.5151 39.0331L39.1584 39.4979C39.0862 39.5136 39.014 39.5167 38.9449 39.5167ZM38.7911 19.3765C37.3215 19.3765 35.8771 20.0045 34.8378 21.204C31.839 24.6675 33.3462 30.4357 36.5742 33.447C37.3215 34.141 37.8051 35.0578 37.9401 36.0218L38.2258 38.0848C38.2824 38.4836 38.6498 38.7599 39.0454 38.7066L42.4021 38.2418C42.8009 38.1853 43.0772 37.8179 43.0238 37.4223L42.7381 35.3593C42.6031 34.3953 42.8229 33.3811 43.3504 32.5081C45.6395 28.7338 45.5201 22.7709 41.6924 20.2557C40.7913 19.6623 39.7864 19.3765 38.7911 19.3765Z" fill="#111111"/>
<g opacity="0.2">
<path opacity="0.2" d="M41.3623 30.0243C40.6464 30.1217 40.5993 29.0352 40.4171 27.7101C40.235 26.385 39.9901 25.3237 40.706 25.2263C41.4219 25.129 42.1504 26.1213 42.3326 27.4464C42.5115 28.7714 42.0782 29.927 41.3623 30.0243Z" fill="white"/>
<path opacity="0.2" d="M41.2788 30.1123C41.1532 30.1123 41.0402 30.0746 40.9428 30.0024C40.5974 29.7386 40.5064 29.0384 40.3933 28.156C40.3745 28.0147 40.3557 27.8703 40.3368 27.7227C40.318 27.5751 40.296 27.4307 40.274 27.2925C40.1453 26.4102 40.0448 25.7131 40.3054 25.3646C40.3965 25.2452 40.5252 25.173 40.6948 25.1479C41.0716 25.0977 41.4578 25.3112 41.7844 25.7571C42.0984 26.1872 42.3213 26.7838 42.4124 27.437C42.6008 28.8029 42.1329 30.0024 41.3762 30.106C41.3416 30.1091 41.3102 30.1123 41.2788 30.1123ZM40.8047 25.3018C40.7764 25.3018 40.745 25.3049 40.7168 25.308C40.5912 25.3237 40.5001 25.374 40.4373 25.4588C40.2175 25.7508 40.318 26.4541 40.4373 27.2643C40.4561 27.4056 40.4781 27.55 40.5001 27.6976C40.5189 27.8452 40.5378 27.9896 40.5566 28.1309C40.6602 28.9442 40.7513 29.6476 41.0433 29.8705C41.1281 29.9364 41.2286 29.9584 41.3542 29.9427C42.023 29.8517 42.4281 28.737 42.2522 27.459C42.1675 26.831 41.9539 26.2595 41.6556 25.8513C41.3919 25.4933 41.0936 25.3018 40.8047 25.3018Z" fill="#111111"/>
</g>
<path d="M34.9112 16.2333L31.2938 18.5444L31.7052 19.141C32.7634 20.6796 32.2421 22.796 30.5936 23.6689L30.4711 23.7349C29.077 24.4728 27.3562 24.0583 26.4519 22.7677L23.9681 19.2289C23.5631 18.6951 23.3244 18.0891 23.2491 17.4705C23.0261 15.6807 24.2382 14.0228 25.984 13.5643L29.7364 12.5815C30.3864 12.4119 30.7852 11.7619 30.6407 11.1057L29.3816 7.39414C29.1429 6.69391 30.0472 6.17895 30.5277 6.74101L35.4167 12.4622C36.4498 13.6083 36.208 15.4044 34.9112 16.2333Z" fill="#E21A3D"/>
<g opacity="0.3">
<path opacity="0.3" d="M34.91 16.2334L31.2927 18.5444L31.704 19.141C32.7622 20.6796 32.241 22.796 30.5924 23.669L30.47 23.7349C29.0758 24.4728 27.3551 24.0583 26.4507 22.7678L26.2969 22.548C27.1635 22.9593 28.1997 22.9656 29.1009 22.4883L29.2234 22.4224C30.8719 21.5494 31.3931 19.433 30.335 17.8944C30.112 17.5679 30.1999 17.122 30.5328 16.9116L33.5409 14.9899C34.8378 14.1609 35.0795 12.3648 34.0465 11.2219L30.0147 6.50553C30.1968 6.50239 30.3789 6.57461 30.5265 6.74731L35.4155 12.4685C36.4486 13.6083 36.21 15.4044 34.91 16.2334Z" fill="#111111"/>
</g>
<g opacity="0.55">
<path opacity="0.55" d="M27.7887 23.1917C28.1184 23.6595 28.5517 24.0144 29.0447 24.2342C28.0776 24.2153 27.1387 23.7475 26.5515 22.9059L24.0678 19.3671C23.6627 18.8333 23.424 18.2273 23.3487 17.6087C23.1257 15.8189 24.3378 14.1609 26.0837 13.7025L29.836 12.7197C30.486 12.5501 30.8848 11.897 30.7403 11.2438L29.4812 7.53232C29.2425 6.8321 30.1469 6.31713 30.6273 6.8792L30.8565 7.1461C30.7026 7.30938 30.6304 7.54802 30.7183 7.81493L31.9775 11.5264C32.1219 12.1796 31.72 12.8327 31.0732 13.0023L27.3208 13.9851C25.575 14.4404 24.3629 16.1015 24.5859 17.8913C24.6612 18.5099 24.8999 19.1159 25.3049 19.6497L27.7887 23.1917Z" fill="white"/>
</g>
<path d="M29.0102 24.6015C27.8578 24.6015 26.7337 24.0552 26.0366 23.0566L23.5591 19.5272C23.1164 18.9401 22.8369 18.2524 22.749 17.5333C22.4978 15.5237 23.8355 13.6083 25.8576 13.0776L29.61 12.0948C29.9931 11.9943 30.2286 11.6238 30.1563 11.2407L28.9035 7.55743C28.7182 7.01735 28.938 6.43958 29.4341 6.15698C29.9303 5.87438 30.5394 5.98113 30.9131 6.41446L35.8021 12.1356C36.3862 12.7824 36.6562 13.6585 36.54 14.5346C36.4207 15.4075 35.9277 16.1831 35.1867 16.6573L32.009 18.6889L32.122 18.8553C32.7092 19.7094 32.9007 20.7707 32.6558 21.7755C32.4109 22.7803 31.7452 23.6313 30.8314 24.1148L30.709 24.1808C30.1689 24.4665 29.5849 24.6015 29.0102 24.6015ZM30.0245 7.00479C29.9962 7.00479 29.9648 7.01421 29.9334 7.03305C29.8549 7.07701 29.8298 7.14609 29.858 7.23087L31.1172 10.9455C31.1235 10.9644 31.1266 10.9801 31.1329 10.9989C31.337 11.9221 30.7781 12.8327 29.8612 13.0713L26.1088 14.0542C24.5734 14.4561 23.5591 15.8974 23.7475 17.4109C23.8135 17.9572 24.0301 18.4816 24.3661 18.9275C24.3693 18.9338 24.3724 18.9369 24.3787 18.9432L26.8624 22.482C27.6192 23.5622 29.0699 23.9107 30.2317 23.2921L30.3542 23.2262C31.0136 22.8777 31.494 22.2622 31.6698 21.5369C31.8488 20.8115 31.7075 20.0422 31.2836 19.4299L30.8754 18.8364C30.7969 18.7234 30.7686 18.5852 30.7969 18.4502C30.8252 18.3152 30.9037 18.199 31.0198 18.1236L34.6372 15.8126C35.1302 15.4986 35.4567 14.9836 35.5352 14.4027C35.6137 13.8218 35.4316 13.2409 35.0391 12.8044L30.1406 7.07387C30.1092 7.02677 30.0684 7.00479 30.0245 7.00479Z" fill="#111111"/>
<path d="M31.5669 18.9715L28.8633 20.1019L31.0236 18.1205C31.2309 17.929 31.5574 17.9447 31.7458 18.1519C31.9342 18.3592 31.9217 18.6857 31.7144 18.8741C31.6705 18.9149 31.6171 18.9495 31.5669 18.9715Z" fill="#111111"/>
<path d="M24.0958 19.7941C23.9796 19.7941 23.8666 19.7439 23.7881 19.6497C23.7378 19.5932 23.6939 19.5335 23.6468 19.477C23.5086 19.3011 23.54 19.0468 23.7158 18.9118C23.8917 18.7736 24.146 18.805 24.281 18.9809C24.3187 19.0311 24.3595 19.0782 24.4035 19.1284C24.5479 19.298 24.526 19.5523 24.3564 19.6968C24.281 19.7627 24.1868 19.7941 24.0958 19.7941Z" fill="#111111"/>
<g opacity="0.2">
<path opacity="0.2" d="M28.7549 15.1029C29.1349 15.5049 28.4817 16.0167 27.7375 16.7169C26.9965 17.4172 26.447 18.042 26.0702 17.6401C25.6902 17.2382 25.9854 16.3464 26.7264 15.6462C27.4675 14.9459 28.375 14.7042 28.7549 15.1029Z" fill="white"/>
</g>
<path d="M43.5385 13.6333C44.3706 13.2597 45.388 13.6113 45.8056 14.4215C46.1479 15.0809 46.0317 15.8502 45.5795 16.3746C45.4885 16.4782 45.5638 16.6321 45.702 16.6258C46.3991 16.5912 47.0805 16.9775 47.385 17.6557C47.7744 18.5224 47.3725 19.5806 46.5058 19.9699C45.9029 20.24 45.2278 20.1426 44.7317 19.7658C44.3675 19.4895 43.8682 19.4612 43.4569 19.6622L41.4975 20.6199L39.9023 17.3574L41.8021 16.4311C42.2385 16.2176 42.5243 15.7748 42.5086 15.2913C42.4866 14.6005 42.8665 13.9348 43.5385 13.6333Z" fill="white"/>
<g opacity="0.3">
<path opacity="0.3" d="M46.5049 19.9668C45.902 20.2368 45.2238 20.1395 44.7339 19.7627C44.3697 19.4832 43.8704 19.4581 43.456 19.6622L41.4997 20.6199L40.9062 19.4047L42.8405 18.4596C43.2519 18.2586 43.7511 18.2837 44.1154 18.5601C44.6083 18.9369 45.2866 19.0373 45.8895 18.7673C46.5677 18.4596 46.9634 17.7468 46.91 17.0309C47.1078 17.1973 47.2711 17.4077 47.3841 17.6589C47.7735 18.5224 47.3716 19.5774 46.5049 19.9668Z" fill="#111111"/>
</g>
<path d="M41.4991 21.1223C41.4426 21.1223 41.3892 21.1129 41.3358 21.094C41.2102 21.0501 41.1066 20.959 41.047 20.8397L39.4518 17.5741C39.3294 17.3229 39.433 17.0214 39.6842 16.899L41.5808 15.9727C41.8477 15.8439 42.0141 15.5801 42.0047 15.3038C41.9733 14.3838 42.4945 13.5485 43.3329 13.1749C44.4037 12.6945 45.713 13.1498 46.2563 14.1891C46.586 14.8234 46.5923 15.5519 46.3034 16.1768C46.9816 16.3338 47.5531 16.7922 47.8451 17.4485C48.0901 17.9917 48.1026 18.6009 47.8891 19.1692C47.6724 19.7376 47.2548 20.1834 46.7147 20.4284C45.9611 20.7643 45.085 20.6639 44.4288 20.1646C44.2278 20.0107 43.9326 19.9919 43.6814 20.1144L41.7221 21.0721C41.6498 21.1035 41.5745 21.1223 41.4991 21.1223ZM40.5791 17.5866L41.7315 19.9448L43.2356 19.21C43.829 18.9211 44.5355 18.9808 45.0379 19.3639C45.399 19.6402 45.8826 19.6967 46.3002 19.5115C46.5954 19.3796 46.8246 19.1315 46.9471 18.8144C47.0664 18.4972 47.0601 18.1613 46.9282 17.8661C46.7179 17.3951 46.2469 17.1062 45.7287 17.1345C45.4681 17.1502 45.2232 17.0089 45.107 16.7734C44.9908 16.5379 45.0254 16.2521 45.2012 16.0512C45.5372 15.6618 45.6 15.1186 45.3645 14.6601C45.0662 14.0855 44.3409 13.8343 43.7505 14.1012C43.2889 14.3084 43.0032 14.77 43.0189 15.2756C43.0409 15.9475 42.6547 16.5818 42.0298 16.8864L40.5791 17.5866ZM45.6785 16.1202C45.6754 16.1202 45.6722 16.1202 45.6691 16.1202C45.6722 16.1202 45.6754 16.1202 45.6785 16.1202Z" fill="#111111"/>
<path d="M36.5778 17.863L38.4492 16.9492C39.0113 16.676 39.6864 16.9084 39.9627 17.4704L41.448 20.5131C41.7211 21.0752 41.4888 21.7503 40.9267 22.0266L39.0553 22.9404C38.2388 23.3392 37.6046 24.0206 37.2215 24.8464C35.2809 29.0383 30.0465 32.373 25.6065 30.511C22.9814 29.4089 21.5904 26.564 22.3377 23.8165C23.5969 19.1692 29.4468 17.0936 33.9464 18.1393C34.8319 18.3465 35.7582 18.2649 36.5778 17.863Z" fill="#E21A3D"/>
<g opacity="0.3">
<path opacity="0.3" d="M40.9266 22.0266L39.0552 22.9404C38.2388 23.3392 37.6045 24.0205 37.2214 24.8464C35.2809 29.0383 30.0464 32.373 25.6064 30.511C23.7758 29.7448 22.548 28.1277 22.2246 26.2908C22.7019 26.9314 23.3205 27.4809 24.0647 27.8859C28.2943 30.1876 33.8365 27.4024 36.1946 23.4271C36.6593 22.6452 37.3596 22.0329 38.2137 21.7189L40.1668 20.9998C40.7539 20.7863 41.0554 20.1332 40.8387 19.5491L40.4211 18.4156L41.4479 20.5194C41.7211 21.0752 41.4887 21.7534 40.9266 22.0266Z" fill="#111111"/>
</g>
<g opacity="0.55">
<path opacity="0.55" d="M40.3253 18.1644C39.9956 17.8064 39.4587 17.6902 38.9971 17.9132L37.1256 18.8269C36.3061 19.2257 35.3798 19.3105 34.4943 19.1033C31.4987 18.4062 27.9034 19.097 25.4636 21.0061C25.5515 21.7911 24.9831 22.843 23.8653 22.686C23.432 23.314 23.096 24.0111 22.8856 24.7836C22.5245 26.1055 22.6626 27.4526 23.1933 28.6144C22.3204 27.3019 22.0158 25.6377 22.4554 24.0143C23.7177 19.3702 29.5644 17.2915 34.0641 18.3371C34.9496 18.5443 35.879 18.4595 36.6955 18.0608L38.5669 17.147C39.129 16.8738 39.8041 17.1062 40.0773 17.6683L40.3253 18.1644Z" fill="white"/>
</g>
<path d="M28.2419 31.5378C27.2874 31.5378 26.3359 31.362 25.4128 30.9757C22.5773 29.7857 21.0481 26.6519 21.852 23.6846C23.1865 18.7641 29.3598 16.5536 34.0604 17.6463C34.8517 17.8316 35.665 17.7468 36.3558 17.4108L38.2272 16.497C39.0374 16.1014 40.0202 16.4374 40.4158 17.2475L41.9011 20.2902C42.2967 21.1003 41.9607 22.0832 41.1506 22.4788L39.2792 23.3926C38.5915 23.7285 38.0231 24.3189 37.6809 25.0568C36.0481 28.5799 32.1513 31.5378 28.2419 31.5378ZM31.5578 18.3779C27.7961 18.3779 23.8051 20.331 22.8254 23.9483C22.1409 26.4698 23.3937 29.0352 25.8021 30.0463C29.9752 31.7953 34.9271 28.5987 36.764 24.636C37.2036 23.6909 37.9384 22.9278 38.8333 22.4882L40.7047 21.5745C41.0156 21.4238 41.1443 21.047 40.9936 20.7361L39.5084 17.6934C39.3577 17.3825 38.9809 17.2538 38.67 17.4045L36.7985 18.3183C35.9005 18.7579 34.8486 18.8678 33.8312 18.6323C33.1027 18.4627 32.3365 18.3779 31.5578 18.3779Z" fill="#111111"/>
<g opacity="0.2">
<path opacity="0.2" d="M32.1176 21.1914C32.4348 21.8414 31.4143 22.2245 30.2116 22.8116C29.009 23.3957 28.0796 23.9609 27.7624 23.3109C27.4453 22.6609 28.1643 21.6592 29.367 21.0752C30.5696 20.488 31.8005 20.5414 32.1176 21.1914Z" fill="white"/>
</g>
<path d="M52.6864 24.4068L48.5101 25.4022L48.7017 26.0992C49.1947 27.8985 48.0077 29.7291 46.1645 30.0117L46.0264 30.0337C44.4689 30.2723 42.9774 29.3178 42.5472 27.8011L41.3634 23.6437C41.1562 23.0063 41.1311 22.3563 41.263 21.7472C41.6398 19.9825 43.3322 18.8144 45.1283 18.9557L48.9968 19.2602C49.6657 19.3136 50.2591 18.8301 50.3376 18.1644L50.3691 14.2425C50.3722 13.5014 51.3958 13.313 51.6659 14.0038L54.404 21.0124C55.0006 22.4317 54.1842 24.0488 52.6864 24.4068Z" fill="#E21A3D"/>
<g opacity="0.3">
<path opacity="0.3" d="M52.686 24.4068L48.5098 25.4021L48.7013 26.0992C49.1943 27.8985 48.0073 29.7291 46.1641 30.0117L46.026 30.0337C44.4685 30.2723 42.977 29.3178 42.5468 27.8011L42.4746 27.5437C43.156 28.2188 44.1357 28.561 45.1436 28.4072L45.2818 28.3852C47.1281 28.1026 48.3119 26.2719 47.8189 24.4727C47.7153 24.0928 47.9445 23.7002 48.3308 23.6092L51.8037 22.7802C53.3014 22.4223 54.1179 20.8051 53.5212 19.3858L51.2636 13.605C51.4363 13.6616 51.587 13.7903 51.6686 14.0007L54.4067 21.0092C55.0002 22.4317 54.1838 24.0488 52.686 24.4068Z" fill="#111111"/>
</g>
<g opacity="0.55">
<path opacity="0.55" d="M43.7297 28.7306C43.8867 29.2801 44.1819 29.7574 44.5713 30.1279C43.6638 29.7919 42.9322 29.0414 42.6527 28.0555L41.4689 23.8981C41.2617 23.2606 41.2365 22.6107 41.3684 22.0015C41.7452 20.2368 43.4377 19.0687 45.2338 19.21L49.1023 19.5146C49.7712 19.568 50.3646 19.0844 50.4431 18.4187L50.4745 14.4968C50.4777 13.7558 51.5013 13.5674 51.7714 14.2582L51.9001 14.5847C51.7023 14.6884 51.5516 14.8925 51.5516 15.1719L51.5202 19.0938C51.4417 19.7595 50.8482 20.2431 50.1794 20.1897L46.3108 19.8851C44.5147 19.7438 42.8223 20.9119 42.4455 22.6766C42.3136 23.2858 42.3387 23.9358 42.5459 24.5732L43.7297 28.7306Z" fill="white"/>
</g>
<path d="M45.5517 30.5739C43.9534 30.5739 42.509 29.5157 42.0631 27.9394L40.8825 23.7914C40.6564 23.0912 40.6187 22.3501 40.7726 21.6405C41.1965 19.6591 43.0868 18.2901 45.1718 18.4533L49.0403 18.7579C49.4359 18.7893 49.7782 18.5161 49.8379 18.1299L49.8661 14.2394C49.8693 13.6679 50.2649 13.1969 50.827 13.0902C51.389 12.9865 51.9291 13.2849 52.1364 13.8187L54.8745 20.8272C55.2136 21.6279 55.1822 22.548 54.7834 23.333C54.3846 24.1211 53.6656 24.6895 52.8052 24.8936L49.1376 25.7696L49.191 25.9643C49.4642 26.9628 49.2978 28.0304 48.7357 28.8971C48.1736 29.7637 47.2662 30.3509 46.2425 30.5079L46.1044 30.5299C45.9191 30.5613 45.7338 30.5739 45.5517 30.5739ZM44.8295 19.4487C43.3537 19.4487 42.0569 20.4441 41.7554 21.854C41.6392 22.391 41.6706 22.9562 41.8433 23.49C41.8465 23.4962 41.8465 23.5025 41.8496 23.5088L43.0334 27.6662C43.3945 28.9348 44.6474 29.7386 45.9505 29.5377L46.0887 29.5157C46.8266 29.4026 47.4828 28.9787 47.8879 28.3539C48.293 27.729 48.4154 26.9566 48.2176 26.2344L48.0261 25.5373C47.9884 25.4054 48.0072 25.2641 48.0794 25.1479C48.1485 25.0317 48.2647 24.9469 48.3966 24.9155L52.5728 23.9201C53.1412 23.7851 53.6216 23.4083 53.8854 22.8839C54.1491 22.3627 54.1711 21.7535 53.9419 21.2134L51.1975 14.1892C51.163 14.1044 51.1002 14.0667 51.0091 14.0856C50.918 14.1013 50.8741 14.1578 50.8741 14.2488L50.8427 18.1707C50.8427 18.1896 50.8427 18.2084 50.8395 18.2273C50.7296 19.1661 49.9038 19.8412 48.9587 19.7659L45.0901 19.4613C45.0022 19.4519 44.9143 19.4487 44.8295 19.4487Z" fill="#111111"/>
<path d="M48.6257 25.8951L45.6992 26.0741L48.3902 24.9123C48.6509 24.7992 48.9523 24.9186 49.0622 25.1792C49.1752 25.4398 49.0559 25.7413 48.7953 25.8512C48.7419 25.8763 48.6823 25.8888 48.6257 25.8951Z" fill="#111111"/>
<path d="M41.4369 24.2403C41.2736 24.2403 41.1229 24.143 41.0601 23.9828C41.0318 23.9106 41.0067 23.8415 40.9847 23.7756C40.9125 23.5652 41.0255 23.336 41.2359 23.2638C41.4463 23.1915 41.6755 23.3046 41.7477 23.515C41.7666 23.5746 41.7886 23.6343 41.8137 23.6939C41.8953 23.9012 41.7917 24.1367 41.5813 24.2152C41.5342 24.2309 41.484 24.2403 41.4369 24.2403Z" fill="#111111"/>
<g opacity="0.2">
<path opacity="0.2" d="M47.2409 21.3201C47.467 21.8225 46.682 22.0926 45.7525 22.5102C44.8231 22.9278 44.0977 23.336 43.8717 22.8336C43.6456 22.3312 44.2171 21.5839 45.1465 21.1663C46.0791 20.7486 47.0148 20.8177 47.2409 21.3201Z" fill="white"/>
</g>
<path d="M8.76576 13.7088C8.17543 13.0148 8.23195 11.9378 8.89136 11.3098C9.4283 10.7979 10.2008 10.6975 10.8288 10.9863C10.9544 11.0429 11.0831 10.9298 11.036 10.7979C10.8099 10.1385 10.9889 9.37551 11.5572 8.89508C12.2826 8.27964 13.4099 8.37384 14.0253 9.09919C14.4524 9.60473 14.5434 10.2798 14.3205 10.8607C14.1541 11.2878 14.2702 11.7745 14.578 12.1136L16.0412 13.7307L13.3471 16.1674L11.9309 14.6005C11.6075 14.2426 11.1019 14.0887 10.6404 14.2394C9.98723 14.4529 9.2399 14.2708 8.76576 13.7088Z" fill="white"/>
<path d="M13.3429 16.2836L11.8702 14.657C11.5593 14.3148 11.0883 14.1797 10.6644 14.3179C9.95478 14.5503 9.18547 14.3305 8.70505 13.7621C8.08646 13.0336 8.14613 11.9095 8.83693 11.2532C9.38644 10.732 10.1809 10.6001 10.8654 10.9141C10.8937 10.9267 10.9251 10.9235 10.9439 10.9047C10.9533 10.8953 10.9753 10.8701 10.9596 10.8293C10.7115 10.1102 10.9251 9.32838 11.506 8.83539C12.2627 8.19169 13.4434 8.29217 14.0871 9.04892C14.5204 9.56074 14.6397 10.2672 14.3948 10.8921C14.2472 11.2783 14.3414 11.7368 14.6366 12.0633L16.1532 13.7401L13.3429 16.2836ZM11.0036 14.1012C11.3678 14.1012 11.732 14.2582 11.9927 14.5471L13.3554 16.0543L15.9271 13.7276L14.5204 12.1733C14.1844 11.8027 14.0776 11.2783 14.2504 10.8356C14.4702 10.2673 14.3634 9.62354 13.9677 9.15568C13.3837 8.46487 12.3067 8.37695 11.6159 8.961C11.0883 9.41002 10.8937 10.1197 11.1197 10.7759C11.1511 10.867 11.1292 10.9612 11.0601 11.024C10.991 11.0868 10.8905 11.1025 10.8026 11.0617C10.1777 10.7728 9.45238 10.8953 8.95311 11.3694C8.32197 11.9691 8.26859 12.9928 8.83379 13.6553C9.2734 14.1735 9.97362 14.3713 10.6205 14.1609C10.7429 14.1232 10.8717 14.1012 11.0036 14.1012Z" fill="#111111"/>
<g opacity="0.3">
<path opacity="0.3" d="M14.0265 9.10232C14.4536 9.60786 14.5478 10.283 14.3217 10.8607C14.1553 11.2878 14.2715 11.7745 14.5792 12.1168L16.0424 13.7307L15.0408 14.6382L13.5964 13.0399C13.2886 12.7008 13.1725 12.2141 13.3389 11.787C13.565 11.2061 13.4708 10.531 13.0437 10.0255C12.5601 9.45714 11.7626 9.27816 11.0938 9.52622C11.1974 9.29072 11.3544 9.07406 11.5648 8.89508C12.287 8.28277 13.4111 8.37697 14.0265 9.10232Z" fill="#111111"/>
</g>
<path d="M13.3475 16.673C13.338 16.673 13.3318 16.673 13.3223 16.673C13.1873 16.6667 13.0617 16.607 12.9738 16.5065L11.5576 14.9397C11.3598 14.7199 11.0615 14.6351 10.7978 14.7199C9.92169 15.0056 8.97654 14.7356 8.38307 14.0353C7.62318 13.1404 7.6954 11.7557 8.54635 10.9455C9.06446 10.4526 9.76154 10.2422 10.4429 10.3489C10.4053 9.65499 10.6879 8.97988 11.2374 8.51202C12.17 7.72073 13.6238 7.84005 14.4151 8.77264C14.9489 9.40378 15.0933 10.2736 14.795 11.0429C14.704 11.2784 14.7668 11.5673 14.9552 11.7745L16.4184 13.3916C16.6068 13.5989 16.588 13.916 16.3839 14.1044L13.6897 16.5411C13.5924 16.6259 13.4731 16.673 13.3475 16.673ZM11.0019 13.6805C11.4854 13.6805 11.9627 13.8878 12.305 14.2646L13.3851 15.4578L15.3288 13.6962L14.2047 12.4559C13.7619 11.9661 13.6238 11.269 13.853 10.6818C14.0163 10.2579 13.9378 9.77745 13.6426 9.4289C13.2062 8.91394 12.4023 8.848 11.8873 9.28446C11.4917 9.61731 11.3473 10.1511 11.5168 10.641C11.6047 10.8859 11.5357 11.1622 11.3441 11.338C11.1494 11.517 10.8668 11.561 10.6251 11.4479C10.1572 11.2344 9.6171 11.3223 9.24344 11.6772C8.77244 12.1231 8.73475 12.8892 9.15238 13.3822C9.47894 13.7684 10.0033 13.916 10.4838 13.759C10.6533 13.7056 10.826 13.6805 11.0019 13.6805ZM10.5591 10.9644C10.5591 10.9675 10.5623 10.9707 10.5623 10.9738C10.5623 10.9707 10.5623 10.9675 10.5591 10.9644Z" fill="#111111"/>
<path d="M14.7614 19.2226L13.3641 17.6777C12.9465 17.2161 12.981 16.5002 13.4426 16.0795L15.9546 13.8061C16.4162 13.3884 17.1321 13.423 17.5529 13.8846L18.9502 15.4295C19.5594 16.1046 20.3915 16.5253 21.2895 16.6635C25.8551 17.3669 30.5118 21.4677 29.956 26.25C29.6263 29.0761 27.2776 31.2019 24.4327 31.249C19.619 31.3275 15.9986 26.2846 15.7568 21.6719C15.7097 20.7644 15.3706 19.8977 14.7614 19.2226Z" fill="#E21A3D"/>
<g opacity="0.3">
<path opacity="0.3" d="M17.5523 13.8877L18.9496 15.4326C19.5588 16.1046 20.3909 16.5254 21.2889 16.6635C25.8545 17.3638 30.5112 21.4678 29.9554 26.2501C29.7262 28.222 28.5141 29.8517 26.8374 30.6712C27.3209 30.0369 27.6757 29.2896 27.861 28.4606C28.9004 23.76 24.6833 19.207 20.2119 18.0451C19.3327 17.8159 18.5477 17.3135 18.0107 16.5819L16.7767 14.9051C16.4062 14.3996 15.6965 14.2928 15.1941 14.6633L14.2207 15.3793L15.9571 13.8092C16.4187 13.3885 17.1347 13.4262 17.5523 13.8877Z" fill="#111111"/>
</g>
<g opacity="0.55">
<path opacity="0.55" d="M14.0755 15.7058C13.8212 16.1234 13.8588 16.6698 14.2042 17.0529L15.6016 18.5946C16.2107 19.2697 16.5498 20.1395 16.5969 21.047C16.7602 24.118 18.4182 27.3805 20.9302 29.1954C21.6587 28.894 22.8299 29.1483 22.9869 30.263C23.7091 30.5048 24.4753 30.6335 25.2729 30.621C26.6419 30.599 27.8979 30.0966 28.8682 29.2613C27.8477 30.464 26.3373 31.2176 24.6511 31.2458C19.8375 31.3212 16.2201 26.2814 15.9752 21.6687C15.9281 20.7613 15.5921 19.8915 14.9798 19.2195L13.5825 17.6746C13.1649 17.213 13.1994 16.4971 13.6642 16.0795L14.0755 15.7058Z" fill="white"/>
</g>
<path d="M24.3228 31.7545C19.2862 31.7545 15.5056 26.4855 15.2513 21.7001C15.2073 20.89 14.9027 20.1301 14.3878 19.5617L12.9905 18.0168C12.3844 17.348 12.4378 16.3118 13.1066 15.7058L15.6187 13.4324C15.9421 13.1404 16.3628 12.9896 16.7962 13.0116C17.2326 13.0336 17.6346 13.2252 17.9266 13.5486L19.3239 15.0935C19.8389 15.6618 20.5642 16.0418 21.3681 16.1674C26.1409 16.9021 31.0488 21.2479 30.4585 26.3097C30.1036 29.3649 27.5162 31.7042 24.4422 31.7545C24.4013 31.7545 24.3637 31.7545 24.3228 31.7545ZM16.7145 14.0196C16.5575 14.0196 16.4099 14.0761 16.2938 14.1829L13.7817 16.4562C13.5243 16.6886 13.5054 17.0843 13.7378 17.3417L15.1351 18.8866C15.8039 19.6277 16.2027 20.6074 16.2592 21.6499C16.4885 25.98 19.8483 30.7497 24.3197 30.7497C24.3542 30.7497 24.3888 30.7497 24.4233 30.7497C27.0358 30.7057 29.1522 28.7934 29.4536 26.1966C29.978 21.7032 25.5317 17.8316 21.2111 17.1659C20.1811 17.0089 19.2423 16.5128 18.5734 15.7717L17.1761 14.2268C17.0631 14.1012 16.9092 14.029 16.7428 14.0227C16.7365 14.0196 16.724 14.0196 16.7145 14.0196Z" fill="#111111"/>
<g opacity="0.2">
<path opacity="0.2" d="M19.1975 22.5856C19.7345 22.102 20.3845 22.9718 21.2825 23.9672C22.1774 24.9595 22.9781 25.6974 22.4412 26.1809C21.9042 26.6645 20.7424 26.2532 19.8475 25.2609C18.9495 24.2655 18.6606 23.0692 19.1975 22.5856Z" fill="white"/>
</g>
<path d="M52.4812 27.7321H15.6235C14.6219 27.7321 13.8086 26.9189 13.8086 25.9172C13.8086 24.9155 14.6219 24.1023 15.6235 24.1023H52.4781C53.4798 24.1023 54.293 24.9155 54.293 25.9172C54.2962 26.9189 53.4829 27.7321 52.4812 27.7321Z" fill="white"/>
<g opacity="0.3">
<path opacity="0.3" d="M54.2957 25.9172C54.2957 26.4196 54.0916 26.8718 53.7619 27.2015C53.4322 27.5312 52.98 27.7353 52.4776 27.7353H47.2871C47.7864 27.7353 48.2448 27.5312 48.5714 27.2015C48.9011 26.8718 49.1052 26.4196 49.1052 25.9172C49.1052 24.9155 48.2919 24.1023 47.2903 24.1023H52.4807C53.4824 24.0991 54.2957 24.9124 54.2957 25.9172Z" fill="#111111"/>
</g>
<g opacity="0.55">
<path opacity="0.55" d="M17.4424 27.7322H15.6274C14.6258 27.7322 13.8125 26.9189 13.8125 25.9172C13.8125 25.4148 14.0166 24.9627 14.3463 24.633C14.676 24.3033 15.1282 24.0992 15.6306 24.0992H17.4455C16.9431 24.0992 16.4909 24.3033 16.1612 24.633C15.8315 24.9627 15.6274 25.4148 15.6274 25.9172C15.6243 26.9189 16.4376 27.7322 17.4424 27.7322Z" fill="white"/>
</g>
<path d="M52.4809 28.2377H15.6232C14.3452 28.2377 13.3027 27.1984 13.3027 25.9172C13.3027 24.6361 14.3421 23.5967 15.6232 23.5967H52.4778C53.7558 23.5967 54.7983 24.6361 54.7983 25.9172C54.7983 27.1984 53.7589 28.2377 52.4809 28.2377ZM15.6232 24.6047C14.901 24.6047 14.3107 25.1919 14.3107 25.9172C14.3107 26.6394 14.8979 27.2298 15.6232 27.2298H52.4778C53.2 27.2298 53.7903 26.6426 53.7903 25.9172C53.7903 25.195 53.2031 24.6047 52.4778 24.6047H15.6232Z" fill="#111111"/>
<path d="M52.5487 27.7321L51.2832 40.5749L50.404 49.502L49.5185 58.4951L48.5891 67.9277C48.3755 70.11 46.5386 71.7711 44.3469 71.7711H23.8268C21.635 71.7711 19.7981 70.11 19.5846 67.9277L17.9486 51.3232L17.0663 42.3678L15.625 27.7353H52.5487V27.7321Z" fill="#111111"/>
<path d="M51.2833 40.5749L50.4041 49.4989L49.7071 49.2539L43.1632 51.6749L36.6194 49.2539L30.0756 51.6749L23.5349 49.2539L17.9488 51.3201L17.0664 42.3647L23.5317 39.972L30.0756 42.393L36.6194 39.972L43.1601 42.393L49.7039 39.972L51.2833 40.5749Z" fill="#E9E9E9"/>
<g opacity="0.3">
<path opacity="0.3" d="M52.5487 27.7321L52.3194 30.0715L49.5185 58.4951L48.5891 67.9277C48.3755 70.11 46.5386 71.7711 44.3469 71.7711H28.4991C37.2692 71.3001 43.2573 67.9026 44.2181 59.211L46.322 37.8713C46.7584 33.4282 43.4269 29.5063 38.9711 29.2205L15.625 27.7321H52.5487Z" fill="#111111"/>
</g>
<g opacity="0.55">
<path opacity="0.55" d="M25.3057 71.768H23.8268C21.635 71.768 19.7981 70.1069 19.5846 67.9246L15.625 27.7321H17.104L21.0635 67.9246C21.2802 70.1069 23.114 71.768 25.3057 71.768Z" fill="white"/>
</g>
<path d="M44.3455 72.2735H23.8254C21.3605 72.2735 19.3226 70.424 19.0808 67.9717L15.1212 27.7792C15.1087 27.6379 15.1526 27.4966 15.25 27.3899C15.3442 27.2831 15.4823 27.2234 15.6236 27.2234H52.5473C52.6886 27.2234 52.8268 27.2831 52.921 27.3899C53.0152 27.4966 53.0623 27.6379 53.0497 27.7792L49.0901 67.9717C48.8483 70.4272 46.8105 72.2735 44.3455 72.2735ZM16.1794 28.2377L20.0856 67.8775C20.2772 69.8117 21.8849 71.2687 23.8254 71.2687H44.3455C46.2892 71.2687 47.8969 69.8117 48.0853 67.8775L51.9915 28.2377H16.1794Z" fill="#111111"/>
<path d="M12.0207 52.9497L8.83984 52.7958L9.64683 37.4662C9.67195 36.9638 10.099 36.5744 10.6014 36.5995L11.961 36.6655C12.4634 36.6906 12.8528 37.1176 12.8277 37.62L12.0207 52.9497Z" fill="#F0F712"/>
<g opacity="0.3">
<path opacity="0.3" d="M12.9546 37.6357L12.1477 52.9622L8.9668 52.8084L8.96994 52.7456L10.9576 52.8429L11.5228 42.4934L11.6233 40.4115L11.7646 37.5164C11.7834 37.1302 11.5636 36.7879 11.2308 36.6404L12.088 36.6812C12.5935 36.7032 12.9798 37.1302 12.9546 37.6357Z" fill="#111111"/>
</g>
<g opacity="0.55">
<path opacity="0.55" d="M10.5229 37.6703L9.72219 52.8367L8.83984 52.7927L9.64683 37.4631C9.67195 36.9607 10.099 36.5713 10.6014 36.5964L11.961 36.6624C12.1557 36.6718 12.3316 36.7409 12.4729 36.8508L11.4775 36.8005C10.9751 36.7817 10.548 37.1679 10.5229 37.6703Z" fill="white"/>
</g>
<path d="M12.0231 53.383C12.0168 53.383 12.0105 53.383 12.0011 53.383L8.82022 53.2292C8.70404 53.2229 8.59728 53.1726 8.51878 53.0879C8.44028 53.0031 8.4026 52.89 8.40888 52.7739L9.21586 37.4442C9.2347 37.0863 9.38857 36.7566 9.65547 36.5148C9.92237 36.273 10.2646 36.1505 10.6257 36.1662L11.9854 36.2322C12.7264 36.2698 13.2979 36.901 13.2634 37.642L12.4564 52.9717C12.4438 53.2009 12.2523 53.383 12.0231 53.383ZM9.2975 52.3814L11.6117 52.4944L12.3967 37.5981C12.4093 37.3375 12.2052 37.1114 11.9414 37.0988L10.5818 37.0329C10.453 37.0266 10.3306 37.0706 10.2364 37.1553C10.1422 37.2401 10.0857 37.3594 10.0794 37.485L9.2975 52.3814Z" fill="#111111"/>
<path d="M7.68647 52.6106L4.52446 52.9936L2.74092 37.7488C2.68126 37.2495 3.03608 36.7942 3.53535 36.7346L4.88556 36.5713C5.38483 36.5116 5.84013 36.8664 5.89979 37.3657L7.68647 52.6106Z" fill="#F0F712"/>
<g opacity="0.3">
<path opacity="0.3" d="M6.03196 37.3594L7.8155 52.6043L4.65663 52.9874L4.65035 52.9246L6.62543 52.6859L5.44164 42.3898L5.19043 40.3205L4.84189 37.4411C4.79479 37.058 4.51847 36.7565 4.16992 36.6686L5.02087 36.565C5.517 36.5022 5.9723 36.857 6.03196 37.3594Z" fill="#111111"/>
</g>
<g opacity="0.55">
<path opacity="0.55" d="M3.63897 37.8022L5.40053 52.8869L4.52446 52.9937L2.74092 37.7488C2.68126 37.2495 3.03608 36.7942 3.53535 36.7346L4.88556 36.5713C5.0771 36.5462 5.26237 36.587 5.42251 36.6686L4.4334 36.788C3.93727 36.8476 3.58245 37.3029 3.63897 37.8022Z" fill="white"/>
</g>
<path d="M4.52413 53.427C4.42679 53.427 4.33258 53.3956 4.25722 53.3328C4.16616 53.2605 4.10964 53.1569 4.09394 53.0439L2.3104 37.799C2.22248 37.0643 2.74687 36.3923 3.48478 36.3044L4.83499 36.1411C5.56976 36.05 6.24173 36.5775 6.33279 37.3155L8.11633 52.5635C8.14459 52.799 7.97502 53.0156 7.73952 53.0439L4.57751 53.427C4.55867 53.4238 4.54297 53.427 4.52413 53.427ZM4.99827 36.9952C4.97943 36.9952 4.96059 36.9952 4.94175 36.9983L3.59154 37.1616C3.33092 37.193 3.14251 37.4316 3.17391 37.6954L4.90721 52.5101L7.20885 52.2306L5.47556 37.4128C5.44416 37.1742 5.23691 36.9952 4.99827 36.9952Z" fill="#111111"/>
<path d="M18.6694 45.624L15.5137 45.1907L16.9832 34.4674C17.0523 33.9682 17.5107 33.6196 18.01 33.6887L19.3602 33.874C19.8595 33.9431 20.208 34.4015 20.1389 34.9008L18.6694 45.624Z" fill="#F0F712"/>
<g opacity="0.3">
<path opacity="0.3" d="M18.7952 45.649L15.6426 45.2157L15.6489 45.1529L17.6208 45.4229L18.4152 39.6359C18.0447 38.8697 18.1326 38.182 18.6978 37.5729L19.0903 34.6997C19.1437 34.3166 18.9522 33.9587 18.635 33.7828L19.486 33.899C19.9852 33.9681 20.3338 34.4265 20.2647 34.9258L18.7952 45.649Z" fill="#6B184E"/>
<path opacity="0.3" d="M18.8635 45.7402L15.5508 45.2849L15.5759 45.0588L17.5478 45.3288L18.3266 39.6454C17.956 38.8635 18.0534 38.1507 18.6155 37.5321L19.0048 34.6841C19.0519 34.3419 18.8886 34.0153 18.5903 33.8489L18.2135 33.6385L19.4915 33.8143C19.7553 33.8489 19.9876 33.987 20.1478 34.1974C20.3079 34.4078 20.377 34.6684 20.3393 34.9322L18.8635 45.7402ZM17.7048 45.4168L18.7285 45.5581L20.1855 34.9165C20.2169 34.6967 20.1572 34.4769 20.0253 34.301C19.8903 34.1252 19.6956 34.0122 19.4758 33.9808L18.92 33.9054C19.1179 34.1189 19.2121 34.4109 19.1712 34.7124L18.7725 37.6106L18.7536 37.6295C18.2135 38.2135 18.1256 38.8572 18.4836 39.6014L18.493 39.6234L17.7048 45.4168Z" fill="#111111"/>
</g>
<g opacity="0.55">
<path opacity="0.55" d="M17.8373 34.7501L16.3897 45.3132L15.5137 45.1938L16.9832 34.4706C17.0523 33.9714 17.5107 33.6228 18.01 33.6919L19.3571 33.8772C19.5486 33.9023 19.7182 33.9871 19.8501 34.1095L18.8609 33.9745C18.368 33.9023 17.9095 34.2508 17.8373 34.7501Z" fill="white"/>
</g>
<path d="M18.6739 46.0573C18.655 46.0573 18.6331 46.0573 18.6142 46.0542L15.4585 45.6208C15.3454 45.6051 15.2418 45.5455 15.1727 45.4544C15.1037 45.3634 15.0723 45.2472 15.088 45.1341L16.5575 34.4109C16.658 33.6762 17.3394 33.1612 18.071 33.2617L19.4212 33.4469C20.156 33.5474 20.6709 34.2257 20.5705 34.9604L19.1009 45.6836C19.0727 45.9003 18.8843 46.0573 18.6739 46.0573ZM16.0048 44.8201L18.3002 45.1341L19.7101 34.8411C19.7446 34.5805 19.5625 34.3387 19.3019 34.301L17.9517 34.1158C17.691 34.0781 17.4493 34.2633 17.4116 34.524L16.0048 44.8201Z" fill="#111111"/>
<path d="M9.35892 52.2275L6.17807 52.397L5.59716 41.589C5.5689 41.0866 5.95512 40.6564 6.45753 40.6313L7.81716 40.5591C8.31957 40.5308 8.74975 40.9171 8.77487 41.4195L9.35892 52.2275Z" fill="#F0F712"/>
<g opacity="0.3">
<path opacity="0.3" d="M9.48749 52.2275L6.30978 52.3971L6.30664 52.3343L8.29428 52.2275L7.98028 46.3933C7.47159 45.7119 7.42763 45.018 7.86724 44.3146L7.71023 41.4195C7.68825 41.0333 7.43391 40.7161 7.09165 40.6031L7.94888 40.556C8.45128 40.5277 8.88147 40.914 8.90973 41.4164L9.48749 52.2275Z" fill="#111111"/>
</g>
<g opacity="0.55">
<path opacity="0.55" d="M6.49283 41.7052L7.06432 52.35L6.18197 52.3971L5.60107 41.5891C5.57281 41.0867 5.95903 40.6565 6.46143 40.6282L7.82107 40.556C8.01575 40.5434 8.19787 40.5968 8.3486 40.691L7.3532 40.7444C6.8508 40.7726 6.46771 41.1997 6.49283 41.7052Z" fill="white"/>
</g>
<path d="M6.18214 52.8304C5.95292 52.8304 5.76137 52.6514 5.74881 52.419L5.16791 41.611C5.14907 41.2531 5.27153 40.9077 5.51017 40.6408C5.74881 40.3739 6.07852 40.2169 6.43962 40.198L7.79926 40.1258C8.15722 40.107 8.50262 40.2294 8.76953 40.4681C9.03643 40.7067 9.19343 41.0364 9.21541 41.3975L9.79632 52.2055C9.8026 52.3217 9.76178 52.4316 9.68642 52.5195C9.61106 52.6043 9.50115 52.6577 9.38811 52.6639L6.20726 52.8335C6.19784 52.8304 6.18842 52.8304 6.18214 52.8304ZM7.87148 40.9893C7.86206 40.9893 7.85264 40.9893 7.84636 40.9893L6.48672 41.0615C6.35798 41.0678 6.2418 41.1243 6.15702 41.2185C6.07224 41.3127 6.02828 41.4352 6.03456 41.5639L6.59348 51.9386L8.90769 51.813L8.34876 41.4383C8.34248 41.3096 8.28596 41.1934 8.19176 41.1086C8.1007 41.0333 7.98766 40.9893 7.87148 40.9893Z" fill="#111111"/>
<path d="M14.5948 56.9375L11.4297 56.5984L13.1316 41.3441C13.185 40.8449 13.634 40.4806 14.1364 40.534L15.4898 40.6784C15.989 40.7318 16.3533 41.1809 16.2999 41.6833L14.5948 56.9375Z" fill="#F0F712"/>
<g opacity="0.3">
<path opacity="0.3" d="M16.4217 41.7052L14.7198 56.9595L11.5547 56.6204L11.561 56.5576L13.5392 56.768L14.7073 46.4687L14.9302 44.3963L15.2411 41.5137C15.2819 41.1275 15.0809 40.7758 14.7607 40.6094L15.6116 40.7004C16.114 40.7538 16.4783 41.2028 16.4217 41.7052Z" fill="#111111"/>
</g>
<g opacity="0.55">
<path opacity="0.55" d="M13.9912 41.5985L12.305 56.6926L11.4258 56.5984L13.1277 41.3441C13.1811 40.8417 13.6301 40.4806 14.1325 40.534L15.4858 40.6785C15.6774 40.6973 15.8501 40.7789 15.9851 40.8951L14.9929 40.7884C14.4967 40.735 14.0477 41.0961 13.9912 41.5985Z" fill="white"/>
</g>
<path d="M14.5952 57.3709C14.5795 57.3709 14.5638 57.3709 14.5481 57.3677L11.3829 57.0286C11.2699 57.0161 11.1631 56.9595 11.0909 56.8685C11.0187 56.7774 10.9841 56.6644 10.9967 56.5482L12.6986 41.2939C12.7363 40.9391 12.9121 40.6188 13.1916 40.3927C13.471 40.1666 13.8227 40.063 14.1807 40.1038L15.534 40.2483C16.2719 40.3268 16.8057 40.9925 16.7272 41.7304L15.0253 56.9878C15.0002 57.2076 14.8118 57.3709 14.5952 57.3709ZM11.9073 56.2122L14.2121 56.4603L15.8669 41.633C15.8951 41.3724 15.7036 41.1369 15.443 41.1086L14.0896 40.9642C13.9609 40.9516 13.8384 40.9862 13.7379 41.0678C13.6374 41.1495 13.5746 41.2625 13.5621 41.3881L11.9073 56.2122Z" fill="#111111"/>
<path d="M23.714 53.6374L20.5488 53.2982L22.2507 38.044C22.3041 37.5447 22.7531 37.1805 23.2555 37.2338L24.6089 37.3783C25.1082 37.4317 25.4724 37.8807 25.419 38.3831L23.714 53.6374Z" fill="#F0F712"/>
<g opacity="0.3">
<path opacity="0.3" d="M25.5409 38.405L23.839 53.6593L20.6738 53.3202L20.6801 53.2574L22.6583 53.4678L23.8264 43.1685L24.0494 41.0961L24.3602 38.2135C24.401 37.8273 24.2001 37.4756 23.8798 37.3092L24.7307 37.4002C25.2332 37.4536 25.5943 37.9026 25.5409 38.405Z" fill="#111111"/>
</g>
<g opacity="0.55">
<path opacity="0.55" d="M23.1103 38.2983L21.4241 53.3924L20.5449 53.2982L22.2468 38.0439C22.3002 37.5415 22.7492 37.1804 23.2516 37.2338L24.605 37.3782C24.7965 37.3971 24.9692 37.4787 25.1042 37.5949L24.112 37.4882C23.6159 37.4348 23.1668 37.7959 23.1103 38.2983Z" fill="white"/>
</g>
<path d="M23.7123 54.0707C23.6966 54.0707 23.6809 54.0707 23.6652 54.0675L20.5001 53.7284C20.387 53.7159 20.2803 53.6593 20.2081 53.5683C20.1358 53.4772 20.1013 53.3642 20.1139 53.248L21.8158 37.9937C21.8534 37.6389 22.0293 37.3186 22.3087 37.0925C22.5882 36.8664 22.9399 36.7628 23.2979 36.8036L24.6512 36.9481C25.3891 37.0266 25.9229 37.6923 25.8444 38.4302L24.1425 53.6876C24.1174 53.9074 23.929 54.0707 23.7123 54.0707ZM21.0245 52.912L23.3293 53.1601L24.9841 38.3328C25.0123 38.0722 24.8208 37.8367 24.5601 37.8084L23.2068 37.664C23.0812 37.6514 22.9556 37.686 22.8551 37.7676C22.7546 37.8493 22.6918 37.9623 22.6793 38.0879L21.0245 52.912Z" fill="#111111"/>
<path d="M22.3478 51.543L19.1638 51.6434L18.8247 40.826C18.809 40.3236 19.2046 39.9029 19.707 39.8872L21.0667 39.8432C21.5691 39.8275 21.9898 40.2231 22.0055 40.7255L22.3478 51.543Z" fill="#F0F712"/>
<g opacity="0.3">
<path opacity="0.3" d="M22.4731 51.5461L19.2922 51.6466L19.2891 51.5838L21.2767 51.521L21.0946 45.6836C20.6016 44.9897 20.5733 44.2989 21.0286 43.6018L20.9376 40.7035C20.925 40.3173 20.677 39.997 20.3347 39.8746L21.1919 39.8495C21.6975 39.8338 22.1151 40.2294 22.1308 40.7318L22.4731 51.5461Z" fill="#111111"/>
</g>
<g opacity="0.55">
<path opacity="0.55" d="M19.7133 40.9579L20.0461 51.6152L19.1638 51.6434L18.8247 40.826C18.809 40.3205 19.2046 39.9029 19.707 39.8872L21.0667 39.8432C21.2613 39.8369 21.4403 39.8934 21.591 39.9908L20.5956 40.0222C20.0932 40.0347 19.7007 40.4555 19.7133 40.9579Z" fill="white"/>
</g>
<path d="M19.1627 52.0768C19.0528 52.0768 18.946 52.036 18.8675 51.9606C18.7828 51.8821 18.7357 51.7722 18.7325 51.6592L18.3934 40.8417C18.3808 40.4838 18.5127 40.1415 18.7576 39.8777C19.0026 39.6171 19.3354 39.4664 19.6965 39.4538L21.0561 39.4099C21.411 39.4005 21.7564 39.5292 22.0201 39.7741C22.2808 40.019 22.4315 40.3519 22.444 40.713L22.7832 51.5304C22.7894 51.769 22.6042 51.97 22.3624 51.9763L19.1784 52.0768C19.1721 52.0768 19.1658 52.0768 19.1627 52.0768ZM21.097 40.2765C21.0907 40.2765 21.0875 40.2765 21.0813 40.2765L19.7216 40.3205C19.5929 40.3236 19.4767 40.377 19.3888 40.4712C19.3009 40.5654 19.2569 40.6847 19.26 40.8135L19.5835 51.1976L21.9008 51.1253L21.5774 40.7413C21.5743 40.6125 21.5209 40.4963 21.4267 40.4084C21.3325 40.3205 21.2194 40.2765 21.097 40.2765Z" fill="#111111"/>
<path d="M17.3977 54.9279L14.2891 54.2308L16.6598 43.6709C16.7697 43.1811 17.2564 42.8702 17.7494 42.9801L19.0776 43.2784C19.5675 43.3883 19.8783 43.875 19.7684 44.368L17.3977 54.9279Z" fill="#F0F712"/>
<g opacity="0.3">
<path opacity="0.3" d="M17.5235 54.9656L14.418 54.2685L14.4305 54.2057L16.3711 54.6422L17.6491 48.943C17.3445 48.1486 17.4889 47.4703 18.1044 46.9114L18.7387 44.0822C18.8234 43.7054 18.6633 43.3318 18.3619 43.1277L19.2002 43.3161C19.6932 43.426 20.0009 43.9127 19.891 44.4056L17.5235 54.9656Z" fill="#6B184E"/>
<path opacity="0.3" d="M17.5828 55.0629L14.3203 54.3313L14.3674 54.1084L16.3111 54.5448L17.5671 48.9493C17.2657 48.1392 17.4227 47.4389 18.035 46.8706L18.6661 44.0665C18.7415 43.7305 18.6065 43.3883 18.3239 43.1999L17.9659 42.9581L19.225 43.2407C19.4857 43.2972 19.7055 43.4542 19.8468 43.6772C19.9881 43.9001 20.0352 44.167 19.9755 44.4276L17.5828 55.0629ZM16.4524 54.6422L17.4603 54.8682L19.8122 44.3868C19.8593 44.1702 19.8217 43.9472 19.7023 43.7588C19.583 43.5704 19.3977 43.4417 19.1811 43.3946L18.6347 43.2721C18.8137 43.5013 18.8828 43.8028 18.8168 44.0979L18.1763 46.9522L18.1574 46.9679C17.5702 47.5017 17.4258 48.1392 17.7241 48.9085L17.7335 48.9304L16.4524 54.6422Z" fill="#111111"/>
</g>
<g opacity="0.55">
<path opacity="0.55" d="M17.4895 44.0226L15.1533 54.4255L14.293 54.234L16.6637 43.674C16.7736 43.181 17.2603 42.8733 17.7533 42.9832L19.0815 43.2815C19.2699 43.3223 19.4332 43.4228 19.5525 43.5547L18.5791 43.3349C18.0893 43.2219 17.6026 43.5327 17.4895 44.0226Z" fill="white"/>
</g>
<path d="M17.399 55.3613C17.3676 55.3613 17.3362 55.3581 17.3048 55.3519L14.1962 54.6548C14.0831 54.6296 13.9858 54.5606 13.9261 54.4632C13.8665 54.3659 13.8445 54.2497 13.8696 54.1367L16.2403 43.5767C16.3188 43.225 16.5292 42.9267 16.8338 42.7352C17.1384 42.5437 17.4963 42.4808 17.848 42.5593L19.1763 42.8577C19.5279 42.9362 19.8263 43.1465 20.0178 43.4511C20.2093 43.7557 20.2721 44.1137 20.1936 44.4653L17.8229 55.0253C17.7978 55.1383 17.7287 55.2357 17.6314 55.2953C17.5623 55.3393 17.4806 55.3613 17.399 55.3613ZM14.8116 53.9043L17.0724 54.413L19.349 44.2738C19.3772 44.1482 19.3552 44.0226 19.2862 43.9127C19.2171 43.8059 19.1103 43.7306 18.9879 43.7023L17.6596 43.404C17.534 43.3758 17.4053 43.3977 17.2985 43.4668C17.1918 43.5359 17.1164 43.6427 17.0881 43.7651L14.8116 53.9043Z" fill="#111111"/>
<path d="M27.7091 47.1501L26.0605 57.396L25.4325 61.299L23.9253 70.6783C23.8217 71.3283 23.2628 71.8025 22.6034 71.8025H20.5058C20.2358 71.8025 19.9689 71.7208 19.7553 71.5575C16.3013 68.9105 11.9398 69.0518 8.50461 71.5481C8.28167 71.7114 8.0179 71.8025 7.74158 71.8025H5.62834C4.96893 71.8025 4.41001 71.3252 4.30325 70.6783L2.86511 61.7386L2.1429 57.2421L0.519506 47.1501C0.387624 46.3368 1.01563 45.5989 1.84146 45.5989H3.58104C3.99866 45.5989 4.39117 45.7936 4.64237 46.1264C7.06648 49.3041 10.0652 51.141 14.1096 50.9778C18.1665 50.9275 21.1527 49.3041 23.5768 46.1264C23.828 45.7936 24.2205 45.5989 24.6381 45.5989H26.3777C27.2129 45.5989 27.8409 46.3368 27.7091 47.1501Z" fill="#E21A3D"/>
<path d="M26.0641 57.396L25.433 61.299L24.3497 60.8123L20.4309 62.7277L16.5153 60.8123L12.5965 62.7277L8.68089 60.8123L4.76213 62.7277L2.86869 61.7386L2.14648 57.2421L4.76213 58.4133L8.67775 56.4979L12.5934 58.4133L16.509 56.4979L20.4309 58.4133L24.3465 56.4979L26.0641 57.396Z" fill="white"/>
<g opacity="0.55">
<path opacity="0.55" d="M5.60704 71.052C5.64472 71.275 5.73264 71.4791 5.86138 71.6455H5.48772C4.82831 71.6455 4.26938 71.1682 4.16262 70.5213L0.378881 46.9931C0.246999 46.1798 0.875007 45.4419 1.70084 45.4419H3.44041C3.85804 45.4419 4.25054 45.6366 4.50175 45.9694C4.50489 45.9726 4.50489 45.9726 4.50489 45.9726H3.13897C2.31314 45.9726 1.68514 46.7105 1.81702 47.5237L5.60704 71.052Z" fill="white"/>
</g>
<g opacity="0.55">
<path opacity="0.55" d="M27.1506 45.9726H25.7847C25.3671 45.9726 24.9746 46.1672 24.7234 46.5001C22.2993 49.6778 19.3163 51.3012 15.2562 51.3514C13.4632 51.4237 11.8775 51.1034 10.4551 50.4471C11.4881 50.7391 12.6029 50.8679 13.8149 50.8208C17.8718 50.7705 20.858 49.1471 23.2821 45.9694C23.5333 45.6366 23.9258 45.4419 24.3434 45.4419H26.083C26.5258 45.4419 26.9088 45.6523 27.1506 45.9726Z" fill="white"/>
</g>
<path d="M22.6042 72.308H20.5067C20.1142 72.308 19.75 72.1855 19.4517 71.9594C16.252 69.5102 12.1731 69.5071 8.8038 71.9563C8.48666 72.1855 8.11928 72.308 7.74247 72.308H5.62923C4.71862 72.308 3.95245 71.6549 3.80801 70.7568L0.0242693 47.2285C-0.0636516 46.6947 0.0902104 46.1546 0.438754 45.7402C0.790438 45.3288 1.30226 45.0902 1.84235 45.0902H3.58193C4.16283 45.0902 4.6935 45.3539 5.04518 45.8155C7.54151 49.0906 10.5026 50.6135 14.0916 50.4691C17.9099 50.422 20.7956 48.943 23.1789 45.8155C23.5211 45.3634 24.0675 45.0902 24.6421 45.0902H26.3817C26.9249 45.0902 27.4368 45.3257 27.7853 45.7402C28.137 46.1515 28.2877 46.6947 28.1998 47.2285L24.416 70.7568C24.281 71.6549 23.518 72.308 22.6042 72.308ZM14.189 69.1334C16.2582 69.1334 18.3024 69.8085 20.064 71.1556C20.1864 71.2498 20.3403 71.2969 20.5067 71.2969H22.6042C23.0187 71.2969 23.3641 71.0017 23.4269 70.5967L27.2107 47.0684C27.2484 46.8266 27.1824 46.5817 27.0223 46.3964C26.8621 46.2112 26.6329 46.1013 26.3849 46.1013H24.6453C24.3846 46.1013 24.1397 46.2237 23.9859 46.4278C21.3953 49.8222 18.2616 51.4268 14.1199 51.4801C13.9503 51.4864 13.7776 51.4896 13.6112 51.4896C9.91223 51.4896 6.83814 49.8316 4.24447 46.431C4.08747 46.2237 3.84569 46.1044 3.58507 46.1044H1.84549C1.60057 46.1044 1.3682 46.2112 1.20806 46.3996C1.05106 46.5848 0.98198 46.8298 1.01966 47.0715L4.8034 70.5998C4.86934 71.0049 5.21788 71.3 5.62923 71.3H7.74247C7.90575 71.3 8.0659 71.2435 8.21034 71.1399C10.0504 69.8022 12.1291 69.1334 14.189 69.1334Z" fill="#111111"/>
<g opacity="0.3">
<path opacity="0.3" d="M27.7237 46.7984C27.7205 46.7544 27.7111 46.7105 27.7017 46.6696C27.6954 46.6257 27.6829 46.5848 27.6703 46.5472C27.6703 46.544 27.6703 46.5409 27.6672 46.5346C27.6546 46.4969 27.6389 46.4561 27.6232 46.4184C27.6106 46.3839 27.5949 46.3493 27.5761 46.3148C27.3532 45.8909 26.9104 45.5957 26.3892 45.5957H24.6496C24.48 45.5957 24.3105 45.6271 24.1566 45.6931C24.7187 45.916 25.0829 46.5095 24.9793 47.1469L22.7718 60.8626C21.9272 64.9195 20.2912 67.2274 17.9393 67.9402C17.1637 68.1757 16.3411 68.1789 15.5403 68.0564C13.1319 67.6859 10.6419 68.3264 8.50981 69.8776C8.28687 70.0409 8.02311 70.132 7.74679 70.132H5.63354C4.97414 70.132 4.41521 69.6547 4.30845 69.0078L0.659731 46.3179C0.53099 46.5629 0.477609 46.8549 0.52471 47.1532L4.30845 70.6815C4.41207 71.3315 4.97414 71.8056 5.63354 71.8056H7.74679C8.02311 71.8056 8.28687 71.7114 8.50981 71.5513C11.945 69.0549 16.3065 68.9136 19.7606 71.5607C19.8893 71.6612 20.04 71.7302 20.1939 71.7679C20.2316 71.7773 20.2724 71.7868 20.3132 71.7899C20.3446 71.7962 20.376 71.7993 20.4105 71.8025C20.4419 71.8056 20.4765 71.8056 20.511 71.8056H22.6086C23.268 71.8056 23.8269 71.3283 23.9305 70.6815L27.7143 47.1532C27.7268 47.081 27.7331 47.0088 27.7331 46.9334C27.73 46.8863 27.7268 46.8423 27.7237 46.7984Z" fill="#111111"/>
</g>
<path d="M78.3103 42.5218H56.1322C55.476 42.5218 54.9453 41.9911 54.9453 41.3348V41.2846C54.9453 40.6283 55.476 40.0977 56.1322 40.0977H78.3103C78.9666 40.0977 79.4972 40.6283 79.4972 41.2846V41.3348C79.4941 41.9911 78.9634 42.5218 78.3103 42.5218Z" fill="#111111"/>
<g opacity="0.3">
<path opacity="0.3" d="M79.4972 41.2877V41.338C79.4972 41.9943 78.9665 42.5249 78.3102 42.5249H73.4023C74.0555 42.5249 74.5861 41.9943 74.5861 41.338V41.2877C74.5861 40.6346 74.0555 40.104 73.4023 40.104H78.3102C78.9665 40.1008 79.4972 40.6315 79.4972 41.2877Z" fill="#111111"/>
</g>
<path d="M68.2531 38.1163L65.6562 37.7458L67.0818 28.8846C67.1572 28.3665 67.534 27.9395 68.0395 27.8045L75.8519 25.7007C76.4862 25.528 77.1425 25.9048 77.3121 26.5422L77.3749 26.7714C77.5444 27.4057 77.1707 28.062 76.5333 28.2315L69.5562 30.1093L68.2531 38.1163Z" fill="white"/>
<path d="M68.3214 38.2105L65.5645 37.818L67.0026 28.8752C67.0811 28.3257 67.4799 27.8735 68.02 27.7291L75.8324 25.6253C76.5106 25.4431 77.2108 25.8451 77.393 26.5233L77.4558 26.7525C77.6379 27.4308 77.236 28.131 76.5577 28.3131L69.6308 30.1783L68.3214 38.2105ZM65.7497 37.6798L68.1864 38.0284L69.4864 30.0527L76.5137 28.1593C77.1041 27.9991 77.4558 27.39 77.2988 26.7965L77.236 26.5673C77.0758 25.9769 76.4666 25.6253 75.8732 25.7823L68.0608 27.8861C67.5835 28.0148 67.2318 28.4136 67.1627 28.9003L65.7497 37.6798Z" fill="#111111"/>
<g opacity="0.3">
<path opacity="0.3" d="M77.376 26.7745L77.3132 26.5453C77.1876 26.0837 76.8077 25.7603 76.3681 25.6818L76.3995 25.7979C76.5722 26.4322 76.1954 27.0885 75.558 27.2581L69.212 28.9662C68.8257 29.0699 68.54 29.3901 68.474 29.7826L67.2746 37.1397L65.7862 36.9262L65.6543 37.7458L68.2511 38.1163L69.5542 30.1124L76.5314 28.2346C77.1719 28.065 77.5456 27.4088 77.376 26.7745Z" fill="#111111"/>
</g>
<path d="M68.2533 38.6218C68.2282 38.6218 68.2062 38.6187 68.1811 38.6156L65.5842 38.245C65.4492 38.2262 65.3299 38.154 65.2483 38.0441C65.1666 37.9342 65.1352 37.7992 65.1572 37.6641L66.5828 28.803C66.6833 28.0902 67.2045 27.503 67.9079 27.3146L75.7203 25.2108C76.6246 24.969 77.5572 25.5059 77.799 26.4071L77.8618 26.6363C78.1036 27.5407 77.5666 28.4733 76.6654 28.715L70.0023 30.508L68.7494 38.1917C68.7117 38.446 68.4982 38.6218 68.2533 38.6218ZM66.2374 37.3219L67.8356 37.5511L69.0603 30.0339C69.0917 29.8392 69.2361 29.679 69.4277 29.6288L76.4048 27.751C76.7722 27.6537 76.9888 27.2738 76.8884 26.9095L76.8256 26.6803C76.7282 26.3129 76.3483 26.0962 75.984 26.1967L68.1716 28.3006C67.8608 28.3853 67.6284 28.646 67.5813 28.9662L66.2374 37.3219Z" fill="#111111"/>
<path d="M75.6454 37.2088H58.7991C58.1617 37.2088 57.6122 37.6547 57.4835 38.2796L57.1035 40.1008H77.3473L76.9674 38.2796C76.8323 37.6547 76.2828 37.2088 75.6454 37.2088Z" fill="#111111"/>
<g opacity="0.3">
<path opacity="0.3" d="M77.3433 40.1008H74.1499L73.77 38.2796C73.6381 37.6547 73.0886 37.2088 72.4512 37.2088H75.6446C76.282 37.2088 76.8315 37.6579 76.9634 38.2796L77.3433 40.1008Z" fill="#111111"/>
</g>
<g opacity="0.55">
<path opacity="0.55" d="M57.681 42.5218H56.1362C55.4799 42.5218 54.9492 41.9911 54.9492 41.3348V41.2846C54.9492 40.6315 55.4799 40.1008 56.1362 40.1008H57.681C57.0279 40.1008 56.4973 40.6315 56.4973 41.2846V41.3348C56.4941 41.9911 57.0248 42.5218 57.681 42.5218Z" fill="white"/>
</g>
<g opacity="0.55">
<path opacity="0.55" d="M60.3433 37.2088C59.7058 37.2088 59.1563 37.6579 59.0245 38.2796L58.6445 40.1008H57.0996L57.4796 38.2796C57.6083 37.6547 58.1609 37.2088 58.7952 37.2088H60.3433Z" fill="white"/>
</g>
<path d="M78.3108 43.0273H56.1327C55.2001 43.0273 54.4434 42.2706 54.4434 41.338V41.2877C54.4434 40.3551 55.2001 39.5984 56.1327 39.5984H78.3108C79.2433 39.5984 80.0001 40.3551 80.0001 41.2877V41.338C80.0001 42.2674 79.2433 43.0273 78.3108 43.0273ZM56.1327 40.6063C55.7559 40.6063 55.4513 40.9109 55.4513 41.2877V41.338C55.4513 41.7148 55.7559 42.0194 56.1327 42.0194H78.3108C78.6876 42.0194 78.9921 41.7148 78.9921 41.338V41.2877C78.9921 40.9109 78.6876 40.6063 78.3108 40.6063H56.1327Z" fill="#111111"/>
<path d="M77.3432 40.6063H57.0994C56.9487 40.6063 56.8043 40.5373 56.7069 40.4211C56.6096 40.3018 56.575 40.1479 56.6033 40.0003L56.9832 38.1791C57.1622 37.3281 57.9221 36.7096 58.795 36.7096H75.6413C76.5111 36.7096 77.2741 37.3281 77.4531 38.1791L77.8331 40.0003C77.8645 40.1479 77.8268 40.3049 77.7294 40.4211C77.6384 40.5373 77.4939 40.6063 77.3432 40.6063ZM57.7211 39.5984H76.7246L76.4703 38.3832C76.3886 37.997 76.0432 37.7144 75.6476 37.7144H58.8013C58.4057 37.7144 58.0603 37.997 57.9786 38.3832L57.7211 39.5984Z" fill="#111111"/>
<path d="M77.3434 42.5218L76.6777 52.1868L76.2789 57.9582L75.5379 68.7002C75.4186 70.4272 73.9836 71.768 72.2503 71.768H62.1927C60.4626 71.768 59.0244 70.4272 58.9051 68.7002L58.2771 59.5878L57.8469 53.3517L57.0996 42.5249H77.3434V42.5218Z" fill="#E21A3D"/>
<path d="M76.6765 52.1868L76.2777 57.9582L76.0485 57.8326L72.6039 59.9427L69.1561 57.8326L65.7083 59.9427L62.2606 57.8326L58.8128 59.9427L58.2759 59.5878L57.8457 53.3486L58.8128 53.8793L62.2575 51.7692L65.7052 53.8793L69.153 51.7692L72.5976 53.8793L76.0453 51.7692L76.6765 52.1868Z" fill="white"/>
<g opacity="0.3">
<path opacity="0.3" d="M77.3431 42.5218L75.5375 68.7002C75.4182 70.4272 73.9832 71.768 72.2499 71.768H68.4316C70.1649 71.768 71.5999 70.4272 71.7193 68.7002L73.5248 42.5218H77.3431Z" fill="#111111"/>
</g>
<g opacity="0.55">
<path opacity="0.55" d="M63.4048 71.768H62.1927C60.4626 71.768 59.0244 70.4272 58.9051 68.7002L57.0996 42.5218H58.3117L60.1172 68.7002C60.2365 70.4272 61.6715 71.768 63.4048 71.768Z" fill="white"/>
</g>
<path d="M72.25 72.2736H62.1924C60.2048 72.2736 58.5374 70.7193 58.4024 68.7348L56.5969 42.5563C56.5875 42.4181 56.6346 42.28 56.7319 42.1763C56.8261 42.0727 56.9611 42.0162 57.0993 42.0162H77.3431C77.4844 42.0162 77.6163 42.0727 77.7105 42.1763C77.8047 42.28 77.8549 42.415 77.8455 42.5563L76.04 68.7348C75.9049 70.7193 74.2376 72.2736 72.25 72.2736ZM57.6394 43.0273L59.4072 68.6657C59.5077 70.1227 60.7323 71.2656 62.1924 71.2656H72.25C73.7101 71.2656 74.9347 70.1227 75.0352 68.6657L76.803 43.0273H57.6394Z" fill="#111111"/>
<path d="M62.1533 67.6986C62.1533 68.8227 61.698 69.84 60.9601 70.5748C60.2222 71.3127 59.2048 71.768 58.0807 71.768H39.2562C37.008 71.768 35.1836 69.9468 35.1836 67.6986C35.1836 67.215 35.3783 66.7754 35.6954 66.4582C35.7205 66.4331 35.7488 66.4049 35.7771 66.3829C36.0848 66.1097 36.4898 65.9464 36.9326 65.9464H60.3981C60.8565 65.9464 61.2773 66.1254 61.5881 66.4111C61.9367 66.7346 62.1533 67.1899 62.1533 67.6986Z" fill="#111111"/>
<g opacity="0.3">
<path opacity="0.3" d="M62.1524 67.6986C62.1524 68.8227 61.6971 69.84 60.9592 70.5748C60.2213 71.3127 59.2039 71.768 58.0798 71.768H53.0966C54.2207 71.768 55.2381 71.3127 55.9729 70.5748C56.425 70.1227 56.7704 69.5669 56.9714 68.9451C57.0938 68.5683 56.9023 68.1696 56.5443 68L56.5381 67.9969C56.3402 67.8399 56.1424 67.6985 55.9477 67.5761C55.64 67.3845 55.3009 67.2621 54.9523 67.2118C54.4311 67.1333 53.8879 67.2087 53.398 67.4411C53.3635 67.4568 53.3321 67.4725 53.3007 67.4882C53.2379 67.5196 53.1751 67.551 53.1123 67.5761C52.3775 67.8901 51.558 67.8336 50.6882 67.573C48.396 66.8319 46.468 66.9387 45.0141 68.1507C44.1726 68.785 43.3248 68.8195 42.4644 68.2763C41.9934 67.9623 41.5036 67.6891 40.9886 67.4725C40.4454 67.2464 39.8394 67.215 39.271 67.3751C37.7198 67.8085 36.3225 67.4976 35.7793 66.386C36.087 66.1128 36.4921 65.9496 36.9348 65.9496H60.4003C60.4568 65.9496 60.5133 65.9527 60.5699 65.959C60.595 65.9621 60.6232 65.9653 60.6515 65.9684C60.708 65.9778 60.7614 65.9872 60.8179 65.9998C60.843 66.0061 60.865 66.0124 60.887 66.0186C60.9435 66.0343 60.9969 66.0532 61.0534 66.0752C61.1037 66.094 61.1508 66.116 61.201 66.1411C61.2387 66.1599 61.2764 66.1819 61.3109 66.2039C61.3235 66.2133 61.3392 66.2227 61.3549 66.2322C61.3925 66.2573 61.4302 66.2824 61.471 66.3107C61.5119 66.3452 61.5527 66.3797 61.5935 66.4143C61.9358 66.7346 62.1524 67.1899 62.1524 67.6986Z" fill="#111111"/>
</g>
<g opacity="0.55">
<path opacity="0.55" d="M40.4777 71.768H39.2562C37.008 71.768 35.1836 69.9468 35.1836 67.6986C35.1836 67.215 35.3783 66.7754 35.6954 66.4582C36.0126 66.1411 36.4522 65.9464 36.9357 65.9464H38.1572C37.6736 65.9464 37.234 66.1411 36.9169 66.4582C36.5997 66.7754 36.4051 67.2118 36.4051 67.6986C36.4051 69.9468 38.2294 71.768 40.4777 71.768Z" fill="white"/>
</g>
<path d="M58.0804 72.2736H39.2528C36.7313 72.2736 34.6777 70.22 34.6777 67.6985C34.6777 66.4551 35.6888 65.444 36.9323 65.444H60.3977C61.6412 65.444 62.6523 66.4551 62.6523 67.6985C62.6554 70.2231 60.605 72.2736 58.0804 72.2736ZM36.9354 66.452C36.2478 66.452 35.6888 67.0109 35.6888 67.6985C35.6888 69.6642 37.2902 71.2656 39.2559 71.2656H58.0835C60.0492 71.2656 61.6506 69.6642 61.6506 67.6985C61.6506 67.0109 61.0917 66.452 60.404 66.452H36.9354Z" fill="#111111"/>
<path d="M59.1356 66.0563C58.7651 65.9998 58.3852 66.1191 58.1371 66.3985C57.6567 66.9386 57.1229 67.0674 56.5357 66.7848C56.3379 66.6278 56.14 66.4865 55.9454 66.364C55.6376 66.1725 55.2985 66.05 54.95 65.9998C54.4287 65.9213 53.8855 65.9966 53.3957 66.229C53.3611 66.2447 53.3297 66.2604 53.2983 66.2761C53.2355 66.3075 53.1727 66.3389 53.1099 66.364C52.3751 66.678 51.5556 66.6215 50.6858 66.3609C48.3936 65.6198 46.4656 65.7266 45.0118 66.9386C44.1702 67.5729 43.3224 67.6075 42.4621 67.0642C41.991 66.7502 41.5012 66.4771 40.9862 66.2604C40.443 66.0343 39.837 66.0029 39.2686 66.163C37.08 66.7754 35.196 65.9056 35.5791 63.3904L56.6393 63.381L61.7984 63.3778C62.0496 65.9401 60.6617 66.2855 59.1356 66.0563Z" fill="white"/>
<g opacity="0.55">
<path opacity="0.55" d="M53.2889 66.2824C52.5102 66.6843 51.6278 66.6404 50.6858 66.3578C48.3936 65.6167 46.4656 65.7235 45.0118 66.9355C44.1702 67.5698 43.3224 67.6044 42.4621 67.0611C41.991 66.7471 41.5012 66.4739 40.9862 66.2573C40.443 66.0312 39.837 65.9998 39.2686 66.1599C37.08 66.7723 35.196 65.9025 35.5791 63.3873H36.204C36.2291 65.3812 37.9624 66.0375 39.9437 65.4848C40.5121 65.3278 41.115 65.3592 41.6582 65.5853C42.1732 65.802 42.663 66.0752 43.134 66.386C43.9912 66.9293 44.8422 66.8947 45.6837 66.2604C47.1376 65.0452 49.0687 64.9385 51.3578 65.6795C51.9575 65.8648 52.6577 66.1819 53.2889 66.2824Z" fill="white"/>
</g>
<path d="M43.6538 67.9466C43.1639 67.9466 42.6741 67.7927 42.1905 67.4882C41.707 67.1679 41.2517 66.9198 40.7901 66.7251C40.3567 66.543 39.8669 66.5147 39.4053 66.6435C37.9797 67.0423 36.7017 66.8601 35.8948 66.1474C35.3955 65.7046 34.846 64.8537 35.0783 63.3119C35.1192 63.0356 35.3767 62.8472 35.653 62.888C35.9293 62.9288 36.1177 63.1863 36.0769 63.4626C35.9858 64.0655 35.9952 64.8913 36.5636 65.3906C37.1005 65.8648 38.0614 65.9715 39.1353 65.6701C39.8135 65.4817 40.542 65.5225 41.1826 65.7925C41.7038 66.0123 42.2156 66.2887 42.7432 66.6403C43.412 67.0642 44.0369 67.0328 44.6994 66.5399C46.2223 65.2744 48.2885 65.0515 50.8413 65.8742C51.7456 66.1474 52.4773 66.1317 53.0645 65.8239C54.0661 65.3027 55.2719 65.3435 56.2108 65.9338C56.3992 66.0532 56.597 66.1913 56.8011 66.3483C57.068 66.4676 57.3694 66.499 57.7557 66.0594C58.1105 65.6575 58.6537 65.4691 59.2064 65.5507C60.0353 65.6732 60.5943 65.5853 60.9145 65.2807C61.2568 64.9573 61.3855 64.3293 61.2945 63.4187C61.2662 63.1423 61.4703 62.8943 61.7467 62.866C62.0261 62.8378 62.271 63.0419 62.2962 63.3182C62.4155 64.5522 62.1863 65.4597 61.6054 66.0092C61.0433 66.543 60.208 66.7188 59.0525 66.5461C58.839 66.5147 58.6317 66.5807 58.5061 66.7251C57.8781 67.4348 57.0994 67.6137 56.3081 67.2307C56.2767 67.215 56.2453 67.1961 56.2139 67.171C56.0224 67.0203 55.8402 66.8884 55.6675 66.7816C55.0301 66.3829 54.2074 66.3546 53.5229 66.7126C52.6908 67.1459 51.7111 67.1836 50.5336 66.8287C48.2853 66.1034 46.5866 66.2604 45.3274 67.3123C45.3211 67.3186 45.3149 67.3217 45.3086 67.328C44.7748 67.7456 44.2158 67.9466 43.6538 67.9466Z" fill="#111111"/>
<path d="M62.8412 53.2638V54.5921C62.8412 55.8041 61.8583 56.7838 60.6494 56.7838H36.6878C35.4758 56.7838 34.4961 55.801 34.4961 54.5921V53.2638C34.4961 53.1696 34.5024 53.0786 34.5149 52.9875C34.65 51.9042 35.5731 51.0689 36.691 51.0689H60.6494C61.7987 51.0689 62.747 51.9576 62.8349 53.088C62.8412 53.1476 62.8412 53.2042 62.8412 53.2638Z" fill="#F0F712"/>
<g opacity="0.3">
<path opacity="0.3" d="M62.8403 53.2638V54.5921C62.8403 55.8041 61.8575 56.7838 60.6486 56.7838H54.9714C56.1835 56.7838 57.1632 55.801 57.1632 54.5921V54.4476C56.9748 54.4476 56.7801 54.4005 56.5791 54.3032C56.3813 54.1462 56.1835 54.0049 55.9888 53.8824C55.1912 53.3831 54.177 53.358 53.3417 53.7945C52.5599 54.1996 51.6744 54.1587 50.7292 53.8761C48.4401 53.1351 46.509 53.2418 45.0552 54.457C44.2137 55.0913 43.3658 55.1259 42.5055 54.5826C42.0345 54.2686 41.5446 53.9986 41.0297 53.7819C40.4864 53.5527 39.8804 53.5244 39.3121 53.6814C36.9099 54.3377 34.8564 54.0331 34.5078 52.9906C34.6428 51.9073 35.566 51.0721 36.6839 51.0721H60.6486C61.7978 51.0721 62.7461 51.9607 62.8341 53.0911C62.8403 53.1476 62.8403 53.2042 62.8403 53.2638Z" fill="#111111"/>
</g>
<g opacity="0.55">
<path opacity="0.55" d="M37.9093 56.7869H36.6878C35.4758 56.7869 34.4961 55.8041 34.4961 54.5952V53.267C34.4961 52.0549 35.4789 51.0721 36.6878 51.0721H37.9093C36.6973 51.0721 35.7176 52.0549 35.7176 53.267V54.5952C35.7176 55.8041 36.7004 56.7869 37.9093 56.7869Z" fill="white"/>
</g>
<path d="M62.8404 60.6554V61.6634C62.8404 62.6086 62.0711 63.3779 61.1259 63.3779H36.2066C35.2615 63.3779 34.4922 62.6086 34.4922 61.6634V60.6554C34.4922 59.7103 35.2615 58.941 36.2066 58.941H61.1259C62.0711 58.9378 62.8404 59.7072 62.8404 60.6554Z" fill="#E21A3D"/>
<g opacity="0.3">
<path opacity="0.3" d="M62.8418 60.6554V61.6634C62.8418 62.6086 62.0725 63.3779 61.1274 63.3779H56.9417C57.2149 63.3779 57.4692 63.3151 57.6985 63.202L55.3748 63.1518L55.0545 63.3779H51.0353L46.7523 61.0291C46.1934 60.7214 45.5685 60.5644 44.9311 60.5644H44.5511C43.9734 60.5644 43.4019 60.4105 42.8995 60.1154L41.2949 59.1765H57.8084C57.554 59.0258 57.2557 58.941 56.9386 58.941H61.1242C62.0725 58.9378 62.8418 59.7072 62.8418 60.6554Z" fill="#111111"/>
</g>
<g opacity="0.55">
<path opacity="0.55" d="M37.432 63.3778H36.2106C35.2654 63.3778 34.4961 62.6085 34.4961 61.6634V60.6554C34.4961 59.7103 35.2654 58.941 36.2106 58.941H37.432C36.4869 58.941 35.7176 59.7103 35.7176 60.6554V61.6634C35.7176 62.6085 36.4837 63.3778 37.432 63.3778Z" fill="white"/>
</g>
<path d="M60.644 57.2925H36.6856C35.1972 57.2925 33.9883 56.0804 33.9883 54.5952V53.267C33.9883 51.7786 35.2003 50.5697 36.6856 50.5697H60.644C62.1324 50.5697 63.3413 51.7817 63.3413 53.267V54.5952C63.3445 56.0804 62.1324 57.2925 60.644 57.2925ZM36.6856 51.5745C35.753 51.5745 34.9962 52.3312 34.9962 53.2638V54.592C34.9962 55.5246 35.753 56.2814 36.6856 56.2814H60.644C61.5766 56.2814 62.3334 55.5246 62.3334 54.592V53.2638C62.3334 52.3312 61.5766 51.5745 60.644 51.5745H36.6856Z" fill="#111111"/>
<path d="M59.1353 52.1617C58.7774 52.0486 58.3849 52.2245 58.1368 52.5039C57.6564 53.0471 57.1226 53.1727 56.5354 52.8901C56.3376 52.7331 56.1397 52.5918 55.945 52.4694C55.1475 51.9701 54.1332 51.945 53.298 52.3815C52.6574 52.7112 51.9478 52.7457 51.1942 52.5918H51.191C51.0246 52.5573 50.8551 52.5133 50.6855 52.4631C48.3933 51.7221 46.4653 51.8288 45.0114 53.044C44.1699 53.6783 43.3221 53.7128 42.4617 53.1696C41.9907 52.8556 41.5009 52.5856 40.9859 52.3689C40.4427 52.1397 39.8367 52.1114 39.2683 52.2684C35.5285 53.2921 32.624 51.9795 35.7201 49.1849L54.4849 49.4016L61.7981 49.4864C64.2033 51.8414 62.1529 53.1225 59.1353 52.1617Z" fill="white"/>
<g opacity="0.55">
<path opacity="0.55" d="M53.418 52.3218C53.3772 52.3407 53.3363 52.3595 53.2987 52.3815C52.5168 52.7865 51.6313 52.7457 50.6862 52.4631C48.3939 51.7221 46.466 51.8288 45.0121 53.044C44.1706 53.6783 43.3228 53.7129 42.4624 53.1696C41.9914 52.8556 41.5016 52.5856 40.9866 52.3689C40.4434 52.1397 39.8373 52.1114 39.269 52.2684C35.6642 53.2544 32.8414 52.0737 35.4005 49.4895C34.0534 51.5399 36.6628 52.3972 39.8907 51.5117C40.4591 51.3578 41.062 51.3861 41.6083 51.6122C42.1233 51.8288 42.6131 52.102 43.0841 52.4129C43.9414 52.9561 44.7923 52.9216 45.6338 52.2873C47.0877 51.0721 49.0157 50.9653 51.3079 51.7064C51.9924 51.9105 52.7523 52.2873 53.418 52.3218Z" fill="white"/>
</g>
<path d="M61.1256 63.8834H36.2063C34.9817 63.8834 33.9863 62.888 33.9863 61.6634V60.6554C33.9863 59.4308 34.9817 58.4354 36.2063 58.4354H61.1256C62.3502 58.4354 63.3456 59.4308 63.3456 60.6554V61.6634C63.3456 62.888 62.3502 63.8834 61.1256 63.8834ZM36.2063 59.4434C35.5375 59.4434 34.9974 59.9866 34.9974 60.6554V61.6634C34.9974 62.3322 35.5406 62.8754 36.2063 62.8754H61.1256C61.7945 62.8754 62.3377 62.3322 62.3377 61.6634V60.6554C62.3377 59.9866 61.7945 59.4434 61.1256 59.4434H36.2063Z" fill="#111111"/>
<path d="M43.6547 54.052C43.1648 54.052 42.675 53.8981 42.1914 53.5935C41.7078 53.2732 41.2525 53.0252 40.7909 52.8305C40.3639 52.6515 39.8709 52.6233 39.4031 52.752C36.8596 53.4459 34.7275 53.1351 34.0933 51.9795C33.7573 51.3672 33.7102 50.3185 35.3807 48.8081C35.5879 48.6228 35.9051 48.6385 36.0935 48.8458C36.2787 49.053 36.263 49.3702 36.0558 49.5586C35.1577 50.3687 34.7558 51.0941 34.9756 51.496C35.3022 52.0894 36.9821 52.3689 39.133 51.7817C39.8175 51.5933 40.5429 51.6373 41.1772 51.9042C41.6984 52.124 42.2102 52.4003 42.7378 52.752C43.4066 53.1759 44.0315 53.1445 44.694 52.6515C46.2169 51.3861 48.2831 51.1631 50.8359 51.9858C51.7402 52.259 52.4719 52.2433 53.0591 51.9356C54.0607 51.4143 55.2665 51.4552 56.2054 52.0455C56.3938 52.1648 56.5916 52.303 56.7957 52.46C57.0626 52.5793 57.364 52.6107 57.7503 52.1711C58.1585 51.7095 58.7614 51.5148 59.2795 51.6812C60.8149 52.1711 62.0113 51.9984 62.2813 51.5525C62.4886 51.2102 62.1652 50.5571 61.4398 49.8443C61.242 49.6496 61.2388 49.3294 61.4335 49.1315C61.6282 48.9337 61.9485 48.9306 62.1463 49.1253C63.6629 50.6168 63.4243 51.6122 63.1448 52.0737C62.5608 53.0409 60.9248 53.2638 58.9749 52.6452C58.843 52.6044 58.6452 52.686 58.507 52.8431C57.879 53.5527 57.1003 53.7317 56.309 53.3486C56.2745 53.3329 56.2462 53.3141 56.2148 53.2889C56.0264 53.1382 55.8411 53.0063 55.6684 52.8996C55.031 52.5008 54.2083 52.4725 53.5238 52.8305C52.6917 53.2638 51.712 53.3015 50.5345 52.9467C48.2862 52.2213 46.5875 52.3783 45.3283 53.4302C45.322 53.4365 45.3157 53.4397 45.3095 53.4459C44.7756 53.851 44.2167 54.052 43.6547 54.052Z" fill="#111111"/>
<path d="M60.4004 49.725C60.369 49.7281 60.3345 49.7281 60.3031 49.7281H37.0323C35.8108 49.7281 34.9191 48.5632 35.255 47.3888C36.847 41.809 42.2479 37.705 48.6693 37.705C50.7071 37.705 52.6414 38.1194 54.3841 38.8605C58.1365 40.4588 60.997 43.58 62.0835 47.3888C62.4069 48.5286 61.5685 49.6653 60.4004 49.725Z" fill="#111111"/>
<g opacity="0.55">
<path opacity="0.55" d="M54.7443 39.0206C53.2025 38.4617 51.5289 38.1571 49.7768 38.1571C43.3554 38.1571 37.9545 42.2643 36.3625 47.841C36.1553 48.56 36.4128 49.2791 36.9246 49.725C35.7597 49.6591 34.9307 48.5255 35.2541 47.3857C36.8461 41.8058 42.247 37.7018 48.6683 37.7018C50.8444 37.7018 52.9105 38.176 54.7443 39.0206Z" fill="white"/>
</g>
<path d="M60.304 50.2337H37.0301C36.2859 50.2337 35.6014 49.8914 35.1524 49.298C34.7065 48.7076 34.5652 47.9603 34.7693 47.2507C36.4586 41.3317 42.1735 37.1994 48.6671 37.1994C55.1606 37.1994 60.8755 41.3317 62.5648 47.2507C62.7689 47.9603 62.6276 48.7076 62.1818 49.298C61.7327 49.8914 61.0482 50.2337 60.304 50.2337ZM48.6671 38.2074C42.6193 38.2074 37.3033 42.0382 35.7395 47.527C35.6234 47.9289 35.705 48.3528 35.9593 48.6888C36.2168 49.0279 36.6062 49.2226 37.0332 49.2226H60.304C60.7279 49.2226 61.1204 49.0279 61.3779 48.6888C61.6323 48.3528 61.7108 47.9289 61.5977 47.527C60.0308 42.0382 54.7148 38.2074 48.6671 38.2074Z" fill="#111111"/>
<path d="M62.1522 57.7949V57.9299C62.1522 58.4857 61.7 58.9378 61.1442 58.9378H36.1935C35.6377 58.9378 35.1855 58.4857 35.1855 57.9299V57.7949C35.1855 57.2391 35.6377 56.7869 36.1935 56.7869H61.1442C61.7 56.7869 62.1522 57.2391 62.1522 57.7949Z" fill="#E21A3D"/>
<g opacity="0.55">
<path opacity="0.55" d="M40.6954 57.0067H39.3672V58.941H40.6954V57.0067Z" fill="white"/>
</g>
<g opacity="0.55">
<path opacity="0.55" d="M42.1247 57.0067H41.459V58.941H42.1247V57.0067Z" fill="white"/>
</g>
<g opacity="0.55">
<path opacity="0.55" d="M56.0724 57.0067H54.7441V58.941H56.0724V57.0067Z" fill="white"/>
</g>
<g opacity="0.55">
<path opacity="0.55" d="M57.4997 57.0067H56.834V58.941H57.4997V57.0067Z" fill="white"/>
</g>
<g opacity="0.3">
<path opacity="0.3" d="M59.1345 52.1616C58.7765 52.0486 58.384 52.2244 58.136 52.5039C57.6556 53.0471 57.1217 53.1727 56.5346 52.8901C56.3367 52.7331 56.1389 52.5918 55.9442 52.4694C55.1467 51.9701 54.1324 51.945 53.2972 52.3814C52.6566 52.7111 51.947 52.7457 51.1934 52.5918C52.9549 52.7708 53.8938 51.8916 53.8341 49.7281L54.4841 49.4016L61.7973 49.4863C64.2025 51.8414 62.1521 53.1225 59.1345 52.1616Z" fill="#111111"/>
</g>
<g opacity="0.3">
<path opacity="0.3" d="M49.4707 57.7949V57.9299C49.4707 58.4857 49.9229 58.9378 50.4787 58.9378H52.9656C52.4098 58.9378 51.9576 58.4857 51.9576 57.9299V57.7949C51.9576 57.2391 52.4098 56.7869 52.9656 56.7869H50.4787C49.9229 56.7869 49.4707 57.2391 49.4707 57.7949Z" fill="#111111"/>
</g>
<g opacity="0.55">
<path opacity="0.55" d="M37.3019 58.9378H36.1935C35.6377 58.9378 35.1855 58.4857 35.1855 57.9299V57.7949C35.1855 57.2391 35.6377 56.7869 36.1935 56.7869H37.3019C36.7461 56.7869 36.294 57.2391 36.294 57.7949V57.9299C36.2908 58.4857 36.743 58.9378 37.3019 58.9378Z" fill="white"/>
</g>
<path d="M61.1411 59.3429H36.1904C35.4116 59.3429 34.7773 58.7086 34.7773 57.9299V57.7949C34.7773 57.0162 35.4116 56.3819 36.1904 56.3819H61.1411C61.9198 56.3819 62.5541 57.0162 62.5541 57.7949V57.9299C62.5541 58.7086 61.9198 59.3429 61.1411 59.3429ZM36.1904 57.1889C35.8575 57.1889 35.5843 57.4589 35.5843 57.7949V57.9299C35.5843 58.2627 35.8544 58.5359 36.1904 58.5359H61.1411C61.4739 58.5359 61.7471 58.2659 61.7471 57.9299V57.7949C61.7471 57.462 61.477 57.1889 61.1411 57.1889H36.1904Z" fill="#111111"/>
<path d="M48.7662 59.3429H36.1904C35.4116 59.3429 34.7773 58.7086 34.7773 57.9299V57.7949C34.7773 57.0162 35.4116 56.3819 36.1904 56.3819H48.7662C49.5449 56.3819 50.1792 57.0162 50.1792 57.7949V57.9299C50.1792 58.7086 49.5449 59.3429 48.7662 59.3429ZM36.1904 57.1889C35.8575 57.1889 35.5843 57.4589 35.5843 57.7949V57.9299C35.5843 58.2627 35.8544 58.5359 36.1904 58.5359H48.7662C49.099 58.5359 49.3722 58.2659 49.3722 57.9299V57.7949C49.3722 57.462 49.1022 57.1889 48.7662 57.1889H36.1904Z" fill="#111111"/>
<g opacity="0.3">
<path opacity="0.3" d="M49.7781 57.7949V57.9299C49.7781 58.4857 49.3259 58.9378 48.7701 58.9378H46.2832C46.839 58.9378 47.2912 58.4857 47.2912 57.9299V57.7949C47.2912 57.2391 46.839 56.7869 46.2832 56.7869H48.7701C49.3259 56.7869 49.7781 57.2391 49.7781 57.7949Z" fill="#111111"/>
</g>
<g opacity="0.3">
<path opacity="0.3" d="M62.1531 57.7949V57.9299C62.1531 58.4857 61.7009 58.9378 61.1451 58.9378H58.6582C59.214 58.9378 59.6661 58.4857 59.6661 57.9299V57.7949C59.6661 57.2391 59.214 56.7869 58.6582 56.7869H61.1451C61.7009 56.7869 62.1531 57.2391 62.1531 57.7949Z" fill="#111111"/>
</g>
<path d="M59.7889 58.9378V59.5093C59.7889 59.7354 59.6979 59.9364 59.5503 60.0871C59.4027 60.2347 59.1986 60.3257 58.9756 60.3257C58.153 60.3257 57.3522 60.5801 56.6834 61.0574L53.4178 63.3778L53.3581 63.4187C52.526 64.009 51.4301 64.0749 50.5384 63.5819L50.1616 63.3747L45.4515 60.7905C44.8926 60.4827 44.2677 60.3257 43.6303 60.3257H43.2504C42.6726 60.3257 42.1011 60.1719 41.5987 59.8767L39.9941 58.9378H59.7889Z" fill="#F0F712"/>
<g opacity="0.55">
<path opacity="0.55" d="M53.5905 63.2554L53.4178 63.3778L53.3581 63.4187C52.526 64.009 51.4301 64.0749 50.5384 63.5819L50.1616 63.3747L45.4515 60.7905C44.8926 60.4827 44.2677 60.3257 43.6303 60.3257H43.2504C42.6726 60.3257 42.1011 60.1719 41.5987 59.8767L39.9941 58.9378H41.8813L42.5721 59.3429C43.0714 59.6349 43.6429 59.7919 44.2238 59.7919H44.6037C45.2411 59.7919 45.866 59.9521 46.4249 60.2566L51.135 62.8409L51.5118 63.0481C52.1586 63.4061 52.9122 63.472 53.5905 63.2554Z" fill="white"/>
</g>
<path d="M51.8114 64.3136C51.3059 64.3136 50.7972 64.188 50.3387 63.9368L45.2519 61.1453C44.7558 60.8721 44.1937 60.7277 43.6254 60.7277H43.2454C42.5954 60.7277 41.9549 60.555 41.3928 60.2253L39.7851 59.2864C39.6281 59.1953 39.5527 59.0069 39.5998 58.8311C39.6469 58.6552 39.8071 58.5328 39.9892 58.5328H59.7871C60.01 58.5328 60.1922 58.7149 60.1922 58.9378V59.5093C60.1922 59.8328 60.0666 60.1373 59.8373 60.3697C59.605 60.6021 59.3004 60.7277 58.9738 60.7277C58.2296 60.7277 57.52 60.9537 56.9171 61.3839L53.5887 63.7484C53.0612 64.1252 52.4363 64.3136 51.8114 64.3136ZM41.4776 59.3429L41.801 59.5313C42.2406 59.7888 42.7399 59.9238 43.2485 59.9238H43.6285C44.3319 59.9238 45.0289 60.1028 45.6444 60.4388L50.7312 63.2303C51.4849 63.6448 52.4237 63.5914 53.124 63.0921L53.1868 63.0481L56.4524 60.7308C57.1934 60.2033 58.0664 59.927 58.977 59.927C59.0869 59.927 59.1905 59.883 59.2659 59.8076C59.3192 59.7543 59.3852 59.6569 59.3852 59.5156V59.346H41.4776V59.3429Z" fill="#111111"/>
<path d="M49.4454 41.8466C49.458 42.1952 49.3857 42.4809 49.2821 42.4872C49.1785 42.4935 49.0874 42.2109 49.0717 41.8623C49.0592 41.5138 49.1314 41.228 49.235 41.2218C49.3386 41.2186 49.4328 41.4981 49.4454 41.8466Z" fill="white"/>
<path d="M44.6622 41.1024C44.3388 41.2312 44.0436 41.2594 44.006 41.1652C43.9683 41.071 44.2006 40.8889 44.5241 40.757C44.8475 40.6252 45.1426 40.6 45.1803 40.6942C45.218 40.7884 44.9888 40.9737 44.6622 41.1024Z" fill="white"/>
<path d="M53.5462 40.9329C53.8351 41.1276 54.0235 41.3568 53.967 41.4416C53.9105 41.5264 53.6279 41.4385 53.339 41.2406C53.0501 41.0428 52.8617 40.8167 52.9182 40.7319C52.9747 40.6472 53.2573 40.7382 53.5462 40.9329Z" fill="white"/>
<path d="M51.881 42.3459C52.0348 42.6599 52.0882 42.9488 51.9972 42.9959C51.9061 43.043 51.7051 42.8232 51.5481 42.5123C51.3911 42.2015 51.3409 41.9095 51.432 41.8624C51.523 41.8153 51.724 42.0319 51.881 42.3459Z" fill="white"/>
<path d="M46.5921 42.0848C46.743 41.7687 46.7905 41.4767 46.6982 41.4326C46.6058 41.3885 46.4086 41.609 46.2577 41.9251C46.1067 42.2413 46.0592 42.5333 46.1516 42.5774C46.2439 42.6214 46.4411 42.4009 46.5921 42.0848Z" fill="white"/>
<g opacity="0.3">
<path opacity="0.3" d="M60.4003 49.725H46.8008C58.4534 50.2619 58.824 41.0868 54.3777 38.8573H54.3808C58.1332 40.4556 60.9937 43.5768 62.0802 47.3857C62.4068 48.5286 61.5684 49.6653 60.4003 49.725Z" fill="#111111"/>
</g>
<g opacity="0.3">
<path opacity="0.3" d="M59.1349 66.0563C58.7644 65.9998 58.3844 66.1191 58.1364 66.3985C57.6559 66.9386 57.1221 67.0674 56.5349 66.7848C56.3371 66.6278 56.1393 66.4865 55.9446 66.364C55.6369 66.1725 55.2978 66.05 54.9492 65.9998C56.177 65.6481 56.8489 64.8631 56.6103 63.3904L56.6386 63.381L61.7976 63.3778C62.0488 65.9401 60.6609 66.2855 59.1349 66.0563Z" fill="#111111"/>
</g>
<g opacity="0.3">
<path opacity="0.3" d="M41.9986 46.6941C42.0564 46.4494 41.9049 46.2041 41.6602 46.1463C41.4155 46.0886 41.1702 46.2401 41.1124 46.4848C41.0547 46.7295 41.2062 46.9748 41.4509 47.0325C41.6956 47.0903 41.9409 46.9388 41.9986 46.6941Z" fill="#111111"/>
</g>
<g opacity="0.3">
<path opacity="0.3" d="M53.7471 45.4509C53.9249 45.2731 53.9249 44.9848 53.7471 44.807C53.5693 44.6292 53.281 44.6292 53.1032 44.807C52.9254 44.9848 52.9254 45.2731 53.1032 45.4509C53.281 45.6287 53.5693 45.6287 53.7471 45.4509Z" fill="#111111"/>
</g>
<g opacity="0.3">
<path opacity="0.3" d="M43.3057 45.1594C43.3057 45.285 43.2052 45.3855 43.0796 45.3855C42.954 45.3855 42.8535 45.285 42.8535 45.1594C42.8535 45.0338 42.954 44.9333 43.0796 44.9333C43.2052 44.9333 43.3057 45.0338 43.3057 45.1594Z" fill="#111111"/>
</g>
<g opacity="0.3">
<path opacity="0.3" d="M53.0283 46.7671C53.0283 46.8927 52.9279 46.9932 52.8023 46.9932C52.6767 46.9932 52.5762 46.8927 52.5762 46.7671C52.5762 46.6415 52.6767 46.541 52.8023 46.541C52.9279 46.541 53.0283 46.6415 53.0283 46.7671Z" fill="#111111"/>
</g>
<g opacity="0.3">
<path opacity="0.3" d="M43.328 46.8864C43.4962 46.8864 43.6326 46.7501 43.6326 46.5818C43.6326 46.4136 43.4962 46.2773 43.328 46.2773C43.1598 46.2773 43.0234 46.4136 43.0234 46.5818C43.0234 46.7501 43.1598 46.8864 43.328 46.8864Z" fill="#111111"/>
</g>
<g opacity="0.3">
<path opacity="0.3" d="M51.3886 46.9084C51.5568 46.9084 51.6932 46.772 51.6932 46.6038C51.6932 46.4356 51.5568 46.2992 51.3886 46.2992C51.2204 46.2992 51.084 46.4356 51.084 46.6038C51.084 46.772 51.2204 46.9084 51.3886 46.9084Z" fill="#111111"/>
</g>
</g>
<defs>
<clipPath id="clip0">
<rect width="80" height="80" fill="white"/>
</clipPath>
</defs>
</svg>
