<svg width="80" height="80" viewBox="0 0 80 80" fill="none" xmlns="http://www.w3.org/2000/svg">
<path d="M63.1341 61.1737C63.1341 63.0967 62.3553 64.8371 61.0929 66.0941C59.8306 67.3564 58.0903 68.1352 56.1673 68.1352H23.9649C20.1189 68.1352 16.998 65.0198 16.998 61.1737C16.998 60.3465 17.3311 59.5945 17.8736 59.052C17.9166 59.009 17.9649 58.9607 18.0133 58.9231C18.5397 58.4557 19.2326 58.1764 19.99 58.1764H60.1314C60.9157 58.1764 61.6355 58.4826 62.1673 58.9714C62.7635 59.5247 63.1341 60.3036 63.1341 61.1737Z" fill="#111111"/>
<g opacity="0.3">
<path opacity="0.3" d="M63.1331 61.1737C63.1331 63.0967 62.3542 64.837 61.0919 66.094C59.8296 67.3563 58.0892 68.1352 56.1662 68.1352H47.6416C49.5646 68.1352 51.305 67.3563 52.5619 66.094C53.3354 65.3205 53.9263 64.3697 54.27 63.3062C54.4795 62.6616 54.1519 61.9794 53.5395 61.6893L53.5288 61.684C53.1904 61.4154 52.852 61.1737 52.5189 60.9642C51.9925 60.6365 51.4124 60.427 50.8162 60.3411C49.9245 60.2068 48.9952 60.3357 48.1572 60.7332C48.0982 60.7601 48.0444 60.7869 47.9907 60.8138C47.8833 60.8675 47.7759 60.9212 47.6684 60.9642C46.4115 61.5013 45.0095 61.4046 43.5216 60.9588C39.6004 59.6911 36.3023 59.8738 33.8153 61.9472C32.3757 63.0322 30.9254 63.0913 29.4536 62.162C28.6478 61.6249 27.8099 61.1576 26.9289 60.7869C25.9997 60.4002 24.963 60.3465 23.9907 60.6204C21.3372 61.3617 18.9469 60.8299 18.0176 58.9284C18.544 58.461 19.2369 58.1817 19.9943 58.1817H60.1358C60.2324 58.1817 60.3291 58.1871 60.4258 58.1978C60.4688 58.2032 60.5171 58.2086 60.5655 58.214C60.6622 58.2301 60.7535 58.2462 60.8502 58.2677C60.8931 58.2784 60.9307 58.2892 60.9683 58.2999C61.065 58.3268 61.1563 58.359 61.253 58.3966C61.339 58.4288 61.4196 58.4664 61.5055 58.5094C61.57 58.5416 61.6344 58.5792 61.6935 58.6168C61.715 58.6329 61.7418 58.6491 61.7687 58.6652C61.8332 58.7081 61.8976 58.7511 61.9674 58.7995C62.0373 58.8585 62.1071 58.9176 62.1769 58.9767C62.7624 59.5246 63.1331 60.3035 63.1331 61.1737Z" fill="#111111"/>
</g>
<g opacity="0.55">
<path opacity="0.55" d="M26.0544 68.1352H23.9649C20.1189 68.1352 16.998 65.0198 16.998 61.1737C16.998 60.3465 17.3311 59.5945 17.8736 59.052C18.4161 58.5095 19.1681 58.1764 19.9954 58.1764H22.0849C21.2577 58.1764 20.5057 58.5095 19.9631 59.052C19.4206 59.5945 19.0876 60.3412 19.0876 61.1737C19.0876 65.0198 22.2084 68.1352 26.0544 68.1352Z" fill="white"/>
</g>
<path d="M56.1668 69H23.9591C19.6458 69 16.1328 65.4871 16.1328 61.1737C16.1328 59.0466 17.8624 57.317 19.9896 57.317H60.131C62.2582 57.317 63.9878 59.0466 63.9878 61.1737C63.9932 65.4924 60.4855 69 56.1668 69ZM19.9949 59.0412C18.8186 59.0412 17.8624 59.9974 17.8624 61.1737C17.8624 64.5363 20.6019 67.2758 23.9645 67.2758H56.1722C59.5348 67.2758 62.2743 64.5363 62.2743 61.1737C62.2743 59.9974 61.3181 59.0412 60.1418 59.0412H19.9949Z" fill="#111111"/>
<path d="M57.9742 58.3643C57.3404 58.2676 56.6904 58.4718 56.2661 58.9498C55.4442 59.8737 54.5311 60.094 53.5266 59.6105C53.1882 59.3419 52.8498 59.1002 52.5167 58.8907C51.9903 58.5631 51.4102 58.3536 50.814 58.2676C49.9223 58.1333 48.993 58.2623 48.1551 58.6598C48.096 58.6866 48.0423 58.7135 47.9885 58.7403C47.8811 58.7941 47.7737 58.8478 47.6662 58.8907C46.4093 59.4279 45.0073 59.3312 43.5194 58.8854C39.5982 57.6177 36.3001 57.8003 33.8131 59.8737C32.3735 60.9588 30.9232 61.0179 29.4514 60.0886C28.6457 59.5514 27.8077 59.0841 26.9268 58.7135C25.9975 58.3267 24.9608 58.273 23.9885 58.547C20.2446 59.5944 17.0217 58.1065 17.677 53.8039L53.7039 53.7878L62.5293 53.7824C62.959 58.1656 60.5848 58.7565 57.9742 58.3643Z" fill="white"/>
<g opacity="0.55">
<path opacity="0.55" d="M47.9724 58.7511C46.6403 59.4387 45.1309 59.3635 43.5194 58.8801C39.5982 57.6124 36.3001 57.795 33.8131 59.8684C32.3735 60.9535 30.9232 61.0126 29.4514 60.0833C28.6457 59.5461 27.8077 59.0788 26.9268 58.7082C25.9975 58.3214 24.9608 58.2677 23.9885 58.5416C20.2446 59.5891 17.0217 58.1012 17.677 53.7986H18.7459C18.7889 57.2095 21.754 58.3322 25.1434 57.3868C26.1157 57.1182 27.147 57.1719 28.0763 57.5587C28.9572 57.9293 29.7952 58.3966 30.6009 58.9284C32.0673 59.8577 33.523 59.7986 34.9626 58.7135C37.4496 56.6348 40.7531 56.4521 44.6689 57.7198C45.6949 58.0367 46.8928 58.5792 47.9724 58.7511Z" fill="white"/>
</g>
<path d="M31.4901 61.5981C30.6522 61.5981 29.8142 61.3349 28.987 60.8138C28.1598 60.2659 27.3809 59.8416 26.5913 59.5086C25.85 59.197 25.0121 59.1487 24.2225 59.3689C21.7838 60.0511 19.5976 59.7395 18.2171 58.5202C17.363 57.7628 16.423 56.3071 16.8205 53.6697C16.8903 53.197 17.3308 52.8747 17.8035 52.9446C18.2762 53.0144 18.5985 53.4548 18.5286 53.9275C18.3729 54.9589 18.389 56.3716 19.3612 57.2257C20.2798 58.0368 21.9235 58.2194 23.7605 57.7037C24.9208 57.3814 26.167 57.4513 27.2628 57.9132C28.1544 58.2892 29.03 58.7619 29.9324 59.3635C31.0765 60.0887 32.1455 60.035 33.2789 59.1916C35.8841 57.0269 39.4185 56.6455 43.7856 58.0529C45.3326 58.5202 46.5842 58.4933 47.5886 57.9669C49.3021 57.0753 51.3648 57.1451 52.9709 58.1549C53.2932 58.3591 53.6316 58.5954 53.9808 58.864C54.4373 59.0681 54.953 59.1218 55.6137 58.3698C56.2207 57.6822 57.15 57.3599 58.0953 57.4996C59.5134 57.7091 60.4696 57.5587 61.0175 57.0377C61.603 56.4844 61.8232 55.4101 61.6674 53.8523C61.6191 53.3796 61.9682 52.9553 62.4409 52.9069C62.919 52.8586 63.338 53.2078 63.3809 53.6804C63.585 55.7915 63.1929 57.3438 62.1992 58.2838C61.2377 59.197 59.8089 59.4978 57.8321 59.2024C57.4669 59.1487 57.1124 59.2615 56.8975 59.5086C55.8232 60.7225 54.491 61.0287 53.1374 60.3734C53.0837 60.3465 53.03 60.3143 52.9763 60.2713C52.6486 60.0135 52.3371 59.7879 52.0416 59.6052C50.9512 58.9231 49.5439 58.8747 48.3729 59.4871C46.9494 60.2283 45.2735 60.2928 43.2592 59.6858C39.4132 58.445 36.5072 58.7136 34.3532 60.513C34.3424 60.5238 34.3317 60.5291 34.3209 60.5399C33.4078 61.2543 32.4517 61.5981 31.4901 61.5981Z" fill="#111111"/>
<path d="M64.3111 36.4808V38.7529C64.3111 40.8263 62.6298 42.5023 60.5618 42.5023H19.5716C17.4982 42.5023 15.8223 40.821 15.8223 38.7529V36.4808C15.8223 36.3196 15.833 36.1639 15.8545 36.0081C16.0855 34.1549 17.6647 32.7261 19.577 32.7261H60.5618C62.5277 32.7261 64.1499 34.2462 64.3003 36.18C64.3111 36.282 64.3111 36.3787 64.3111 36.4808Z" fill="#E21A3D"/>
<g opacity="0.3">
<path opacity="0.3" d="M64.3091 36.4807V38.7529C64.3091 40.8263 62.6278 42.5022 60.5598 42.5022H50.8481C52.9215 42.5022 54.5974 40.8209 54.5974 38.7529V38.5058C54.2751 38.5058 53.9421 38.4252 53.5983 38.2587C53.2599 37.9901 52.9215 37.7484 52.5884 37.5389C51.2241 36.6849 49.4891 36.6419 48.0602 37.3885C46.7227 38.0815 45.208 38.0116 43.5911 37.5282C39.6753 36.2605 36.3718 36.4431 33.8848 38.5219C32.4452 39.607 30.9949 39.6661 29.5231 38.7368C28.7174 38.1996 27.8794 37.7377 26.9985 37.367C26.0692 36.9749 25.0325 36.9266 24.0602 37.1951C19.951 38.3178 16.438 37.7968 15.8418 36.0134C16.0728 34.1602 17.652 32.7314 19.5643 32.7314H60.5598C62.5258 32.7314 64.148 34.2516 64.2984 36.1853C64.3091 36.282 64.3091 36.3787 64.3091 36.4807Z" fill="#111111"/>
</g>
<g opacity="0.55">
<path opacity="0.55" d="M21.6611 42.5076H19.5716C17.4982 42.5076 15.8223 40.8263 15.8223 38.7583V36.4861C15.8223 34.4127 17.5036 32.7314 19.5716 32.7314H21.6611C19.5877 32.7314 17.9118 34.4127 17.9118 36.4861V38.7583C17.9118 40.8263 19.5931 42.5076 21.6611 42.5076Z" fill="white"/>
</g>
<path d="M64.3106 49.1254V50.8496C64.3106 52.4665 62.9946 53.7825 61.3777 53.7825H18.7493C17.1324 53.7825 15.8164 52.4665 15.8164 50.8496V49.1254C15.8164 47.5086 17.1324 46.1925 18.7493 46.1925H61.3777C62.9946 46.1871 64.3106 47.5032 64.3106 49.1254Z" fill="#E21A3D"/>
<g opacity="0.3">
<path opacity="0.3" d="M64.3126 49.1254V50.8496C64.3126 52.4665 62.9965 53.7825 61.3797 53.7825H54.2195C54.6868 53.7825 55.1219 53.6751 55.514 53.4817L51.5391 53.3957L50.9912 53.7825H44.1156L36.7888 49.7646C35.8327 49.2382 34.7638 48.9696 33.6733 48.9696H33.0234C32.035 48.9696 31.0574 48.7064 30.198 48.2015L27.4531 46.5954H55.702C55.2669 46.3376 54.7566 46.1925 54.2141 46.1925H61.3743C62.9965 46.1871 64.3126 47.5032 64.3126 49.1254Z" fill="#111111"/>
</g>
<g opacity="0.55">
<path opacity="0.55" d="M20.8446 53.7825H18.7551C17.1383 53.7825 15.8223 52.4665 15.8223 50.8496V49.1254C15.8223 47.5085 17.1383 46.1925 18.7551 46.1925H20.8446C19.2278 46.1925 17.9118 47.5085 17.9118 49.1254V50.8496C17.9118 52.4665 19.2224 53.7825 20.8446 53.7825Z" fill="white"/>
</g>
<path d="M60.556 43.3724H19.5712C17.0251 43.3724 14.957 41.299 14.957 38.7582V36.4861C14.957 33.94 17.0304 31.8719 19.5712 31.8719H60.556C63.1021 31.8719 65.1701 33.9454 65.1701 36.4861V38.7582C65.1755 41.299 63.1021 43.3724 60.556 43.3724ZM19.5712 33.5908C17.9758 33.5908 16.6813 34.8854 16.6813 36.4807V38.7529C16.6813 40.3482 17.9758 41.6428 19.5712 41.6428H60.556C62.1513 41.6428 63.4458 40.3482 63.4458 38.7529V36.4807C63.4458 34.8854 62.1513 33.5908 60.556 33.5908H19.5712Z" fill="#111111"/>
<path d="M57.9733 34.5954C57.3609 34.402 56.6895 34.7028 56.2651 35.1809C55.4433 36.1102 54.5301 36.325 53.5257 35.8416C53.1872 35.573 52.8488 35.3313 52.5158 35.1218C51.1514 34.2677 49.4164 34.2248 47.9876 34.9714C46.8918 35.5354 45.6778 35.5945 44.3887 35.3313H44.3833C44.0986 35.2722 43.8085 35.197 43.5185 35.1111C39.5973 33.8434 36.2991 34.026 33.8121 36.1048C32.3726 37.1898 30.9222 37.2489 29.4504 36.3197C28.6447 35.7825 27.8068 35.3205 26.9258 34.9499C25.9966 34.5578 24.9598 34.5094 23.9876 34.778C17.5901 36.5291 12.6214 34.2838 17.9178 29.5032L50.018 29.8738L62.5283 30.0188C66.6429 34.0475 63.1353 36.2391 57.9733 34.5954Z" fill="white"/>
<g opacity="0.55">
<path opacity="0.55" d="M48.1929 34.8693C48.123 34.9015 48.0532 34.9338 47.9887 34.9714C46.6512 35.6643 45.1365 35.5945 43.5196 35.111C39.5984 33.8433 36.3003 34.026 33.8133 36.1048C32.3737 37.1898 30.9234 37.2489 29.4516 36.3196C28.6459 35.7825 27.8079 35.3205 26.927 34.9499C25.9977 34.5578 24.961 34.5094 23.9887 34.778C17.8222 36.4646 12.9932 34.4449 17.371 30.0242C15.0666 33.5318 19.5304 34.9982 25.0523 33.4834C26.0246 33.2202 27.0559 33.2686 27.9905 33.6553C28.8715 34.026 29.7094 34.4933 30.5152 35.0251C31.9816 35.9543 33.4373 35.8953 34.8768 34.8102C37.3639 32.7314 40.662 32.5488 44.5832 33.8165C45.7542 34.1656 47.0541 34.8102 48.1929 34.8693Z" fill="white"/>
</g>
<path d="M61.3793 54.6473H18.7508C16.6559 54.6473 14.9531 52.9445 14.9531 50.8496V49.1253C14.9531 47.0304 16.6559 45.3277 18.7508 45.3277H61.3793C63.4742 45.3277 65.1769 47.0304 65.1769 49.1253V50.8496C65.1769 52.9445 63.4742 54.6473 61.3793 54.6473ZM18.7508 47.0519C17.6067 47.0519 16.6828 47.9812 16.6828 49.1253V50.8496C16.6828 51.9937 17.612 52.923 18.7508 52.923H61.3793C62.5234 52.923 63.4527 51.9937 63.4527 50.8496V49.1253C63.4527 47.9812 62.5234 47.0519 61.3793 47.0519H18.7508Z" fill="#111111"/>
<path d="M31.4907 37.829C30.6527 37.829 29.8147 37.5658 28.9875 37.0447C28.1603 36.4968 27.3815 36.0725 26.5918 35.7394C25.8613 35.4333 25.018 35.3849 24.2176 35.6052C19.8667 36.7923 16.2194 36.2605 15.1344 34.2838C14.5596 33.2363 14.479 31.4422 17.3367 28.8585C17.6912 28.5416 18.2337 28.5684 18.556 28.923C18.8729 29.2775 18.8461 29.82 18.4916 30.1423C16.9553 31.5282 16.2677 32.769 16.6438 33.4565C17.2024 34.4718 20.0762 34.9498 23.7557 33.9454C24.9267 33.6231 26.1675 33.6983 27.2525 34.1548C28.1442 34.5309 29.0198 35.0035 29.9222 35.6052C31.0663 36.3303 32.1352 36.2766 33.2686 35.4333C35.8738 33.2685 39.4083 32.8872 43.7754 34.2945C45.3224 34.7618 46.5739 34.735 47.5784 34.2086C49.2919 33.3169 51.3546 33.3867 52.9607 34.3966C53.283 34.6007 53.6214 34.837 53.9705 35.1056C54.4271 35.3097 54.9428 35.3634 55.6035 34.6114C56.3018 33.8218 57.3331 33.4888 58.2194 33.7735C60.8461 34.6114 62.8926 34.316 63.3546 33.5532C63.7091 32.9677 63.1558 31.8505 61.915 30.6311C61.5766 30.2981 61.5712 29.7502 61.9043 29.4118C62.2373 29.0734 62.7852 29.068 63.1236 29.401C65.7181 31.9525 65.3098 33.6553 64.8318 34.4449C63.8327 36.0993 61.0341 36.4807 57.6984 35.4225C57.4728 35.3527 57.1344 35.4924 56.898 35.7609C55.8237 36.9749 54.4916 37.2811 53.1379 36.6258C53.0789 36.5989 53.0305 36.5667 52.9768 36.5237C52.6545 36.2659 52.3376 36.0403 52.0421 35.8576C50.9517 35.1754 49.5444 35.1271 48.3734 35.7394C46.9499 36.4807 45.274 36.5452 43.2597 35.9382C39.4137 34.6974 36.5077 34.9659 34.3537 36.7654C34.343 36.7761 34.3322 36.7815 34.3215 36.7923C33.4083 37.4852 32.4522 37.829 31.4907 37.829Z" fill="#111111"/>
<path d="M60.1375 30.427C60.0837 30.4324 60.0247 30.4324 59.9709 30.4324H20.1625C18.073 30.4324 16.5475 28.4396 17.1222 26.4306C19.8456 16.8854 29.0846 9.86481 40.0694 9.86481C43.5555 9.86481 46.8644 10.5738 49.8456 11.8415C56.2646 14.5756 61.158 19.9149 63.0166 26.4306C63.5699 28.3805 62.1357 30.325 60.1375 30.427Z" fill="#111111"/>
<g opacity="0.55">
<path opacity="0.55" d="M50.4617 12.1155C47.8243 11.1594 44.9613 10.6383 41.964 10.6383C30.9792 10.6383 21.7401 17.6643 19.0168 27.2041C18.6623 28.4342 19.1027 29.6643 19.9783 30.4271C17.9855 30.3143 16.5674 28.3751 17.1206 26.4253C19.844 16.8801 29.083 9.85947 40.0678 9.85947C43.7903 9.85947 47.3247 10.6706 50.4617 12.1155Z" fill="white"/>
</g>
<path d="M59.9707 31.2972H20.1569C18.8838 31.2972 17.7129 30.7117 16.9447 29.6965C16.182 28.6867 15.9403 27.4082 16.2894 26.1943C19.1793 16.0689 28.9555 9 40.0638 9C51.1721 9 60.9483 16.0689 63.8382 26.1943C64.1873 27.4082 63.9456 28.6867 63.1829 29.6965C62.4147 30.7117 61.2437 31.2972 59.9707 31.2972ZM40.0638 10.7243C29.7182 10.7243 20.6242 17.2775 17.9492 26.667C17.7505 27.3545 17.8901 28.0797 18.3252 28.6544C18.7657 29.2346 19.4317 29.5676 20.1623 29.5676H59.9707C60.6958 29.5676 61.3673 29.2346 61.8078 28.6544C62.2428 28.0797 62.3771 27.3545 62.1838 26.667C59.5034 17.2775 50.4094 10.7243 40.0638 10.7243Z" fill="#111111"/>
<path d="M63.1346 44.2319V44.4628C63.1346 45.4136 62.3611 46.1871 61.4104 46.1871H18.7282C17.7774 46.1871 17.0039 45.4136 17.0039 44.4628V44.2319C17.0039 43.2811 17.7774 42.5076 18.7282 42.5076H61.4104C62.3611 42.5076 63.1346 43.2811 63.1346 44.2319Z" fill="#E93B47"/>
<g opacity="0.55">
<path opacity="0.55" d="M26.4304 42.8836H24.1582V46.1925H26.4304V42.8836Z" fill="white"/>
</g>
<g opacity="0.55">
<path opacity="0.55" d="M28.8732 42.8836H27.7344V46.1925H28.8732V42.8836Z" fill="white"/>
</g>
<g opacity="0.55">
<path opacity="0.55" d="M52.7331 42.8836H50.4609V46.1925H52.7331V42.8836Z" fill="white"/>
</g>
<g opacity="0.55">
<path opacity="0.55" d="M55.1739 42.8836H54.0352V46.1925H55.1739V42.8836Z" fill="white"/>
</g>
<g opacity="0.3">
<path opacity="0.3" d="M57.9733 34.5953C57.3609 34.4019 56.6895 34.7027 56.2651 35.1808C55.4433 36.1101 54.5301 36.3249 53.5257 35.8415C53.1872 35.5729 52.8488 35.3312 52.5158 35.1217C51.1514 34.2677 49.4164 34.2247 47.9876 34.9713C46.8918 35.5353 45.6778 35.5944 44.3887 35.3312C47.4021 35.6374 49.0082 34.1334 48.9061 30.4324L50.018 29.8737L62.5283 30.0188C66.6429 34.0474 63.1353 36.239 57.9733 34.5953Z" fill="#111111"/>
</g>
<g opacity="0.3">
<path opacity="0.3" d="M41.4414 44.2319V44.4628C41.4414 45.4136 42.2149 46.1871 43.1657 46.1871H47.4199C46.4692 46.1871 45.6957 45.4136 45.6957 44.4628V44.2319C45.6957 43.2811 46.4692 42.5076 47.4199 42.5076H43.1657C42.2149 42.5076 41.4414 43.2811 41.4414 44.2319Z" fill="#111111"/>
</g>
<g opacity="0.55">
<path opacity="0.55" d="M20.6243 46.1871H18.7282C17.7774 46.1871 17.0039 45.4136 17.0039 44.4628V44.2319C17.0039 43.2811 17.7774 42.5076 18.7282 42.5076H20.6243C19.6736 42.5076 18.9001 43.2811 18.9001 44.2319V44.4628C18.8947 45.4136 19.6682 46.1871 20.6243 46.1871Z" fill="white"/>
</g>
<path d="M61.4041 46.88H18.7219C17.3897 46.88 16.3047 45.795 16.3047 44.4628V44.2319C16.3047 42.8997 17.3897 41.8147 18.7219 41.8147H61.4041C62.7362 41.8147 63.8213 42.8997 63.8213 44.2319V44.4628C63.8213 45.795 62.7362 46.88 61.4041 46.88ZM18.7219 43.1952C18.1525 43.1952 17.6852 43.6571 17.6852 44.2319V44.4628C17.6852 45.0322 18.1471 45.4995 18.7219 45.4995H61.4041C61.9734 45.4995 62.4408 45.0376 62.4408 44.4628V44.2319C62.4408 43.6625 61.9788 43.1952 61.4041 43.1952H18.7219Z" fill="#111111"/>
<path d="M40.2349 46.88H18.7219C17.3897 46.88 16.3047 45.795 16.3047 44.4628V44.2319C16.3047 42.8997 17.3897 41.8147 18.7219 41.8147H40.2349C41.567 41.8147 42.6521 42.8997 42.6521 44.2319V44.4628C42.6521 45.795 41.567 46.88 40.2349 46.88ZM18.7219 43.1952C18.1525 43.1952 17.6852 43.6571 17.6852 44.2319V44.4628C17.6852 45.0322 18.1471 45.4995 18.7219 45.4995H40.2349C40.8042 45.4995 41.2716 45.0376 41.2716 44.4628V44.2319C41.2716 43.6625 40.8096 43.1952 40.2349 43.1952H18.7219Z" fill="#111111"/>
<g opacity="0.3">
<path opacity="0.3" d="M41.9648 44.2319V44.4628C41.9648 45.4136 41.1913 46.1871 40.2406 46.1871H35.9863C36.9371 46.1871 37.7106 45.4136 37.7106 44.4628V44.2319C37.7106 43.2811 36.9371 42.5076 35.9863 42.5076H40.2406C41.1913 42.5076 41.9648 43.2811 41.9648 44.2319Z" fill="#111111"/>
</g>
<g opacity="0.3">
<path opacity="0.3" d="M63.1348 44.2319V44.4628C63.1348 45.4136 62.3613 46.1871 61.4105 46.1871H57.1562C58.107 46.1871 58.8805 45.4136 58.8805 44.4628V44.2319C58.8805 43.2811 58.107 42.5076 57.1562 42.5076H61.4105C62.3613 42.5076 63.1348 43.2811 63.1348 44.2319Z" fill="#111111"/>
</g>
<path d="M59.0907 46.1871V47.1647C59.0907 47.5515 58.9349 47.8953 58.6824 48.1531C58.43 48.4056 58.0808 48.5613 57.6994 48.5613C56.2921 48.5613 54.9223 48.9964 53.7782 49.8129L48.1918 53.7825L48.0898 53.8523C46.6663 54.8622 44.7916 54.975 43.2661 54.1316L42.6215 53.7771L34.5642 49.3563C33.6081 48.8299 32.5392 48.5613 31.4488 48.5613H30.7988C29.8104 48.5613 28.8328 48.2981 27.9734 47.7932L25.2285 46.1871H59.0907Z" fill="#F0F712"/>
<g opacity="0.55">
<path opacity="0.55" d="M48.4872 53.573L48.1918 53.7825L48.0898 53.8523C46.6663 54.8622 44.7916 54.975 43.2661 54.1316L42.6215 53.7771L34.5642 49.3563C33.6081 48.8299 32.5392 48.5613 31.4488 48.5613H30.7988C29.8104 48.5613 28.8328 48.2981 27.9734 47.7932L25.2285 46.1871H28.4568L29.6385 46.8801C30.4926 47.3796 31.4702 47.6482 32.464 47.6482H33.1139C34.2043 47.6482 35.2733 47.9221 36.2294 48.4432L44.2867 52.8639L44.9313 53.2185C46.0378 53.8308 47.327 53.9436 48.4872 53.573Z" fill="white"/>
</g>
<path d="M45.4469 55.3831C44.582 55.3831 43.7118 55.1683 42.9276 54.7386L34.2257 49.9633C33.377 49.4959 32.4155 49.2488 31.4433 49.2488H30.7933C29.6814 49.2488 28.5856 48.9534 27.6241 48.3894L24.8739 46.7833C24.6053 46.6275 24.4764 46.3052 24.557 46.0044C24.6375 45.7036 24.9115 45.4941 25.223 45.4941H59.0906C59.4719 45.4941 59.7835 45.8057 59.7835 46.1871V47.1647C59.7835 47.718 59.5686 48.239 59.1765 48.6365C58.779 49.034 58.258 49.2488 57.6993 49.2488C56.4263 49.2488 55.2123 49.6356 54.181 50.3715L48.4871 54.4163C47.5847 55.0608 46.5158 55.3831 45.4469 55.3831ZM27.7691 46.88L28.3224 47.2023C29.0744 47.6428 29.9285 47.8737 30.7987 47.8737H31.4486C32.6519 47.8737 33.8443 48.1799 34.8972 48.7547L43.599 53.53C44.8882 54.239 46.4943 54.1477 47.6922 53.2936L47.7996 53.2184L53.386 49.2542C54.6537 48.3518 56.1469 47.8791 57.7047 47.8791C57.8927 47.8791 58.07 47.8039 58.1989 47.675C58.2902 47.5837 58.403 47.4172 58.403 47.1754V46.8854H27.7691V46.88Z" fill="#111111"/>
<path d="M41.3975 16.9499C41.419 17.5461 41.2954 18.0349 41.1182 18.0457C40.9409 18.0564 40.7851 17.573 40.7583 16.9768C40.7368 16.3805 40.8603 15.8917 41.0376 15.881C41.2149 15.8756 41.376 16.3537 41.3975 16.9499Z" fill="white"/>
<path d="M33.2154 15.6768C32.6622 15.8971 32.1572 15.9454 32.0928 15.7843C32.0283 15.6231 32.4258 15.3116 32.9791 15.086C33.5324 14.8604 34.0373 14.8174 34.1017 14.9785C34.1662 15.1397 33.7741 15.4566 33.2154 15.6768Z" fill="white"/>
<path d="M48.4118 15.3868C48.9059 15.7198 49.2282 16.1119 49.1315 16.257C49.0348 16.402 48.5514 16.2516 48.0572 15.9132C47.563 15.5748 47.2408 15.188 47.3374 15.043C47.4341 14.898 47.9176 15.0537 48.4118 15.3868Z" fill="white"/>
<path d="M45.5643 17.8039C45.8275 18.3411 45.9188 18.8353 45.763 18.9159C45.6072 18.9964 45.2635 18.6204 44.9949 18.0886C44.7263 17.5569 44.6404 17.0573 44.7961 16.9767C44.9519 16.8962 45.2957 17.2668 45.5643 17.8039Z" fill="white"/>
<path d="M36.518 17.3572C36.7763 16.8164 36.8575 16.3169 36.6996 16.2415C36.5416 16.166 36.2043 16.5433 35.9461 17.0841C35.6878 17.6248 35.6066 18.1243 35.7645 18.1998C35.9224 18.2752 36.2598 17.8979 36.518 17.3572Z" fill="white"/>
<g opacity="0.3">
<path opacity="0.3" d="M60.1372 30.427H36.873C56.8068 31.3455 57.4406 15.6499 49.8346 11.8362H49.8399C56.2589 14.5703 61.1524 19.9096 63.0109 26.4252C63.5696 28.3805 62.1354 30.325 60.1372 30.427Z" fill="#111111"/>
</g>
<g opacity="0.3">
<path opacity="0.3" d="M57.9708 58.3643C57.337 58.2676 56.687 58.4718 56.2627 58.9498C55.4408 59.8737 54.5276 60.094 53.5232 59.6105C53.1848 59.3419 52.8464 59.1002 52.5133 58.8907C51.9869 58.5631 51.4068 58.3536 50.8105 58.2676C52.9108 57.666 54.0603 56.3232 53.6521 53.8039L53.7004 53.7878L62.5259 53.7824C62.9556 58.1656 60.5814 58.7565 57.9708 58.3643Z" fill="#111111"/>
</g>
<g opacity="0.3">
<path opacity="0.3" d="M28.6579 25.2421C28.7567 24.8235 28.4975 24.404 28.0789 24.3051C27.6602 24.2063 27.2407 24.4655 27.1419 24.8841C27.043 25.3028 27.3023 25.7223 27.7209 25.8211C28.1395 25.92 28.559 25.6607 28.6579 25.2421Z" fill="#111111"/>
</g>
<g opacity="0.3">
<path opacity="0.3" d="M48.7538 23.1156C49.0579 22.8114 49.0579 22.3182 48.7538 22.0141C48.4496 21.7099 47.9565 21.7099 47.6523 22.0141C47.3481 22.3182 47.3481 22.8114 47.6523 23.1156C47.9565 23.4197 48.4496 23.4197 48.7538 23.1156Z" fill="#111111"/>
</g>
<g opacity="0.3">
<path opacity="0.3" d="M30.8926 22.6169C30.8926 22.8317 30.7207 23.0036 30.5059 23.0036C30.291 23.0036 30.1191 22.8317 30.1191 22.6169C30.1191 22.402 30.291 22.2301 30.5059 22.2301C30.7207 22.2301 30.8926 22.402 30.8926 22.6169Z" fill="#111111"/>
</g>
<g opacity="0.3">
<path opacity="0.3" d="M47.5255 25.3671C47.5255 25.5819 47.3536 25.7538 47.1387 25.7538C46.9239 25.7538 46.752 25.5819 46.752 25.3671C46.752 25.1522 46.9239 24.9803 47.1387 24.9803C47.3536 24.9803 47.5255 25.1522 47.5255 25.3671Z" fill="#111111"/>
</g>
<g opacity="0.3">
<path opacity="0.3" d="M30.9331 25.5712C31.2209 25.5712 31.4542 25.3379 31.4542 25.0501C31.4542 24.7624 31.2209 24.5291 30.9331 24.5291C30.6454 24.5291 30.4121 24.7624 30.4121 25.0501C30.4121 25.3379 30.6454 25.5712 30.9331 25.5712Z" fill="#111111"/>
</g>
<g opacity="0.3">
<path opacity="0.3" d="M44.7203 25.6088C45.008 25.6088 45.2413 25.3755 45.2413 25.0877C45.2413 24.8 45.008 24.5667 44.7203 24.5667C44.4325 24.5667 44.1992 24.8 44.1992 25.0877C44.1992 25.3755 44.4325 25.6088 44.7203 25.6088Z" fill="#111111"/>
</g>
</svg>
