<svg width="80" height="80" viewBox="0 0 80 80" fill="none" xmlns="http://www.w3.org/2000/svg">
<path d="M40.0086 70.8185C52.163 63.8754 63.4189 53.4691 69.5614 40.7593C71.7178 36.283 72.6654 31.1697 71.9139 26.2197C71.0807 20.845 65.5426 15.7807 60.3476 14.4411C52.0977 12.301 42.9655 18.2475 40.0086 25.942C37.0354 18.2475 27.9033 12.301 19.6697 14.4411C14.4746 15.7807 8.93655 20.8614 8.10339 26.2197C7.33557 31.1697 8.28309 36.283 10.4558 40.7593C16.5984 53.4691 27.8543 63.8754 40.0086 70.8185Z" fill="#E21A3D"/>
<path d="M38.0478 60.0364L34.2577 34.29L31.1211 43.3894H0V41.4291H29.7162L35.0419 25.9747L38.5379 49.8097L41.5601 37.5246L44.3864 46.2483L46.4938 39.8444H80V41.8211H47.915L44.3864 52.6032L41.8215 44.7127L38.0478 60.0364Z" fill="white"/>
</svg>
